<svg id="Group_579" data-name="Group 579" xmlns="http://www.w3.org/2000/svg" xmlns:xlink="http://www.w3.org/1999/xlink" width="19.583" height="40" viewBox="0 0 19.583 40">
  <defs>
    <clipPath id="clip-path">
      <rect id="Rectangle_292" data-name="Rectangle 292" width="19.583" height="40" fill="none"/>
    </clipPath>
    <clipPath id="clip-path-3">
      <path id="Path_296" data-name="Path 296" d="M9.712,0A13.753,13.753,0,0,0,5.666.575V2.268h8.257V.575A13.748,13.748,0,0,0,9.877,0Z" fill="none"/>
    </clipPath>
    <linearGradient id="linear-gradient" x1="-0.686" y1="17.637" x2="-0.565" y2="17.637" gradientUnits="objectBoundingBox">
      <stop offset="0" stop-color="#525251"/>
      <stop offset="1" stop-color="#0d0c0d"/>
    </linearGradient>
    <clipPath id="clip-path-4">
      <path id="Path_297" data-name="Path 297" d="M6.511,16.257a10.831,10.831,0,0,0-2.761.773l.108.646a9.469,9.469,0,0,1,2.794-.848,29.215,29.215,0,0,1,6.285,0,9.469,9.469,0,0,1,2.794.848l.108-.646a10.819,10.819,0,0,0-2.76-.773,25.849,25.849,0,0,0-3.285-.169,25.815,25.815,0,0,0-3.283.169" fill="none"/>
    </clipPath>
    <linearGradient id="linear-gradient-2" x1="-0.31" y1="15.058" x2="-0.227" y2="15.058" gradientUnits="objectBoundingBox">
      <stop offset="0" stop-color="#040506"/>
      <stop offset="1" stop-color="#161616"/>
    </linearGradient>
    <clipPath id="clip-path-5">
      <path id="Path_298" data-name="Path 298" d="M6.276,9.747a14.721,14.721,0,0,0-2.957.99c-.285.129-.446.232-.5.34a1.618,1.618,0,0,0,.035.592l.005.021a1.358,1.358,0,0,1,.462-.286,14.786,14.786,0,0,1,2.957-.99,17.339,17.339,0,0,1,7.037,0,14.786,14.786,0,0,1,2.957.99,1.393,1.393,0,0,1,.464.286l0-.021a1.614,1.614,0,0,0,.036-.592c-.055-.108-.217-.211-.5-.34a14.721,14.721,0,0,0-2.957-.99,16.294,16.294,0,0,0-3.519-.361,16.291,16.291,0,0,0-3.518.361" fill="none"/>
    </clipPath>
    <linearGradient id="linear-gradient-3" x1="-0.195" y1="13.287" x2="-0.124" y2="13.287" xlink:href="#linear-gradient-2"/>
    <clipPath id="clip-path-6">
      <path id="Path_299" data-name="Path 299" d="M6.276,10.414a14.786,14.786,0,0,0-2.957.99,1.358,1.358,0,0,0-.462.286l.893,5.34a10.831,10.831,0,0,1,2.761-.773,31.9,31.9,0,0,1,6.568,0,10.819,10.819,0,0,1,2.76.773l.895-5.34a1.393,1.393,0,0,0-.464-.286,14.786,14.786,0,0,0-2.957-.99,16.294,16.294,0,0,0-3.519-.361,16.291,16.291,0,0,0-3.518.361" fill="none"/>
    </clipPath>
    <linearGradient id="linear-gradient-4" x1="-0.206" y1="4.292" x2="-0.134" y2="4.292" gradientUnits="objectBoundingBox">
      <stop offset="0" stop-color="#131015"/>
      <stop offset="1" stop-color="#161616"/>
    </linearGradient>
    <clipPath id="clip-path-7">
      <path id="Path_300" data-name="Path 300" d="M7.059,36.284a11.852,11.852,0,0,1-2.678-.88,17.782,17.782,0,0,1,.107-3.654,20.246,20.246,0,0,0,5.307.664,19.173,19.173,0,0,0,5.311-.634,17.852,17.852,0,0,1,.1,3.624,11.831,11.831,0,0,1-2.677.88,15.854,15.854,0,0,1-2.737.188,15.82,15.82,0,0,1-2.735-.188M15,31.1a13.762,13.762,0,0,1-5.2.815,15.373,15.373,0,0,1-5.2-.829c-.157-.059-.24-.095-.24-.095-.059.223-.111.449-.155.672a16.382,16.382,0,0,0-.227,4.293,13.352,13.352,0,0,0,2.88.882,23.175,23.175,0,0,0,5.884,0,13.33,13.33,0,0,0,2.879-.882,16.388,16.388,0,0,0-.222-4.271c-.045-.231-.1-.463-.16-.694,0,0-.078.042-.236.109" fill="none"/>
    </clipPath>
    <linearGradient id="linear-gradient-5" x1="-0.312" y1="1.476" x2="-0.229" y2="1.476" xlink:href="#linear-gradient-2"/>
    <clipPath id="clip-path-8">
      <path id="Path_301" data-name="Path 301" d="M4.381,35.4a11.852,11.852,0,0,0,2.678.88,19.976,19.976,0,0,0,5.472,0,11.831,11.831,0,0,0,2.677-.88,17.852,17.852,0,0,0-.1-3.624,19.173,19.173,0,0,1-5.311.634,20.246,20.246,0,0,1-5.307-.664A17.782,17.782,0,0,0,4.381,35.4" fill="none"/>
    </clipPath>
    <linearGradient id="linear-gradient-6" x1="-0.379" y1="1.724" x2="-0.289" y2="1.724" xlink:href="#linear-gradient-4"/>
    <clipPath id="clip-path-9">
      <path id="Path_302" data-name="Path 302" d="M2.363,15.587c.062,1.522.236,3.616.233,4.967,0,1.282-.047,2.152-.084,2.6l1.176.418-.2-5.522L2.363,11.5s-.1,1.679,0,4.083" fill="none"/>
    </clipPath>
    <linearGradient id="linear-gradient-7" x1="-1.594" y1="2.362" x2="-0.89" y2="2.362" xlink:href="#linear-gradient-4"/>
    <clipPath id="clip-path-10">
      <path id="Path_303" data-name="Path 303" d="M16.1,18.048l-.2,5.522,1.176-.418c-.044-.434-.081-1.316-.084-2.6,0-1.351.172-3.445.233-4.967.1-2.4,0-4.083,0-4.083Z" fill="none"/>
    </clipPath>
    <linearGradient id="linear-gradient-8" x1="-11.182" y1="2.362" x2="-10.479" y2="2.362" xlink:href="#linear-gradient-4"/>
    <clipPath id="clip-path-11">
      <path id="Path_304" data-name="Path 304" d="M2.477,31.715a6.615,6.615,0,0,0,.794-1.381,6.785,6.785,0,0,0,.561-1.519L3.7,24.2l-1.219-.534c-.134,1.728,0,8.052,0,8.052" fill="none"/>
    </clipPath>
    <linearGradient id="linear-gradient-9" x1="-1.574" y1="2.029" x2="-0.902" y2="2.029" xlink:href="#linear-gradient-4"/>
    <clipPath id="clip-path-12">
      <path id="Path_305" data-name="Path 305" d="M15.894,24.2l-.137,4.618a6.785,6.785,0,0,0,.561,1.519,6.615,6.615,0,0,0,.794,1.381s.134-6.324,0-8.052Z" fill="none"/>
    </clipPath>
    <linearGradient id="linear-gradient-10" x1="-10.582" y1="2.029" x2="-9.911" y2="2.029" xlink:href="#linear-gradient-4"/>
    <clipPath id="clip-path-13">
      <path id="Path_306" data-name="Path 306" d="M3.943,1.461A10.7,10.7,0,0,0,2.3,2.781a.826.826,0,0,0,.69-.155L5,1.343A.988.988,0,0,0,5.374.675a4.759,4.759,0,0,0-1.431.786" fill="none"/>
    </clipPath>
    <radialGradient id="radial-gradient" cx="1.08" cy="2.129" r="1.831" gradientTransform="matrix(0.702, 0, 0, -0.769, 0.312, 38.83)" gradientUnits="userSpaceOnUse">
      <stop offset="0" stop-color="#fff"/>
      <stop offset="1" stop-color="#7577af"/>
    </radialGradient>
    <clipPath id="clip-path-14">
      <path id="Path_307" data-name="Path 307" d="M14.586,1.343,16.6,2.626a.825.825,0,0,0,.689.155c-.4-.535-.934-.717-1.642-1.32A4.759,4.759,0,0,0,14.215.675a.992.992,0,0,0,.371.668" fill="none"/>
    </clipPath>
    <radialGradient id="radial-gradient-2" cx="-0.337" cy="2.129" r="1.83" gradientTransform="matrix(0.702, 0, 0, -0.77, -0.142, 38.831)" xlink:href="#radial-gradient"/>
    <clipPath id="clip-path-16">
      <rect id="Rectangle_276" data-name="Rectangle 276" width="9.036" height="6.882" transform="translate(7.698 10.148)" fill="none"/>
    </clipPath>
    <clipPath id="clip-path-17">
      <path id="Path_310" data-name="Path 310" d="M16.27,11.4a14.7,14.7,0,0,0-2.957-.99,14.327,14.327,0,0,0-1.652-.267,40.354,40.354,0,0,0-3.963,6,32.665,32.665,0,0,1,5.38.111,10.788,10.788,0,0,1,2.761.773l.895-5.341a1.418,1.418,0,0,0-.464-.285" fill="none"/>
    </clipPath>
    <linearGradient id="linear-gradient-11" x1="-0.626" y1="2.831" x2="-0.534" y2="2.831" gradientUnits="objectBoundingBox">
      <stop offset="0" stop-color="#131015"/>
      <stop offset="1" stop-color="#040506"/>
    </linearGradient>
    <clipPath id="clip-path-18">
      <rect id="Rectangle_277" data-name="Rectangle 277" width="13.581" height="2.437" transform="translate(3.004 36.24)" fill="none"/>
    </clipPath>
    <clipPath id="clip-path-19">
      <rect id="Rectangle_278" data-name="Rectangle 278" width="3.114" height="8.845" transform="translate(1.883 1.693)" fill="none"/>
    </clipPath>
    <clipPath id="clip-path-20">
      <rect id="Rectangle_279" data-name="Rectangle 279" width="3.114" height="8.845" transform="translate(14.606 1.693)" fill="none"/>
    </clipPath>
    <clipPath id="clip-path-21">
      <path id="Path_314" data-name="Path 314" d="M17.176,13.707c.016.774.7-.45.689-1.053s-.689-.742-.689-.742a13.6,13.6,0,0,0,0,1.8" fill="none"/>
    </clipPath>
    <linearGradient id="linear-gradient-12" x1="-8.914" y1="10.674" x2="-8.376" y2="10.674" xlink:href="#linear-gradient-4"/>
    <clipPath id="clip-path-22">
      <path id="Path_315" data-name="Path 315" d="M17.625,12.951l1.942.62a.4.4,0,0,0-.05-.337,6.646,6.646,0,0,0-1.5-.649.318.318,0,0,0-.107-.02c-.186,0-.256.207-.282.386" fill="none"/>
    </clipPath>
    <radialGradient id="radial-gradient-3" cx="-3.669" cy="-52.401" r="1.527" gradientTransform="matrix(0.51, 0, 0, -0.51, -3.95, 132.503)" gradientUnits="userSpaceOnUse">
      <stop offset="0" stop-color="#999998"/>
      <stop offset="1" stop-color="#959492"/>
    </radialGradient>
    <clipPath id="clip-path-23">
      <path id="Path_316" data-name="Path 316" d="M17.609,13.21l1.908.5a.591.591,0,0,0,.05-.136l-1.942-.62a1.515,1.515,0,0,0-.016.259" fill="none"/>
    </clipPath>
    <linearGradient id="linear-gradient-13" x1="-8.968" y1="35.779" x2="-8.458" y2="35.779" xlink:href="#linear-gradient-4"/>
    <clipPath id="clip-path-24">
      <path id="Path_317" data-name="Path 317" d="M1.671,12.612c-.015.6.717,1.827.733,1.053a12.443,12.443,0,0,0,0-1.8s-.717.14-.733.742" fill="none"/>
    </clipPath>
    <linearGradient id="linear-gradient-14" x1="-0.642" y1="10.502" x2="-0.089" y2="10.502" xlink:href="#linear-gradient-4"/>
    <clipPath id="clip-path-25">
      <path id="Path_318" data-name="Path 318" d="M1.569,12.543a6.726,6.726,0,0,0-1.5.65A.365.365,0,0,0,0,13.4v.014a.541.541,0,0,0,.023.142l1.939-.623c-.024-.183-.093-.41-.287-.41a.312.312,0,0,0-.106.02" fill="none"/>
    </clipPath>
    <radialGradient id="radial-gradient-4" cx="0.737" cy="-48.348" r="1.489" gradientTransform="matrix(0.527, 0, 0, -0.527, 0.255, 121.868)" xlink:href="#radial-gradient-3"/>
    <clipPath id="clip-path-26">
      <path id="Path_319" data-name="Path 319" d="M.023,13.556a.565.565,0,0,0,.042.109l1.909-.5a1.623,1.623,0,0,0-.012-.235Z" fill="none"/>
    </clipPath>
    <linearGradient id="linear-gradient-15" x1="-0.012" y1="36.977" x2="0.5" y2="36.977" xlink:href="#linear-gradient-4"/>
    <clipPath id="clip-path-28">
      <path id="Path_324" data-name="Path 324" d="M7.465,39.705a.4.4,0,0,0-.328.177c1.02.1,1.912.116,2.357.118H10.1c.445,0,1.332-.021,2.347-.117a.4.4,0,0,0-.329-.178Z" fill="none"/>
    </clipPath>
    <linearGradient id="linear-gradient-16" x1="-1.344" y1="1" x2="-1.156" y2="1" xlink:href="#linear-gradient-4"/>
    <clipPath id="clip-path-30">
      <rect id="Rectangle_290" data-name="Rectangle 290" width="9.641" height="4.692" transform="translate(5.615 31.78)" fill="none"/>
    </clipPath>
    <clipPath id="clip-path-31">
      <path id="Path_325" data-name="Path 325" d="M15.1,31.78a19.158,19.158,0,0,1-5.31.634c-.541,0-1.05-.019-1.529-.052-1.517.714-2.437,2.958-2.651,3.533a12.561,12.561,0,0,0,1.444.389,19.976,19.976,0,0,0,5.472,0,11.8,11.8,0,0,0,2.677-.881,17.8,17.8,0,0,0-.1-3.623" fill="none"/>
    </clipPath>
    <linearGradient id="linear-gradient-17" x1="-0.474" y1="1.126" x2="-0.382" y2="1.126" xlink:href="#linear-gradient-11"/>
  </defs>
  <g id="Group_578" data-name="Group 578" clip-path="url(#clip-path)">
    <g id="Group_514" data-name="Group 514">
      <g id="Group_513" data-name="Group 513" clip-path="url(#clip-path)">
        <path id="Path_295" data-name="Path 295" d="M18.356,6.214A6.516,6.516,0,0,0,17.289,2.78a.823.823,0,0,1-.69-.154L14.586,1.343a.989.989,0,0,1-.37-.667c-.095-.035-.193-.069-.293-.1v1.7H5.667V.574c-.1.034-.2.067-.293.1A.99.99,0,0,1,5,1.343L2.99,2.626A.821.821,0,0,1,2.3,2.78,6.515,6.515,0,0,0,1.233,6.214c-.52,4.7-.158,12.083-.179,13.9-.115,9.7.326,15.61.941,17.655a1.845,1.845,0,0,0,.811.974.7.7,0,0,1,.319-.069c.717,0,1.067.49,1.861.35.524-.093.7.36.762.679.47.077.942.135,1.389.177a.4.4,0,0,1,.328-.177h4.653a.4.4,0,0,1,.329.178c.334-.031.682-.071,1.033-.122.05-.318.216-.834.772-.735.793.14,1.143-.35,1.861-.35a.64.64,0,0,1,.481.185,1.983,1.983,0,0,0,1-1.09c.616-2.045,1.057-7.953.942-17.655-.021-1.819.34-9.2-.18-13.9" fill="#a19483"/>
      </g>
    </g>
    <g id="Group_516" data-name="Group 516">
      <g id="Group_515" data-name="Group 515" clip-path="url(#clip-path-3)">
        <rect id="Rectangle_263" data-name="Rectangle 263" width="8.257" height="2.268" transform="translate(5.666 0)" fill="url(#linear-gradient)"/>
      </g>
    </g>
    <g id="Group_518" data-name="Group 518">
      <g id="Group_517" data-name="Group 517" clip-path="url(#clip-path-4)">
        <rect id="Rectangle_264" data-name="Rectangle 264" width="12.089" height="1.588" transform="translate(3.75 16.088)" fill="url(#linear-gradient-2)"/>
      </g>
    </g>
    <g id="Group_520" data-name="Group 520">
      <g id="Group_519" data-name="Group 519" clip-path="url(#clip-path-5)">
        <rect id="Rectangle_265" data-name="Rectangle 265" width="14.083" height="2.304" transform="translate(2.753 9.386)" fill="url(#linear-gradient-3)"/>
      </g>
    </g>
    <g id="Group_522" data-name="Group 522">
      <g id="Group_521" data-name="Group 521" clip-path="url(#clip-path-6)">
        <rect id="Rectangle_266" data-name="Rectangle 266" width="13.877" height="6.977" transform="translate(2.857 10.053)" fill="url(#linear-gradient-4)"/>
      </g>
    </g>
    <g id="Group_524" data-name="Group 524">
      <g id="Group_523" data-name="Group 523" clip-path="url(#clip-path-7)">
        <rect id="Rectangle_267" data-name="Rectangle 267" width="12.064" height="6.097" transform="translate(3.762 30.996)" fill="url(#linear-gradient-5)"/>
      </g>
    </g>
    <g id="Group_526" data-name="Group 526">
      <g id="Group_525" data-name="Group 525" clip-path="url(#clip-path-8)">
        <rect id="Rectangle_268" data-name="Rectangle 268" width="11.147" height="4.785" transform="translate(4.22 31.75)" fill="url(#linear-gradient-6)"/>
      </g>
    </g>
    <g id="Group_528" data-name="Group 528">
      <g id="Group_527" data-name="Group 527" clip-path="url(#clip-path-9)">
        <rect id="Rectangle_269" data-name="Rectangle 269" width="1.422" height="12.066" transform="translate(2.266 11.504)" fill="url(#linear-gradient-7)"/>
      </g>
    </g>
    <g id="Group_530" data-name="Group 530">
      <g id="Group_529" data-name="Group 529" clip-path="url(#clip-path-10)">
        <rect id="Rectangle_270" data-name="Rectangle 270" width="1.422" height="12.066" transform="translate(15.901 11.504)" fill="url(#linear-gradient-8)"/>
      </g>
    </g>
    <g id="Group_532" data-name="Group 532">
      <g id="Group_531" data-name="Group 531" clip-path="url(#clip-path-11)">
        <rect id="Rectangle_271" data-name="Rectangle 271" width="1.489" height="8.052" transform="translate(2.343 23.663)" fill="url(#linear-gradient-9)"/>
      </g>
    </g>
    <g id="Group_534" data-name="Group 534">
      <g id="Group_533" data-name="Group 533" clip-path="url(#clip-path-12)">
        <rect id="Rectangle_272" data-name="Rectangle 272" width="1.489" height="8.052" transform="translate(15.757 23.663)" fill="url(#linear-gradient-10)"/>
      </g>
    </g>
    <g id="Group_536" data-name="Group 536">
      <g id="Group_535" data-name="Group 535" clip-path="url(#clip-path-13)">
        <rect id="Rectangle_273" data-name="Rectangle 273" width="3.074" height="2.158" transform="translate(2.3 0.675)" fill="url(#radial-gradient)"/>
      </g>
    </g>
    <g id="Group_538" data-name="Group 538">
      <g id="Group_537" data-name="Group 537" clip-path="url(#clip-path-14)">
        <rect id="Rectangle_274" data-name="Rectangle 274" width="3.073" height="2.158" transform="translate(14.215 0.675)" fill="url(#radial-gradient-2)"/>
      </g>
    </g>
    <g id="Group_554" data-name="Group 554">
      <g id="Group_553" data-name="Group 553" clip-path="url(#clip-path)">
        <path id="Path_308" data-name="Path 308" d="M4.986,39.025c-.794.141-1.144-.35-1.861-.35a.7.7,0,0,0-.319.07,8.03,8.03,0,0,0,2.942.96c-.061-.32-.238-.773-.762-.68" fill="#989286"/>
        <path id="Path_309" data-name="Path 309" d="M14.251,39.025c-.555-.1-.721.417-.771.735a9.312,9.312,0,0,0,3.114-.9.644.644,0,0,0-.482-.186c-.717,0-1.067.491-1.861.35" fill="#989286"/>
        <g id="Group_543" data-name="Group 543">
          <g id="Group_542" data-name="Group 542">
            <g id="Group_541" data-name="Group 541" clip-path="url(#clip-path-16)">
              <g id="Group_540" data-name="Group 540">
                <g id="Group_539" data-name="Group 539" clip-path="url(#clip-path-17)">
                  <rect id="Rectangle_275" data-name="Rectangle 275" width="10.846" height="11.353" transform="matrix(0.579, -0.815, 0.815, 0.579, 4.447, 14.719)" fill="url(#linear-gradient-11)"/>
                </g>
              </g>
            </g>
          </g>
        </g>
        <g id="Group_546" data-name="Group 546" opacity="0.21">
          <g id="Group_545" data-name="Group 545">
            <g id="Group_544" data-name="Group 544" clip-path="url(#clip-path-18)">
              <path id="Path_311" data-name="Path 311" d="M10.546,38.663c4.187-.137,6.04-1.38,6.04-1.38l-.828-1.044A11.3,11.3,0,0,1,9.8,37.458a11.3,11.3,0,0,1-5.963-1.219L3,37.283s1.854,1.243,6.04,1.38c.218.008.751.013.751.013.284,0,.533,0,.751-.013" fill="#fff"/>
            </g>
          </g>
        </g>
        <g id="Group_549" data-name="Group 549">
          <g id="Group_548" data-name="Group 548">
            <g id="Group_547" data-name="Group 547" clip-path="url(#clip-path-19)">
              <path id="Path_312" data-name="Path 312" d="M5,1.692A5.159,5.159,0,0,0,2.126,5.854a45.033,45.033,0,0,0-.24,4.684S2.774,3.345,5,1.692" fill="#434242"/>
            </g>
          </g>
        </g>
        <g id="Group_552" data-name="Group 552">
          <g id="Group_551" data-name="Group 551">
            <g id="Group_550" data-name="Group 550" clip-path="url(#clip-path-20)">
              <path id="Path_313" data-name="Path 313" d="M14.606,1.692a5.159,5.159,0,0,1,2.872,4.162,45.034,45.034,0,0,1,.24,4.684s-.889-7.193-3.112-8.846" fill="#434242"/>
            </g>
          </g>
        </g>
      </g>
    </g>
    <g id="Group_556" data-name="Group 556">
      <g id="Group_555" data-name="Group 555" clip-path="url(#clip-path-21)">
        <rect id="Rectangle_281" data-name="Rectangle 281" width="1.859" height="2.634" transform="matrix(0.888, -0.459, 0.459, 0.888, 16.068, 12.453)" fill="url(#linear-gradient-12)"/>
      </g>
    </g>
    <g id="Group_558" data-name="Group 558">
      <g id="Group_557" data-name="Group 557" clip-path="url(#clip-path-22)">
        <rect id="Rectangle_282" data-name="Rectangle 282" width="1.973" height="1.006" transform="translate(17.625 12.565)" fill="url(#radial-gradient-3)"/>
      </g>
    </g>
    <g id="Group_560" data-name="Group 560">
      <g id="Group_559" data-name="Group 559" clip-path="url(#clip-path-23)">
        <rect id="Rectangle_283" data-name="Rectangle 283" width="1.963" height="0.756" transform="translate(17.604 12.951)" fill="url(#linear-gradient-13)"/>
      </g>
    </g>
    <g id="Group_562" data-name="Group 562">
      <g id="Group_561" data-name="Group 561" clip-path="url(#clip-path-24)">
        <rect id="Rectangle_284" data-name="Rectangle 284" width="1.806" height="2.675" transform="translate(0.687 12.312) rotate(-24.492)" fill="url(#linear-gradient-14)"/>
      </g>
    </g>
    <g id="Group_564" data-name="Group 564">
      <g id="Group_563" data-name="Group 563" clip-path="url(#clip-path-25)">
        <rect id="Rectangle_285" data-name="Rectangle 285" width="1.962" height="1.033" transform="translate(0 12.523)" fill="url(#radial-gradient-4)"/>
      </g>
    </g>
    <g id="Group_566" data-name="Group 566">
      <g id="Group_565" data-name="Group 565" clip-path="url(#clip-path-26)">
        <rect id="Rectangle_286" data-name="Rectangle 286" width="1.955" height="0.732" transform="translate(0.023 12.933)" fill="url(#linear-gradient-15)"/>
      </g>
    </g>
    <g id="Group_568" data-name="Group 568">
      <g id="Group_567" data-name="Group 567" clip-path="url(#clip-path)">
        <path id="Path_320" data-name="Path 320" d="M1.074,19.836a.183.183,0,0,0-.179.187v1.553a.183.183,0,0,0,.179.188Z" fill="#07090b"/>
        <path id="Path_321" data-name="Path 321" d="M1.163,27.606a.183.183,0,0,0-.179.187v1.553a.183.183,0,0,0,.179.188Z" fill="#07090b"/>
        <path id="Path_322" data-name="Path 322" d="M18.516,19.836a.183.183,0,0,1,.179.187v1.553a.183.183,0,0,1-.179.188Z" fill="#07090b"/>
        <path id="Path_323" data-name="Path 323" d="M18.427,27.606a.183.183,0,0,1,.179.187v1.553a.183.183,0,0,1-.179.188Z" fill="#07090b"/>
      </g>
    </g>
    <g id="Group_570" data-name="Group 570">
      <g id="Group_569" data-name="Group 569" clip-path="url(#clip-path-28)">
        <rect id="Rectangle_288" data-name="Rectangle 288" width="5.31" height="0.295" transform="translate(7.137 39.705)" fill="url(#linear-gradient-16)"/>
      </g>
    </g>
    <g id="Group_577" data-name="Group 577">
      <g id="Group_576" data-name="Group 576" clip-path="url(#clip-path)">
        <g id="Group_575" data-name="Group 575">
          <g id="Group_574" data-name="Group 574">
            <g id="Group_573" data-name="Group 573" clip-path="url(#clip-path-30)">
              <g id="Group_572" data-name="Group 572">
                <g id="Group_571" data-name="Group 571" clip-path="url(#clip-path-31)">
                  <rect id="Rectangle_289" data-name="Rectangle 289" width="10.766" height="9.31" transform="matrix(0.838, -0.546, 0.546, 0.838, 3.439, 33.199)" fill="url(#linear-gradient-17)"/>
                </g>
              </g>
            </g>
          </g>
        </g>
      </g>
    </g>
  </g>
</svg>
