<svg id="Group_646" data-name="Group 646" xmlns="http://www.w3.org/2000/svg" xmlns:xlink="http://www.w3.org/1999/xlink" width="19.583" height="40" viewBox="0 0 19.583 40">
  <defs>
    <clipPath id="clip-path">
      <rect id="Rectangle_323" data-name="Rectangle 323" width="19.583" height="40" fill="none"/>
    </clipPath>
    <clipPath id="clip-path-3">
      <path id="Path_327" data-name="Path 327" d="M9.712,0A13.753,13.753,0,0,0,5.666.575V2.268h8.256V.575A13.736,13.736,0,0,0,9.877,0Z" fill="none"/>
    </clipPath>
    <linearGradient id="linear-gradient" x1="-0.686" y1="17.637" x2="-0.565" y2="17.637" gradientUnits="objectBoundingBox">
      <stop offset="0" stop-color="#1d473e"/>
      <stop offset="1" stop-color="#0d0c0d"/>
    </linearGradient>
    <clipPath id="clip-path-4">
      <path id="Path_328" data-name="Path 328" d="M6.511,16.257a10.831,10.831,0,0,0-2.761.773l.108.646a9.47,9.47,0,0,1,2.795-.848,29.206,29.206,0,0,1,6.284,0,9.455,9.455,0,0,1,2.793.848l.109-.646a10.817,10.817,0,0,0-2.761-.773,25.843,25.843,0,0,0-3.284-.169,25.8,25.8,0,0,0-3.283.169" fill="none"/>
    </clipPath>
    <linearGradient id="linear-gradient-2" x1="-0.31" y1="15.058" x2="-0.227" y2="15.058" gradientUnits="objectBoundingBox">
      <stop offset="0" stop-color="#040506"/>
      <stop offset="1" stop-color="#161616"/>
    </linearGradient>
    <clipPath id="clip-path-5">
      <path id="Path_329" data-name="Path 329" d="M6.276,9.747a14.744,14.744,0,0,0-2.957.99c-.285.129-.447.232-.5.34a1.633,1.633,0,0,0,.037.592l0,.021a1.368,1.368,0,0,1,.462-.286,14.81,14.81,0,0,1,2.957-.99,17.339,17.339,0,0,1,7.037,0,14.77,14.77,0,0,1,2.956.99,1.39,1.39,0,0,1,.465.286l0-.021a1.593,1.593,0,0,0,.036-.592c-.055-.108-.217-.211-.5-.34a14.7,14.7,0,0,0-2.956-.99A16.291,16.291,0,0,0,9.8,9.386a16.294,16.294,0,0,0-3.519.361" fill="none"/>
    </clipPath>
    <linearGradient id="linear-gradient-3" x1="-0.195" y1="13.287" x2="-0.124" y2="13.287" xlink:href="#linear-gradient-2"/>
    <clipPath id="clip-path-6">
      <path id="Path_330" data-name="Path 330" d="M6.276,10.414a14.81,14.81,0,0,0-2.957.99,1.368,1.368,0,0,0-.462.286l.893,5.34a10.831,10.831,0,0,1,2.761-.773,31.888,31.888,0,0,1,6.567,0,10.817,10.817,0,0,1,2.761.773l.895-5.34a1.39,1.39,0,0,0-.465-.286,14.77,14.77,0,0,0-2.956-.99A16.291,16.291,0,0,0,9.8,10.053a16.294,16.294,0,0,0-3.519.361" fill="none"/>
    </clipPath>
    <linearGradient id="linear-gradient-4" x1="-0.206" y1="4.292" x2="-0.134" y2="4.292" gradientUnits="objectBoundingBox">
      <stop offset="0" stop-color="#131015"/>
      <stop offset="1" stop-color="#161616"/>
    </linearGradient>
    <clipPath id="clip-path-7">
      <path id="Path_331" data-name="Path 331" d="M7.059,36.284a11.852,11.852,0,0,1-2.678-.88,17.867,17.867,0,0,1,.107-3.654,20.246,20.246,0,0,0,5.307.664,19.173,19.173,0,0,0,5.311-.634,17.767,17.767,0,0,1,.1,3.624,11.831,11.831,0,0,1-2.677.88,15.854,15.854,0,0,1-2.737.188,15.82,15.82,0,0,1-2.735-.188M15,31.1a13.758,13.758,0,0,1-5.2.815,15.381,15.381,0,0,1-5.2-.829c-.156-.059-.24-.095-.24-.095-.058.223-.11.449-.155.672a16.407,16.407,0,0,0-.226,4.293,13.352,13.352,0,0,0,2.88.882,23.175,23.175,0,0,0,5.884,0,13.307,13.307,0,0,0,2.878-.882,16.362,16.362,0,0,0-.221-4.271c-.046-.231-.1-.463-.16-.694,0,0-.078.042-.236.109" fill="none"/>
    </clipPath>
    <linearGradient id="linear-gradient-5" x1="-0.312" y1="1.476" x2="-0.229" y2="1.476" xlink:href="#linear-gradient-2"/>
    <clipPath id="clip-path-8">
      <path id="Path_332" data-name="Path 332" d="M4.381,35.4a11.852,11.852,0,0,0,2.678.88,19.976,19.976,0,0,0,5.472,0,11.831,11.831,0,0,0,2.677-.88,17.767,17.767,0,0,0-.1-3.624,19.173,19.173,0,0,1-5.311.634,20.246,20.246,0,0,1-5.307-.664A17.867,17.867,0,0,0,4.381,35.4" fill="none"/>
    </clipPath>
    <linearGradient id="linear-gradient-6" x1="-0.379" y1="1.724" x2="-0.289" y2="1.724" xlink:href="#linear-gradient-4"/>
    <clipPath id="clip-path-9">
      <path id="Path_333" data-name="Path 333" d="M2.363,15.587c.062,1.522.236,3.616.233,4.967,0,1.282-.048,2.152-.084,2.6l1.175.418-.2-5.522L2.363,11.5s-.1,1.679,0,4.083" fill="none"/>
    </clipPath>
    <linearGradient id="linear-gradient-7" x1="-1.595" y1="2.362" x2="-0.891" y2="2.362" xlink:href="#linear-gradient-4"/>
    <clipPath id="clip-path-10">
      <path id="Path_334" data-name="Path 334" d="M16.1,18.048l-.2,5.522,1.176-.418c-.044-.434-.08-1.316-.085-2.6,0-1.351.172-3.445.234-4.967.1-2.4,0-4.083,0-4.083Z" fill="none"/>
    </clipPath>
    <linearGradient id="linear-gradient-8" x1="-11.182" y1="2.362" x2="-10.479" y2="2.362" xlink:href="#linear-gradient-4"/>
    <clipPath id="clip-path-11">
      <path id="Path_335" data-name="Path 335" d="M2.477,31.715a6.615,6.615,0,0,0,.794-1.381,6.785,6.785,0,0,0,.561-1.519L3.7,24.2l-1.219-.534c-.134,1.728,0,8.052,0,8.052" fill="none"/>
    </clipPath>
    <linearGradient id="linear-gradient-9" x1="-1.574" y1="2.029" x2="-0.902" y2="2.029" xlink:href="#linear-gradient-4"/>
    <clipPath id="clip-path-12">
      <path id="Path_336" data-name="Path 336" d="M15.894,24.2l-.137,4.618a6.764,6.764,0,0,0,.562,1.519,6.553,6.553,0,0,0,.794,1.381s.132-6.324,0-8.052Z" fill="none"/>
    </clipPath>
    <linearGradient id="linear-gradient-10" x1="-10.59" y1="2.029" x2="-9.918" y2="2.029" xlink:href="#linear-gradient-4"/>
    <clipPath id="clip-path-13">
      <path id="Path_337" data-name="Path 337" d="M3.943,1.461c-.708.6-1.239.785-1.642,1.32a.828.828,0,0,0,.69-.155L5,1.343a.987.987,0,0,0,.37-.668,4.765,4.765,0,0,0-1.43.786" fill="none"/>
    </clipPath>
    <radialGradient id="radial-gradient" cx="1.08" cy="2.129" r="1.829" gradientTransform="matrix(0.702, 0, 0, -0.77, 0.311, 38.831)" gradientUnits="userSpaceOnUse">
      <stop offset="0" stop-color="#fff"/>
      <stop offset="1" stop-color="#3ea7a7"/>
    </radialGradient>
    <clipPath id="clip-path-14">
      <path id="Path_338" data-name="Path 338" d="M14.586,1.343,16.6,2.626a.825.825,0,0,0,.689.155c-.4-.535-.934-.717-1.642-1.32a4.753,4.753,0,0,0-1.43-.786.987.987,0,0,0,.37.668" fill="none"/>
    </clipPath>
    <radialGradient id="radial-gradient-2" cx="-0.336" cy="2.129" r="1.829" gradientTransform="matrix(0.702, 0, 0, -0.77, -0.141, 38.831)" xlink:href="#radial-gradient"/>
    <clipPath id="clip-path-16">
      <rect id="Rectangle_307" data-name="Rectangle 307" width="9.036" height="6.882" transform="translate(7.698 10.148)" fill="none"/>
    </clipPath>
    <clipPath id="clip-path-17">
      <path id="Path_341" data-name="Path 341" d="M16.27,11.4a14.721,14.721,0,0,0-2.957-.99,14.327,14.327,0,0,0-1.652-.267,40.447,40.447,0,0,0-3.964,6,32.68,32.68,0,0,1,5.381.111,10.774,10.774,0,0,1,2.761.773l.895-5.341a1.429,1.429,0,0,0-.464-.285" fill="none"/>
    </clipPath>
    <linearGradient id="linear-gradient-11" x1="-0.626" y1="2.831" x2="-0.534" y2="2.831" gradientUnits="objectBoundingBox">
      <stop offset="0" stop-color="#131015"/>
      <stop offset="1" stop-color="#040506"/>
    </linearGradient>
    <clipPath id="clip-path-18">
      <rect id="Rectangle_308" data-name="Rectangle 308" width="13.581" height="2.437" transform="translate(3.004 36.24)" fill="none"/>
    </clipPath>
    <clipPath id="clip-path-19">
      <rect id="Rectangle_309" data-name="Rectangle 309" width="3.114" height="8.845" transform="translate(1.883 1.693)" fill="none"/>
    </clipPath>
    <clipPath id="clip-path-20">
      <rect id="Rectangle_310" data-name="Rectangle 310" width="3.114" height="8.845" transform="translate(14.606 1.693)" fill="none"/>
    </clipPath>
    <clipPath id="clip-path-21">
      <path id="Path_345" data-name="Path 345" d="M17.176,13.707c.016.774.7-.45.689-1.053s-.689-.742-.689-.742a13.6,13.6,0,0,0,0,1.8" fill="none"/>
    </clipPath>
    <linearGradient id="linear-gradient-12" x1="-8.91" y1="10.672" x2="-8.372" y2="10.672" xlink:href="#linear-gradient-4"/>
    <clipPath id="clip-path-22">
      <path id="Path_346" data-name="Path 346" d="M17.625,12.951l1.943.62a.407.407,0,0,0-.051-.337,6.665,6.665,0,0,0-1.5-.649.327.327,0,0,0-.108-.02c-.185,0-.255.207-.281.386" fill="none"/>
    </clipPath>
    <radialGradient id="radial-gradient-3" cx="-3.669" cy="-52.401" r="1.527" gradientTransform="matrix(0.51, 0, 0, -0.51, -3.95, 132.503)" gradientUnits="userSpaceOnUse">
      <stop offset="0" stop-color="#b7860d"/>
      <stop offset="1" stop-color="#ae6012"/>
    </radialGradient>
    <clipPath id="clip-path-23">
      <path id="Path_347" data-name="Path 347" d="M17.609,13.21l1.908.5a.619.619,0,0,0,.051-.136l-1.943-.62a1.647,1.647,0,0,0-.016.259" fill="none"/>
    </clipPath>
    <linearGradient id="linear-gradient-13" x1="-8.968" y1="35.779" x2="-8.459" y2="35.779" xlink:href="#linear-gradient-4"/>
    <clipPath id="clip-path-24">
      <path id="Path_348" data-name="Path 348" d="M1.672,12.612c-.017.6.716,1.827.733,1.053a12.914,12.914,0,0,0,0-1.8s-.718.14-.733.742" fill="none"/>
    </clipPath>
    <linearGradient id="linear-gradient-14" x1="-0.642" y1="10.502" x2="-0.088" y2="10.502" xlink:href="#linear-gradient-4"/>
    <clipPath id="clip-path-25">
      <path id="Path_349" data-name="Path 349" d="M1.569,12.543a6.721,6.721,0,0,0-1.5.65A.364.364,0,0,0,0,13.409a.493.493,0,0,0,.023.147l1.939-.623c-.023-.183-.093-.41-.287-.41a.312.312,0,0,0-.106.02" fill="none"/>
    </clipPath>
    <radialGradient id="radial-gradient-4" cx="0.737" cy="-48.348" r="1.489" gradientTransform="matrix(0.527, 0, 0, -0.527, 0.255, 121.868)" xlink:href="#radial-gradient-3"/>
    <clipPath id="clip-path-26">
      <path id="Path_350" data-name="Path 350" d="M.023,13.556a.6.6,0,0,0,.043.109l1.908-.5a1.814,1.814,0,0,0-.012-.235Z" fill="none"/>
    </clipPath>
    <linearGradient id="linear-gradient-15" x1="-0.012" y1="36.977" x2="0.5" y2="36.977" xlink:href="#linear-gradient-4"/>
    <clipPath id="clip-path-28">
      <path id="Path_355" data-name="Path 355" d="M7.465,39.705a.4.4,0,0,0-.328.177c1.02.1,1.912.116,2.357.118h.6c.445,0,1.332-.021,2.347-.117a.4.4,0,0,0-.328-.178Z" fill="none"/>
    </clipPath>
    <linearGradient id="linear-gradient-16" x1="-1.344" y1="1" x2="-1.156" y2="1" xlink:href="#linear-gradient-4"/>
    <clipPath id="clip-path-30">
      <rect id="Rectangle_321" data-name="Rectangle 321" width="9.641" height="4.692" transform="translate(5.615 31.78)" fill="none"/>
    </clipPath>
    <clipPath id="clip-path-31">
      <path id="Path_356" data-name="Path 356" d="M15.106,31.78a19.173,19.173,0,0,1-5.311.634c-.541,0-1.05-.019-1.529-.052-1.517.714-2.438,2.958-2.652,3.533a12.639,12.639,0,0,0,1.445.389,19.969,19.969,0,0,0,5.471,0,11.8,11.8,0,0,0,2.678-.881,17.842,17.842,0,0,0-.1-3.623" fill="none"/>
    </clipPath>
    <linearGradient id="linear-gradient-17" x1="-0.474" y1="1.126" x2="-0.381" y2="1.126" xlink:href="#linear-gradient-11"/>
  </defs>
  <g id="Group_645" data-name="Group 645" clip-path="url(#clip-path)">
    <g id="Group_581" data-name="Group 581">
      <g id="Group_580" data-name="Group 580" clip-path="url(#clip-path)">
        <path id="Path_326" data-name="Path 326" d="M18.356,6.214A6.516,6.516,0,0,0,17.289,2.78a.823.823,0,0,1-.69-.154L14.586,1.343a.993.993,0,0,1-.37-.667q-.142-.053-.294-.1v1.7H5.667V.574c-.1.034-.2.067-.293.1A.99.99,0,0,1,5,1.343L2.991,2.626a.823.823,0,0,1-.69.154A6.516,6.516,0,0,0,1.234,6.214c-.521,4.7-.158,12.083-.18,13.9-.115,9.7.326,15.61.941,17.655a1.845,1.845,0,0,0,.811.974.7.7,0,0,1,.319-.069c.717,0,1.067.49,1.861.35.524-.093.7.36.762.679.47.077.942.135,1.389.177a.4.4,0,0,1,.328-.177h4.654a.4.4,0,0,1,.328.178c.334-.031.682-.071,1.033-.122.051-.318.217-.834.772-.735.793.14,1.143-.35,1.861-.35a.641.641,0,0,1,.481.185,1.983,1.983,0,0,0,1-1.09c.616-2.045,1.058-7.953.942-17.655-.022-1.819.341-9.2-.18-13.9" fill="#af0011"/>
      </g>
    </g>
    <g id="Group_583" data-name="Group 583">
      <g id="Group_582" data-name="Group 582" clip-path="url(#clip-path-3)">
        <rect id="Rectangle_294" data-name="Rectangle 294" width="8.256" height="2.268" transform="translate(5.666 0)" fill="url(#linear-gradient)"/>
      </g>
    </g>
    <g id="Group_585" data-name="Group 585">
      <g id="Group_584" data-name="Group 584" clip-path="url(#clip-path-4)">
        <rect id="Rectangle_295" data-name="Rectangle 295" width="12.089" height="1.588" transform="translate(3.75 16.088)" fill="url(#linear-gradient-2)"/>
      </g>
    </g>
    <g id="Group_587" data-name="Group 587">
      <g id="Group_586" data-name="Group 586" clip-path="url(#clip-path-5)">
        <rect id="Rectangle_296" data-name="Rectangle 296" width="14.084" height="2.304" transform="translate(2.753 9.386)" fill="url(#linear-gradient-3)"/>
      </g>
    </g>
    <g id="Group_589" data-name="Group 589">
      <g id="Group_588" data-name="Group 588" clip-path="url(#clip-path-6)">
        <rect id="Rectangle_297" data-name="Rectangle 297" width="13.877" height="6.977" transform="translate(2.857 10.053)" fill="url(#linear-gradient-4)"/>
      </g>
    </g>
    <g id="Group_591" data-name="Group 591">
      <g id="Group_590" data-name="Group 590" clip-path="url(#clip-path-7)">
        <rect id="Rectangle_298" data-name="Rectangle 298" width="12.064" height="6.097" transform="translate(3.762 30.996)" fill="url(#linear-gradient-5)"/>
      </g>
    </g>
    <g id="Group_593" data-name="Group 593">
      <g id="Group_592" data-name="Group 592" clip-path="url(#clip-path-8)">
        <rect id="Rectangle_299" data-name="Rectangle 299" width="11.147" height="4.785" transform="translate(4.221 31.75)" fill="url(#linear-gradient-6)"/>
      </g>
    </g>
    <g id="Group_595" data-name="Group 595">
      <g id="Group_594" data-name="Group 594" clip-path="url(#clip-path-9)">
        <rect id="Rectangle_300" data-name="Rectangle 300" width="1.421" height="12.066" transform="translate(2.266 11.504)" fill="url(#linear-gradient-7)"/>
      </g>
    </g>
    <g id="Group_597" data-name="Group 597">
      <g id="Group_596" data-name="Group 596" clip-path="url(#clip-path-10)">
        <rect id="Rectangle_301" data-name="Rectangle 301" width="1.422" height="12.066" transform="translate(15.901 11.504)" fill="url(#linear-gradient-8)"/>
      </g>
    </g>
    <g id="Group_599" data-name="Group 599">
      <g id="Group_598" data-name="Group 598" clip-path="url(#clip-path-11)">
        <rect id="Rectangle_302" data-name="Rectangle 302" width="1.489" height="8.052" transform="translate(2.343 23.663)" fill="url(#linear-gradient-9)"/>
      </g>
    </g>
    <g id="Group_601" data-name="Group 601">
      <g id="Group_600" data-name="Group 600" clip-path="url(#clip-path-12)">
        <rect id="Rectangle_303" data-name="Rectangle 303" width="1.488" height="8.052" transform="translate(15.757 23.663)" fill="url(#linear-gradient-10)"/>
      </g>
    </g>
    <g id="Group_603" data-name="Group 603">
      <g id="Group_602" data-name="Group 602" clip-path="url(#clip-path-13)">
        <rect id="Rectangle_304" data-name="Rectangle 304" width="3.072" height="2.158" transform="translate(2.301 0.675)" fill="url(#radial-gradient)"/>
      </g>
    </g>
    <g id="Group_605" data-name="Group 605">
      <g id="Group_604" data-name="Group 604" clip-path="url(#clip-path-14)">
        <rect id="Rectangle_305" data-name="Rectangle 305" width="3.072" height="2.158" transform="translate(14.216 0.675)" fill="url(#radial-gradient-2)"/>
      </g>
    </g>
    <g id="Group_621" data-name="Group 621">
      <g id="Group_620" data-name="Group 620" clip-path="url(#clip-path)">
        <path id="Path_339" data-name="Path 339" d="M4.985,39.025c-.794.141-1.144-.35-1.861-.35a.7.7,0,0,0-.319.07,8.036,8.036,0,0,0,2.942.96c-.061-.32-.238-.773-.762-.68" fill="#b1420e"/>
        <path id="Path_340" data-name="Path 340" d="M14.251,39.025c-.555-.1-.721.417-.771.735a9.312,9.312,0,0,0,3.114-.9.644.644,0,0,0-.482-.186c-.717,0-1.067.491-1.861.35" fill="#b1420e"/>
        <g id="Group_610" data-name="Group 610">
          <g id="Group_609" data-name="Group 609">
            <g id="Group_608" data-name="Group 608" clip-path="url(#clip-path-16)">
              <g id="Group_607" data-name="Group 607">
                <g id="Group_606" data-name="Group 606" clip-path="url(#clip-path-17)">
                  <rect id="Rectangle_306" data-name="Rectangle 306" width="10.846" height="11.354" transform="matrix(0.579, -0.815, 0.815, 0.579, 4.446, 14.719)" fill="url(#linear-gradient-11)"/>
                </g>
              </g>
            </g>
          </g>
        </g>
        <g id="Group_613" data-name="Group 613" opacity="0.21">
          <g id="Group_612" data-name="Group 612">
            <g id="Group_611" data-name="Group 611" clip-path="url(#clip-path-18)">
              <path id="Path_342" data-name="Path 342" d="M10.546,38.663c4.187-.137,6.039-1.38,6.039-1.38l-.828-1.044A11.3,11.3,0,0,1,9.8,37.458a11.3,11.3,0,0,1-5.963-1.219L3,37.283s1.853,1.243,6.039,1.38c.219.008.752.013.752.013.283,0,.532,0,.751-.013" fill="#fff"/>
            </g>
          </g>
        </g>
        <g id="Group_616" data-name="Group 616">
          <g id="Group_615" data-name="Group 615">
            <g id="Group_614" data-name="Group 614" clip-path="url(#clip-path-19)">
              <path id="Path_343" data-name="Path 343" d="M5,1.692A5.159,5.159,0,0,0,2.126,5.854a45.033,45.033,0,0,0-.24,4.684S2.774,3.345,5,1.692" fill="#371a17"/>
            </g>
          </g>
        </g>
        <g id="Group_619" data-name="Group 619">
          <g id="Group_618" data-name="Group 618">
            <g id="Group_617" data-name="Group 617" clip-path="url(#clip-path-20)">
              <path id="Path_344" data-name="Path 344" d="M14.607,1.692a5.159,5.159,0,0,1,2.871,4.162,45.28,45.28,0,0,1,.241,4.684s-.889-7.193-3.112-8.846" fill="#371a17"/>
            </g>
          </g>
        </g>
      </g>
    </g>
    <g id="Group_623" data-name="Group 623">
      <g id="Group_622" data-name="Group 622" clip-path="url(#clip-path-21)">
        <rect id="Rectangle_312" data-name="Rectangle 312" width="1.859" height="2.634" transform="matrix(0.888, -0.459, 0.459, 0.888, 16.068, 12.453)" fill="url(#linear-gradient-12)"/>
      </g>
    </g>
    <g id="Group_625" data-name="Group 625">
      <g id="Group_624" data-name="Group 624" clip-path="url(#clip-path-22)">
        <rect id="Rectangle_313" data-name="Rectangle 313" width="1.973" height="1.006" transform="translate(17.625 12.565)" fill="url(#radial-gradient-3)"/>
      </g>
    </g>
    <g id="Group_627" data-name="Group 627">
      <g id="Group_626" data-name="Group 626" clip-path="url(#clip-path-23)">
        <rect id="Rectangle_314" data-name="Rectangle 314" width="1.963" height="0.756" transform="translate(17.605 12.951)" fill="url(#linear-gradient-13)"/>
      </g>
    </g>
    <g id="Group_629" data-name="Group 629">
      <g id="Group_628" data-name="Group 628" clip-path="url(#clip-path-24)">
        <rect id="Rectangle_315" data-name="Rectangle 315" width="1.806" height="2.675" transform="matrix(0.91, -0.415, 0.415, 0.91, 0.686, 12.312)" fill="url(#linear-gradient-14)"/>
      </g>
    </g>
    <g id="Group_631" data-name="Group 631">
      <g id="Group_630" data-name="Group 630" clip-path="url(#clip-path-25)">
        <rect id="Rectangle_316" data-name="Rectangle 316" width="1.962" height="1.033" transform="translate(0 12.523)" fill="url(#radial-gradient-4)"/>
      </g>
    </g>
    <g id="Group_633" data-name="Group 633">
      <g id="Group_632" data-name="Group 632" clip-path="url(#clip-path-26)">
        <rect id="Rectangle_317" data-name="Rectangle 317" width="1.954" height="0.732" transform="translate(0.023 12.933)" fill="url(#linear-gradient-15)"/>
      </g>
    </g>
    <g id="Group_635" data-name="Group 635">
      <g id="Group_634" data-name="Group 634" clip-path="url(#clip-path)">
        <path id="Path_351" data-name="Path 351" d="M1.073,19.836a.183.183,0,0,0-.18.187v1.553a.184.184,0,0,0,.18.188Z" fill="#44191a"/>
        <path id="Path_352" data-name="Path 352" d="M1.163,27.606a.184.184,0,0,0-.18.187v1.553a.184.184,0,0,0,.18.188Z" fill="#44191a"/>
        <path id="Path_353" data-name="Path 353" d="M18.516,19.836a.183.183,0,0,1,.179.187v1.553a.183.183,0,0,1-.179.188Z" fill="#44191a"/>
        <path id="Path_354" data-name="Path 354" d="M18.427,27.606a.183.183,0,0,1,.179.187v1.553a.183.183,0,0,1-.179.188Z" fill="#44191a"/>
      </g>
    </g>
    <g id="Group_637" data-name="Group 637">
      <g id="Group_636" data-name="Group 636" clip-path="url(#clip-path-28)">
        <rect id="Rectangle_319" data-name="Rectangle 319" width="5.309" height="0.295" transform="translate(7.137 39.705)" fill="url(#linear-gradient-16)"/>
      </g>
    </g>
    <g id="Group_644" data-name="Group 644">
      <g id="Group_643" data-name="Group 643" clip-path="url(#clip-path)">
        <g id="Group_642" data-name="Group 642">
          <g id="Group_641" data-name="Group 641">
            <g id="Group_640" data-name="Group 640" clip-path="url(#clip-path-30)">
              <g id="Group_639" data-name="Group 639">
                <g id="Group_638" data-name="Group 638" clip-path="url(#clip-path-31)">
                  <rect id="Rectangle_320" data-name="Rectangle 320" width="10.767" height="9.31" transform="matrix(0.838, -0.546, 0.546, 0.838, 3.438, 33.199)" fill="url(#linear-gradient-17)"/>
                </g>
              </g>
            </g>
          </g>
        </g>
      </g>
    </g>
  </g>
</svg>
