<svg id="Group_713" data-name="Group 713" xmlns="http://www.w3.org/2000/svg" xmlns:xlink="http://www.w3.org/1999/xlink" width="19.583" height="40" viewBox="0 0 19.583 40">
  <defs>
    <clipPath id="clip-path">
      <rect id="Rectangle_354" data-name="Rectangle 354" width="19.583" height="40" fill="none"/>
    </clipPath>
    <clipPath id="clip-path-3">
      <path id="Path_358" data-name="Path 358" d="M9.712,0A13.753,13.753,0,0,0,5.666.575V2.268h8.257V.575A13.748,13.748,0,0,0,9.877,0Z" fill="none"/>
    </clipPath>
    <linearGradient id="linear-gradient" x1="-0.686" y1="17.637" x2="-0.565" y2="17.637" gradientUnits="objectBoundingBox">
      <stop offset="0" stop-color="#15265f"/>
      <stop offset="1" stop-color="#0d0c0d"/>
    </linearGradient>
    <clipPath id="clip-path-4">
      <path id="Path_359" data-name="Path 359" d="M6.511,16.257a10.831,10.831,0,0,0-2.761.773l.108.646a9.469,9.469,0,0,1,2.794-.848,29.215,29.215,0,0,1,6.285,0,9.483,9.483,0,0,1,2.794.848l.108-.646a10.817,10.817,0,0,0-2.761-.773A25.826,25.826,0,0,0,9.8,16.088a25.832,25.832,0,0,0-3.284.169" fill="none"/>
    </clipPath>
    <linearGradient id="linear-gradient-2" x1="-0.31" y1="15.058" x2="-0.227" y2="15.058" gradientUnits="objectBoundingBox">
      <stop offset="0" stop-color="#040506"/>
      <stop offset="1" stop-color="#161616"/>
    </linearGradient>
    <clipPath id="clip-path-5">
      <path id="Path_360" data-name="Path 360" d="M6.276,9.747a14.7,14.7,0,0,0-2.957.99c-.285.129-.446.232-.5.34a1.618,1.618,0,0,0,.035.592l.005.021a1.358,1.358,0,0,1,.462-.286,14.763,14.763,0,0,1,2.957-.99,17.339,17.339,0,0,1,7.037,0,14.747,14.747,0,0,1,2.956.99,1.39,1.39,0,0,1,.465.286l0-.021a1.593,1.593,0,0,0,.036-.592c-.055-.108-.217-.211-.5-.34a14.681,14.681,0,0,0-2.956-.99A16.285,16.285,0,0,0,9.8,9.386a16.294,16.294,0,0,0-3.519.361" fill="none"/>
    </clipPath>
    <linearGradient id="linear-gradient-3" x1="-0.195" y1="13.287" x2="-0.124" y2="13.287" xlink:href="#linear-gradient-2"/>
    <clipPath id="clip-path-6">
      <path id="Path_361" data-name="Path 361" d="M6.276,10.414a14.763,14.763,0,0,0-2.957.99,1.358,1.358,0,0,0-.462.286l.893,5.34a10.831,10.831,0,0,1,2.761-.773,31.888,31.888,0,0,1,6.567,0,10.817,10.817,0,0,1,2.761.773l.895-5.34a1.39,1.39,0,0,0-.465-.286,14.747,14.747,0,0,0-2.956-.99A16.285,16.285,0,0,0,9.8,10.053a16.294,16.294,0,0,0-3.519.361" fill="none"/>
    </clipPath>
    <linearGradient id="linear-gradient-4" x1="-0.206" y1="4.292" x2="-0.134" y2="4.292" gradientUnits="objectBoundingBox">
      <stop offset="0" stop-color="#131015"/>
      <stop offset="1" stop-color="#161616"/>
    </linearGradient>
    <clipPath id="clip-path-7">
      <path id="Path_362" data-name="Path 362" d="M7.059,36.284a11.852,11.852,0,0,1-2.678-.88,17.867,17.867,0,0,1,.107-3.654,20.246,20.246,0,0,0,5.307.664,19.173,19.173,0,0,0,5.311-.634,17.767,17.767,0,0,1,.1,3.624,11.831,11.831,0,0,1-2.677.88,15.854,15.854,0,0,1-2.737.188,15.82,15.82,0,0,1-2.735-.188M15,31.1a13.746,13.746,0,0,1-5.2.815,15.381,15.381,0,0,1-5.2-.829c-.156-.059-.24-.095-.24-.095-.058.223-.11.449-.154.672a16.382,16.382,0,0,0-.227,4.293,13.327,13.327,0,0,0,2.88.882,23.167,23.167,0,0,0,5.883,0,13.305,13.305,0,0,0,2.879-.882,16.362,16.362,0,0,0-.221-4.271c-.045-.231-.1-.463-.16-.694,0,0-.078.042-.237.109" fill="none"/>
    </clipPath>
    <linearGradient id="linear-gradient-5" x1="-0.312" y1="1.476" x2="-0.229" y2="1.476" xlink:href="#linear-gradient-2"/>
    <clipPath id="clip-path-8">
      <path id="Path_363" data-name="Path 363" d="M4.381,35.4a11.852,11.852,0,0,0,2.678.88,19.976,19.976,0,0,0,5.472,0,11.831,11.831,0,0,0,2.677-.88,17.767,17.767,0,0,0-.1-3.624,19.173,19.173,0,0,1-5.311.634,20.246,20.246,0,0,1-5.307-.664A17.867,17.867,0,0,0,4.381,35.4" fill="none"/>
    </clipPath>
    <linearGradient id="linear-gradient-6" x1="-0.379" y1="1.724" x2="-0.289" y2="1.724" xlink:href="#linear-gradient-4"/>
    <clipPath id="clip-path-9">
      <path id="Path_364" data-name="Path 364" d="M2.363,15.587c.062,1.522.236,3.616.233,4.967,0,1.282-.047,2.152-.084,2.6l1.175.418-.2-5.522L2.363,11.5s-.1,1.679,0,4.083" fill="none"/>
    </clipPath>
    <linearGradient id="linear-gradient-7" x1="-1.595" y1="2.362" x2="-0.891" y2="2.362" xlink:href="#linear-gradient-4"/>
    <clipPath id="clip-path-10">
      <path id="Path_365" data-name="Path 365" d="M16.1,18.048l-.2,5.522,1.176-.418c-.044-.434-.08-1.316-.084-2.6,0-1.351.171-3.445.234-4.967.1-2.4,0-4.083,0-4.083Z" fill="none"/>
    </clipPath>
    <linearGradient id="linear-gradient-8" x1="-11.182" y1="2.362" x2="-10.479" y2="2.362" xlink:href="#linear-gradient-4"/>
    <clipPath id="clip-path-11">
      <path id="Path_366" data-name="Path 366" d="M2.477,31.715a6.615,6.615,0,0,0,.794-1.381,6.785,6.785,0,0,0,.561-1.519L3.7,24.2l-1.219-.534c-.134,1.728,0,8.052,0,8.052" fill="none"/>
    </clipPath>
    <linearGradient id="linear-gradient-9" x1="-1.574" y1="2.029" x2="-0.902" y2="2.029" xlink:href="#linear-gradient-4"/>
    <clipPath id="clip-path-12">
      <path id="Path_367" data-name="Path 367" d="M15.894,24.2l-.136,4.618a6.72,6.72,0,0,0,.561,1.519,6.553,6.553,0,0,0,.794,1.381s.133-6.324,0-8.052Z" fill="none"/>
    </clipPath>
    <linearGradient id="linear-gradient-10" x1="-10.59" y1="2.029" x2="-9.918" y2="2.029" xlink:href="#linear-gradient-4"/>
    <clipPath id="clip-path-13">
      <path id="Path_368" data-name="Path 368" d="M3.942,1.461A10.731,10.731,0,0,0,2.3,2.781a.827.827,0,0,0,.69-.155L5,1.343A.992.992,0,0,0,5.374.675a4.777,4.777,0,0,0-1.432.786" fill="none"/>
    </clipPath>
    <radialGradient id="radial-gradient" cx="1.08" cy="2.129" r="1.831" gradientTransform="matrix(0.702, 0, 0, -0.769, 0.312, 38.83)" gradientUnits="userSpaceOnUse">
      <stop offset="0" stop-color="#fff"/>
      <stop offset="1" stop-color="#344391"/>
    </radialGradient>
    <clipPath id="clip-path-14">
      <path id="Path_369" data-name="Path 369" d="M14.586,1.343,16.6,2.626a.826.826,0,0,0,.69.155c-.4-.535-.934-.717-1.643-1.32A4.759,4.759,0,0,0,14.215.675a1,1,0,0,0,.371.668" fill="none"/>
    </clipPath>
    <radialGradient id="radial-gradient-2" cx="-0.338" cy="2.129" r="1.831" gradientTransform="matrix(0.702, 0, 0, -0.769, -0.142, 38.83)" xlink:href="#radial-gradient"/>
    <clipPath id="clip-path-16">
      <rect id="Rectangle_338" data-name="Rectangle 338" width="9.036" height="6.882" transform="translate(7.698 10.148)" fill="none"/>
    </clipPath>
    <clipPath id="clip-path-17">
      <path id="Path_372" data-name="Path 372" d="M16.27,11.4a14.7,14.7,0,0,0-2.957-.99,14.327,14.327,0,0,0-1.652-.267,40.447,40.447,0,0,0-3.964,6,32.677,32.677,0,0,1,5.381.111,10.774,10.774,0,0,1,2.761.773l.894-5.341a1.41,1.41,0,0,0-.463-.285" fill="none"/>
    </clipPath>
    <linearGradient id="linear-gradient-11" x1="-0.626" y1="2.831" x2="-0.534" y2="2.831" gradientUnits="objectBoundingBox">
      <stop offset="0" stop-color="#131015"/>
      <stop offset="1" stop-color="#040506"/>
    </linearGradient>
    <clipPath id="clip-path-18">
      <rect id="Rectangle_339" data-name="Rectangle 339" width="13.581" height="2.437" transform="translate(3.004 36.24)" fill="none"/>
    </clipPath>
    <clipPath id="clip-path-19">
      <rect id="Rectangle_340" data-name="Rectangle 340" width="3.114" height="8.845" transform="translate(1.883 1.693)" fill="none"/>
    </clipPath>
    <clipPath id="clip-path-20">
      <rect id="Rectangle_341" data-name="Rectangle 341" width="3.114" height="8.845" transform="translate(14.606 1.693)" fill="none"/>
    </clipPath>
    <clipPath id="clip-path-21">
      <path id="Path_376" data-name="Path 376" d="M17.176,13.707c.017.774.7-.45.689-1.053s-.689-.742-.689-.742a13.6,13.6,0,0,0,0,1.8" fill="none"/>
    </clipPath>
    <linearGradient id="linear-gradient-12" x1="-8.91" y1="10.672" x2="-8.372" y2="10.672" xlink:href="#linear-gradient-4"/>
    <clipPath id="clip-path-22">
      <path id="Path_377" data-name="Path 377" d="M17.625,12.951l1.943.62a.551.551,0,0,0,.015-.111v-.022a.363.363,0,0,0-.066-.2,6.665,6.665,0,0,0-1.5-.649.318.318,0,0,0-.107-.02c-.186,0-.255.207-.282.386" fill="none"/>
    </clipPath>
    <radialGradient id="radial-gradient-3" cx="-3.667" cy="-52.401" r="1.515" gradientTransform="matrix(0.514, 0, 0, -0.514, -3.883, 132.299)" gradientUnits="userSpaceOnUse">
      <stop offset="0" stop-color="#92b518"/>
      <stop offset="1" stop-color="#c2a80a"/>
    </radialGradient>
    <clipPath id="clip-path-23">
      <path id="Path_378" data-name="Path 378" d="M17.609,13.21l1.908.5a.619.619,0,0,0,.051-.136l-1.943-.62a1.647,1.647,0,0,0-.016.259" fill="none"/>
    </clipPath>
    <linearGradient id="linear-gradient-13" x1="-8.968" y1="35.779" x2="-8.459" y2="35.779" xlink:href="#linear-gradient-4"/>
    <clipPath id="clip-path-24">
      <path id="Path_379" data-name="Path 379" d="M1.672,12.612c-.017.6.716,1.827.732,1.053a12.443,12.443,0,0,0,0-1.8s-.716.14-.732.742" fill="none"/>
    </clipPath>
    <linearGradient id="linear-gradient-14" x1="-0.642" y1="10.5" x2="-0.088" y2="10.5" xlink:href="#linear-gradient-4"/>
    <clipPath id="clip-path-25">
      <path id="Path_380" data-name="Path 380" d="M1.569,12.543a6.721,6.721,0,0,0-1.5.65.36.36,0,0,0-.066.2v.035a.5.5,0,0,0,.023.13l1.939-.623c-.023-.183-.092-.41-.287-.41a.312.312,0,0,0-.106.02" fill="none"/>
    </clipPath>
    <radialGradient id="radial-gradient-4" cx="0.737" cy="-48.348" r="1.489" gradientTransform="matrix(0.527, 0, 0, -0.527, 0.255, 121.868)" xlink:href="#radial-gradient-3"/>
    <clipPath id="clip-path-26">
      <path id="Path_381" data-name="Path 381" d="M.023,13.556a.6.6,0,0,0,.043.109l1.908-.5a1.623,1.623,0,0,0-.012-.235Z" fill="none"/>
    </clipPath>
    <linearGradient id="linear-gradient-15" x1="-0.012" y1="36.977" x2="0.5" y2="36.977" xlink:href="#linear-gradient-4"/>
    <clipPath id="clip-path-28">
      <path id="Path_386" data-name="Path 386" d="M7.465,39.705a.4.4,0,0,0-.328.177c1.02.1,1.912.116,2.357.118h.6c.446,0,1.333-.021,2.347-.117a.4.4,0,0,0-.328-.178Z" fill="none"/>
    </clipPath>
    <linearGradient id="linear-gradient-16" x1="-1.344" y1="1" x2="-1.156" y2="1" xlink:href="#linear-gradient-4"/>
    <clipPath id="clip-path-30">
      <rect id="Rectangle_352" data-name="Rectangle 352" width="9.641" height="4.692" transform="translate(5.615 31.78)" fill="none"/>
    </clipPath>
    <clipPath id="clip-path-31">
      <path id="Path_387" data-name="Path 387" d="M15.1,31.78a19.164,19.164,0,0,1-5.31.634c-.541,0-1.05-.019-1.529-.052-1.517.714-2.437,2.958-2.652,3.533a12.639,12.639,0,0,0,1.445.389,19.969,19.969,0,0,0,5.471,0,11.821,11.821,0,0,0,2.678-.881,17.8,17.8,0,0,0-.1-3.623" fill="none"/>
    </clipPath>
    <linearGradient id="linear-gradient-17" x1="-0.474" y1="1.126" x2="-0.381" y2="1.126" xlink:href="#linear-gradient-11"/>
  </defs>
  <g id="Group_712" data-name="Group 712" clip-path="url(#clip-path)">
    <g id="Group_648" data-name="Group 648">
      <g id="Group_647" data-name="Group 647" clip-path="url(#clip-path)">
        <path id="Path_357" data-name="Path 357" d="M18.356,6.214A6.534,6.534,0,0,0,17.289,2.78a.824.824,0,0,1-.691-.154L14.585,1.343a1,1,0,0,1-.37-.667c-.1-.035-.193-.069-.293-.1v1.7H5.666V.574c-.1.034-.2.067-.292.1A1,1,0,0,1,5,1.343L2.99,2.626a.823.823,0,0,1-.69.154A6.516,6.516,0,0,0,1.233,6.214c-.521,4.7-.158,12.083-.18,13.9-.115,9.7.326,15.61.942,17.655a1.839,1.839,0,0,0,.81.974.7.7,0,0,1,.32-.069c.716,0,1.066.49,1.86.35.524-.093.7.36.762.679.47.077.942.135,1.389.177a.4.4,0,0,1,.328-.177h4.654a.4.4,0,0,1,.328.178c.334-.031.682-.071,1.033-.122.051-.318.217-.834.773-.735.792.14,1.142-.35,1.86-.35a.64.64,0,0,1,.481.185,1.985,1.985,0,0,0,1-1.09c.615-2.045,1.057-7.953.941-17.655-.021-1.819.341-9.2-.179-13.9" fill="#f27c00"/>
      </g>
    </g>
    <g id="Group_650" data-name="Group 650">
      <g id="Group_649" data-name="Group 649" clip-path="url(#clip-path-3)">
        <rect id="Rectangle_325" data-name="Rectangle 325" width="8.257" height="2.268" transform="translate(5.666 0)" fill="url(#linear-gradient)"/>
      </g>
    </g>
    <g id="Group_652" data-name="Group 652">
      <g id="Group_651" data-name="Group 651" clip-path="url(#clip-path-4)">
        <rect id="Rectangle_326" data-name="Rectangle 326" width="12.089" height="1.588" transform="translate(3.75 16.088)" fill="url(#linear-gradient-2)"/>
      </g>
    </g>
    <g id="Group_654" data-name="Group 654">
      <g id="Group_653" data-name="Group 653" clip-path="url(#clip-path-5)">
        <rect id="Rectangle_327" data-name="Rectangle 327" width="14.084" height="2.304" transform="translate(2.753 9.386)" fill="url(#linear-gradient-3)"/>
      </g>
    </g>
    <g id="Group_656" data-name="Group 656">
      <g id="Group_655" data-name="Group 655" clip-path="url(#clip-path-6)">
        <rect id="Rectangle_328" data-name="Rectangle 328" width="13.877" height="6.977" transform="translate(2.857 10.053)" fill="url(#linear-gradient-4)"/>
      </g>
    </g>
    <g id="Group_658" data-name="Group 658">
      <g id="Group_657" data-name="Group 657" clip-path="url(#clip-path-7)">
        <rect id="Rectangle_329" data-name="Rectangle 329" width="12.064" height="6.097" transform="translate(3.762 30.996)" fill="url(#linear-gradient-5)"/>
      </g>
    </g>
    <g id="Group_660" data-name="Group 660">
      <g id="Group_659" data-name="Group 659" clip-path="url(#clip-path-8)">
        <rect id="Rectangle_330" data-name="Rectangle 330" width="11.147" height="4.785" transform="translate(4.221 31.75)" fill="url(#linear-gradient-6)"/>
      </g>
    </g>
    <g id="Group_662" data-name="Group 662">
      <g id="Group_661" data-name="Group 661" clip-path="url(#clip-path-9)">
        <rect id="Rectangle_331" data-name="Rectangle 331" width="1.421" height="12.066" transform="translate(2.266 11.504)" fill="url(#linear-gradient-7)"/>
      </g>
    </g>
    <g id="Group_664" data-name="Group 664">
      <g id="Group_663" data-name="Group 663" clip-path="url(#clip-path-10)">
        <rect id="Rectangle_332" data-name="Rectangle 332" width="1.422" height="12.066" transform="translate(15.901 11.504)" fill="url(#linear-gradient-8)"/>
      </g>
    </g>
    <g id="Group_666" data-name="Group 666">
      <g id="Group_665" data-name="Group 665" clip-path="url(#clip-path-11)">
        <rect id="Rectangle_333" data-name="Rectangle 333" width="1.489" height="8.052" transform="translate(2.343 23.663)" fill="url(#linear-gradient-9)"/>
      </g>
    </g>
    <g id="Group_668" data-name="Group 668">
      <g id="Group_667" data-name="Group 667" clip-path="url(#clip-path-12)">
        <rect id="Rectangle_334" data-name="Rectangle 334" width="1.488" height="8.052" transform="translate(15.758 23.663)" fill="url(#linear-gradient-10)"/>
      </g>
    </g>
    <g id="Group_670" data-name="Group 670">
      <g id="Group_669" data-name="Group 669" clip-path="url(#clip-path-13)">
        <rect id="Rectangle_335" data-name="Rectangle 335" width="3.074" height="2.158" transform="translate(2.3 0.675)" fill="url(#radial-gradient)"/>
      </g>
    </g>
    <g id="Group_672" data-name="Group 672">
      <g id="Group_671" data-name="Group 671" clip-path="url(#clip-path-14)">
        <rect id="Rectangle_336" data-name="Rectangle 336" width="3.074" height="2.158" transform="translate(14.215 0.675)" fill="url(#radial-gradient-2)"/>
      </g>
    </g>
    <g id="Group_688" data-name="Group 688">
      <g id="Group_687" data-name="Group 687" clip-path="url(#clip-path)">
        <path id="Path_370" data-name="Path 370" d="M4.985,39.025c-.794.141-1.144-.35-1.86-.35a.7.7,0,0,0-.32.07,8.036,8.036,0,0,0,2.942.96c-.061-.32-.238-.773-.762-.68" fill="#c29200"/>
        <path id="Path_371" data-name="Path 371" d="M14.252,39.025c-.556-.1-.722.417-.772.735a9.312,9.312,0,0,0,3.114-.9.642.642,0,0,0-.482-.186c-.717,0-1.067.491-1.86.35" fill="#c29200"/>
        <g id="Group_677" data-name="Group 677">
          <g id="Group_676" data-name="Group 676">
            <g id="Group_675" data-name="Group 675" clip-path="url(#clip-path-16)">
              <g id="Group_674" data-name="Group 674">
                <g id="Group_673" data-name="Group 673" clip-path="url(#clip-path-17)">
                  <rect id="Rectangle_337" data-name="Rectangle 337" width="10.846" height="11.353" transform="translate(4.446 14.719) rotate(-54.585)" fill="url(#linear-gradient-11)"/>
                </g>
              </g>
            </g>
          </g>
        </g>
        <g id="Group_680" data-name="Group 680" opacity="0.21">
          <g id="Group_679" data-name="Group 679">
            <g id="Group_678" data-name="Group 678" clip-path="url(#clip-path-18)">
              <path id="Path_373" data-name="Path 373" d="M10.546,38.663c4.187-.137,6.039-1.38,6.039-1.38l-.827-1.044A11.3,11.3,0,0,1,9.8,37.458a11.3,11.3,0,0,1-5.963-1.219L3,37.283s1.854,1.243,6.039,1.38c.219.008.752.013.752.013.284,0,.532,0,.751-.013" fill="#fff"/>
            </g>
          </g>
        </g>
        <g id="Group_683" data-name="Group 683">
          <g id="Group_682" data-name="Group 682">
            <g id="Group_681" data-name="Group 681" clip-path="url(#clip-path-19)">
              <path id="Path_374" data-name="Path 374" d="M5,1.692A5.159,5.159,0,0,0,2.126,5.854a45.033,45.033,0,0,0-.24,4.684S2.774,3.345,5,1.692" fill="#513b1f"/>
            </g>
          </g>
        </g>
        <g id="Group_686" data-name="Group 686">
          <g id="Group_685" data-name="Group 685">
            <g id="Group_684" data-name="Group 684" clip-path="url(#clip-path-20)">
              <path id="Path_375" data-name="Path 375" d="M14.606,1.692a5.157,5.157,0,0,1,2.871,4.162,45.28,45.28,0,0,1,.241,4.684s-.889-7.193-3.112-8.846" fill="#513b1f"/>
            </g>
          </g>
        </g>
      </g>
    </g>
    <g id="Group_690" data-name="Group 690">
      <g id="Group_689" data-name="Group 689" clip-path="url(#clip-path-21)">
        <rect id="Rectangle_343" data-name="Rectangle 343" width="1.859" height="2.634" transform="matrix(0.888, -0.459, 0.459, 0.888, 16.068, 12.453)" fill="url(#linear-gradient-12)"/>
      </g>
    </g>
    <g id="Group_692" data-name="Group 692">
      <g id="Group_691" data-name="Group 691" clip-path="url(#clip-path-22)">
        <rect id="Rectangle_344" data-name="Rectangle 344" width="1.958" height="1.006" transform="translate(17.625 12.565)" fill="url(#radial-gradient-3)"/>
      </g>
    </g>
    <g id="Group_694" data-name="Group 694">
      <g id="Group_693" data-name="Group 693" clip-path="url(#clip-path-23)">
        <rect id="Rectangle_345" data-name="Rectangle 345" width="1.963" height="0.756" transform="translate(17.605 12.951)" fill="url(#linear-gradient-13)"/>
      </g>
    </g>
    <g id="Group_696" data-name="Group 696">
      <g id="Group_695" data-name="Group 695" clip-path="url(#clip-path-24)">
        <rect id="Rectangle_346" data-name="Rectangle 346" width="1.807" height="2.676" transform="translate(0.686 12.312) rotate(-24.492)" fill="url(#linear-gradient-14)"/>
      </g>
    </g>
    <g id="Group_698" data-name="Group 698">
      <g id="Group_697" data-name="Group 697" clip-path="url(#clip-path-25)">
        <rect id="Rectangle_347" data-name="Rectangle 347" width="1.962" height="1.033" transform="translate(0 12.523)" fill="url(#radial-gradient-4)"/>
      </g>
    </g>
    <g id="Group_700" data-name="Group 700">
      <g id="Group_699" data-name="Group 699" clip-path="url(#clip-path-26)">
        <rect id="Rectangle_348" data-name="Rectangle 348" width="1.955" height="0.732" transform="translate(0.023 12.933)" fill="url(#linear-gradient-15)"/>
      </g>
    </g>
    <g id="Group_702" data-name="Group 702">
      <g id="Group_701" data-name="Group 701" clip-path="url(#clip-path)">
        <path id="Path_382" data-name="Path 382" d="M1.073,19.836a.183.183,0,0,0-.179.187v1.553a.183.183,0,0,0,.179.188Z" fill="#613f24"/>
        <path id="Path_383" data-name="Path 383" d="M1.163,27.606a.184.184,0,0,0-.18.187v1.553a.184.184,0,0,0,.18.188Z" fill="#613f24"/>
        <path id="Path_384" data-name="Path 384" d="M18.516,19.836a.183.183,0,0,1,.179.187v1.553a.183.183,0,0,1-.179.188Z" fill="#613f24"/>
        <path id="Path_385" data-name="Path 385" d="M18.427,27.606a.183.183,0,0,1,.179.187v1.553a.183.183,0,0,1-.179.188Z" fill="#613f24"/>
      </g>
    </g>
    <g id="Group_704" data-name="Group 704">
      <g id="Group_703" data-name="Group 703" clip-path="url(#clip-path-28)">
        <rect id="Rectangle_350" data-name="Rectangle 350" width="5.309" height="0.295" transform="translate(7.137 39.705)" fill="url(#linear-gradient-16)"/>
      </g>
    </g>
    <g id="Group_711" data-name="Group 711">
      <g id="Group_710" data-name="Group 710" clip-path="url(#clip-path)">
        <g id="Group_709" data-name="Group 709">
          <g id="Group_708" data-name="Group 708">
            <g id="Group_707" data-name="Group 707" clip-path="url(#clip-path-30)">
              <g id="Group_706" data-name="Group 706">
                <g id="Group_705" data-name="Group 705" clip-path="url(#clip-path-31)">
                  <rect id="Rectangle_351" data-name="Rectangle 351" width="10.767" height="9.31" transform="matrix(0.838, -0.546, 0.546, 0.838, 3.438, 33.199)" fill="url(#linear-gradient-17)"/>
                </g>
              </g>
            </g>
          </g>
        </g>
      </g>
    </g>
  </g>
</svg>
