<svg id="Group_780" data-name="Group 780" xmlns="http://www.w3.org/2000/svg" xmlns:xlink="http://www.w3.org/1999/xlink" width="19.583" height="40" viewBox="0 0 19.583 40">
  <defs>
    <clipPath id="clip-path">
      <rect id="Rectangle_385" data-name="Rectangle 385" width="19.583" height="40" fill="none"/>
    </clipPath>
    <clipPath id="clip-path-3">
      <path id="Path_389" data-name="Path 389" d="M9.712,0A13.748,13.748,0,0,0,5.666.575V2.268h8.257V.575A13.753,13.753,0,0,0,9.877,0Z" fill="none"/>
    </clipPath>
    <linearGradient id="linear-gradient" x1="-0.686" y1="17.637" x2="-0.565" y2="17.637" gradientUnits="objectBoundingBox">
      <stop offset="0" stop-color="#271c10"/>
      <stop offset="1" stop-color="#0d0c0d"/>
    </linearGradient>
    <clipPath id="clip-path-4">
      <path id="Path_390" data-name="Path 390" d="M6.511,16.257a10.857,10.857,0,0,0-2.762.773l.109.646a9.469,9.469,0,0,1,2.794-.848,29.225,29.225,0,0,1,6.286,0,9.469,9.469,0,0,1,2.793.848l.108-.646a10.831,10.831,0,0,0-2.761-.773A25.826,25.826,0,0,0,9.8,16.088a25.832,25.832,0,0,0-3.284.169" fill="none"/>
    </clipPath>
    <linearGradient id="linear-gradient-2" x1="-0.31" y1="15.058" x2="-0.227" y2="15.058" gradientUnits="objectBoundingBox">
      <stop offset="0" stop-color="#040506"/>
      <stop offset="1" stop-color="#161616"/>
    </linearGradient>
    <clipPath id="clip-path-5">
      <path id="Path_391" data-name="Path 391" d="M6.275,9.747a14.665,14.665,0,0,0-2.955.99c-.286.129-.447.232-.5.34a1.618,1.618,0,0,0,.035.592l.005.021A1.354,1.354,0,0,1,3.32,11.4a14.731,14.731,0,0,1,2.955-.99,17.349,17.349,0,0,1,7.039,0,14.731,14.731,0,0,1,2.955.99,1.372,1.372,0,0,1,.464.286l0-.021a1.593,1.593,0,0,0,.036-.592c-.055-.108-.217-.211-.5-.34a14.665,14.665,0,0,0-2.955-.99A16.307,16.307,0,0,0,9.8,9.386a16.31,16.31,0,0,0-3.52.361" fill="none"/>
    </clipPath>
    <linearGradient id="linear-gradient-3" x1="-0.195" y1="13.287" x2="-0.124" y2="13.287" xlink:href="#linear-gradient-2"/>
    <clipPath id="clip-path-6">
      <path id="Path_392" data-name="Path 392" d="M6.275,10.414a14.731,14.731,0,0,0-2.955.99,1.354,1.354,0,0,0-.463.286l.892,5.34a10.857,10.857,0,0,1,2.762-.773,31.888,31.888,0,0,1,6.567,0,10.831,10.831,0,0,1,2.761.773l.894-5.34a1.372,1.372,0,0,0-.464-.286,14.731,14.731,0,0,0-2.955-.99A16.307,16.307,0,0,0,9.8,10.053a16.31,16.31,0,0,0-3.52.361" fill="none"/>
    </clipPath>
    <linearGradient id="linear-gradient-4" x1="-0.206" y1="4.292" x2="-0.134" y2="4.292" gradientUnits="objectBoundingBox">
      <stop offset="0" stop-color="#131015"/>
      <stop offset="1" stop-color="#161616"/>
    </linearGradient>
    <clipPath id="clip-path-7">
      <path id="Path_393" data-name="Path 393" d="M7.059,36.284A11.85,11.85,0,0,1,4.38,35.4a17.912,17.912,0,0,1,.108-3.654,20.24,20.24,0,0,0,5.307.664,19.167,19.167,0,0,0,5.311-.634,17.852,17.852,0,0,1,.1,3.624,11.829,11.829,0,0,1-2.678.88,15.833,15.833,0,0,1-2.736.188,15.82,15.82,0,0,1-2.735-.188M15,31.1a13.75,13.75,0,0,1-5.2.815,15.381,15.381,0,0,1-5.2-.829c-.157-.059-.24-.095-.24-.095-.058.223-.11.449-.154.672a16.382,16.382,0,0,0-.227,4.293,13.327,13.327,0,0,0,2.88.882,23.167,23.167,0,0,0,5.883,0,13.305,13.305,0,0,0,2.879-.882,16.362,16.362,0,0,0-.221-4.271c-.045-.231-.1-.463-.16-.694,0,0-.078.042-.237.109" fill="none"/>
    </clipPath>
    <linearGradient id="linear-gradient-5" x1="-0.312" y1="1.476" x2="-0.229" y2="1.476" xlink:href="#linear-gradient-2"/>
    <clipPath id="clip-path-8">
      <path id="Path_394" data-name="Path 394" d="M4.38,35.4a11.85,11.85,0,0,0,2.679.88,19.969,19.969,0,0,0,5.471,0,11.829,11.829,0,0,0,2.678-.88,17.852,17.852,0,0,0-.1-3.624,19.167,19.167,0,0,1-5.311.634,20.24,20.24,0,0,1-5.307-.664A17.912,17.912,0,0,0,4.38,35.4" fill="none"/>
    </clipPath>
    <linearGradient id="linear-gradient-6" x1="-0.379" y1="1.724" x2="-0.289" y2="1.724" xlink:href="#linear-gradient-4"/>
    <clipPath id="clip-path-9">
      <path id="Path_395" data-name="Path 395" d="M2.363,15.587c.062,1.522.236,3.616.233,4.967,0,1.282-.047,2.152-.084,2.6l1.176.418-.2-5.522L2.363,11.5s-.1,1.679,0,4.083" fill="none"/>
    </clipPath>
    <linearGradient id="linear-gradient-7" x1="-1.594" y1="2.362" x2="-0.89" y2="2.362" xlink:href="#linear-gradient-4"/>
    <clipPath id="clip-path-10">
      <path id="Path_396" data-name="Path 396" d="M16.1,18.048l-.2,5.522,1.177-.418c-.045-.434-.082-1.316-.085-2.6,0-1.351.171-3.445.233-4.967.1-2.4,0-4.083,0-4.083Z" fill="none"/>
    </clipPath>
    <linearGradient id="linear-gradient-8" x1="-11.182" y1="2.362" x2="-10.479" y2="2.362" xlink:href="#linear-gradient-4"/>
    <clipPath id="clip-path-11">
      <path id="Path_397" data-name="Path 397" d="M2.477,31.715a6.615,6.615,0,0,0,.794-1.381,6.85,6.85,0,0,0,.561-1.519L3.7,24.2l-1.219-.534c-.134,1.728,0,8.052,0,8.052" fill="none"/>
    </clipPath>
    <linearGradient id="linear-gradient-9" x1="-1.574" y1="2.029" x2="-0.902" y2="2.029" xlink:href="#linear-gradient-4"/>
    <clipPath id="clip-path-12">
      <path id="Path_398" data-name="Path 398" d="M15.893,24.2l-.135,4.618a6.74,6.74,0,0,0,.56,1.519,6.573,6.573,0,0,0,.8,1.381s.133-6.324,0-8.052Z" fill="none"/>
    </clipPath>
    <linearGradient id="linear-gradient-10" x1="-10.59" y1="2.029" x2="-9.918" y2="2.029" xlink:href="#linear-gradient-4"/>
    <clipPath id="clip-path-13">
      <path id="Path_399" data-name="Path 399" d="M3.943,1.461c-.707.6-1.239.785-1.643,1.32a.827.827,0,0,0,.69-.155L5,1.343A.988.988,0,0,0,5.374.675a4.759,4.759,0,0,0-1.431.786" fill="none"/>
    </clipPath>
    <radialGradient id="radial-gradient" cx="1.08" cy="2.129" r="1.831" gradientTransform="matrix(0.702, 0, 0, -0.769, 0.312, 38.83)" gradientUnits="userSpaceOnUse">
      <stop offset="0" stop-color="#fff"/>
      <stop offset="1" stop-color="#9a6606"/>
    </radialGradient>
    <clipPath id="clip-path-14">
      <path id="Path_400" data-name="Path 400" d="M14.585,1.343,16.6,2.626a.826.826,0,0,0,.69.155c-.4-.535-.935-.717-1.643-1.32A4.746,4.746,0,0,0,14.215.675a1,1,0,0,0,.37.668" fill="none"/>
    </clipPath>
    <radialGradient id="radial-gradient-2" cx="-0.338" cy="2.129" r="1.831" gradientTransform="matrix(0.702, 0, 0, -0.769, -0.142, 38.83)" xlink:href="#radial-gradient"/>
    <clipPath id="clip-path-16">
      <rect id="Rectangle_369" data-name="Rectangle 369" width="9.036" height="6.882" transform="translate(7.698 10.148)" fill="none"/>
    </clipPath>
    <clipPath id="clip-path-17">
      <path id="Path_403" data-name="Path 403" d="M16.269,11.4a14.658,14.658,0,0,0-2.956-.99,14.327,14.327,0,0,0-1.652-.267,40.354,40.354,0,0,0-3.963,6,32.668,32.668,0,0,1,5.38.111,10.774,10.774,0,0,1,2.761.773l.894-5.341a1.406,1.406,0,0,0-.464-.285" fill="none"/>
    </clipPath>
    <linearGradient id="linear-gradient-11" x1="-0.626" y1="2.831" x2="-0.534" y2="2.831" gradientUnits="objectBoundingBox">
      <stop offset="0" stop-color="#131015"/>
      <stop offset="1" stop-color="#040506"/>
    </linearGradient>
    <clipPath id="clip-path-18">
      <rect id="Rectangle_370" data-name="Rectangle 370" width="13.581" height="2.437" transform="translate(3.004 36.24)" fill="none"/>
    </clipPath>
    <clipPath id="clip-path-19">
      <rect id="Rectangle_371" data-name="Rectangle 371" width="3.114" height="8.845" transform="translate(1.883 1.693)" fill="none"/>
    </clipPath>
    <clipPath id="clip-path-20">
      <rect id="Rectangle_372" data-name="Rectangle 372" width="3.114" height="8.845" transform="translate(14.606 1.693)" fill="none"/>
    </clipPath>
    <clipPath id="clip-path-21">
      <path id="Path_407" data-name="Path 407" d="M17.176,13.707c.016.774.7-.45.689-1.053s-.689-.742-.689-.742a13.6,13.6,0,0,0,0,1.8" fill="none"/>
    </clipPath>
    <linearGradient id="linear-gradient-12" x1="-8.914" y1="10.674" x2="-8.376" y2="10.674" xlink:href="#linear-gradient-4"/>
    <clipPath id="clip-path-22">
      <path id="Path_408" data-name="Path 408" d="M17.625,12.951l1.942.62a.4.4,0,0,0-.05-.337,6.665,6.665,0,0,0-1.5-.649.318.318,0,0,0-.107-.02c-.185,0-.255.207-.282.386" fill="none"/>
    </clipPath>
    <radialGradient id="radial-gradient-3" cx="-3.669" cy="-52.401" r="1.527" gradientTransform="matrix(0.51, 0, 0, -0.51, -3.95, 132.503)" gradientUnits="userSpaceOnUse">
      <stop offset="0" stop-color="#6f297c"/>
      <stop offset="1" stop-color="#252679"/>
    </radialGradient>
    <clipPath id="clip-path-23">
      <path id="Path_409" data-name="Path 409" d="M17.61,13.21l1.907.5a.591.591,0,0,0,.05-.136l-1.942-.62a1.452,1.452,0,0,0-.015.259" fill="none"/>
    </clipPath>
    <linearGradient id="linear-gradient-13" x1="-8.968" y1="35.779" x2="-8.458" y2="35.779" xlink:href="#linear-gradient-4"/>
    <clipPath id="clip-path-24">
      <path id="Path_410" data-name="Path 410" d="M1.671,12.612c-.016.6.717,1.827.733,1.053a12.293,12.293,0,0,0,0-1.8s-.716.14-.733.742" fill="none"/>
    </clipPath>
    <linearGradient id="linear-gradient-14" x1="-0.642" y1="10.5" x2="-0.088" y2="10.5" xlink:href="#linear-gradient-4"/>
    <clipPath id="clip-path-25">
      <path id="Path_411" data-name="Path 411" d="M1.568,12.543a6.7,6.7,0,0,0-1.5.65A.357.357,0,0,0,0,13.4v.026a.527.527,0,0,0,.023.135l1.939-.623c-.024-.183-.092-.41-.287-.41a.318.318,0,0,0-.107.02" fill="none"/>
    </clipPath>
    <radialGradient id="radial-gradient-4" cx="0.737" cy="-48.348" r="1.489" gradientTransform="matrix(0.527, 0, 0, -0.527, 0.255, 121.868)" xlink:href="#radial-gradient-3"/>
    <clipPath id="clip-path-26">
      <path id="Path_412" data-name="Path 412" d="M.023,13.556a.527.527,0,0,0,.043.109l1.908-.5a1.623,1.623,0,0,0-.012-.235Z" fill="none"/>
    </clipPath>
    <linearGradient id="linear-gradient-15" x1="-0.012" y1="36.977" x2="0.5" y2="36.977" xlink:href="#linear-gradient-4"/>
    <clipPath id="clip-path-28">
      <path id="Path_417" data-name="Path 417" d="M7.465,39.705a.393.393,0,0,0-.327.177c1.02.1,1.911.116,2.356.118h.6c.446,0,1.333-.021,2.347-.117a.4.4,0,0,0-.328-.178Z" fill="none"/>
    </clipPath>
    <linearGradient id="linear-gradient-16" x1="-1.345" y1="1" x2="-1.156" y2="1" xlink:href="#linear-gradient-4"/>
    <clipPath id="clip-path-30">
      <rect id="Rectangle_383" data-name="Rectangle 383" width="9.641" height="4.692" transform="translate(5.615 31.78)" fill="none"/>
    </clipPath>
    <clipPath id="clip-path-31">
      <path id="Path_418" data-name="Path 418" d="M15.1,31.78a19.158,19.158,0,0,1-5.31.634c-.541,0-1.05-.019-1.53-.052-1.516.714-2.436,2.958-2.65,3.533a12.6,12.6,0,0,0,1.443.389,19.976,19.976,0,0,0,5.472,0,11.821,11.821,0,0,0,2.678-.881,17.8,17.8,0,0,0-.1-3.623" fill="none"/>
    </clipPath>
    <linearGradient id="linear-gradient-17" x1="-0.474" y1="1.126" x2="-0.382" y2="1.126" xlink:href="#linear-gradient-11"/>
  </defs>
  <g id="Group_779" data-name="Group 779" clip-path="url(#clip-path)">
    <g id="Group_715" data-name="Group 715">
      <g id="Group_714" data-name="Group 714" clip-path="url(#clip-path)">
        <path id="Path_388" data-name="Path 388" d="M18.356,6.214A6.516,6.516,0,0,0,17.289,2.78a.824.824,0,0,1-.691-.154L14.585,1.343a1,1,0,0,1-.37-.667c-.1-.035-.193-.069-.293-.1v1.7H5.667V.574c-.1.034-.2.067-.293.1A.991.991,0,0,1,5,1.343L2.99,2.626a.823.823,0,0,1-.69.154A6.516,6.516,0,0,0,1.233,6.214c-.52,4.7-.158,12.083-.18,13.9-.115,9.7.326,15.61.942,17.655a1.839,1.839,0,0,0,.81.974.7.7,0,0,1,.32-.069c.716,0,1.066.49,1.86.35.524-.093.7.36.762.679.47.077.942.135,1.39.177a.4.4,0,0,1,.327-.177h4.654a.4.4,0,0,1,.328.178c.335-.031.682-.071,1.034-.122.05-.318.216-.834.772-.735.793.14,1.143-.35,1.861-.35a.643.643,0,0,1,.481.185,1.986,1.986,0,0,0,1-1.09c.615-2.045,1.057-7.953.942-17.655-.022-1.819.34-9.2-.18-13.9" fill="#003685"/>
      </g>
    </g>
    <g id="Group_717" data-name="Group 717">
      <g id="Group_716" data-name="Group 716" clip-path="url(#clip-path-3)">
        <rect id="Rectangle_356" data-name="Rectangle 356" width="8.257" height="2.268" transform="translate(5.666 0)" fill="url(#linear-gradient)"/>
      </g>
    </g>
    <g id="Group_719" data-name="Group 719">
      <g id="Group_718" data-name="Group 718" clip-path="url(#clip-path-4)">
        <rect id="Rectangle_357" data-name="Rectangle 357" width="12.09" height="1.588" transform="translate(3.749 16.088)" fill="url(#linear-gradient-2)"/>
      </g>
    </g>
    <g id="Group_721" data-name="Group 721">
      <g id="Group_720" data-name="Group 720" clip-path="url(#clip-path-5)">
        <rect id="Rectangle_358" data-name="Rectangle 358" width="14.084" height="2.304" transform="translate(2.753 9.386)" fill="url(#linear-gradient-3)"/>
      </g>
    </g>
    <g id="Group_723" data-name="Group 723">
      <g id="Group_722" data-name="Group 722" clip-path="url(#clip-path-6)">
        <rect id="Rectangle_359" data-name="Rectangle 359" width="13.876" height="6.977" transform="translate(2.857 10.053)" fill="url(#linear-gradient-4)"/>
      </g>
    </g>
    <g id="Group_725" data-name="Group 725">
      <g id="Group_724" data-name="Group 724" clip-path="url(#clip-path-7)">
        <rect id="Rectangle_360" data-name="Rectangle 360" width="12.064" height="6.097" transform="translate(3.762 30.996)" fill="url(#linear-gradient-5)"/>
      </g>
    </g>
    <g id="Group_727" data-name="Group 727">
      <g id="Group_726" data-name="Group 726" clip-path="url(#clip-path-8)">
        <rect id="Rectangle_361" data-name="Rectangle 361" width="11.146" height="4.785" transform="translate(4.221 31.75)" fill="url(#linear-gradient-6)"/>
      </g>
    </g>
    <g id="Group_729" data-name="Group 729">
      <g id="Group_728" data-name="Group 728" clip-path="url(#clip-path-9)">
        <rect id="Rectangle_362" data-name="Rectangle 362" width="1.422" height="12.066" transform="translate(2.266 11.504)" fill="url(#linear-gradient-7)"/>
      </g>
    </g>
    <g id="Group_731" data-name="Group 731">
      <g id="Group_730" data-name="Group 730" clip-path="url(#clip-path-10)">
        <rect id="Rectangle_363" data-name="Rectangle 363" width="1.422" height="12.066" transform="translate(15.901 11.504)" fill="url(#linear-gradient-8)"/>
      </g>
    </g>
    <g id="Group_733" data-name="Group 733">
      <g id="Group_732" data-name="Group 732" clip-path="url(#clip-path-11)">
        <rect id="Rectangle_364" data-name="Rectangle 364" width="1.489" height="8.052" transform="translate(2.343 23.663)" fill="url(#linear-gradient-9)"/>
      </g>
    </g>
    <g id="Group_735" data-name="Group 735">
      <g id="Group_734" data-name="Group 734" clip-path="url(#clip-path-12)">
        <rect id="Rectangle_365" data-name="Rectangle 365" width="1.488" height="8.052" transform="translate(15.758 23.663)" fill="url(#linear-gradient-10)"/>
      </g>
    </g>
    <g id="Group_737" data-name="Group 737">
      <g id="Group_736" data-name="Group 736" clip-path="url(#clip-path-13)">
        <rect id="Rectangle_366" data-name="Rectangle 366" width="3.074" height="2.158" transform="translate(2.3 0.675)" fill="url(#radial-gradient)"/>
      </g>
    </g>
    <g id="Group_739" data-name="Group 739">
      <g id="Group_738" data-name="Group 738" clip-path="url(#clip-path-14)">
        <rect id="Rectangle_367" data-name="Rectangle 367" width="3.074" height="2.158" transform="translate(14.215 0.675)" fill="url(#radial-gradient-2)"/>
      </g>
    </g>
    <g id="Group_755" data-name="Group 755">
      <g id="Group_754" data-name="Group 754" clip-path="url(#clip-path)">
        <path id="Path_401" data-name="Path 401" d="M4.985,39.025c-.794.141-1.144-.35-1.86-.35a.7.7,0,0,0-.32.07,8.036,8.036,0,0,0,2.942.96c-.061-.32-.238-.773-.762-.68" fill="#00297b"/>
        <path id="Path_402" data-name="Path 402" d="M14.252,39.025c-.556-.1-.722.417-.771.735a9.326,9.326,0,0,0,3.114-.9.646.646,0,0,0-.482-.186c-.717,0-1.067.491-1.861.35" fill="#00297b"/>
        <g id="Group_744" data-name="Group 744">
          <g id="Group_743" data-name="Group 743">
            <g id="Group_742" data-name="Group 742" clip-path="url(#clip-path-16)">
              <g id="Group_741" data-name="Group 741">
                <g id="Group_740" data-name="Group 740" clip-path="url(#clip-path-17)">
                  <rect id="Rectangle_368" data-name="Rectangle 368" width="10.845" height="11.352" transform="matrix(0.579, -0.815, 0.815, 0.579, 4.447, 14.719)" fill="url(#linear-gradient-11)"/>
                </g>
              </g>
            </g>
          </g>
        </g>
        <g id="Group_747" data-name="Group 747" opacity="0.21">
          <g id="Group_746" data-name="Group 746">
            <g id="Group_745" data-name="Group 745" clip-path="url(#clip-path-18)">
              <path id="Path_404" data-name="Path 404" d="M10.546,38.663c4.187-.137,6.039-1.38,6.039-1.38l-.827-1.044A11.3,11.3,0,0,1,9.8,37.458a11.3,11.3,0,0,1-5.963-1.219L3,37.283s1.854,1.243,6.04,1.38c.218.008.751.013.751.013.284,0,.532,0,.751-.013" fill="#fff"/>
            </g>
          </g>
        </g>
        <g id="Group_750" data-name="Group 750">
          <g id="Group_749" data-name="Group 749">
            <g id="Group_748" data-name="Group 748" clip-path="url(#clip-path-19)">
              <path id="Path_405" data-name="Path 405" d="M5,1.692A5.159,5.159,0,0,0,2.126,5.854a45.033,45.033,0,0,0-.24,4.684S2.774,3.345,5,1.692" fill="#0b0f1a"/>
            </g>
          </g>
        </g>
        <g id="Group_753" data-name="Group 753">
          <g id="Group_752" data-name="Group 752">
            <g id="Group_751" data-name="Group 751" clip-path="url(#clip-path-20)">
              <path id="Path_406" data-name="Path 406" d="M14.606,1.692a5.159,5.159,0,0,1,2.872,4.162,45.4,45.4,0,0,1,.24,4.684s-.889-7.193-3.112-8.846" fill="#0b0f1a"/>
            </g>
          </g>
        </g>
      </g>
    </g>
    <g id="Group_757" data-name="Group 757">
      <g id="Group_756" data-name="Group 756" clip-path="url(#clip-path-21)">
        <rect id="Rectangle_374" data-name="Rectangle 374" width="1.859" height="2.634" transform="matrix(0.888, -0.459, 0.459, 0.888, 16.068, 12.453)" fill="url(#linear-gradient-12)"/>
      </g>
    </g>
    <g id="Group_759" data-name="Group 759">
      <g id="Group_758" data-name="Group 758" clip-path="url(#clip-path-22)">
        <rect id="Rectangle_375" data-name="Rectangle 375" width="1.973" height="1.006" transform="translate(17.625 12.565)" fill="url(#radial-gradient-3)"/>
      </g>
    </g>
    <g id="Group_761" data-name="Group 761">
      <g id="Group_760" data-name="Group 760" clip-path="url(#clip-path-23)">
        <rect id="Rectangle_376" data-name="Rectangle 376" width="1.963" height="0.756" transform="translate(17.604 12.951)" fill="url(#linear-gradient-13)"/>
      </g>
    </g>
    <g id="Group_763" data-name="Group 763">
      <g id="Group_762" data-name="Group 762" clip-path="url(#clip-path-24)">
        <rect id="Rectangle_377" data-name="Rectangle 377" width="1.807" height="2.676" transform="translate(0.686 12.312) rotate(-24.492)" fill="url(#linear-gradient-14)"/>
      </g>
    </g>
    <g id="Group_765" data-name="Group 765">
      <g id="Group_764" data-name="Group 764" clip-path="url(#clip-path-25)">
        <rect id="Rectangle_378" data-name="Rectangle 378" width="1.962" height="1.033" transform="translate(0 12.523)" fill="url(#radial-gradient-4)"/>
      </g>
    </g>
    <g id="Group_767" data-name="Group 767">
      <g id="Group_766" data-name="Group 766" clip-path="url(#clip-path-26)">
        <rect id="Rectangle_379" data-name="Rectangle 379" width="1.955" height="0.732" transform="translate(0.023 12.933)" fill="url(#linear-gradient-15)"/>
      </g>
    </g>
    <g id="Group_769" data-name="Group 769">
      <g id="Group_768" data-name="Group 768" clip-path="url(#clip-path)">
        <path id="Path_413" data-name="Path 413" d="M1.073,19.836a.183.183,0,0,0-.179.187v1.553a.183.183,0,0,0,.179.188Z" fill="#07090b"/>
        <path id="Path_414" data-name="Path 414" d="M1.163,27.606a.183.183,0,0,0-.179.187v1.553a.183.183,0,0,0,.179.188Z" fill="#07090b"/>
        <path id="Path_415" data-name="Path 415" d="M18.515,19.836a.183.183,0,0,1,.18.187v1.553a.184.184,0,0,1-.18.188Z" fill="#07090b"/>
        <path id="Path_416" data-name="Path 416" d="M18.427,27.606a.183.183,0,0,1,.179.187v1.553a.183.183,0,0,1-.179.188Z" fill="#07090b"/>
      </g>
    </g>
    <g id="Group_771" data-name="Group 771">
      <g id="Group_770" data-name="Group 770" clip-path="url(#clip-path-28)">
        <rect id="Rectangle_381" data-name="Rectangle 381" width="5.308" height="0.295" transform="translate(7.138 39.705)" fill="url(#linear-gradient-16)"/>
      </g>
    </g>
    <g id="Group_778" data-name="Group 778">
      <g id="Group_777" data-name="Group 777" clip-path="url(#clip-path)">
        <g id="Group_776" data-name="Group 776">
          <g id="Group_775" data-name="Group 775">
            <g id="Group_774" data-name="Group 774" clip-path="url(#clip-path-30)">
              <g id="Group_773" data-name="Group 773">
                <g id="Group_772" data-name="Group 772" clip-path="url(#clip-path-31)">
                  <rect id="Rectangle_382" data-name="Rectangle 382" width="10.766" height="9.31" transform="matrix(0.838, -0.546, 0.546, 0.838, 3.439, 33.199)" fill="url(#linear-gradient-17)"/>
                </g>
              </g>
            </g>
          </g>
        </g>
      </g>
    </g>
  </g>
</svg>
