<svg xmlns="http://www.w3.org/2000/svg" xmlns:xlink="http://www.w3.org/1999/xlink" viewBox="0 0 10.75 16"><defs><style>.cls-1{mask:url(#mask);filter:url(#luminosity-noclip-4);}.cls-2,.cls-4,.cls-6{mix-blend-mode:multiply;}.cls-2{fill:url(#linear-gradient);}.cls-3{mask:url(#mask-2);filter:url(#luminosity-noclip-5);}.cls-4{fill:url(#radial-gradient);}.cls-5{mask:url(#mask-3);filter:url(#luminosity-noclip-6);}.cls-6{fill:url(#linear-gradient-2);}.cls-7{fill:url(#radial-gradient-2);}.cls-8{mask:url(#mask-4);}.cls-9{fill:url(#linear-gradient-3);}.cls-10{fill:url(#linear-gradient-4);}.cls-11{fill:#008377;}.cls-12{mask:url(#mask-5);}.cls-13{fill:url(#radial-gradient-4);}.cls-14{fill:url(#radial-gradient-5);}.cls-15{mask:url(#mask-6);}.cls-16{fill:url(#linear-gradient-5);}.cls-17{fill:#6c6c6c;}.cls-18{filter:url(#luminosity-noclip-3);}.cls-19{filter:url(#luminosity-noclip-2);}.cls-20{filter:url(#luminosity-noclip);}</style><filter id="luminosity-noclip" x="0.05" y="-8138.49" width="10.66" height="32766" filterUnits="userSpaceOnUse" color-interpolation-filters="sRGB"><feFlood flood-color="#fff" result="bg"/><feBlend in="SourceGraphic" in2="bg"/></filter><mask id="mask" x="0.05" y="-8138.49" width="10.66" height="32766" maskUnits="userSpaceOnUse"><g class="cls-20"/></mask><linearGradient id="linear-gradient" x1="1.27" y1="13.66" x2="6.9" y2="3.9" gradientUnits="userSpaceOnUse"><stop offset="0" stop-color="#fff"/><stop offset="0.11" stop-color="#cbcbcb"/><stop offset="0.24" stop-color="#969696"/><stop offset="0.37" stop-color="#686868"/><stop offset="0.5" stop-color="#434343"/><stop offset="0.63" stop-color="#252525"/><stop offset="0.75" stop-color="#111"/><stop offset="0.88" stop-color="#040404"/><stop offset="1"/></linearGradient><filter id="luminosity-noclip-2" x="1.68" y="-8138.49" width="8.9" height="32766" filterUnits="userSpaceOnUse" color-interpolation-filters="sRGB"><feFlood flood-color="#fff" result="bg"/><feBlend in="SourceGraphic" in2="bg"/></filter><mask id="mask-2" x="1.68" y="-8138.49" width="8.9" height="32766" maskUnits="userSpaceOnUse"><g class="cls-19"/></mask><radialGradient id="radial-gradient" cx="10.13" cy="0.77" r="8.22" gradientUnits="userSpaceOnUse"><stop offset="0" stop-color="#bfbfbf"/><stop offset="1"/></radialGradient><filter id="luminosity-noclip-3" x="2.44" y="-8138.49" width="6.99" height="32766" filterUnits="userSpaceOnUse" color-interpolation-filters="sRGB"><feFlood flood-color="#fff" result="bg"/><feBlend in="SourceGraphic" in2="bg"/></filter><mask id="mask-3" x="2.44" y="-8138.49" width="6.99" height="32766" maskUnits="userSpaceOnUse"><g class="cls-18"/></mask><linearGradient id="linear-gradient-2" x1="5.31" y1="5.45" x2="8.24" y2="2.51" gradientUnits="userSpaceOnUse"><stop offset="0"/><stop offset="1" stop-color="#fff"/></linearGradient><radialGradient id="radial-gradient-2" cx="6.59" cy="3.8" r="8.31" gradientUnits="userSpaceOnUse"><stop offset="0" stop-color="#00cca0"/><stop offset="0.23" stop-color="#00c89e"/><stop offset="0.47" stop-color="#00bb97"/><stop offset="0.71" stop-color="#00a78b"/><stop offset="0.95" stop-color="#008a7b"/><stop offset="1" stop-color="#008377"/></radialGradient><filter id="luminosity-noclip-4" x="0.05" y="6.1" width="10.66" height="9.9" filterUnits="userSpaceOnUse" color-interpolation-filters="sRGB"><feFlood flood-color="#fff" result="bg"/><feBlend in="SourceGraphic" in2="bg"/></filter><mask id="mask-4" x="0.05" y="6.1" width="10.66" height="9.9" maskUnits="userSpaceOnUse"><g class="cls-1"><path class="cls-2" d="M10.09,7.59c-1.68,2.75-4.69,7.9-4.71,7.93s-3-5.18-4.72-7.93A5,5,0,0,1,.05,6.1,5.36,5.36,0,0,0,.7,8c1.58,2.76,3.82,6.68,4.48,7.85a.27.27,0,0,0,.18.11h0a.27.27,0,0,0,.18-.11L10.05,8a5.58,5.58,0,0,0,.66-1.94A5.28,5.28,0,0,1,10.09,7.59Z"/></g></mask><linearGradient id="linear-gradient-3" x1="1.27" y1="13.66" x2="6.9" y2="3.9" gradientUnits="userSpaceOnUse"><stop offset="0" stop-color="#004e46"/><stop offset="0.17" stop-color="#005e55"/><stop offset="0.45" stop-color="#007268"/><stop offset="0.73" stop-color="#007f73"/><stop offset="1" stop-color="#008377"/></linearGradient><linearGradient id="linear-gradient-4" x1="-254.25" y1="-151.2" x2="-254.25" y2="-142.3" gradientTransform="translate(-70.64 -278.17) rotate(-135)" xlink:href="#radial-gradient-2"/><filter id="luminosity-noclip-5" x="1.68" y="0.18" width="8.9" height="8.9" filterUnits="userSpaceOnUse" color-interpolation-filters="sRGB"><feFlood flood-color="#fff" result="bg"/><feBlend in="SourceGraphic" in2="bg"/></filter><mask id="mask-5" x="1.68" y="0.18" width="8.9" height="8.9" maskUnits="userSpaceOnUse"><g class="cls-3"><path class="cls-4" d="M10.58,5.31a5.14,5.14,0,0,0-8.9-3.49A5.14,5.14,0,0,1,10.3,5.59,5.09,5.09,0,0,1,8.93,9.07,5.1,5.1,0,0,0,10.58,5.31Z"/></g></mask><radialGradient id="radial-gradient-4" cx="10.13" cy="0.77" r="8.22" gradientUnits="userSpaceOnUse"><stop offset="0" stop-color="#1fcccc"/><stop offset="1" stop-color="#1fcccc"/></radialGradient><radialGradient id="radial-gradient-5" cx="6.08" cy="4.31" r="5.3" gradientUnits="userSpaceOnUse"><stop offset="0" stop-color="#fff"/><stop offset="0.27" stop-color="#fcfcfc"/><stop offset="0.44" stop-color="#f4f4f4"/><stop offset="0.57" stop-color="#e6e6e6"/><stop offset="0.69" stop-color="#d2d2d2"/><stop offset="0.8" stop-color="#b8b8b8"/><stop offset="0.89" stop-color="#9d9d9d"/></radialGradient><filter id="luminosity-noclip-6" x="2.44" y="1.32" width="6.99" height="6.99" filterUnits="userSpaceOnUse" color-interpolation-filters="sRGB"><feFlood flood-color="#fff" result="bg"/><feBlend in="SourceGraphic" in2="bg"/></filter><mask id="mask-6" x="2.44" y="1.32" width="6.99" height="6.99" maskUnits="userSpaceOnUse"><g class="cls-5"><path class="cls-6" d="M5.38,1.32A4.07,4.07,0,0,0,2.44,2.58,4.05,4.05,0,0,1,8.17,8.31a4.05,4.05,0,0,0-2.79-7Z"/></g></mask><linearGradient id="linear-gradient-5" x1="5.31" y1="5.45" x2="8.24" y2="2.51" gradientUnits="userSpaceOnUse"><stop offset="0" stop-color="#fff"/><stop offset="1" stop-color="#9d9d9d"/></linearGradient></defs><title>B2</title><g id="Layer_2" data-name="Layer 2"><g id="layer_1-2" data-name="layer_1"><path class="cls-7" d="M10.75,5.38A5.38,5.38,0,1,0,.7,8c1.58,2.76,3.82,6.68,4.48,7.85a.23.23,0,0,0,.2.11.21.21,0,0,0,.19-.11L10.05,8A5.3,5.3,0,0,0,10.75,5.38Z"/><path class="cls-7" d="M10.75,5.38A5.38,5.38,0,1,0,.7,8c1.58,2.76,3.82,6.68,4.48,7.85a.23.23,0,0,0,.2.11.21.21,0,0,0,.19-.11L10.05,8A5.3,5.3,0,0,0,10.75,5.38Z"/><g class="cls-8"><path class="cls-9" d="M10.09,7.59c-1.68,2.75-4.69,7.9-4.71,7.93s-3-5.18-4.72-7.93A5,5,0,0,1,.05,6.1,5.36,5.36,0,0,0,.7,8c1.58,2.76,3.82,6.68,4.48,7.85a.27.27,0,0,0,.18.11h0a.27.27,0,0,0,.18-.11L10.05,8a5.58,5.58,0,0,0,.66-1.94A5.28,5.28,0,0,1,10.09,7.59Z"/></g><circle class="cls-10" cx="5.38" cy="5.38" r="4.45"/><path class="cls-11" d="M8.33,2.43a4.17,4.17,0,1,1-5.9,0A4.19,4.19,0,0,1,8.33,2.43Z"/><g class="cls-12"><path class="cls-13" d="M10.58,5.31a5.14,5.14,0,0,0-8.9-3.49A5.14,5.14,0,0,1,10.3,5.59,5.09,5.09,0,0,1,8.93,9.07,5.1,5.1,0,0,0,10.58,5.31Z"/></g><path class="cls-14" d="M5.38,9.43a4.06,4.06,0,1,1,4.05-4A4.06,4.06,0,0,1,5.38,9.43Z"/><g class="cls-15"><path class="cls-16" d="M5.38,1.32A4.07,4.07,0,0,0,2.44,2.58,4.05,4.05,0,0,1,8.17,8.31a4.05,4.05,0,0,0-2.79-7Z"/></g><path class="cls-17" d="M4,7.55V3H5.61a2,2,0,0,1,1.17.28.88.88,0,0,1,.41.78.89.89,0,0,1-.25.64,1.32,1.32,0,0,1-.63.39h0a1.24,1.24,0,0,1,.77.36,1,1,0,0,1,.29.72,1.2,1.2,0,0,1-.45,1,1.87,1.87,0,0,1-1.22.37ZM5,3.76V4.84h.45a.72.72,0,0,0,.5-.16.52.52,0,0,0,.18-.42c0-.33-.25-.5-.74-.5ZM5,5.6V6.79h.56a.84.84,0,0,0,.55-.16.53.53,0,0,0,.2-.45.53.53,0,0,0-.19-.43.93.93,0,0,0-.56-.15Z"/></g></g></svg>