<?xml version="1.0" standalone="no"?>
<!DOCTYPE svg PUBLIC "-//W3C//DTD SVG 1.1//EN" "http://www.w3.org/Graphics/SVG/1.1/DTD/svg11.dtd" >
<svg xmlns="http://www.w3.org/2000/svg" xmlns:xlink="http://www.w3.org/1999/xlink" version="1.1">
<metadata>
Created by FontForge 20200427 at Tue Nov  3 16:35:15 2015
 By www
Copyright (c) 2015 by Fernando Diaz. All rights reserved.
</metadata>
<defs>
<font id="TrasandinaW03-LightItalic" horiz-adv-x="1164" >
  <font-face 
    font-family="TrasandinaW03-LightItalic"
    font-weight="300"
    font-style="italic"
    font-stretch="normal"
    units-per-em="2048"
    panose-1="1 0 0 0 0 0 0 0 0 0"
    ascent="1638"
    descent="-410"
    x-height="996"
    cap-height="1354"
    bbox="-219 -503 2691 2153"
    underline-thickness="102"
    underline-position="-256"
    unicode-range="U+0020-FB06"
  />
<missing-glyph horiz-adv-x="1429" 
d="M578 1015l-109 -96l198 -240l-272 -245l79 -96l273 241l199 -241l108 96l-200 245l270 240l-79 96l-268 -241zM119 0l202 1354h1082l-203 -1354h-1081z" />
    <glyph glyph-name="percent" unicode="&#x30;&#x2f;&#x30;" horiz-adv-x="1605" 
d="M1273 1354h107l-963 -1354h-107zM181 931l22 143q20 133 112.5 211.5t218.5 78.5q127 0 197 -78.5t50 -211.5l-21 -143q-21 -133 -114 -211.5t-220 -78.5q-125 0 -195 79t-50 211zM303 1067l-19 -129q-14 -94 28.5 -149.5t128.5 -55.5t145.5 55.5t72.5 149.5l20 129
q13 94 -29.5 149.5t-128.5 55.5q-85 0 -144.5 -55.5t-73.5 -149.5zM911 279l22 143q20 133 112.5 211.5t218.5 78.5q127 0 197 -78.5t50 -211.5l-21 -143q-21 -133 -114 -211.5t-220 -78.5q-125 0 -195 79t-50 211zM1033 415l-19 -129q-14 -94 28.5 -149.5t127.5 -55.5
q86 0 146 55.5t73 149.5l20 129q13 94 -29.5 149.5t-128.5 55.5q-85 0 -144.5 -55.5t-73.5 -149.5z" />
    <glyph glyph-name="onequarter" unicode="&#x31;&#x2f;&#x34;" horiz-adv-x="956" 
d="M546 484h98l-68 -457h130l-13 -86h-130l-24 -160h-103l24 160h-326l12 81l400 461v1zM323 871l13 90h209l77 512l-223 -72l-4 82l254 91h91l-92 -613h194l-13 -90h-506zM117 634l12 88h804l-13 -88h-803zM260 25h217l46 307z" />
    <glyph glyph-name="onehalf" unicode="&#x31;&#x2f;&#x32;" horiz-adv-x="956" 
d="M149 -221l13 86q27 20 156.5 112.5t180 139t70.5 87t20 77.5q0 58 -40 88t-105 30q-76 0 -184 -32l-5 85q111 40 212 40q100 0 165.5 -50.5t65.5 -146.5q0 -58 -25 -109t-81 -106.5t-276 -210.5h341l-13 -90h-495zM303 871l13 90h210l77 512l-223 -72l-5 82l255 91h91
l-92 -613h194l-13 -90h-507zM117 634l12 88h804l-13 -88h-803z" />
    <glyph glyph-name="threequarters" unicode="&#x33;&#x2f;&#x34;" horiz-adv-x="956" 
d="M540 484h99l-69 -457h131l-13 -86h-131l-23 -160h-103l24 160h-326l12 81l399 461v1zM438 1186l12 82h130q61 0 104.5 32.5t43.5 93.5q0 45 -37.5 72t-102.5 27q-86 0 -162 -21l-2 84q92 28 180 28q110 0 171.5 -45.5t61.5 -125.5q0 -64 -35.5 -110.5t-92.5 -71.5
q41 -18 66 -55t25 -88q0 -107 -84.5 -167.5t-221.5 -60.5q-89 0 -176 24l28 89q72 -21 160 -21q85 0 136 34.5t51 99.5q0 49 -37 74.5t-89 25.5h-129zM117 634l12 88h804l-13 -88h-803zM255 25h217l46 307z" />
    <glyph glyph-name="perthousand" unicode="&#x30;&#x2f;&#x30;&#x30;" horiz-adv-x="2029" 
d="M911 279l22 143q20 133 112.5 211.5t218.5 78.5q77 0 135.5 -32.5t85.5 -89.5q45 57 113 89.5t144 32.5q126 0 196 -78.5t51 -211.5l-22 -143q-20 -132 -113.5 -211t-219.5 -79q-77 0 -134.5 32t-85.5 90q-45 -58 -113 -90t-145 -32q-125 0 -195 79t-50 211zM181 931
l22 143q20 133 112.5 211.5t218.5 78.5q127 0 197 -78.5t50 -211.5l-21 -143q-21 -133 -114 -211.5t-220 -78.5q-125 0 -195 79t-50 211zM1511 418l-19 -123l-3 -19q-10 -90 32.5 -142.5t125.5 -52.5q90 0 148 58.5t74 159.5l16 116q14 94 -28.5 149.5t-128.5 55.5
q-85 0 -144.5 -55t-72.5 -147zM1033 415l-19 -129q-14 -94 28.5 -149.5t127.5 -55.5q86 0 146 55.5t73 149.5l20 133q13 92 -30 146.5t-128 54.5t-144.5 -55.5t-73.5 -149.5zM303 1067l-19 -129q-14 -94 28.5 -149.5t128.5 -55.5t145.5 55.5t72.5 149.5l20 129
q13 94 -29.5 149.5t-128.5 55.5q-85 0 -144.5 -55.5t-73.5 -149.5zM1274 1354h107l-963 -1354h-107z" />
    <glyph glyph-name="emdash_guilsinglright.liga" unicode="&#x2d;&#x2d;&#x3e;" horiz-adv-x="2129" 
d="M185 447l15 102h1589l-417 512l83 71l520 -634l-710 -634l-61 71l571 512h-1590z" />
    <glyph glyph-name="endash_guilsinglright.liga" unicode="&#x2d;&#x3e;" horiz-adv-x="1691" 
d="M185 447l15 102h1151l-417 512l82 71l521 -634l-710 -634l-62 71l571 512h-1151z" />
    <glyph glyph-name="guilsinglleft_hyphen_hyphen.liga" unicode="&#x3c;&#x2d;&#x2d;" horiz-adv-x="2130" 
d="M797 -65l-83 -71l-521 634l710 634l62 -71l-571 -512h1589l-15 -102h-1589z" />
    <glyph glyph-name="guilsinglleft_endash.liga" unicode="&#x3c;&#x2d;" horiz-adv-x="1691" 
d="M797 -65l-83 -71l-521 634l710 634l62 -71l-571 -512h1150l-15 -102h-1150z" />
    <glyph glyph-name=".notdef" horiz-adv-x="1429" 
d="M578 1015l-109 -96l198 -240l-272 -245l79 -96l273 241l199 -241l108 96l-200 245l270 240l-79 96l-268 -241zM119 0l202 1354h1082l-203 -1354h-1081z" />
    <glyph glyph-name=".null" horiz-adv-x="0" 
 />
    <glyph glyph-name="nonmarkingreturn" horiz-adv-x="682" 
 />
    <glyph glyph-name="space" unicode=" " horiz-adv-x="466" 
 />
    <glyph glyph-name="exclam" unicode="!" horiz-adv-x="417" 
d="M295 1354h123l-169 -1024h-92zM86 43q0 39 24 63.5t63 24.5q30 0 47.5 -17t17.5 -45q0 -40 -24 -64.5t-63 -24.5q-31 0 -48 17t-17 46z" />
    <glyph glyph-name="quotedbl" unicode="&#x22;" horiz-adv-x="634" 
d="M276 1378h103l-76 -483h-95zM557 1378h103l-76 -483h-96z" />
    <glyph glyph-name="numbersign" unicode="#" horiz-adv-x="1441" 
d="M287 864l25 91h263l112 399h103l-112 -399h346l113 399h101l-112 -399h257l-26 -91h-258l-106 -379h258l-26 -91h-258l-111 -394h-104l112 394h-345l-111 -394h-102l110 394h-266l25 91h267l106 379h-261zM651 864l-106 -379h345l108 379h-347z" />
    <glyph glyph-name="dollar" unicode="$" horiz-adv-x="1019" 
d="M633 1534h107l-44 -270q124 -7 250 -50l-35 -94q-130 47 -272 47q-135 0 -214 -61t-79 -183q0 -134 138 -172l170 -47q114 -32 166 -95.5t52 -161.5q0 -162 -100.5 -253.5t-281.5 -103.5l-38 -270h-105l44 269q-158 6 -282 59l38 91q53 -20 132.5 -36.5t162.5 -16.5
q154 0 237.5 57t83.5 186q0 61 -37 107t-144 77l-171 49q-77 22 -124.5 82t-47.5 165q0 148 99 243.5t258 109.5z" />
    <glyph glyph-name="ampersand" unicode="&#x26;" horiz-adv-x="1184" 
d="M96 330q0 251 292 417l-25 40q-69 110 -69 211q0 112 52.5 194.5t152 132t238.5 49.5q146 0 322 -66l-37 -94q-159 61 -294 61q-109 0 -179.5 -29t-107.5 -84t-37 -138q0 -101 82 -237l363 -603q56 53 86 123t30 143q0 96 -53.5 203.5t-194.5 252.5l10 74h473l-14 -93
h-328q205 -225 205 -427q0 -100 -42.5 -192t-122.5 -161l119 -194l-85 -61l-118 195q-125 -67 -286 -67q-196 0 -314 95t-118 255zM543 79q130 0 221 47l-333 553q-105 -63 -165 -143.5t-60 -189.5q0 -123 89.5 -195t247.5 -72z" />
    <glyph glyph-name="quotesingle" unicode="'" horiz-adv-x="354" 
d="M276 1378h103l-76 -483h-95z" />
    <glyph glyph-name="parenleft" unicode="(" horiz-adv-x="659" 
d="M292 526q0 -238 83.5 -454.5t202.5 -351.5l-76 -64q-131 134 -226 361.5t-95 493.5q0 202 65 413t213 415t348 360l58 -64q-261 -220 -417 -507.5t-156 -601.5z" />
    <glyph glyph-name="parenright" unicode=")" horiz-adv-x="659" 
d="M459 828q0 238 -83.5 454.5t-202.5 351.5l76 64q74 -75 147 -199t123.5 -292t50.5 -364q0 -202 -65 -413.5t-213 -415.5t-348 -359l-57 63q261 222 416.5 509t155.5 601z" />
    <glyph glyph-name="asterisk" unicode="*" horiz-adv-x="704" 
d="M169 1191l41 87l224 -91l33 260h92l-45 -260l251 91l16 -87l-256 -82l121 -209l-81 -51l-110 209l-172 -209l-66 51l184 209z" />
    <glyph glyph-name="plus" unicode="+" horiz-adv-x="1110" 
d="M609 1073h103l-52 -348h330l-15 -95h-330l-52 -348h-103l53 348h-330l14 95h330z" />
    <glyph glyph-name="comma" unicode="," horiz-adv-x="326" 
d="M67 128h106l-13 -88q-15 -101 -58 -193t-98 -161h-86q47 68 84.5 160.5t50.5 181.5z" />
    <glyph glyph-name="hyphen" unicode="-" horiz-adv-x="797" 
d="M138 452l13 91h547l-14 -91h-546z" />
    <glyph glyph-name="period" unicode="." horiz-adv-x="400" 
d="M77 43q0 39 24.5 63.5t63.5 24.5q30 0 47.5 -17t17.5 -45q0 -40 -24.5 -64.5t-63.5 -24.5q-30 0 -47.5 17t-17.5 46z" />
    <glyph glyph-name="slash" unicode="/" horiz-adv-x="878" 
d="M988 1679h114l-1119 -2004h-115z" />
    <glyph glyph-name="zero" unicode="0" horiz-adv-x="1148" 
d="M216 938q11 74 45 151t98 140t157 104t208 41q91 0 168 -29.5t129.5 -86t74.5 -138.5t7 -182l-79 -522q-11 -74 -45 -151t-98 -140t-157 -104t-208 -41q-91 0 -168 29.5t-129.5 86t-74 138.5t-6.5 182zM324 930l-76 -506q-24 -159 53.5 -252.5t229.5 -93.5
q151 0 256.5 93.5t129.5 252.5l75 506q24 159 -53.5 252.5t-228.5 93.5q-152 0 -257.5 -93.5t-128.5 -252.5z" />
    <glyph glyph-name="one" unicode="1" horiz-adv-x="643" 
d="M178 1134l-9 92l341 128h93l-203 -1354h-109l186 1245z" />
    <glyph glyph-name="two" unicode="2" horiz-adv-x="922" 
d="M21 0l14 89q365 364 423 424t110.5 118.5t103.5 124t90.5 145t39.5 166.5q0 104 -65 155t-178 51q-152 0 -311 -66l-9 90q167 77 338 77q109 0 184 -37t114 -101.5t39 -155.5q0 -89 -36.5 -181.5t-134 -212t-329.5 -352t-238 -238.5h626l-14 -96h-767z" />
    <glyph glyph-name="three" unicode="3" horiz-adv-x="906" 
d="M260 639l13 94h175q78 0 156 39.5t121.5 116.5t43.5 165q0 108 -67 165t-185 57q-127 0 -280 -43l-6 87q155 54 306 54q155 0 247.5 -79t92.5 -223q0 -132 -70 -231.5t-185 -149.5q82 -34 129 -108.5t47 -177.5q0 -76 -25.5 -150t-86.5 -135.5t-154 -100.5t-213 -39
q-157 0 -296 45l33 94q141 -41 275 -41q107 0 189.5 43.5t128 114.5t45.5 166q0 113 -75 175t-186 62h-173z" />
    <glyph glyph-name="four" unicode="4" horiz-adv-x="1059" 
d="M837 1354h106l-136 -912h209l-15 -94h-208l-52 -348h-108l52 348h-599l13 90zM221 442h479l110 734z" />
    <glyph glyph-name="five" unicode="5" horiz-adv-x="943" 
d="M865 438q0 -127 -52 -230t-169.5 -165.5t-281.5 -62.5q-178 0 -325 45l36 94q156 -39 298 -39q126 0 210.5 43t128 119t43.5 185q0 128 -83 191t-231 63l-255 -1l130 674h623l-15 -96h-526l-93 -483h165q187 -2 292 -88t105 -249z" />
    <glyph glyph-name="six" unicode="6" horiz-adv-x="1032" 
d="M131 368l82 550q12 79 46 159.5t98.5 146t160 108t220.5 42.5q127 0 270 -37l-35 -94q-130 32 -249 32q-164 0 -272 -96.5t-135 -272.5l-30 -199q171 72 320 72q160 0 256 -89t96 -256q0 -91 -34.5 -174.5t-98.5 -146t-152.5 -98t-191.5 -35.5q-86 0 -157.5 26
t-119.5 76.5t-67.5 123.5t-6.5 162zM584 680q-61 0 -144 -15.5t-167 -52.5l-36 -241q-20 -136 52.5 -215t207.5 -79q111 0 189.5 48t119 123.5t40.5 174.5q0 124 -67.5 190.5t-194.5 66.5z" />
    <glyph glyph-name="seven" unicode="7" horiz-adv-x="838" 
d="M164 1258l14 96h755l-14 -92l-707 -1262h-115l709 1258h-642z" />
    <glyph glyph-name="eight" unicode="8" horiz-adv-x="1023" 
d="M921 354q0 -62 -23 -127t-78.5 -119.5t-147.5 -91t-219 -36.5q-171 0 -270 76.5t-99 207.5q0 144 92.5 246t270.5 180q-103 52 -163.5 122.5t-60.5 175.5q0 61 22 127.5t75 123.5t139.5 96t201.5 39q154 0 246 -81t92 -213q0 -140 -82 -228t-244 -158q248 -129 248 -340z
M467 74q89 0 171 32t126 99t44 147q0 179 -257 294q-166 -62 -258.5 -155.5t-92.5 -208.5q0 -97 73 -152.5t194 -55.5zM890 1069q0 100 -68.5 153.5t-174.5 53.5q-78 0 -154 -30.5t-118.5 -97t-42.5 -149.5q0 -77 55 -140t182 -119q158 60 239.5 139t81.5 190z" />
    <glyph glyph-name="nine" unicode="9" horiz-adv-x="1043" 
d="M819 416l35 236q-70 -33 -156 -57t-165 -24q-155 0 -252.5 94t-97.5 255q0 71 24.5 148.5t91.5 153.5t165.5 114t195.5 38q86 0 157.5 -26t119.5 -76.5t67.5 -123.5t6.5 -162l-82 -550q-20 -133 -85.5 -236.5t-183 -161.5t-265.5 -58q-70 0 -149 12t-140 35l35 94
q82 -24 141 -33t124 -9q167 0 278.5 90t134.5 247zM557 670q82 0 165 23t147 56l35 234q13 84 -11.5 148.5t-86.5 105t-162 40.5q-111 0 -189.5 -48t-119 -124.5t-40.5 -177.5q0 -125 67 -191t195 -66z" />
    <glyph glyph-name="colon" unicode=":" horiz-adv-x="399" 
d="M209 927q0 40 24.5 64.5t63.5 24.5q30 0 47.5 -17t17.5 -46q0 -40 -24.5 -64t-63.5 -24q-30 0 -47.5 17t-17.5 45zM77 43q0 39 24.5 63.5t63.5 24.5q30 0 47.5 -17t17.5 -45q0 -40 -24.5 -64.5t-63.5 -24.5q-30 0 -47.5 17t-17.5 46z" />
    <glyph glyph-name="semicolon" unicode=";" horiz-adv-x="333" 
d="M77 128h105l-13 -88q-15 -101 -58 -193.5t-97 -160.5h-87q47 68 84.5 160.5t50.5 181.5zM169 927q0 40 24 64.5t64 24.5q30 0 47 -17t17 -46q0 -40 -24 -64t-63 -24q-30 0 -47.5 17t-17.5 45z" />
    <glyph glyph-name="less" unicode="&#x3c;" horiz-adv-x="927" 
d="M220 677l570 433l63 -69l-482 -364l374 -364l-84 -69z" />
    <glyph glyph-name="equal" unicode="=" horiz-adv-x="1027" 
d="M234 775l15 97h679l-14 -97h-680zM191 489l15 96h680l-14 -96h-681z" />
    <glyph glyph-name="greater" unicode="&#x3e;" horiz-adv-x="926" 
d="M799 677l-570 -433l-64 69l482 364l-373 364l84 69z" />
    <glyph glyph-name="question" unicode="?" horiz-adv-x="714" 
d="M322 401l-11 -71h-94l9 64q9 62 45.5 126.5t152 172.5t149.5 154t56 98.5t22 119.5q0 102 -57 155t-160 53q-125 0 -265 -60l-14 90q55 26 136 48.5t168 22.5q135 0 220.5 -76t85.5 -210q0 -48 -13 -107t-51 -122.5t-86 -112.5t-163.5 -154t-129.5 -191zM149 43
q0 39 24 63.5t64 24.5q30 0 47.5 -17t17.5 -45q0 -40 -24.5 -64.5t-63.5 -24.5q-30 0 -47.5 17t-17.5 46z" />
    <glyph glyph-name="at" unicode="@" horiz-adv-x="2110" 
d="M1434 -20q-88 0 -139 54t-53 129q-226 -163 -383 -163q-51 0 -100.5 18t-85 64t-46.5 123.5t20 187.5l55 190q38 132 119.5 220t179.5 130.5t206 42.5q75 0 163 -18.5t156 -67.5l-175 -614q-23 -85 8 -144.5t108 -59.5q84 0 179 75t161 230t66 364q0 147 -55 273.5
t-180.5 202.5t-317.5 76q-212 0 -404 -82t-337 -228.5t-226.5 -340t-81.5 -408.5q0 -246 129.5 -392t357.5 -146q142 0 309 50l4 -89q-176 -58 -351 -58q-160 0 -288 71.5t-201 214.5t-73 333q0 327 168 603.5t443.5 424.5t586.5 148q195 0 338 -81.5t216 -231t73 -330.5
q0 -198 -71 -375.5t-200.5 -286.5t-277.5 -109zM910 99q73 0 164.5 43.5t160.5 106.5l167 585q-99 45 -220 45q-136 0 -236.5 -83.5t-139.5 -220.5l-48 -174q-39 -140 -2.5 -221t154.5 -81z" />
    <glyph glyph-name="A" unicode="A" horiz-adv-x="1174" 
d="M1057 0h-115l-67 369h-576l-177 -369h-115l655 1354h145zM718 1247l-375 -784h516z" />
    <glyph glyph-name="B" unicode="B" horiz-adv-x="1083" 
d="M538 0h-417l202 1354h409q155 0 235.5 -75t80.5 -209t-65.5 -227.5t-191.5 -136.5q96 -27 155.5 -104.5t59.5 -180.5q0 -91 -37 -169.5t-102 -134.5t-150.5 -86.5t-178.5 -30.5zM898 420q0 111 -76.5 175t-203.5 64h-289l-85 -566h298q159 0 257.5 90t98.5 237zM638 748
q144 0 221.5 82.5t77.5 222.5q0 100 -57.5 154t-170.5 54h-290l-77 -513h296z" />
    <glyph glyph-name="C" unicode="C" horiz-adv-x="980" 
d="M851 136l7 -90q-148 -66 -337 -66q-89 0 -166.5 30.5t-131.5 87t-77 137.5t-9 177l78 522q11 74 46 151.5t100.5 141t159.5 105.5t208 42q66 0 147.5 -16t145.5 -52l-41 -92q-125 59 -268 59q-109 0 -192.5 -49t-133.5 -124.5t-65 -173.5l-75 -505q-15 -96 13.5 -170.5
t100 -122t184.5 -47.5q166 0 306 55z" />
    <glyph glyph-name="D" unicode="D" horiz-adv-x="1161" 
d="M121 0l202 1354h393q94 0 174 -29.5t135.5 -84t79.5 -132.5t10 -170l-78 -522q-11 -72 -45.5 -146t-100.5 -133.5t-162 -98t-216 -38.5h-392zM1006 930q22 149 -63 240t-248 91h-276l-175 -1168h276q165 0 276 89t135 242z" />
    <glyph glyph-name="E" unicode="E" horiz-adv-x="977" 
d="M121 0l202 1354h721l-15 -96h-610l-79 -525h591l-14 -96h-591l-81 -541h631l-14 -96h-741z" />
    <glyph glyph-name="F" unicode="F" horiz-adv-x="954" 
d="M121 0l202 1354h717l-14 -96h-607l-79 -525h588l-14 -96h-588l-95 -637h-110z" />
    <glyph glyph-name="G" unicode="G" horiz-adv-x="1067" 
d="M998 631l-86 -577q-74 -34 -174.5 -54t-200.5 -20q-95 0 -166 26t-125 70t-90.5 130t-17.5 210l76 514q11 76 47.5 154t105.5 142t170.5 106t229.5 42q181 0 327 -72l-43 -89q-60 25 -138 42.5t-154 17.5q-85 0 -160.5 -24t-133 -70t-95 -112t-49.5 -146l-74 -497
q-24 -160 62.5 -251.5t252.5 -91.5q131 0 255 39l76 511h105z" />
    <glyph glyph-name="H" unicode="H" horiz-adv-x="1244" 
d="M1013 0h-110l96 636h-674l-95 -636h-109l202 1354h109l-92 -622h673l93 622h109z" />
    <glyph glyph-name="I" unicode="I" horiz-adv-x="462" 
d="M432 1354l-202 -1354h-109l202 1354h109z" />
    <glyph glyph-name="J" unicode="J" horiz-adv-x="462" 
d="M323 1354h110l-207 -1386q-20 -135 -92 -238t-248 -198l-37 77q124 74 186.5 154t80.5 203z" />
    <glyph glyph-name="K" unicode="K" horiz-adv-x="1050" 
d="M432 1354l-94 -631h213l460 631h125l-505 -685l321 -669h-127l-296 627h-205l-94 -627h-109l202 1354h109z" />
    <glyph glyph-name="L" unicode="L" horiz-adv-x="924" 
d="M432 1354l-188 -1257h594l-14 -97h-703l202 1354h109z" />
    <glyph glyph-name="M" unicode="M" horiz-adv-x="1538" 
d="M1206 0l174 1165l-597 -995h-80l-300 995l-175 -1165h-107l202 1354h131l310 -1037l622 1037h129l-202 -1354h-107z" />
    <glyph glyph-name="N" unicode="N" horiz-adv-x="1265" 
d="M442 1354l510 -1171l174 1171h109l-202 -1354h-119l-509 1169l-175 -1169h-109l202 1354h119z" />
    <glyph glyph-name="O" unicode="O" horiz-adv-x="1187" 
d="M136 404l81 546q11 72 46 147t101.5 136t163 101t216.5 40q70 0 145 -19t137 -67.5t98.5 -132t18.5 -205.5l-82 -546q-11 -72 -46 -147t-101 -136t-162.5 -101t-216.5 -40q-70 0 -145 19t-137 67.5t-98.5 132t-18.5 205.5zM324 941l-79 -528q-23 -154 61 -245t244 -91
t271 91t134 245l79 528q23 154 -60.5 245t-244.5 91q-160 0 -271 -91t-134 -245z" />
    <glyph glyph-name="P" unicode="P" horiz-adv-x="1067" 
d="M597 515h-290l-77 -515h-109l202 1354h399q124 0 207 -51t119 -132t20 -187l-15 -97q-16 -107 -82 -196t-169 -132.5t-205 -43.5zM702 1261h-283l-98 -653h283q134 0 227.5 76.5t114.5 211.5l12 79q20 134 -51 210t-205 76z" />
    <glyph glyph-name="Q" unicode="Q" horiz-adv-x="1187" 
d="M136 404l81 546q11 72 46 147t101.5 136t163 101t216.5 40q70 0 145 -19t137 -67.5t98.5 -132t18.5 -205.5l-82 -546q-16 -105 -69.5 -189t-142.5 -144.5t-210 -81.5h2l106 -300l-105 -35l-101 326h-6q-70 0 -145 19t-137 67.5t-98.5 132t-18.5 205.5zM324 941l-79 -528
q-23 -154 61 -245t244 -91t271 91t134 245l79 528q23 154 -60.5 245t-244.5 91q-160 0 -271 -91t-134 -245z" />
    <glyph glyph-name="R" unicode="R" horiz-adv-x="1087" 
d="M323 1354h414q124 0 207.5 -50t119.5 -129.5t20 -184.5l-13 -89q-21 -142 -119 -235.5t-237 -118.5l208 -547h-123l-199 535h-291l-80 -535h-109zM717 1261h-298l-95 -633h299q133 0 227 74.5t113 206.5l11 72q12 81 -12.5 142.5t-85 99.5t-159.5 38z" />
    <glyph glyph-name="S" unicode="S" horiz-adv-x="970" 
d="M877 404q0 -205 -127.5 -314.5t-356.5 -109.5q-195 0 -350 67l36 97q160 -63 321 -63q109 0 195.5 28.5t129 101.5t42.5 178q0 83 -46 134.5t-153 85.5l-187 59q-83 26 -133.5 95.5t-50.5 190.5q0 93 33.5 171t94.5 133.5t144 85.5t178 30q11 0 41.5 -1t97 -8t179.5 -50
l-32 -97q-139 55 -295 55q-152 0 -242 -77.5t-90 -230.5q0 -80 35.5 -130.5t115.5 -75.5l187 -58q121 -39 177 -112t56 -185z" />
    <glyph glyph-name="T" unicode="T" horiz-adv-x="972" 
d="M377 0l187 1258h-405l15 96h919l-14 -96h-405l-188 -1258h-109z" />
    <glyph glyph-name="U" unicode="U" horiz-adv-x="1183" 
d="M1075 1354h110l-144 -961q-14 -92 -58.5 -169.5t-113 -131.5t-155 -83t-180.5 -29t-172 29t-130 83t-73.5 131.5t-7.5 169.5l143 961h110l-144 -958q-21 -144 59 -231.5t229 -87.5q91 0 177.5 38t140 115t66.5 166z" />
    <glyph glyph-name="V" unicode="V" horiz-adv-x="1166" 
d="M1138 1354h113l-651 -1354h-144l-247 1354h114l222 -1234z" />
    <glyph glyph-name="W" unicode="W" horiz-adv-x="1821" 
d="M1792 1354h113l-591 -1354h-139l-144 1174l-494 -1174h-140l-187 1354h114l163 -1227l512 1207h112l150 -1207z" />
    <glyph glyph-name="X" unicode="X" horiz-adv-x="1067" 
d="M325 1354l268 -586l444 586h120l-505 -662l323 -692h-124l-282 608l-463 -608h-124l527 684l-304 670h120z" />
    <glyph glyph-name="Y" unicode="Y" horiz-adv-x="1070" 
d="M1059 1354h115l-564 -849l-75 -505h-110l76 505l-310 849h114l266 -742z" />
    <glyph glyph-name="Z" unicode="Z" horiz-adv-x="992" 
d="M236 1258l15 96h783l-14 -89l-866 -1169h724l-14 -96h-848l13 89l866 1169h-659z" />
    <glyph glyph-name="bracketleft" unicode="[" horiz-adv-x="564" 
d="M415 -233l-14 -92h-334l300 2004h334l-14 -92h-226l-272 -1820h226z" />
    <glyph glyph-name="backslash" unicode="\" horiz-adv-x="878" 
d="M168 1679h114l520 -2004h-114z" />
    <glyph glyph-name="bracketright" unicode="]" horiz-adv-x="564" 
d="M241 1586l14 93h334l-300 -2004h-333l13 92h227l271 1819h-226z" />
    <glyph glyph-name="asciicircum" unicode="^" horiz-adv-x="1012" 
d="M303 809h-112l421 635h110l231 -635h-111l-190 537z" />
    <glyph glyph-name="underscore" unicode="_" horiz-adv-x="1084" 
d="M44 -181l13 92h834l-14 -92h-833z" />
    <glyph glyph-name="grave" unicode="`" horiz-adv-x="614" 
d="M611 1184l-63 -63l-272 255l81 77z" />
    <glyph glyph-name="a" unicode="a" horiz-adv-x="1051" 
d="M131 369l38 257q27 178 152 284t303 106q102 0 190 -22t146 -57l-140 -937h-90l12 128q-76 -66 -165.5 -107t-175.5 -41q-144 0 -220 106t-50 283zM439 79q74 0 160 42t147 102l98 650q-108 46 -235 46q-139 0 -226 -81.5t-108 -218.5l-36 -242q-21 -139 29 -218.5
t171 -79.5z" />
    <glyph glyph-name="b" unicode="b" horiz-adv-x="1059" 
d="M960 627l-39 -258q-27 -178 -152 -283.5t-303 -105.5q-76 0 -168 17t-168 62l207 1385h106l-85 -563q74 59 161.5 97t170.5 38q144 0 220 -106t50 -283zM652 917q-73 0 -160 -40t-147 -99l-98 -656q112 -45 235 -45q138 0 225 81.5t108 218.5l36 242q21 139 -28.5 218.5
t-170.5 79.5z" />
    <glyph glyph-name="c" unicode="c" horiz-adv-x="825" 
d="M275 615l-35 -236q-21 -138 40 -219t190 -81q46 0 110 8t111 22v-94q-37 -12 -104 -23.5t-134 -11.5q-170 0 -259.5 105t-62.5 285l38 256q27 177 148 283.5t286 106.5q128 0 226 -41l-35 -93q-105 35 -203 35q-128 0 -212 -82t-104 -220z" />
    <glyph glyph-name="d" unicode="d" horiz-adv-x="1052" 
d="M820 0h-90l11 120q-77 -62 -166 -101t-174 -39q-144 0 -220 106t-50 283l38 257q27 178 152 284t303 106q47 0 112 -10t123 -36l72 474h105zM439 79q72 0 158.5 40t147.5 99l98 652q-110 49 -234 49q-139 0 -226 -81.5t-108 -218.5l-36 -242q-21 -139 29 -218.5
t171 -79.5z" />
    <glyph glyph-name="e" unicode="e" horiz-adv-x="959" 
d="M125 370l39 260q10 65 39.5 133t85.5 124t136 92.5t178 36.5q136 0 226 -71t90 -191q0 -172 -112.5 -247.5t-354.5 -75.5q-111 0 -208 18l-11 -75q-20 -136 45 -215.5t203 -79.5q151 0 298 49v-94q-47 -18 -135 -36t-180 -18q-64 0 -129.5 18t-117 63.5t-80 122
t-12.5 186.5zM271 626l-14 -93q110 -18 204 -18q188 0 267.5 49t79.5 177q0 83 -60 130.5t-159 47.5q-126 0 -211.5 -77.5t-106.5 -215.5z" />
    <glyph glyph-name="f" unicode="f" horiz-adv-x="580" 
d="M110 907l13 89h170l25 169q21 136 108 217.5t213 81.5q92 0 158 -20l-28 -93q-66 16 -134 16q-86 0 -141 -54t-70 -158l-24 -159h277l-13 -89h-277l-202 -1355h-108l203 1355h-170z" />
    <glyph glyph-name="g" unicode="g" horiz-adv-x="1051" 
d="M704 -71l28 186q-74 -60 -161 -97.5t-170 -37.5q-144 0 -220 106t-50 283l38 257q27 178 152 284t303 106q102 0 190 -22t146 -57l-149 -997q-30 -203 -155 -305.5t-329 -102.5q-156 0 -275 50l34 95q112 -46 251 -46q323 0 367 298zM439 79q74 0 160 40.5t146 97.5
l99 656q-108 46 -235 46q-139 0 -226 -81.5t-108 -218.5l-36 -242q-21 -139 29 -218.5t171 -79.5z" />
    <glyph glyph-name="h" unicode="h" horiz-adv-x="1072" 
d="M337 1444h106l-85 -570q98 66 198 104t185 38q123 0 179 -70t36 -201l-111 -745h-108l109 722q27 192 -145 192q-73 0 -168.5 -35.5t-187.5 -100.5l-116 -778h-108z" />
    <glyph glyph-name="i" unicode="i" horiz-adv-x="460" 
d="M270 996h108l-149 -996h-108zM290 1266q0 40 24 64t63 24q30 0 47.5 -16.5t17.5 -45.5q0 -40 -24 -64.5t-63 -24.5q-30 0 -47.5 17t-17.5 46z" />
    <glyph glyph-name="j" unicode="j" horiz-adv-x="460" 
d="M290 1266q0 40 24 64t63 24q30 0 47.5 -16.5t17.5 -45.5q0 -40 -24 -64.5t-63 -24.5q-30 0 -47.5 17t-17.5 46zM270 996h108l-187 -1249q-32 -215 -241 -215q-62 0 -113 20l28 86q40 -14 97 -14q48 0 80.5 33t41.5 98z" />
    <glyph glyph-name="k" unicode="k" horiz-adv-x="952" 
d="M337 1444h108l-133 -888h160l364 440h125l-410 -485l155 -374q15 -36 32 -51.5t47 -15.5q46 0 88 12l-3 -82q-51 -20 -111 -20q-51 0 -86.5 19.5t-65.5 92.5l-153 376h-156l-69 -468h-108z" />
    <glyph glyph-name="l" unicode="l" horiz-adv-x="497" 
d="M337 1444h108l-189 -1260q-8 -55 12.5 -83.5t63.5 -28.5q49 0 99 15l-6 -85q-60 -22 -132 -22q-84 0 -122 49.5t-24 146.5z" />
    <glyph glyph-name="m" unicode="m" horiz-adv-x="1661" 
d="M270 996h89l-10 -127q98 68 198 107.5t185 39.5q181 0 210 -153q221 153 392 153q121 0 175.5 -70t35.5 -201l-111 -745h-108l108 722q29 192 -140 192q-71 0 -164 -35t-183 -100l-116 -779h-108l109 728q24 186 -141 186q-71 0 -163.5 -35t-182.5 -100l-116 -779h-108z
" />
    <glyph glyph-name="n" unicode="n" horiz-adv-x="1072" 
d="M270 996h89l-10 -127q99 68 202 107.5t190 39.5q123 0 179 -70t36 -201l-111 -745h-108l109 722q27 192 -145 192q-73 0 -168.5 -35.5t-187.5 -100.5l-116 -778h-108z" />
    <glyph glyph-name="o" unicode="o" horiz-adv-x="1038" 
d="M124 362l40 272q10 65 40.5 132.5t87 122.5t138.5 91t183 36q80 0 148 -26t114 -75t65.5 -121t6.5 -160l-40 -272q-10 -65 -40.5 -132.5t-87 -122.5t-138.5 -91t-183 -36q-80 0 -148 26t-114 75t-65.5 121t-6.5 160zM271 626l-39 -256q-19 -135 47 -214t194 -79
q127 0 217 79t111 214l38 256q20 135 -46.5 214t-194.5 79t-217.5 -79t-109.5 -214z" />
    <glyph glyph-name="p" unicode="p" horiz-adv-x="1059" 
d="M270 996h89l-10 -121q76 62 164.5 101.5t176.5 39.5q144 0 220 -106t50 -283l-39 -258q-27 -178 -152 -283.5t-303 -105.5q-129 0 -236 45l-70 -473h-106zM652 917q-75 0 -161 -41t-146 -98l-98 -653q114 -48 235 -48q138 0 225 81.5t108 218.5l36 242
q21 139 -28.5 218.5t-170.5 79.5z" />
    <glyph glyph-name="q" unicode="q" horiz-adv-x="1051" 
d="M131 369l38 257q27 178 152 284t303 106q102 0 190 -22t146 -57l-207 -1385h-105l84 563q-74 -60 -161 -97.5t-170 -37.5q-144 0 -220 106t-50 283zM439 79q74 0 160 40.5t146 97.5l99 656q-108 46 -235 46q-139 0 -226 -81.5t-108 -218.5l-36 -242q-21 -139 29 -218.5
t171 -79.5z" />
    <glyph glyph-name="r" unicode="r" horiz-adv-x="674" 
d="M270 996h88l-16 -174q77 73 185.5 130.5t192.5 63.5l-15 -107q-79 -7 -184 -60.5t-185 -127.5l-107 -721h-108z" />
    <glyph glyph-name="s" unicode="s" horiz-adv-x="794" 
d="M696 306q0 -161 -96.5 -243.5t-273.5 -82.5q-167 0 -288 51l35 91q42 -17 113 -32t145 -15q134 0 197.5 47t63.5 162q0 62 -39 99.5t-178 73.5q-124 32 -178 86t-54 150q0 146 101.5 234.5t259.5 88.5q129 0 256 -39l-31 -92q-118 36 -234 36t-182.5 -52t-66.5 -161
q0 -56 36 -94t162 -71q138 -35 195 -86.5t57 -150.5z" />
    <glyph glyph-name="t" unicode="t" horiz-adv-x="644" 
d="M107 907l14 89h171l53 278h94l-42 -278h271l-14 -89h-269l-98 -658q-26 -172 132 -172q61 0 135 16l-2 -92q-76 -21 -161 -21q-116 0 -174 63.5t-39 192.5l100 671h-171z" />
    <glyph glyph-name="u" unicode="u" horiz-adv-x="1057" 
d="M826 0h-90l10 127q-98 -68 -199 -107.5t-185 -39.5q-121 0 -176.5 70t-36.5 201l111 745h108l-108 -722q-29 -192 142 -192q71 0 164.5 35t184.5 100l116 779h108z" />
    <glyph glyph-name="v" unicode="v" horiz-adv-x="904" 
d="M839 996h113q-160 -492 -516 -996h-123l-195 996h114l165 -893q129 194 246 425t196 468z" />
    <glyph glyph-name="w" unicode="w" horiz-adv-x="1440" 
d="M1375 996h113q-157 -490 -465 -996h-124l-123 780q-137 -378 -379 -780h-120l-159 996h115l129 -884q253 445 388 864h107l127 -865q251 444 391 885z" />
    <glyph glyph-name="x" unicode="x" horiz-adv-x="883" 
d="M275 996l199 -407l321 407h122l-387 -476l264 -520h-121l-221 442l-351 -442h-121l417 510l-244 486h122z" />
    <glyph glyph-name="y" unicode="y" horiz-adv-x="967" 
d="M223 996l219 -1041q130 200 243.5 472t190.5 569h112q-112 -415 -272 -753t-352.5 -524.5t-395.5 -186.5q-101 0 -176 34l35 93q69 -30 154 -30q94 0 195.5 61t201.5 187l-25 2l-242 1117h112z" />
    <glyph glyph-name="z" unicode="z" horiz-adv-x="788" 
d="M168 907l13 89h630l-13 -86l-648 -821h28q313 0 525 -49l-32 -90q-93 21 -236.5 35.5t-288.5 14.5h-128l12 84l648 823h-510z" />
    <glyph glyph-name="braceleft" unicode="{" horiz-adv-x="686" 
d="M401 425l-71 -480q-12 -78 23.5 -126t102.5 -48h95l-14 -96h-95q-113 0 -175 73t-45 184l75 501q7 44 -4 92t-48 76.5t-91 28.5h-21l15 95h20q44 0 84 19t74 63.5t44 106.5l82 533q15 101 99.5 166.5t190.5 65.5h95l-15 -96h-95q-66 0 -116.5 -46.5t-60.5 -119.5
l-79 -515q-13 -86 -61.5 -145t-120.5 -80q72 -21 100 -86t12 -166z" />
    <glyph glyph-name="bar" unicode="|" horiz-adv-x="450" 
d="M367 1679h108l-300 -2004h-108z" />
    <glyph glyph-name="braceright" unicode="}" horiz-adv-x="686" 
d="M377 929l72 479q11 79 -24.5 127t-102.5 48h-95l15 96h94q113 0 175.5 -73t45.5 -184l-76 -501q-6 -45 3.5 -87.5t43 -76t97.5 -33.5h20l-14 -95h-21q-43 0 -82.5 -19t-73.5 -64t-44 -107l-83 -532q-16 -101 -100 -166.5t-190 -65.5h-94l14 96h94q67 0 117 46.5t61 118.5
l79 515q13 87 61.5 146t120.5 80q-71 21 -99 86t-14 166z" />
    <glyph glyph-name="asciitilde" unicode="~" horiz-adv-x="993" 
d="M189 414l-49 53q46 54 109 92t135 38q62 0 138.5 -37t103.5 -42t45 -5q76 0 175 87l49 -54q-47 -54 -110 -91.5t-135 -37.5q-61 0 -137.5 37t-103.5 42t-45 5q-76 0 -175 -87z" />
    <glyph glyph-name="exclamdown" unicode="&#xa1;" horiz-adv-x="417" 
d="M162 -358h-123l169 1025h91zM218 927q0 40 24 64.5t64 24.5q30 0 47 -17t17 -46q0 -40 -24 -64t-63 -24q-30 0 -47.5 17t-17.5 45z" />
    <glyph glyph-name="cent" unicode="&#xa2;" horiz-adv-x="977" 
d="M803 278l7 -88q-107 -42 -235 -49l-36 -261h-105l42 262q-87 8 -161 50.5t-105.5 119t-18.5 163.5l59 401q22 145 132 235.5t259 102.5l35 260h107l-43 -261q112 -9 195 -50l-40 -88q-101 45 -224 45q-121 0 -209 -68.5t-105 -183.5l-57 -386q-18 -113 52 -179.5
t196 -66.5q140 0 255 42z" />
    <glyph glyph-name="sterling" unicode="&#xa3;" horiz-adv-x="1163" 
d="M216 633l14 96h183l36 241q19 131 80.5 219.5t155 136.5t211.5 48q138 0 257 -43l-31 -94q-132 37 -241 37q-278 0 -325 -311l-35 -234h430l-15 -96h-429l-55 -368q-20 -131 -111 -189h627l-14 -96h-866l14 96q100 1 162.5 40t79.5 151l55 366h-183z" />
    <glyph glyph-name="currency" unicode="&#xa4;" horiz-adv-x="1267" 
d="M163 154l-60 64l212 200q-56 102 -36 237l7 46q21 135 106 235l-153 200l81 64l159 -190q120 86 263 86t237 -86l217 190l60 -64l-213 -200q56 -101 37 -235l-7 -46q-21 -138 -108 -236l154 -201l-80 -64l-161 192q-119 -86 -261 -86q-143 0 -236 85zM392 694l-4 -32
q-20 -133 48.5 -219t194.5 -86q127 0 221.5 86t114.5 219l4 32q20 133 -48.5 219t-195.5 86q-126 0 -220.5 -86t-114.5 -219z" />
    <glyph glyph-name="yen" unicode="&#xa5;" horiz-adv-x="1228" 
d="M271 757l14 92h245l-255 505h121l278 -569l452 569h121l-409 -505h248l-14 -92h-801zM253 503l14 92h762l-14 -92h-327l-75 -503h-109l75 503h-326z" />
    <glyph glyph-name="brokenbar" unicode="&#xa6;" horiz-adv-x="450" 
d="M176 403h108l-109 -728h-108zM366 951h-107l108 729h108z" />
    <glyph glyph-name="section" unicode="&#xa7;" horiz-adv-x="1226" 
d="M1223 1514l-38 -88q-144 71 -317 75q-131 -115 -131 -253q0 -92 62 -244l134 -324q47 -113 72 -204t25 -184q0 -100 -38.5 -198t-122 -172t-187.5 -111t-218 -37q-191 0 -366 85l38 89q154 -76 317 -76q131 115 131 253q0 92 -62 244l-135 324q-47 116 -72 205.5
t-25 181.5q0 157 80.5 277.5t211.5 181t274 60.5q192 0 367 -85zM626 1230q0 143 131 265q-162 -26 -261 -135t-99 -266q0 -138 89 -351l146 -346q63 -143 63 -254q0 -143 -133 -265q163 25 262.5 134t99.5 267q0 143 -90 351l-146 346q-62 145 -62 254z" />
    <glyph glyph-name="dieresis" unicode="&#xa8;" horiz-adv-x="730" 
d="M591 1266q0 39 24 63.5t63 24.5q30 0 47.5 -17t17.5 -46q0 -40 -24 -64t-63 -24q-31 0 -48 16.5t-17 46.5zM260 1266q0 39 24 63.5t63 24.5q30 0 47.5 -17t17.5 -46q0 -40 -24 -64t-63 -24q-31 0 -48 16.5t-17 46.5z" />
    <glyph glyph-name="copyright" unicode="&#xa9;" horiz-adv-x="1600" 
d="M163 589q0 194 103 375t289.5 295.5t393.5 114.5q155 0 288 -75.5t212.5 -218t79.5 -316.5q0 -193 -103.5 -374t-290.5 -295.5t-395 -114.5q-154 0 -286.5 75.5t-211.5 218t-79 315.5zM262 601q0 -78 24.5 -166t92 -176.5t170 -134t206.5 -45.5q161 0 317 86t257 245
t101 341q0 107 -36.5 203t-103.5 168t-159 112.5t-197 40.5q-160 0 -315.5 -86t-256 -245.5t-100.5 -342.5zM624 715l-11 -77q-19 -123 32 -189.5t161 -66.5q38 0 91.5 7.5t90.5 19.5v-83q-31 -11 -86 -21.5t-111 -10.5q-107 0 -173.5 45t-93 118.5t-11.5 173.5l13 92
q24 157 129.5 247t247.5 90q106 0 185 -38l-31 -82q-82 32 -166 32q-110 0 -179 -67.5t-88 -189.5z" />
    <glyph glyph-name="ordfeminine" unicode="&#xaa;" horiz-adv-x="722" 
d="M136 804q0 108 75 168.5t193 60.5h169l14 98q22 141 -134 141q-101 0 -203 -35l-3 86q111 42 225 42q129 0 182.5 -57.5t36.5 -174.5l-52 -347q-7 -54 37 -54q24 0 48 6l-5 -83q-32 -14 -78 -14q-42 0 -69 26t-31 66q-48 -41 -106 -66.5t-116 -25.5q-84 0 -133.5 43.5
t-49.5 119.5zM346 729q86 0 194 81l21 143h-163q-76 0 -117 -34t-41 -99q0 -42 28.5 -66.5t77.5 -24.5z" />
    <glyph glyph-name="guillemotleft" unicode="&#xab;" horiz-adv-x="907" 
d="M619 498l172 -366l-94 -47l-194 413l317 413l80 -47zM254 498l171 -366l-93 -47l-193 413l316 413l80 -47z" />
    <glyph glyph-name="logicalnot" unicode="&#xac;" horiz-adv-x="1108" 
d="M213 630l14 95h760l-54 -365h-96l40 270h-664z" />
    <glyph glyph-name="uni00AD" unicode="&#xad;" horiz-adv-x="853" 
d="M166 452l13 91h547l-14 -91h-546z" />
    <glyph glyph-name="registered" unicode="&#xae;" horiz-adv-x="1600" 
d="M163 589q0 194 103 375t289.5 295.5t393.5 114.5q155 0 288 -75.5t212.5 -218t79.5 -316.5q0 -193 -103.5 -374t-290.5 -295.5t-395 -114.5q-154 0 -286.5 75.5t-211.5 218t-79 315.5zM262 601q0 -78 24.5 -166t92 -176.5t170 -134t206.5 -45.5q161 0 317 86t257 245
t101 341q0 107 -36.5 203t-103.5 168t-159 112.5t-197 40.5q-160 0 -315.5 -86t-256 -245.5t-100.5 -342.5zM1134 834l-5 -36q-13 -82 -71 -135.5t-136 -70.5l130 -288h-106l-122 278h-145l-41 -278h-96l112 746h261q65 0 116 -22.5t82 -70.5t21 -123zM896 968h-159
l-46 -305h159q79 0 127 35.5t58 103.5l5 27q10 66 -28.5 102.5t-115.5 36.5z" />
    <glyph glyph-name="macron" unicode="&#xaf;" horiz-adv-x="753" 
d="M254 1232l14 91h502l-14 -91h-502z" />
    <glyph glyph-name="degree" unicode="&#xb0;" horiz-adv-x="751" 
d="M176 1028l8 49q10 68 49 137.5t119 114.5t174 45q93 0 154 -41t86.5 -106t12.5 -150l-7 -49q-13 -85 -58 -150t-118 -106t-166 -41q-128 0 -201 80.5t-53 216.5zM284 1071l-5 -37q-15 -97 31 -153.5t133 -56.5t150 56.5t78 153.5l5 37q15 97 -31 154t-133 57t-150 -57
t-78 -154z" />
    <glyph glyph-name="plusminus" unicode="&#xb1;" horiz-adv-x="1081" 
d="M621 1242h103l-50 -332h314l-14 -96h-314l-50 -333h-102l50 333h-314l15 96h313zM177 180l14 95h676l-15 -95h-675z" />
    <glyph glyph-name="uni00B2" unicode="&#xb2;" horiz-adv-x="605" 
d="M102 651l13 86q17 12 24 17.5t135 96t178 137.5t70 87.5t20 77.5q0 51 -35.5 84.5t-108.5 33.5q-74 0 -185 -32l-4 85q108 40 210 40q101 0 166 -50.5t65 -146.5q0 -58 -25 -109t-81.5 -107.5t-274.5 -209.5h341l-13 -90h-495z" />
    <glyph glyph-name="uni00B3" unicode="&#xb3;" horiz-adv-x="592" 
d="M223 966l13 82h130q63 0 106 33t43 93q0 45 -37.5 72t-103.5 27q-84 0 -162 -21l-2 84q92 28 181 28q110 0 171.5 -45.5t61.5 -125.5q0 -63 -36 -109.5t-92 -72.5q40 -18 65 -55.5t25 -87.5q0 -107 -85 -167.5t-222 -60.5q-86 0 -175 24l28 89q75 -21 160 -21
q86 0 137 34.5t51 99.5q0 49 -37 74.5t-90 25.5h-130z" />
    <glyph glyph-name="acute" unicode="&#xb4;" horiz-adv-x="614" 
d="M291 1121l-44 63l335 269l58 -77z" />
    <glyph glyph-name="uni00B5" unicode="&#xb5;" horiz-adv-x="1057" 
d="M826 0h-90l10 126q-95 -68 -192.5 -107t-179.5 -39q-100 0 -151 57l-7 -49q-21 -138 -94.5 -226.5t-219.5 -162.5l-38 76q115 66 172.5 135.5t73.5 176.5l150 1009h108l-108 -722q-29 -192 142 -192q71 0 164.5 35t184.5 100l116 779h108z" />
    <glyph glyph-name="paragraph" unicode="&#xb6;" horiz-adv-x="1004" 
d="M660 1354h72l-134 -898h-72q-91 0 -166.5 29t-125.5 83.5t-70.5 132t-6.5 169.5l10 70q29 188 167 301t326 113zM866 1354h109l-189 -1262q-22 -155 -102 -254.5t-237 -183.5l-37 77q124 75 186 155t81 203z" />
    <glyph glyph-name="periodcentered" unicode="&#xb7;" horiz-adv-x="400" 
d="M144 486q0 39 24 63t63 24q30 0 47.5 -17t17.5 -46q0 -39 -24.5 -63t-63.5 -24q-30 0 -47 16.5t-17 46.5z" />
    <glyph glyph-name="cedilla" unicode="&#xb8;" horiz-adv-x="604" 
d="M196 20h80l-62 -159q79 -2 123.5 -36.5t44.5 -97.5q0 -92 -73 -143.5t-185 -51.5q-71 0 -121 16l29 82q41 -13 99 -13q70 0 110 27.5t40 80.5q0 76 -119 76h-58z" />
    <glyph glyph-name="uni00B9" unicode="&#xb9;" horiz-adv-x="607" 
d="M112 651l14 90h209l77 512l-223 -72l-5 82l256 91h90l-92 -613h194l-14 -90h-506z" />
    <glyph glyph-name="ordmasculine" unicode="&#xba;" horiz-adv-x="779" 
d="M163 938l19 129q13 86 58 150.5t121 105.5t176 41q137 0 213 -78.5t56 -214.5l-20 -130q-13 -86 -58.5 -151.5t-122 -107t-176.5 -41.5q-136 0 -211 80t-55 217zM283 1061l-18 -117q-14 -98 34.5 -154.5t143.5 -56.5q96 0 161.5 57.5t80.5 157.5l18 117q14 97 -34.5 152
t-144.5 55t-161 -56.5t-80 -154.5z" />
    <glyph glyph-name="guillemotright" unicode="&#xbb;" horiz-adv-x="906" 
d="M691 498l-171 366l93 47l193 -413l-316 -413l-80 47zM326 498l-171 366l93 47l193 -413l-316 -413l-80 47z" />
    <glyph glyph-name="questiondown" unicode="&#xbf;" horiz-adv-x="714" 
d="M431 595l11 72h94l-9 -65q-9 -63 -45.5 -128.5t-152.5 -172.5t-146 -147t-46.5 -73t-26 -71t-9.5 -79q0 -102 57.5 -155t160.5 -53q127 0 264 60l14 -90q-53 -26 -134.5 -48.5t-168.5 -22.5q-134 0 -220 76t-86 210q0 63 19 126.5t57 120.5t80 100t158 149t129 191z
M452 927q0 40 24 64.5t63 24.5q30 0 47.5 -17t17.5 -46q0 -40 -24.5 -64t-63.5 -24q-30 0 -47 17t-17 45z" />
    <glyph glyph-name="Agrave" unicode="&#xc0;" horiz-adv-x="1174" 
d="M1057 0h-115l-67 369h-576l-177 -369h-115l655 1354h145zM718 1247l-375 -784h516zM880 1542l-63 -63l-273 255l82 77z" />
    <glyph glyph-name="Aacute" unicode="&#xc1;" horiz-adv-x="1174" 
d="M1057 0h-115l-67 369h-576l-177 -369h-115l655 1354h145zM718 1247l-375 -784h516zM671 1479l-44 63l334 269l58 -77z" />
    <glyph glyph-name="Acircumflex" unicode="&#xc2;" horiz-adv-x="1174" 
d="M1057 0h-115l-67 369h-576l-177 -369h-115l655 1354h145zM718 1247l-375 -784h516zM829 1797l191 -269l-95 -34l-140 203l-200 -203l-85 34l271 269h58z" />
    <glyph glyph-name="Atilde" unicode="&#xc3;" horiz-adv-x="1174" 
d="M1057 0h-115l-67 369h-576l-177 -369h-115l655 1354h145zM718 1247l-375 -784h516zM682 1726q6 0 22 -2t34 -10.5t68 -41.5t80 -33q27 0 57 18t75 68l55 -44q-99 -138 -203 -138q-46 0 -101.5 38.5t-73 44t-29.5 5.5q-57 0 -132 -86l-55 44q99 137 203 137z" />
    <glyph glyph-name="Adieresis" unicode="&#xc4;" horiz-adv-x="1174" 
d="M1057 0h-115l-67 369h-576l-177 -369h-115l655 1354h145zM718 1247l-375 -784h516zM859 1624q0 39 24.5 63.5t63.5 24.5q30 0 47.5 -17t17.5 -46q0 -40 -24 -64t-64 -24q-30 0 -47.5 17t-17.5 46zM540 1624q0 39 24.5 63.5t62.5 24.5q31 0 48 -17t17 -46q0 -40 -24 -64
t-63 -24q-31 0 -48 16.5t-17 46.5z" />
    <glyph glyph-name="Aring" unicode="&#xc5;" horiz-adv-x="1174" 
d="M1057 0h-115l-67 369h-576l-177 -369h-115l655 1354h145zM718 1247l-375 -784h516zM576 1641q0 93 70 160t167 67q75 0 124 -49.5t49 -122.5q0 -94 -70.5 -160.5t-167.5 -66.5q-75 0 -123.5 49.5t-48.5 122.5zM663 1653q0 -43 28 -73t69 -30q58 0 99 40t41 96
q0 43 -28 72.5t-70 29.5q-57 0 -98 -40.5t-41 -94.5z" />
    <glyph glyph-name="AE" unicode="&#xc6;" horiz-adv-x="1515" 
d="M881 0l-22 378h-549l-226 -378h-113l815 1354h786l-14 -96h-639l29 -525h517l-14 -96h-498l30 -541h433l-14 -96h-521zM813 1218l-445 -746h486z" />
    <glyph glyph-name="Ccedilla" unicode="&#xc7;" horiz-adv-x="980" 
d="M851 136l7 -90q-148 -66 -337 -66h-9l-45 -119q79 -2 123.5 -36.5t44.5 -97.5q0 -92 -73 -143.5t-185 -51.5q-71 0 -121 16l28 82q41 -13 99 -13q71 0 111 27.5t40 80.5q0 76 -119 76h-58l77 187q-152 26 -237 140.5t-60 283.5l78 522q11 74 46 151.5t100.5 141
t159.5 105.5t208 42q66 0 147.5 -16t145.5 -52l-41 -92q-125 59 -268 59q-109 0 -192.5 -49t-133.5 -124.5t-65 -173.5l-75 -505q-15 -96 13.5 -170.5t100 -122t184.5 -47.5q166 0 306 55z" />
    <glyph glyph-name="Egrave" unicode="&#xc8;" horiz-adv-x="977" 
d="M121 0l202 1354h721l-15 -96h-610l-79 -525h591l-14 -96h-591l-81 -541h631l-14 -96h-741zM838 1542l-63 -63l-273 255l81 77z" />
    <glyph glyph-name="Eacute" unicode="&#xc9;" horiz-adv-x="977" 
d="M121 0l202 1354h721l-15 -96h-610l-79 -525h591l-14 -96h-591l-81 -541h631l-14 -96h-741zM624 1479l-44 63l335 269l58 -77z" />
    <glyph glyph-name="Ecircumflex" unicode="&#xca;" horiz-adv-x="977" 
d="M121 0l202 1354h721l-15 -96h-610l-79 -525h591l-14 -96h-591l-81 -541h631l-14 -96h-741zM781 1797l191 -269l-95 -34l-139 203l-201 -203l-85 34l271 269h58z" />
    <glyph glyph-name="Edieresis" unicode="&#xcb;" horiz-adv-x="977" 
d="M121 0l202 1354h721l-15 -96h-610l-79 -525h591l-14 -96h-591l-81 -541h631l-14 -96h-741zM485 1624q0 39 24 63.5t63 24.5q30 0 47.5 -17t17.5 -46q0 -40 -24.5 -64t-63.5 -24q-30 0 -47 16.5t-17 46.5zM804 1624q0 39 24.5 63.5t63.5 24.5q30 0 47 -17t17 -46
q0 -40 -24 -64t-63 -24q-30 0 -47.5 17t-17.5 46z" />
    <glyph glyph-name="Igrave" unicode="&#xcc;" horiz-adv-x="462" 
d="M432 1354l-202 -1354h-109l202 1354h109zM523 1542l-63 -63l-272 255l80 77z" />
    <glyph glyph-name="Iacute" unicode="&#xcd;" horiz-adv-x="462" 
d="M432 1354l-202 -1354h-109l202 1354h109zM317 1479l-44 63l335 269l58 -77z" />
    <glyph glyph-name="Icircumflex" unicode="&#xce;" horiz-adv-x="462" 
d="M432 1354l-202 -1354h-109l202 1354h109zM474 1797l190 -269l-95 -34l-139 203l-201 -203l-84 34l270 269h59z" />
    <glyph glyph-name="Idieresis" unicode="&#xcf;" horiz-adv-x="462" 
d="M432 1354l-202 -1354h-109l202 1354h109zM489 1624q0 39 24 63.5t64 24.5q30 0 47 -17t17 -46q0 -40 -24 -64t-63 -24q-30 0 -47.5 17t-17.5 46zM200 1624q0 39 24.5 63.5t62.5 24.5q31 0 48 -17t17 -46q0 -40 -24 -64t-63 -24q-31 0 -48 16.5t-17 46.5z" />
    <glyph glyph-name="Eth" unicode="&#xd0;" horiz-adv-x="1185" 
d="M83 632l13 91h158l95 631h392q94 0 174 -29.5t135.5 -84t79.5 -132.5t10 -170l-78 -522q-11 -72 -45.5 -146t-100.5 -133.5t-162 -98t-216 -38.5h-391l93 632h-157zM1031 930q22 149 -63 240t-248 91h-276l-81 -538h345l-14 -91h-344l-81 -539h277q164 0 275 89t134 242z
" />
    <glyph glyph-name="Ntilde" unicode="&#xd1;" horiz-adv-x="1265" 
d="M442 1354l510 -1171l174 1171h109l-202 -1354h-119l-509 1169l-175 -1169h-109l202 1354h119zM728 1726q6 0 22 -2t34 -10.5t68 -41.5t80 -33q27 0 56.5 17.5t75.5 68.5l55 -44q-99 -138 -204 -138q-45 0 -100.5 38.5t-73 44t-29.5 5.5q-59 0 -132 -86l-56 44
q99 137 204 137z" />
    <glyph glyph-name="Ograve" unicode="&#xd2;" horiz-adv-x="1187" 
d="M217 950q11 72 46 147t101.5 136t163 101t216.5 40q70 0 145 -19t137 -67.5t98.5 -132t18.5 -205.5l-82 -546q-11 -72 -46 -147t-101 -136t-162.5 -101t-216.5 -40q-95 0 -175.5 28.5t-135 82.5t-79 133t-9.5 180zM324 941l-79 -528q-23 -154 61 -245t244 -91t271 91
t134 245l79 528q23 154 -60.5 245t-244.5 91q-160 0 -271 -91t-134 -245zM897 1542l-63 -63l-272 255l81 77z" />
    <glyph glyph-name="Oacute" unicode="&#xd3;" horiz-adv-x="1187" 
d="M217 950q11 72 46 147t101.5 136t163 101t216.5 40q70 0 145 -19t137 -67.5t98.5 -132t18.5 -205.5l-82 -546q-11 -72 -46 -147t-101 -136t-162.5 -101t-216.5 -40q-95 0 -175.5 28.5t-135 82.5t-79 133t-9.5 180zM324 941l-79 -528q-23 -154 61 -245t244 -91t271 91
t134 245l79 528q23 154 -60.5 245t-244.5 91q-160 0 -271 -91t-134 -245zM676 1479l-45 63l335 269l58 -77z" />
    <glyph glyph-name="Ocircumflex" unicode="&#xd4;" horiz-adv-x="1187" 
d="M217 950q11 72 46 147t101.5 136t163 101t216.5 40q70 0 145 -19t137 -67.5t98.5 -132t18.5 -205.5l-82 -546q-11 -72 -46 -147t-101 -136t-162.5 -101t-216.5 -40q-95 0 -175.5 28.5t-135 82.5t-79 133t-9.5 180zM324 941l-79 -528q-23 -154 61 -245t244 -91t271 91
t134 245l79 528q23 154 -60.5 245t-244.5 91q-160 0 -271 -91t-134 -245zM836 1797l190 -269l-94 -34l-140 203l-201 -203l-84 34l271 269h58z" />
    <glyph glyph-name="Otilde" unicode="&#xd5;" horiz-adv-x="1187" 
d="M217 950q11 72 46 147t101.5 136t163 101t216.5 40q70 0 145 -19t137 -67.5t98.5 -132t18.5 -205.5l-82 -546q-11 -72 -46 -147t-101 -136t-162.5 -101t-216.5 -40q-95 0 -175.5 28.5t-135 82.5t-79 133t-9.5 180zM324 941l-79 -528q-23 -154 61 -245t244 -91t271 91
t134 245l79 528q23 154 -60.5 245t-244.5 91q-160 0 -271 -91t-134 -245zM689 1726q6 0 22 -2t34 -10.5t68 -41.5t80 -33q55 0 132 86l54 -44q-40 -57 -92.5 -97.5t-110.5 -40.5q-45 0 -101 38.5t-73.5 44t-29.5 5.5q-60 0 -131 -86l-56 44q99 137 204 137z" />
    <glyph glyph-name="Odieresis" unicode="&#xd6;" horiz-adv-x="1187" 
d="M217 950q11 72 46 147t101.5 136t163 101t216.5 40q70 0 145 -19t137 -67.5t98.5 -132t18.5 -205.5l-82 -546q-11 -72 -46 -147t-101 -136t-162.5 -101t-216.5 -40q-95 0 -175.5 28.5t-135 82.5t-79 133t-9.5 180zM324 941l-79 -528q-23 -154 61 -245t244 -91t271 91
t134 245l79 528q23 154 -60.5 245t-244.5 91q-160 0 -271 -91t-134 -245zM867 1624q0 39 24 63.5t63 24.5q30 0 47.5 -17t17.5 -46q0 -40 -24.5 -64t-63.5 -24q-30 0 -47 16.5t-17 46.5zM547 1624q0 39 24.5 63.5t62.5 24.5q31 0 48 -17t17 -46q0 -40 -24 -64t-63 -24
q-31 0 -48 16.5t-17 46.5z" />
    <glyph glyph-name="multiply" unicode="&#xd7;" horiz-adv-x="1017" 
d="M871 1021l60 -71l-308 -275l221 -270l-75 -66l-222 270l-309 -276l-59 71l307 275l-221 271l76 66l221 -270z" />
    <glyph glyph-name="Oslash" unicode="&#xd8;" horiz-adv-x="1187" 
d="M136 403l81 547q11 72 46 147t101.5 136t163 101t216.5 40q122 0 218 -48l152 266h99l-178 -311q66 -58 94.5 -148t13.5 -183l-82 -546q-11 -72 -46 -147t-101 -136t-162.5 -101t-216.5 -40q-122 0 -219 47l-152 -266h-99l178 312q-68 59 -94.5 146t-12.5 184zM955 413
l79 528q22 149 -58 239l-607 -1061q76 -42 181 -42q160 0 271 91t134 245zM324 941l-79 -528q-22 -149 57 -239l607 1061q-76 42 -180 42q-160 0 -271 -91t-134 -245z" />
    <glyph glyph-name="Ugrave" unicode="&#xd9;" horiz-adv-x="1183" 
d="M1075 1354h110l-144 -961q-14 -92 -58.5 -169.5t-113 -131.5t-155 -83t-180.5 -29t-172 29t-130 83t-73.5 131.5t-7.5 169.5l143 961h110l-144 -958q-21 -144 59 -231.5t229 -87.5q91 0 177.5 38t140 115t66.5 166zM846 1542l-63 -63l-273 255l82 77z" />
    <glyph glyph-name="Uacute" unicode="&#xda;" horiz-adv-x="1183" 
d="M1075 1354h110l-144 -961q-14 -92 -58.5 -169.5t-113 -131.5t-155 -83t-180.5 -29t-172 29t-130 83t-73.5 131.5t-7.5 169.5l143 961h110l-144 -958q-21 -144 59 -231.5t229 -87.5q91 0 177.5 38t140 115t66.5 166zM688 1479l-44 63l334 269l58 -77z" />
    <glyph glyph-name="Ucircumflex" unicode="&#xdb;" horiz-adv-x="1183" 
d="M1075 1354h110l-144 -961q-14 -92 -58.5 -169.5t-113 -131.5t-155 -83t-180.5 -29t-172 29t-130 83t-73.5 131.5t-7.5 169.5l143 961h110l-144 -958q-21 -144 59 -231.5t229 -87.5q91 0 177.5 38t140 115t66.5 166zM835 1797l190 -269l-95 -34l-139 203l-201 -203l-84 34
l270 269h59z" />
    <glyph glyph-name="Udieresis" unicode="&#xdc;" horiz-adv-x="1183" 
d="M1075 1354h110l-144 -961q-14 -92 -58.5 -169.5t-113 -131.5t-155 -83t-180.5 -29t-172 29t-130 83t-73.5 131.5t-7.5 169.5l143 961h110l-144 -958q-21 -144 59 -231.5t229 -87.5q91 0 177.5 38t140 115t66.5 166zM865 1624q0 39 24 63.5t64 24.5q30 0 47 -17t17 -46
q0 -40 -24 -64t-63 -24q-30 0 -47.5 17t-17.5 46zM546 1624q0 39 24 63.5t63 24.5q30 0 47.5 -17t17.5 -46q0 -40 -24.5 -64t-63.5 -24q-30 0 -47 16.5t-17 46.5z" />
    <glyph glyph-name="Yacute" unicode="&#xdd;" horiz-adv-x="1070" 
d="M1059 1354h115l-564 -849l-75 -505h-110l76 505l-310 849h114l266 -742zM634 1479l-44 63l334 269l58 -77z" />
    <glyph glyph-name="Thorn" unicode="&#xde;" horiz-adv-x="1067" 
d="M558 258h-289l-39 -258h-109l202 1354h109l-38 -258h290q81 0 150 -25t117.5 -72.5t69.5 -117.5t8 -155l-15 -97q-15 -106 -75 -187.5t-158.5 -132.5t-222.5 -51zM664 1003h-284l-97 -652h282q134 0 228 76t114 211l12 79q20 134 -51 210t-204 76z" />
    <glyph glyph-name="germandbls" unicode="&#xdf;" horiz-adv-x="1101" 
d="M1014 297q0 -153 -97 -235t-272 -82q-61 0 -133 12t-130 39l35 91q37 -17 102 -32t132 -15q128 0 194 47.5t66 155.5q0 52 -31 89.5t-167 79.5q-107 34 -155 80.5t-48 122.5q0 48 14.5 87t44.5 76.5t141 130.5q87 75 125.5 126t38.5 113q0 79 -67 131.5t-169 52.5
q-100 0 -163.5 -60.5t-81.5 -176.5l-168 -1130h-108l170 1140q23 150 122.5 237t238.5 87q147 0 239.5 -73.5t92.5 -187.5q0 -50 -12.5 -94t-47 -88t-132.5 -127q-112 -90 -141 -134t-29 -90q0 -43 30.5 -73.5t134.5 -63.5q123 -39 177 -90.5t54 -145.5z" />
    <glyph glyph-name="agrave" unicode="&#xe0;" horiz-adv-x="1051" 
d="M131 369l38 257q27 178 152 284t303 106q102 0 190 -22t146 -57l-140 -937h-90l12 128q-76 -66 -165.5 -107t-175.5 -41q-144 0 -220 106t-50 283zM439 79q74 0 160 42t147 102l98 650q-108 46 -235 46q-139 0 -226 -81.5t-108 -218.5l-36 -242q-21 -139 29 -218.5
t171 -79.5zM770 1184l-63 -63l-272 255l81 77z" />
    <glyph glyph-name="aacute" unicode="&#xe1;" horiz-adv-x="1051" 
d="M131 369l38 257q27 178 152 284t303 106q102 0 190 -22t146 -57l-140 -937h-90l12 128q-76 -66 -165.5 -107t-175.5 -41q-144 0 -220 106t-50 283zM439 79q74 0 160 42t147 102l98 650q-108 46 -235 46q-139 0 -226 -81.5t-108 -218.5l-36 -242q-21 -139 29 -218.5
t171 -79.5zM549 1121l-44 63l335 269l58 -77z" />
    <glyph glyph-name="acircumflex" unicode="&#xe2;" horiz-adv-x="1051" 
d="M131 369l38 257q27 178 152 284t303 106q102 0 190 -22t146 -57l-140 -937h-90l12 128q-76 -66 -165.5 -107t-175.5 -41q-144 0 -220 106t-50 283zM439 79q74 0 160 42t147 102l98 650q-108 46 -235 46q-139 0 -226 -81.5t-108 -218.5l-36 -242q-21 -139 29 -218.5
t171 -79.5zM709 1439l191 -269l-95 -34l-140 203l-200 -203l-85 34l271 269h58z" />
    <glyph glyph-name="atilde" unicode="&#xe3;" horiz-adv-x="1051" 
d="M131 369l38 257q27 178 152 284t303 106q102 0 190 -22t146 -57l-140 -937h-90l12 128q-76 -66 -165.5 -107t-175.5 -41q-144 0 -220 106t-50 283zM439 79q74 0 160 42t147 102l98 650q-108 46 -235 46q-139 0 -226 -81.5t-108 -218.5l-36 -242q-21 -139 29 -218.5
t171 -79.5zM568 1368q6 0 22 -2t34 -10.5t68 -41.5t80 -33q56 0 131 86l56 -44q-99 -138 -204 -138q-30 0 -52.5 11t-72 44t-78.5 33q-59 0 -132 -86l-56 44q99 137 204 137z" />
    <glyph glyph-name="adieresis" unicode="&#xe4;" horiz-adv-x="1051" 
d="M131 369l38 257q27 178 152 284t303 106q102 0 190 -22t146 -57l-140 -937h-90l12 128q-76 -66 -165.5 -107t-175.5 -41q-144 0 -220 106t-50 283zM439 79q74 0 160 42t147 102l98 650q-108 46 -235 46q-139 0 -226 -81.5t-108 -218.5l-36 -242q-21 -139 29 -218.5
t171 -79.5zM741 1266q0 39 24.5 63.5t62.5 24.5q31 0 48 -17t17 -46q0 -40 -24 -64t-63 -24q-30 0 -47.5 17t-17.5 46zM410 1266q0 39 24.5 63.5t62.5 24.5q31 0 48 -17t17 -46q0 -40 -24 -64t-63 -24q-30 0 -47.5 17t-17.5 46z" />
    <glyph glyph-name="aring" unicode="&#xe5;" horiz-adv-x="1051" 
d="M131 369l38 257q27 178 152 284t303 106q102 0 190 -22t146 -57l-140 -937h-90l12 128q-76 -66 -165.5 -107t-175.5 -41q-144 0 -220 106t-50 283zM439 79q74 0 160 42t147 102l98 650q-108 46 -235 46q-139 0 -226 -81.5t-108 -218.5l-36 -242q-21 -139 29 -218.5
t171 -79.5zM459 1283q0 93 70 160t167 67q75 0 124.5 -49.5t49.5 -122.5q0 -94 -71 -160.5t-168 -66.5q-74 0 -123 49.5t-49 122.5zM546 1295q0 -43 27.5 -73t69.5 -30q58 0 98.5 40t40.5 96q0 43 -28 72.5t-70 29.5q-56 0 -97 -40.5t-41 -94.5z" />
    <glyph glyph-name="ae" unicode="&#xe6;" horiz-adv-x="1478" 
d="M748 374q-19 -136 45.5 -215.5t202.5 -79.5q152 0 296 49v-94q-47 -18 -135.5 -36t-181.5 -18q-110 0 -190 44t-118 124q-87 -75 -181.5 -121.5t-185.5 -46.5q-111 0 -175.5 62t-64.5 169q0 55 18 113t62 105.5t115.5 78.5t168.5 31h241l22 150q17 113 -27.5 170.5
t-158.5 57.5q-131 0 -271 -46v93q150 52 295 52q214 0 255 -155q58 73 142.5 114t175.5 41q54 0 112 -17.5t105.5 -62t74.5 -120.5t11 -186l-26 -173h-615zM786 635l-14 -94h508l13 85q21 137 -36.5 215t-173.5 78t-196.5 -75t-100.5 -209zM639 370l14 87h-237
q-117 0 -183 -60.5t-66 -168.5q0 -72 43 -114.5t116 -42.5q135 0 316 143q-16 73 -3 156z" />
    <glyph glyph-name="ccedilla" unicode="&#xe7;" horiz-adv-x="825" 
d="M275 615l-35 -236q-21 -138 40 -219t190 -81q46 0 110 8t111 22v-94q-37 -12 -104 -23.5t-134 -11.5l-19 1l-46 -120q79 -2 123 -36.5t44 -97.5q0 -92 -72.5 -143.5t-184.5 -51.5q-72 0 -122 16l29 82q43 -13 100 -13q70 0 109.5 27.5t39.5 80.5q0 76 -118 76h-58l78 189
q-125 27 -186.5 127t-38.5 253l38 256q27 177 148 283.5t286 106.5q128 0 226 -41l-35 -93q-105 35 -203 35q-128 0 -212 -82t-104 -220z" />
    <glyph glyph-name="egrave" unicode="&#xe8;" horiz-adv-x="959" 
d="M731 1184l-63 -63l-272 255l81 77zM125 370l39 260q10 65 39.5 133t85.5 124t136 92.5t178 36.5q136 0 226 -71t90 -191q0 -172 -112.5 -247.5t-354.5 -75.5q-111 0 -208 18l-11 -75q-20 -136 45 -215.5t203 -79.5q151 0 298 49v-94q-47 -18 -135 -36t-180 -18
q-64 0 -129.5 18t-117 63.5t-80 122t-12.5 186.5zM271 626l-14 -93q110 -18 204 -18q188 0 267.5 49t79.5 177q0 83 -60 130.5t-159 47.5q-126 0 -211.5 -77.5t-106.5 -215.5z" />
    <glyph glyph-name="eacute" unicode="&#xe9;" horiz-adv-x="959" 
d="M513 1121l-45 63l335 269l59 -77zM125 370l39 260q10 65 39.5 133t85.5 124t136 92.5t178 36.5q136 0 226 -71t90 -191q0 -172 -112.5 -247.5t-354.5 -75.5q-111 0 -208 18l-11 -75q-20 -136 45 -215.5t203 -79.5q151 0 298 49v-94q-47 -18 -135 -36t-180 -18
q-64 0 -129.5 18t-117 63.5t-80 122t-12.5 186.5zM271 626l-14 -93q110 -18 204 -18q188 0 267.5 49t79.5 177q0 83 -60 130.5t-159 47.5q-126 0 -211.5 -77.5t-106.5 -215.5z" />
    <glyph glyph-name="ecircumflex" unicode="&#xea;" horiz-adv-x="959" 
d="M669 1439l190 -269l-94 -34l-140 203l-201 -203l-84 34l270 269h59zM125 370l39 260q10 65 39.5 133t85.5 124t136 92.5t178 36.5q136 0 226 -71t90 -191q0 -172 -112.5 -247.5t-354.5 -75.5q-111 0 -208 18l-11 -75q-20 -136 45 -215.5t203 -79.5q151 0 298 49v-94
q-47 -18 -135 -36t-180 -18q-64 0 -129.5 18t-117 63.5t-80 122t-12.5 186.5zM271 626l-14 -93q110 -18 204 -18q188 0 267.5 49t79.5 177q0 83 -60 130.5t-159 47.5q-126 0 -211.5 -77.5t-106.5 -215.5z" />
    <glyph glyph-name="edieresis" unicode="&#xeb;" horiz-adv-x="959" 
d="M700 1266q0 39 24 63.5t63 24.5q30 0 47 -17t17 -46q0 -40 -24 -64t-63 -24q-30 0 -47 16.5t-17 46.5zM380 1266q0 39 24 63.5t63 24.5q31 0 48 -17t17 -46q0 -40 -24.5 -64t-63.5 -24q-30 0 -47 16.5t-17 46.5zM125 370l39 260q10 65 39.5 133t85.5 124t136 92.5
t178 36.5q136 0 226 -71t90 -191q0 -172 -112.5 -247.5t-354.5 -75.5q-111 0 -208 18l-11 -75q-20 -136 45 -215.5t203 -79.5q151 0 298 49v-94q-47 -18 -135 -36t-180 -18q-64 0 -129.5 18t-117 63.5t-80 122t-12.5 186.5zM271 626l-14 -93q110 -18 204 -18q188 0 267.5 49
t79.5 177q0 83 -60 130.5t-159 47.5q-126 0 -211.5 -77.5t-106.5 -215.5z" />
    <glyph glyph-name="igrave" unicode="&#xec;" horiz-adv-x="443" 
d="M262 996h107l-149 -996h-107zM460 1184l-63 -63l-272 255l81 77z" />
    <glyph glyph-name="iacute" unicode="&#xed;" horiz-adv-x="460" 
d="M270 996h108l-149 -996h-108zM279 1121l-44 63l335 269l57 -77z" />
    <glyph glyph-name="icircumflex" unicode="&#xee;" horiz-adv-x="443" 
d="M262 996h107l-149 -996h-107zM411 1439l191 -269l-95 -34l-140 203l-200 -203l-85 34l271 269h58z" />
    <glyph glyph-name="idieresis" unicode="&#xef;" horiz-adv-x="443" 
d="M262 996h107l-149 -996h-107zM421 1266q0 39 24 63.5t63 24.5q30 0 47.5 -17t17.5 -46q0 -40 -24 -64t-63 -24q-31 0 -48 16.5t-17 46.5zM143 1266q0 39 24.5 63.5t62.5 24.5q30 0 47.5 -17t17.5 -46q0 -40 -24 -64t-63 -24q-30 0 -47.5 17t-17.5 46z" />
    <glyph glyph-name="eth" unicode="&#xf0;" horiz-adv-x="1056" 
d="M682 1148l-71 45l113 159q-44 16 -97 16q-129 0 -248 -38l-8 89q149 45 270 45q77 0 146 -25l115 162l72 -45l-109 -155q83 -58 118.5 -167t13.5 -259l-90 -601q-10 -69 -40.5 -139t-86.5 -126.5t-138 -92.5t-187 -36q-132 0 -211.5 53.5t-109.5 137.5t-14 195l30 200
l20 99q23 100 79.5 172.5t144.5 116t201 43.5q97 0 167.5 -42t108.5 -107l17 116q17 107 -2 200.5t-86 148.5zM470 77q128 0 218.5 78.5t112.5 221.5l48 326q-20 78 -88 136.5t-172 58.5q-128 0 -215 -72t-108 -210l-38 -255q-20 -135 46.5 -209.5t195.5 -74.5z" />
    <glyph glyph-name="ntilde" unicode="&#xf1;" horiz-adv-x="1066" 
d="M270 996h89l-10 -127q99 68 202 107.5t190 39.5q123 0 179 -70t36 -201l-111 -745h-108l109 722q27 192 -145 192q-73 0 -168.5 -35.5t-187.5 -100.5l-116 -778h-108zM575 1368q6 0 22 -2t34 -10.5t68 -41.5t80 -33q56 0 131 86l56 -44q-99 -138 -204 -138
q-45 0 -100.5 38.5t-73 44t-29.5 5.5q-27 0 -57.5 -18t-75.5 -68l-54 44q99 137 203 137z" />
    <glyph glyph-name="ograve" unicode="&#xf2;" horiz-adv-x="1038" 
d="M124 362l40 272q10 65 40.5 132.5t87 122.5t138.5 91t183 36q80 0 148 -26t114 -75t65.5 -121t6.5 -160l-40 -272q-10 -65 -40.5 -132.5t-87 -122.5t-138.5 -91t-183 -36q-80 0 -148 26t-114 75t-65.5 121t-6.5 160zM271 626l-39 -256q-19 -135 47 -214t194 -79
q127 0 217 79t111 214l38 256q20 135 -46.5 214t-194.5 79t-217.5 -79t-109.5 -214zM764 1184l-63 -63l-273 255l82 77z" />
    <glyph glyph-name="oacute" unicode="&#xf3;" horiz-adv-x="1038" 
d="M124 362l40 272q10 65 40.5 132.5t87 122.5t138.5 91t183 36q80 0 148 -26t114 -75t65.5 -121t6.5 -160l-40 -272q-10 -65 -40.5 -132.5t-87 -122.5t-138.5 -91t-183 -36q-80 0 -148 26t-114 75t-65.5 121t-6.5 160zM271 626l-39 -256q-19 -135 47 -214t194 -79
q127 0 217 79t111 214l38 256q20 135 -46.5 214t-194.5 79t-217.5 -79t-109.5 -214zM544 1121l-45 63l335 269l58 -77z" />
    <glyph glyph-name="ocircumflex" unicode="&#xf4;" horiz-adv-x="1038" 
d="M124 362l40 272q10 65 40.5 132.5t87 122.5t138.5 91t183 36q80 0 148 -26t114 -75t65.5 -121t6.5 -160l-40 -272q-10 -65 -40.5 -132.5t-87 -122.5t-138.5 -91t-183 -36q-80 0 -148 26t-114 75t-65.5 121t-6.5 160zM271 626l-39 -256q-19 -135 47 -214t194 -79
q127 0 217 79t111 214l38 256q20 135 -46.5 214t-194.5 79t-217.5 -79t-109.5 -214zM706 1439l190 -269l-95 -34l-140 203l-200 -203l-85 34l271 269h59z" />
    <glyph glyph-name="otilde" unicode="&#xf5;" horiz-adv-x="1036" 
d="M124 362l40 272q10 65 40.5 132.5t87 122.5t138.5 91t183 36q80 0 148 -26t114 -75t65.5 -121t6.5 -160l-40 -272q-10 -65 -40.5 -132.5t-87 -122.5t-138.5 -91t-183 -36q-80 0 -148 26t-114 75t-65.5 121t-6.5 160zM271 626l-39 -256q-19 -135 47 -214t194 -79
q127 0 217 79t111 214l38 256q20 135 -46.5 214t-194.5 79t-217.5 -79t-109.5 -214zM558 1368q6 0 22 -2t34 -10.5t68 -41.5t80 -33q27 0 57 18t75 68l55 -44q-99 -138 -204 -138q-45 0 -100.5 38.5t-73 44t-29.5 5.5q-59 0 -132 -86l-55 44q40 57 92 97t111 40z" />
    <glyph glyph-name="odieresis" unicode="&#xf6;" horiz-adv-x="1038" 
d="M124 362l40 272q10 65 40.5 132.5t87 122.5t138.5 91t183 36q80 0 148 -26t114 -75t65.5 -121t6.5 -160l-40 -272q-10 -65 -40.5 -132.5t-87 -122.5t-138.5 -91t-183 -36q-80 0 -148 26t-114 75t-65.5 121t-6.5 160zM271 626l-39 -256q-19 -135 47 -214t194 -79
q127 0 217 79t111 214l38 256q20 135 -46.5 214t-194.5 79t-217.5 -79t-109.5 -214zM736 1266q0 39 24 63.5t64 24.5q30 0 47 -17t17 -46q0 -40 -24 -64t-63 -24q-30 0 -47.5 17t-17.5 46zM417 1266q0 39 24 63.5t63 24.5q30 0 47.5 -17t17.5 -46q0 -40 -24.5 -64t-63.5 -24
q-30 0 -47 16.5t-17 46.5z" />
    <glyph glyph-name="divide" unicode="&#xf7;" horiz-adv-x="1062" 
d="M213 630l14 95h719l-14 -95h-719zM548 967q0 39 24 63t63 24q31 0 48 -16.5t17 -46.5q0 -39 -24 -63t-63 -24q-31 0 -48 16.5t-17 46.5zM458 364q0 40 24 64t63 24q31 0 48 -16.5t17 -46.5q0 -39 -24.5 -63.5t-62.5 -24.5q-31 0 -48 17t-17 46z" />
    <glyph glyph-name="oslash" unicode="&#xf8;" horiz-adv-x="1032" 
d="M124 362l40 272q10 65 40.5 132.5t87 122.5t138.5 91t183 36q88 0 158 -32l136 237h94l-160 -275q64 -48 92.5 -128t13.5 -184l-40 -272q-10 -65 -40.5 -132.5t-87 -122.5t-138.5 -91t-183 -36q-87 0 -158 31l-136 -237h-94l159 276q-63 49 -91.5 129t-13.5 183zM839 626
q10 70 -4.5 128t-50.5 95l-431 -747q51 -25 120 -25q127 0 217 79t111 214zM271 626l-39 -256q-19 -145 54 -223l431 747q-49 25 -119 25q-128 0 -217.5 -79t-109.5 -214z" />
    <glyph glyph-name="ugrave" unicode="&#xf9;" horiz-adv-x="1049" 
d="M826 0h-90l10 127q-98 -68 -199 -107.5t-185 -39.5q-121 0 -176.5 70t-36.5 201l111 745h108l-108 -722q-29 -192 142 -192q71 0 164.5 35t184.5 100l116 779h108zM747 1184l-63 -63l-273 255l82 77z" />
    <glyph glyph-name="uacute" unicode="&#xfa;" horiz-adv-x="1049" 
d="M826 0h-90l10 127q-98 -68 -199 -107.5t-185 -39.5q-121 0 -176.5 70t-36.5 201l111 745h108l-108 -722q-29 -192 142 -192q71 0 164.5 35t184.5 100l116 779h108zM559 1121l-45 63l335 269l58 -77z" />
    <glyph glyph-name="ucircumflex" unicode="&#xfb;" horiz-adv-x="1049" 
d="M826 0h-90l10 127q-98 -68 -199 -107.5t-185 -39.5q-121 0 -176.5 70t-36.5 201l111 745h108l-108 -722q-29 -192 142 -192q71 0 164.5 35t184.5 100l116 779h108zM716 1439l190 -269l-94 -34l-140 203l-201 -203l-85 34l272 269h58z" />
    <glyph glyph-name="udieresis" unicode="&#xfc;" horiz-adv-x="1049" 
d="M826 0h-90l10 127q-98 -68 -199 -107.5t-185 -39.5q-121 0 -176.5 70t-36.5 201l111 745h108l-108 -722q-29 -192 142 -192q71 0 164.5 35t184.5 100l116 779h108zM426 1266q0 39 24.5 63.5t64.5 24.5q29 0 46.5 -17t17.5 -46q0 -40 -24 -64t-64 -24q-30 0 -47.5 17
t-17.5 46zM746 1266q0 39 24.5 63.5t63.5 24.5q30 0 47 -17t17 -46q0 -40 -24 -64t-63 -24q-30 0 -47.5 17t-17.5 46z" />
    <glyph glyph-name="yacute" unicode="&#xfd;" horiz-adv-x="953" 
d="M507 1121l-45 63l335 269l58 -77zM223 996l219 -1041q130 200 243.5 472t190.5 569h112q-112 -415 -272 -753t-352.5 -524.5t-395.5 -186.5q-101 0 -176 34l35 93q69 -30 154 -30q94 0 195.5 61t201.5 187l-25 2l-242 1117h112z" />
    <glyph glyph-name="thorn" unicode="&#xfe;" horiz-adv-x="1059" 
d="M337 1444h108l-84 -561q169 133 329 133q144 0 220 -106t50 -283l-39 -258q-27 -178 -152 -283.5t-303 -105.5q-129 0 -236 45l-70 -473h-106zM652 917q-75 0 -161 -41t-146 -98l-98 -653q114 -48 235 -48q138 0 225 81.5t108 218.5l36 242q21 139 -28.5 218.5
t-170.5 79.5z" />
    <glyph glyph-name="ydieresis" unicode="&#xff;" horiz-adv-x="953" 
d="M676 1266q0 39 24 63.5t63 24.5q30 0 47.5 -17t17.5 -46q0 -40 -24 -64t-63 -24q-31 0 -48 16.5t-17 46.5zM356 1266q0 39 24.5 63.5t62.5 24.5q31 0 48 -17t17 -46q0 -40 -24 -64t-63 -24q-31 0 -48 16.5t-17 46.5zM223 996l219 -1041q130 200 243.5 472t190.5 569h112
q-112 -415 -272 -753t-352.5 -524.5t-395.5 -186.5q-101 0 -176 34l35 93q69 -30 154 -30q94 0 195.5 61t201.5 187l-25 2l-242 1117h112z" />
    <glyph glyph-name="Amacron" unicode="&#x100;" horiz-adv-x="1174" 
d="M1057 0h-115l-67 369h-576l-177 -369h-115l655 1354h145zM718 1247l-375 -784h516zM518 1590l14 91h502l-14 -91h-502z" />
    <glyph glyph-name="amacron" unicode="&#x101;" horiz-adv-x="1051" 
d="M131 369l38 257q27 178 152 284t303 106q102 0 190 -22t146 -57l-140 -937h-90l12 128q-76 -66 -165.5 -107t-175.5 -41q-144 0 -220 106t-50 283zM439 79q74 0 160 42t147 102l98 650q-108 46 -235 46q-139 0 -226 -81.5t-108 -218.5l-36 -242q-21 -139 29 -218.5
t171 -79.5zM397 1232l14 91h503l-14 -91h-503z" />
    <glyph glyph-name="Abreve" unicode="&#x102;" horiz-adv-x="1174" 
d="M1057 0h-115l-67 369h-576l-177 -369h-115l655 1354h145zM718 1247l-375 -784h516zM558 1757h95q-8 -68 23.5 -110t94.5 -42q65 0 108.5 43.5t56.5 108.5h94q-16 -107 -91.5 -174.5t-180.5 -67.5t-160.5 67.5t-39.5 174.5z" />
    <glyph glyph-name="abreve" unicode="&#x103;" horiz-adv-x="1051" 
d="M131 369l38 257q27 178 152 284t303 106q102 0 190 -22t146 -57l-140 -937h-90l12 128q-76 -66 -165.5 -107t-175.5 -41q-144 0 -220 106t-50 283zM439 79q74 0 160 42t147 102l98 650q-108 46 -235 46q-139 0 -226 -81.5t-108 -218.5l-36 -242q-21 -139 29 -218.5
t171 -79.5zM443 1399h95q-7 -68 24.5 -110t94.5 -42q65 0 108 43.5t56 108.5h95q-17 -107 -92.5 -174.5t-180.5 -67.5t-160 67.5t-40 174.5z" />
    <glyph glyph-name="Aogonek" unicode="&#x104;" horiz-adv-x="1174" 
d="M1057 0l-43 -26q-206 -125 -206 -257q0 -44 27.5 -68.5t71.5 -24.5q57 0 110 20l6 -85q-72 -28 -144 -28q-74 0 -124 40.5t-50 115.5q0 80 64.5 163t190.5 159l-34 77l-51 283h-576l-177 -369h-115l655 1354h145zM718 1247l-375 -784h516z" />
    <glyph glyph-name="aogonek" unicode="&#x105;" horiz-adv-x="1051" 
d="M131 369l38 257q27 178 152 284t303 106q102 0 190 -22t146 -57l-140 -937q-247 -140 -247 -283q0 -44 28 -68.5t72 -24.5q57 0 110 20l5 -85q-72 -28 -143 -28q-74 0 -124.5 40.5t-50.5 115.5q0 80 66.5 164t194.5 160l11 117q-76 -66 -165.5 -107t-175.5 -41
q-144 0 -220 106t-50 283zM439 79q74 0 160 42t147 102l98 650q-108 46 -235 46q-139 0 -226 -81.5t-108 -218.5l-36 -242q-21 -139 29 -218.5t171 -79.5z" />
    <glyph glyph-name="Cacute" unicode="&#x106;" horiz-adv-x="980" 
d="M851 136l7 -90q-148 -66 -337 -66q-89 0 -166.5 30.5t-131.5 87t-77 137.5t-9 177l78 522q11 74 46 151.5t100.5 141t159.5 105.5t208 42q66 0 147.5 -16t145.5 -52l-41 -92q-125 59 -268 59q-109 0 -192.5 -49t-133.5 -124.5t-65 -173.5l-75 -505q-15 -96 13.5 -170.5
t100 -122t184.5 -47.5q166 0 306 55zM633 1479l-44 63l334 269l59 -77z" />
    <glyph glyph-name="cacute" unicode="&#x107;" horiz-adv-x="825" 
d="M275 615l-35 -236q-21 -138 40 -219t190 -81q46 0 110 8t111 22v-94q-37 -12 -104 -23.5t-134 -11.5q-170 0 -259.5 105t-62.5 285l38 256q27 177 148 283.5t286 106.5q128 0 226 -41l-35 -93q-105 35 -203 35q-128 0 -212 -82t-104 -220zM500 1121l-45 63l335 269
l59 -77z" />
    <glyph glyph-name="Ccircumflex" unicode="&#x108;" horiz-adv-x="980" 
d="M851 136l7 -90q-148 -66 -337 -66q-89 0 -166.5 30.5t-131.5 87t-77 137.5t-9 177l78 522q11 74 46 151.5t100.5 141t159.5 105.5t208 42q66 0 147.5 -16t145.5 -52l-41 -92q-125 59 -268 59q-109 0 -192.5 -49t-133.5 -124.5t-65 -173.5l-75 -505q-15 -96 13.5 -170.5
t100 -122t184.5 -47.5q166 0 306 55zM799 1797l190 -269l-94 -34l-140 203l-201 -203l-84 34l270 269h59z" />
    <glyph glyph-name="ccircumflex" unicode="&#x109;" horiz-adv-x="825" 
d="M275 615l-35 -236q-21 -138 40 -219t190 -81q46 0 110 8t111 22v-94q-37 -12 -104 -23.5t-134 -11.5q-170 0 -259.5 105t-62.5 285l38 256q27 177 148 283.5t286 106.5q128 0 226 -41l-35 -93q-105 35 -203 35q-128 0 -212 -82t-104 -220zM659 1439l191 -269l-95 -34
l-140 203l-200 -203l-85 34l271 269h58z" />
    <glyph glyph-name="Cdotaccent" unicode="&#x10a;" horiz-adv-x="980" 
d="M851 136l7 -90q-148 -66 -337 -66q-89 0 -166.5 30.5t-131.5 87t-77 137.5t-9 177l78 522q11 74 46 151.5t100.5 141t159.5 105.5t208 42q66 0 147.5 -16t145.5 -52l-41 -92q-125 59 -268 59q-109 0 -192.5 -49t-133.5 -124.5t-65 -173.5l-75 -505q-15 -96 13.5 -170.5
t100 -122t184.5 -47.5q166 0 306 55zM679 1624q0 39 24.5 63.5t63.5 24.5q30 0 47.5 -17t17.5 -46q0 -40 -24.5 -64t-63.5 -24q-30 0 -47.5 17t-17.5 46z" />
    <glyph glyph-name="cdotaccent" unicode="&#x10b;" horiz-adv-x="825" 
d="M275 615l-35 -236q-21 -138 40 -219t190 -81q46 0 110 8t111 22v-94q-37 -12 -104 -23.5t-134 -11.5q-170 0 -259.5 105t-62.5 285l38 256q27 177 148 283.5t286 106.5q128 0 226 -41l-35 -93q-105 35 -203 35q-128 0 -212 -82t-104 -220zM546 1266q0 39 24 63.5t63 24.5
q30 0 47.5 -17t17.5 -46q0 -40 -24.5 -64t-63.5 -24q-30 0 -47 16.5t-17 46.5z" />
    <glyph glyph-name="Ccaron" unicode="&#x10c;" horiz-adv-x="980" 
d="M851 136l7 -90q-148 -66 -337 -66q-89 0 -166.5 30.5t-131.5 87t-77 137.5t-9 177l78 522q11 74 46 151.5t100.5 141t159.5 105.5t208 42q66 0 147.5 -16t145.5 -52l-41 -92q-125 59 -268 59q-109 0 -192.5 -49t-133.5 -124.5t-65 -173.5l-75 -505q-15 -96 13.5 -170.5
t100 -122t184.5 -47.5q166 0 306 55zM700 1489l-194 269l94 34l144 -203l204 203l85 -34l-275 -269h-58z" />
    <glyph glyph-name="ccaron" unicode="&#x10d;" horiz-adv-x="825" 
d="M275 615l-35 -236q-21 -138 40 -219t190 -81q46 0 110 8t111 22v-94q-37 -12 -104 -23.5t-134 -11.5q-170 0 -259.5 105t-62.5 285l38 256q27 177 148 283.5t286 106.5q128 0 226 -41l-35 -93q-105 35 -203 35q-128 0 -212 -82t-104 -220zM575 1131l-195 269l95 34
l143 -203l205 203l85 -34l-275 -269h-58z" />
    <glyph glyph-name="Dcaron" unicode="&#x10e;" horiz-adv-x="1161" 
d="M121 0l202 1354h393q94 0 174 -29.5t135.5 -84t79.5 -132.5t10 -170l-78 -522q-11 -72 -45.5 -146t-100.5 -133.5t-162 -98t-216 -38.5h-392zM1006 930q22 149 -63 240t-248 91h-276l-175 -1168h276q165 0 276 89t135 242zM667 1489l-194 269l95 34l143 -203l205 203
l85 -34l-276 -269h-58z" />
    <glyph glyph-name="dcaron" unicode="&#x10f;" horiz-adv-x="1212" 
d="M820 0h-90l11 120q-77 -62 -166 -101t-174 -39q-144 0 -220 106t-50 283l38 257q27 178 152 284t303 106q47 0 112 -10t123 -36l72 474h105zM439 79q72 0 158.5 40t147.5 99l98 652q-110 49 -234 49q-139 0 -226 -81.5t-108 -218.5l-36 -242q-21 -139 29 -218.5
t171 -79.5zM1236 1444h109l-82 -483h-89z" />
    <glyph glyph-name="Dcroat" unicode="&#x110;" horiz-adv-x="1185" 
d="M83 632l13 91h158l95 631h392q94 0 174 -29.5t135.5 -84t79.5 -132.5t10 -170l-78 -522q-11 -72 -45.5 -146t-100.5 -133.5t-162 -98t-216 -38.5h-391l93 632h-157zM1031 930q22 149 -63 240t-248 91h-276l-81 -538h345l-14 -91h-344l-81 -539h277q164 0 275 89t134 242z
" />
    <glyph glyph-name="dcroat" unicode="&#x111;" horiz-adv-x="1059" 
d="M592 1193l14 91h301l24 160h105l-24 -160h146l-14 -91h-146l-178 -1193h-90l11 120q-77 -62 -166 -101t-174 -39q-144 0 -220 106t-50 283l38 257q27 178 152 284t303 106q47 0 112 -10t123 -36l34 223h-301zM439 79q72 0 158.5 40t147.5 99l98 652q-110 49 -234 49
q-139 0 -226 -81.5t-108 -218.5l-36 -242q-21 -139 29 -218.5t171 -79.5z" />
    <glyph glyph-name="Emacron" unicode="&#x112;" horiz-adv-x="977" 
d="M121 0l202 1354h721l-15 -96h-610l-79 -525h591l-14 -96h-591l-81 -541h631l-14 -96h-741zM460 1590l13 91h502l-13 -91h-502z" />
    <glyph glyph-name="emacron" unicode="&#x113;" horiz-adv-x="959" 
d="M357 1232l14 91h502l-13 -91h-503zM125 370l39 260q10 65 39.5 133t85.5 124t136 92.5t178 36.5q136 0 226 -71t90 -191q0 -172 -112.5 -247.5t-354.5 -75.5q-111 0 -208 18l-11 -75q-20 -136 45 -215.5t203 -79.5q151 0 298 49v-94q-47 -18 -135 -36t-180 -18
q-64 0 -129.5 18t-117 63.5t-80 122t-12.5 186.5zM271 626l-14 -93q110 -18 204 -18q188 0 267.5 49t79.5 177q0 83 -60 130.5t-159 47.5q-126 0 -211.5 -77.5t-106.5 -215.5z" />
    <glyph glyph-name="Ebreve" unicode="&#x114;" horiz-adv-x="977" 
d="M121 0l202 1354h721l-15 -96h-610l-79 -525h591l-14 -96h-591l-81 -541h631l-14 -96h-741zM509 1757h95q-7 -68 24.5 -110t94.5 -42q65 0 108 43.5t56 108.5h95q-17 -107 -92.5 -174.5t-180.5 -67.5t-160 67.5t-40 174.5z" />
    <glyph glyph-name="ebreve" unicode="&#x115;" horiz-adv-x="959" 
d="M398 1399h94q-7 -68 24 -110t95 -42q65 0 108 43.5t56 108.5h95q-17 -107 -92.5 -174.5t-180.5 -67.5t-160 67.5t-39 174.5zM125 370l39 260q10 65 39.5 133t85.5 124t136 92.5t178 36.5q136 0 226 -71t90 -191q0 -172 -112.5 -247.5t-354.5 -75.5q-111 0 -208 18
l-11 -75q-20 -136 45 -215.5t203 -79.5q151 0 298 49v-94q-47 -18 -135 -36t-180 -18q-64 0 -129.5 18t-117 63.5t-80 122t-12.5 186.5zM271 626l-14 -93q110 -18 204 -18q188 0 267.5 49t79.5 177q0 83 -60 130.5t-159 47.5q-126 0 -211.5 -77.5t-106.5 -215.5z" />
    <glyph glyph-name="Edotaccent" unicode="&#x116;" horiz-adv-x="977" 
d="M121 0l202 1354h721l-15 -96h-610l-79 -525h591l-14 -96h-591l-81 -541h631l-14 -96h-741zM652 1624q0 39 24.5 63.5t63.5 24.5q30 0 47.5 -17t17.5 -46q0 -40 -24.5 -64t-63.5 -24q-30 0 -47.5 17t-17.5 46z" />
    <glyph glyph-name="edotaccent" unicode="&#x117;" horiz-adv-x="959" 
d="M539 1266q0 39 24.5 63.5t63.5 24.5q30 0 47.5 -17t17.5 -46q0 -40 -24.5 -64t-63.5 -24q-30 0 -47.5 17t-17.5 46zM125 370l39 260q10 65 39.5 133t85.5 124t136 92.5t178 36.5q136 0 226 -71t90 -191q0 -172 -112.5 -247.5t-354.5 -75.5q-111 0 -208 18l-11 -75
q-20 -136 45 -215.5t203 -79.5q151 0 298 49v-94q-47 -18 -135 -36t-180 -18q-64 0 -129.5 18t-117 63.5t-80 122t-12.5 186.5zM271 626l-14 -93q110 -18 204 -18q188 0 267.5 49t79.5 177q0 83 -60 130.5t-159 47.5q-126 0 -211.5 -77.5t-106.5 -215.5z" />
    <glyph glyph-name="Eogonek" unicode="&#x118;" horiz-adv-x="977" 
d="M121 0l202 1354h721l-15 -96h-610l-79 -525h591l-14 -96h-591l-81 -541h631l-14 -96h-2q-247 -139 -247 -283q0 -45 27.5 -69t72.5 -24q55 0 110 20l5 -85q-72 -28 -143 -28q-74 0 -124.5 40.5t-50.5 115.5q0 160 240 313h-629z" />
    <glyph glyph-name="eogonek" unicode="&#x119;" horiz-adv-x="959" 
d="M125 370l39 260q10 65 39.5 133t85.5 124t136 92.5t178 36.5q136 0 226 -71t90 -191q0 -172 -112.5 -247.5t-354.5 -75.5q-111 0 -208 18l-11 -75q-20 -136 45 -215.5t203 -79.5q151 0 298 49v-94q-49 -19 -124 -34q-246 -139 -246 -283q0 -44 27.5 -68.5t71.5 -24.5
q58 0 111 20l5 -85q-72 -28 -144 -28q-74 0 -124 40.5t-50 115.5q0 149 214 295l-56 -2q-64 0 -129.5 18t-117 63.5t-80 122t-12.5 186.5zM271 626l-14 -93q110 -18 204 -18q188 0 267.5 49t79.5 177q0 83 -60 130.5t-159 47.5q-126 0 -211.5 -77.5t-106.5 -215.5z" />
    <glyph glyph-name="Ecaron" unicode="&#x11a;" horiz-adv-x="977" 
d="M121 0l202 1354h721l-15 -96h-610l-79 -525h591l-14 -96h-591l-81 -541h631l-14 -96h-741zM683 1489l-195 269l95 34l143 -203l205 203l85 -34l-275 -269h-58z" />
    <glyph glyph-name="ecaron" unicode="&#x11b;" horiz-adv-x="959" 
d="M564 1131l-195 269l95 34l144 -203l205 203l84 -34l-274 -269h-59zM125 370l39 260q10 65 39.5 133t85.5 124t136 92.5t178 36.5q136 0 226 -71t90 -191q0 -172 -112.5 -247.5t-354.5 -75.5q-111 0 -208 18l-11 -75q-20 -136 45 -215.5t203 -79.5q151 0 298 49v-94
q-47 -18 -135 -36t-180 -18q-64 0 -129.5 18t-117 63.5t-80 122t-12.5 186.5zM271 626l-14 -93q110 -18 204 -18q188 0 267.5 49t79.5 177q0 83 -60 130.5t-159 47.5q-126 0 -211.5 -77.5t-106.5 -215.5z" />
    <glyph glyph-name="Gcircumflex" unicode="&#x11c;" horiz-adv-x="1067" 
d="M998 631l-86 -577q-74 -34 -174.5 -54t-200.5 -20q-95 0 -166 26t-125 70t-90.5 130t-17.5 210l76 514q11 76 47.5 154t105.5 142t170.5 106t229.5 42q181 0 327 -72l-43 -89q-60 25 -138 42.5t-154 17.5q-85 0 -160.5 -24t-133 -70t-95 -112t-49.5 -146l-74 -497
q-24 -160 62.5 -251.5t252.5 -91.5q131 0 255 39l76 511h105zM839 1797l191 -269l-95 -34l-140 203l-201 -203l-84 34l271 269h58z" />
    <glyph glyph-name="gcircumflex" unicode="&#x11d;" horiz-adv-x="1051" 
d="M712 1439l191 -269l-95 -34l-140 203l-201 -203l-84 34l271 269h58zM704 -71l28 186q-74 -60 -161 -97.5t-170 -37.5q-144 0 -220 106t-50 283l38 257q27 178 152 284t303 106q102 0 190 -22t146 -57l-149 -997q-30 -203 -155 -305.5t-329 -102.5q-156 0 -275 50l34 95
q112 -46 251 -46q323 0 367 298zM439 79q74 0 160 40.5t146 97.5l99 656q-108 46 -235 46q-139 0 -226 -81.5t-108 -218.5l-36 -242q-21 -139 29 -218.5t171 -79.5z" />
    <glyph glyph-name="Gbreve" unicode="&#x11e;" horiz-adv-x="1067" 
d="M998 631l-86 -577q-74 -34 -174.5 -54t-200.5 -20q-95 0 -166 26t-125 70t-90.5 130t-17.5 210l76 514q11 76 47.5 154t105.5 142t170.5 106t229.5 42q181 0 327 -72l-43 -89q-60 25 -138 42.5t-154 17.5q-85 0 -160.5 -24t-133 -70t-95 -112t-49.5 -146l-74 -497
q-24 -160 62.5 -251.5t252.5 -91.5q131 0 255 39l76 511h105zM564 1757h95q-8 -68 23.5 -110t95.5 -42q65 0 108 43.5t56 108.5h94q-16 -107 -91.5 -174.5t-180.5 -67.5t-160 67.5t-40 174.5z" />
    <glyph glyph-name="gbreve" unicode="&#x11f;" horiz-adv-x="1051" 
d="M423 1399h94q-6 -68 25 -110t94 -42q65 0 108 43.5t56 108.5h95q-17 -107 -92 -174.5t-180 -67.5t-160.5 67.5t-39.5 174.5zM704 -71l28 186q-74 -60 -161 -97.5t-170 -37.5q-144 0 -220 106t-50 283l38 257q27 178 152 284t303 106q102 0 190 -22t146 -57l-149 -997
q-30 -203 -155 -305.5t-329 -102.5q-156 0 -275 50l34 95q112 -46 251 -46q323 0 367 298zM439 79q74 0 160 40.5t146 97.5l99 656q-108 46 -235 46q-139 0 -226 -81.5t-108 -218.5l-36 -242q-21 -139 29 -218.5t171 -79.5z" />
    <glyph glyph-name="Gdotaccent" unicode="&#x120;" horiz-adv-x="1055" 
d="M998 631l-86 -577q-74 -34 -174.5 -54t-200.5 -20q-95 0 -166 26t-125 70t-90.5 130t-17.5 210l76 514q11 76 47.5 154t105.5 142t170.5 106t229.5 42q181 0 327 -72l-43 -89q-60 25 -138 42.5t-154 17.5q-85 0 -160.5 -24t-133 -70t-95 -112t-49.5 -146l-74 -497
q-24 -160 62.5 -251.5t252.5 -91.5q131 0 255 39l76 511h105zM700 1624q0 39 24.5 63.5t63.5 24.5q30 0 47 -17t17 -46q0 -40 -24 -64t-63 -24q-30 0 -47.5 17t-17.5 46z" />
    <glyph glyph-name="gdotaccent" unicode="&#x121;" horiz-adv-x="1051" 
d="M558 1266q0 39 24.5 63.5t62.5 24.5q30 0 47.5 -17t17.5 -46q0 -40 -24 -64t-63 -24q-31 0 -48 16.5t-17 46.5zM704 -71l28 186q-74 -60 -161 -97.5t-170 -37.5q-144 0 -220 106t-50 283l38 257q27 178 152 284t303 106q102 0 190 -22t146 -57l-149 -997
q-30 -203 -155 -305.5t-329 -102.5q-156 0 -275 50l34 95q112 -46 251 -46q323 0 367 298zM439 79q74 0 160 40.5t146 97.5l99 656q-108 46 -235 46q-139 0 -226 -81.5t-108 -218.5l-36 -242q-21 -139 29 -218.5t171 -79.5z" />
    <glyph glyph-name="Gcommaaccent" unicode="&#x122;" horiz-adv-x="1067" 
d="M998 631l-86 -577q-74 -34 -174.5 -54t-200.5 -20q-95 0 -166 26t-125 70t-90.5 130t-17.5 210l76 514q11 76 47.5 154t105.5 142t170.5 106t229.5 42q181 0 327 -72l-43 -89q-60 25 -138 42.5t-154 17.5q-85 0 -160.5 -24t-133 -70t-95 -112t-49.5 -146l-74 -497
q-24 -160 62.5 -251.5t252.5 -91.5q131 0 255 39l76 511h105zM467 -117h108l-10 -70q-14 -89 -62.5 -171.5t-102.5 -131.5h-90q51 57 92 135.5t53 155.5z" />
    <glyph glyph-name="gcommaaccent" unicode="&#x123;" horiz-adv-x="1051" 
d="M678 1179h-108l8 53l13 66q20 95 61.5 184.5t84.5 145.5h87q-44 -73 -81 -167t-51 -185zM704 -71l28 186q-74 -60 -161 -97.5t-170 -37.5q-144 0 -220 106t-50 283l38 257q27 178 152 284t303 106q102 0 190 -22t146 -57l-149 -997q-30 -203 -155 -305.5t-329 -102.5
q-156 0 -275 50l34 95q112 -46 251 -46q323 0 367 298zM439 79q74 0 160 40.5t146 97.5l99 656q-108 46 -235 46q-139 0 -226 -81.5t-108 -218.5l-36 -242q-21 -139 29 -218.5t171 -79.5z" />
    <glyph glyph-name="Hcircumflex" unicode="&#x124;" horiz-adv-x="1244" 
d="M1013 0h-110l96 636h-674l-95 -636h-109l202 1354h109l-92 -622h673l93 622h109zM864 1797l191 -269l-95 -34l-140 203l-199 -203l-85 34l270 269h58z" />
    <glyph glyph-name="hcircumflex" unicode="&#x125;" horiz-adv-x="1072" 
d="M337 1444h106l-85 -570q98 66 198 104t185 38q123 0 179 -70t36 -201l-111 -745h-108l109 722q27 192 -145 192q-73 0 -168.5 -35.5t-187.5 -100.5l-116 -778h-108zM472 1797l190 -269l-95 -34l-140 203l-200 -203l-85 34l271 269h59z" />
    <glyph glyph-name="Hbar" unicode="&#x126;" horiz-adv-x="1294" 
d="M127 1000l14 91h168l40 263h109l-40 -263h674l40 263h109l-40 -263h168l-14 -91h-168l-149 -1000h-109l95 636h-674l-94 -636h-109l148 1000h-168zM365 732h673l40 268h-673z" />
    <glyph glyph-name="hbar" unicode="&#x127;" horiz-adv-x="1080" 
d="M345 1444h106l-25 -160h313l-14 -91h-312l-48 -319q98 66 199 104t186 38q122 0 178 -70t36 -201l-111 -745h-107l107 722q29 192 -144 192q-73 0 -168 -35.5t-188 -100.5l-117 -778h-107l178 1193h-145l14 91h145z" />
    <glyph glyph-name="Itilde" unicode="&#x128;" horiz-adv-x="462" 
d="M432 1354l-202 -1354h-109l202 1354h109zM327 1726q6 0 22 -2t34 -10.5t68 -41.5t80 -33q18 0 46 11.5t86 74.5l54 -44q-40 -57 -92.5 -97.5t-110.5 -40.5q-45 0 -101 38.5t-73.5 44t-29.5 5.5q-58 0 -131 -86l-55 44q40 57 92 97t111 40z" />
    <glyph glyph-name="itilde" unicode="&#x129;" horiz-adv-x="443" 
d="M262 996h107l-149 -996h-107zM265 1368q6 0 22 -2t33.5 -10.5t67.5 -41.5t80 -33q27 0 57 18t75 68l55 -44q-99 -138 -204 -138q-6 0 -22 2t-33.5 10.5t-67.5 42t-80 33.5q-59 0 -132 -86l-55 44q99 137 204 137z" />
    <glyph glyph-name="Imacron" unicode="&#x12a;" horiz-adv-x="462" 
d="M432 1354l-202 -1354h-109l202 1354h109zM162 1590l13 91h503l-13 -91h-503z" />
    <glyph glyph-name="imacron" unicode="&#x12b;" horiz-adv-x="443" 
d="M262 996h107l-149 -996h-107zM100 1232l13 91h503l-14 -91h-502z" />
    <glyph glyph-name="Ibreve" unicode="&#x12c;" horiz-adv-x="462" 
d="M432 1354l-202 -1354h-109l202 1354h109zM203 1757h94q-7 -68 24 -110t95 -42q65 0 108 43.5t56 108.5h95q-17 -107 -92.5 -174.5t-180.5 -67.5t-160 68t-39 174z" />
    <glyph glyph-name="ibreve" unicode="&#x12d;" horiz-adv-x="443" 
d="M262 996h107l-149 -996h-107zM140 1399h95q-7 -68 24 -110t94 -42q66 0 108.5 43.5t55.5 108.5h95q-16 -107 -91.5 -174.5t-180.5 -67.5t-160.5 67.5t-39.5 174.5z" />
    <glyph glyph-name="Iogonek" unicode="&#x12e;" horiz-adv-x="462" 
d="M432 1354l-202 -1354h-2q-247 -139 -247 -283q0 -44 28 -68.5t72 -24.5q57 0 110 20l5 -85q-70 -28 -143 -28q-74 0 -124.5 40.5t-50.5 115.5q0 81 65.5 164.5t194.5 160.5v101l185 1241h109z" />
    <glyph glyph-name="iogonek" unicode="&#x12f;" horiz-adv-x="443" 
d="M262 996h107l-149 -996h-1q-192 -109 -228 -229q-19 -45 -13 -79q11 -68 93 -68q57 0 110 20l5 -85q-70 -28 -142 -28q-75 0 -125.5 40.5t-50.5 115.5q0 81 65.5 164.5t194.5 160.5l2 99zM281 1266q0 39 24.5 63.5t62.5 24.5q31 0 48 -17t17 -46q0 -40 -24 -64t-63 -24
q-30 0 -47.5 17t-17.5 46z" />
    <glyph glyph-name="Idotaccent" unicode="&#x130;" horiz-adv-x="462" 
d="M432 1354l-202 -1354h-109l202 1354h109zM344 1624q0 39 24.5 63.5t62.5 24.5q30 0 47.5 -17t17.5 -46q0 -40 -24 -64t-63 -24q-31 0 -48 16.5t-17 46.5z" />
    <glyph glyph-name="dotlessi" unicode="&#x131;" horiz-adv-x="443" 
d="M262 996h107l-149 -996h-107z" />
    <glyph glyph-name="IJ" unicode="&#x132;" horiz-adv-x="923" 
d="M432 1354l-202 -1354h-109l202 1354h109zM785 1354h109l-206 -1386q-20 -135 -92 -238t-248 -198l-37 77q124 74 186 154t80 203z" />
    <glyph glyph-name="ij" unicode="&#x133;" horiz-adv-x="919" 
d="M270 996h108l-149 -996h-108zM290 1266q0 40 24 64t63 24q30 0 47.5 -16.5t17.5 -45.5q0 -40 -24 -64.5t-63 -24.5q-30 0 -47.5 17t-17.5 46zM749 1266q0 40 24 64t63 24q31 0 48 -16.5t17 -45.5q0 -40 -24 -64.5t-63 -24.5q-30 0 -47.5 17t-17.5 46zM730 996h107
l-186 -1249q-32 -215 -242 -215q-63 0 -112 20l27 86q44 -14 97 -14q48 0 81 33t42 98z" />
    <glyph glyph-name="Jcircumflex" unicode="&#x134;" horiz-adv-x="462" 
d="M323 1354h110l-207 -1386q-20 -135 -92 -238t-248 -198l-37 77q124 74 186.5 154t80.5 203zM474 1797l190 -269l-94 -34l-140 203l-201 -203l-84 34l271 269h58z" />
    <glyph glyph-name="jcircumflex" unicode="&#x135;" horiz-adv-x="443" 
d="M415 1439l191 -269l-95 -34l-140 203l-200 -203l-85 34l271 269h58zM262 996h107l-186 -1249q-33 -215 -242 -215q-61 0 -112 20l27 86q44 -14 97 -14q48 0 81 33t42 98z" />
    <glyph glyph-name="Kcommaaccent" unicode="&#x136;" horiz-adv-x="1036" 
d="M432 1354l-94 -631h213l460 631h125l-505 -685l321 -669h-127l-296 627h-205l-94 -627h-109l202 1354h109zM427 -117h108l-7 -45l-11 -58q-17 -79 -62 -151.5t-95 -118.5h-90q51 57 92 135.5t52 155.5z" />
    <glyph glyph-name="kcommaaccent" unicode="&#x137;" horiz-adv-x="952" 
d="M368 -117h108l-11 -70q-13 -89 -61.5 -171.5t-102.5 -131.5h-90q51 57 92 135.5t53 155.5zM337 1444h108l-133 -888h160l364 440h125l-410 -485l155 -374q15 -36 32 -51.5t47 -15.5q46 0 88 12l-3 -82q-51 -20 -111 -20q-51 0 -86.5 19.5t-65.5 92.5l-153 376h-156
l-69 -468h-108z" />
    <glyph glyph-name="kgreenlandic" unicode="&#x138;" horiz-adv-x="952" 
d="M270 996h108l-66 -440h160l364 440h125l-410 -485l155 -374q15 -36 32 -51.5t47 -15.5q46 0 88 12l-3 -82q-51 -20 -111 -20q-51 0 -86.5 19.5t-65.5 92.5l-153 376h-156l-69 -468h-108z" />
    <glyph glyph-name="Lacute" unicode="&#x139;" horiz-adv-x="924" 
d="M432 1354l-188 -1257h594l-14 -97h-703l202 1354h109zM357 1479l-44 63l335 269l58 -77z" />
    <glyph glyph-name="lacute" unicode="&#x13a;" horiz-adv-x="497" 
d="M300 1513l-43 64l334 270l58 -78zM337 1444h108l-189 -1260q-8 -55 12.5 -83.5t63.5 -28.5q49 0 99 15l-6 -85q-60 -22 -132 -22q-84 0 -122 49.5t-24 146.5z" />
    <glyph glyph-name="Lcommaaccent" unicode="&#x13b;" horiz-adv-x="924" 
d="M432 1354l-188 -1257h594l-14 -97h-703l202 1354h109zM414 -117h108l-10 -70q-14 -89 -62 -172t-103 -131h-90q51 57 92 135.5t53 155.5z" />
    <glyph glyph-name="lcommaaccent" unicode="&#x13c;" horiz-adv-x="481" 
d="M201 -117h108l-11 -70q-13 -89 -61.5 -172t-103.5 -131h-89q51 58 92 136t53 155zM337 1444h108l-189 -1260q-8 -55 12.5 -83.5t63.5 -28.5q49 0 99 15l-6 -85q-60 -22 -132 -22q-84 0 -122 49.5t-24 146.5z" />
    <glyph glyph-name="Lcaron" unicode="&#x13d;" horiz-adv-x="924" 
d="M790 1444h110l-82 -483h-90zM432 1354l-188 -1257h594l-14 -97h-703l202 1354h109z" />
    <glyph glyph-name="lcaron" unicode="&#x13e;" horiz-adv-x="621" 
d="M645 1444h109l-82 -483h-90zM337 1444h108l-189 -1260q-8 -55 12.5 -83.5t63.5 -28.5q49 0 99 15l-6 -85q-60 -22 -132 -22q-84 0 -122 49.5t-24 146.5z" />
    <glyph glyph-name="Ldot" unicode="&#x13f;" horiz-adv-x="924" 
d="M432 1354l-188 -1257h594l-14 -97h-703l202 1354h109zM639 710q0 39 24 63t64 24q30 0 47 -16.5t17 -46.5q0 -39 -24 -63t-63 -24q-30 0 -47.5 17t-17.5 46z" />
    <glyph glyph-name="ldot" unicode="&#x140;" horiz-adv-x="556" 
d="M477 709q0 39 24.5 63.5t62.5 24.5q31 0 48 -16.5t17 -46.5q0 -39 -24.5 -63.5t-62.5 -24.5q-31 0 -48 17t-17 46zM337 1444h108l-189 -1260q-8 -55 12.5 -83.5t63.5 -28.5q49 0 99 15l-6 -85q-60 -22 -132 -22q-84 0 -122 49.5t-24 146.5z" />
    <glyph glyph-name="Lslash" unicode="&#x141;" horiz-adv-x="940" 
d="M449 1354l-84 -562l320 146l27 -83l-362 -165l-89 -593h594l-14 -97h-704l96 638l-169 -77l-27 83l211 96l92 614h109z" />
    <glyph glyph-name="lslash" unicode="&#x142;" horiz-adv-x="526" 
d="M356 1444h108l-93 -619l180 99l34 -79l-230 -126l-80 -535q-8 -55 12.5 -83.5t63.5 -28.5q48 0 100 15l-6 -85q-62 -22 -133 -22q-84 0 -122 49.5t-24 146.5l72 480l-179 -97l-34 79l229 124z" />
    <glyph glyph-name="Nacute" unicode="&#x143;" horiz-adv-x="1265" 
d="M442 1354l510 -1171l174 1171h109l-202 -1354h-119l-509 1169l-175 -1169h-109l202 1354h119zM733 1479l-45 63l335 269l58 -77z" />
    <glyph glyph-name="nacute" unicode="&#x144;" horiz-adv-x="1072" 
d="M270 996h89l-10 -127q99 68 202 107.5t190 39.5q123 0 179 -70t36 -201l-111 -745h-108l109 722q27 192 -145 192q-73 0 -168.5 -35.5t-187.5 -100.5l-116 -778h-108zM547 1121l-44 63l335 269l58 -77z" />
    <glyph glyph-name="Ncommaaccent" unicode="&#x145;" horiz-adv-x="1265" 
d="M442 1354l510 -1171l174 1171h109l-202 -1354h-119l-509 1169l-175 -1169h-109l202 1354h119zM545 -117h108l-7 -45l-11 -58q-17 -79 -62 -151.5t-95 -118.5h-90q51 57 92 135.5t53 155.5z" />
    <glyph glyph-name="ncommaaccent" unicode="&#x146;" horiz-adv-x="1072" 
d="M270 996h89l-10 -127q99 68 202 107.5t190 39.5q123 0 179 -70t36 -201l-111 -745h-108l109 722q27 192 -145 192q-73 0 -168.5 -35.5t-187.5 -100.5l-116 -778h-108zM424 -117h108l-11 -70q-13 -88 -61.5 -171t-102.5 -132h-90q51 57 92 135.5t52 155.5z" />
    <glyph glyph-name="Ncaron" unicode="&#x147;" horiz-adv-x="1265" 
d="M442 1354l510 -1171l174 1171h109l-202 -1354h-119l-509 1169l-175 -1169h-109l202 1354h119zM765 1489l-195 269l95 34l144 -203l204 203l85 -34l-275 -269h-58z" />
    <glyph glyph-name="ncaron" unicode="&#x148;" horiz-adv-x="1070" 
d="M270 996h89l-10 -127q99 68 202 107.5t190 39.5q123 0 179 -70t36 -201l-111 -745h-108l109 722q27 192 -145 192q-73 0 -168.5 -35.5t-187.5 -100.5l-116 -778h-108zM613 1131l-194 269l95 34l144 -203l204 203l85 -34l-275 -269h-59z" />
    <glyph glyph-name="napostrophe" unicode="&#x149;" horiz-adv-x="1072" 
d="M270 996h89l-10 -127q99 68 202 107.5t190 39.5q123 0 179 -70t36 -201l-111 -745h-108l109 722q27 192 -145 192q-73 0 -168.5 -35.5t-187.5 -100.5l-116 -778h-108zM319 1583h105l-14 -92q-12 -77 -45.5 -174t-95.5 -182h-86q41 71 74 162.5t46 182.5z" />
    <glyph glyph-name="Eng" unicode="&#x14a;" horiz-adv-x="1265" 
d="M442 1354l509 -1174l175 1174h109l-206 -1385q-20 -136 -92 -239t-247 -198l-38 77q124 74 186.5 154t80.5 203l4 24l-518 1180l-175 -1170h-109l202 1354h119z" />
    <glyph glyph-name="eng" unicode="&#x14b;" horiz-adv-x="1072" 
d="M270 996h89l-10 -127q99 68 202 107.5t190 39.5q123 0 179 -70t36 -201l-116 -776q-22 -154 -102 -253.5t-236 -183.5l-37 77q124 74 186.5 154t80.5 203l114 756q27 192 -145 192q-73 0 -168.5 -35.5t-187.5 -100.5l-116 -778h-108z" />
    <glyph glyph-name="Omacron" unicode="&#x14c;" horiz-adv-x="1187" 
d="M217 950q11 72 46 147t101.5 136t163 101t216.5 40q70 0 145 -19t137 -67.5t98.5 -132t18.5 -205.5l-82 -546q-11 -72 -46 -147t-101 -136t-162.5 -101t-216.5 -40q-95 0 -175.5 28.5t-135 82.5t-79 133t-9.5 180zM324 941l-79 -528q-23 -154 61 -245t244 -91t271 91
t134 245l79 528q23 154 -60.5 245t-244.5 91q-160 0 -271 -91t-134 -245zM524 1590l14 91h503l-14 -91h-503z" />
    <glyph glyph-name="omacron" unicode="&#x14d;" horiz-adv-x="1038" 
d="M124 362l40 272q10 65 40.5 132.5t87 122.5t138.5 91t183 36q80 0 148 -26t114 -75t65.5 -121t6.5 -160l-40 -272q-10 -65 -40.5 -132.5t-87 -122.5t-138.5 -91t-183 -36q-80 0 -148 26t-114 75t-65.5 121t-6.5 160zM271 626l-39 -256q-19 -135 47 -214t194 -79
q127 0 217 79t111 214l38 256q20 135 -46.5 214t-194.5 79t-217.5 -79t-109.5 -214zM394 1232l13 91h503l-13 -91h-503z" />
    <glyph glyph-name="Obreve" unicode="&#x14e;" horiz-adv-x="1187" 
d="M217 950q11 72 46 147t101.5 136t163 101t216.5 40q70 0 145 -19t137 -67.5t98.5 -132t18.5 -205.5l-82 -546q-11 -72 -46 -147t-101 -136t-162.5 -101t-216.5 -40q-95 0 -175.5 28.5t-135 82.5t-79 133t-9.5 180zM324 941l-79 -528q-23 -154 61 -245t244 -91t271 91
t134 245l79 528q23 154 -60.5 245t-244.5 91q-160 0 -271 -91t-134 -245zM565 1757h94q-6 -68 25 -110t94 -42q66 0 108.5 43.5t55.5 108.5h95q-17 -107 -92 -174.5t-180 -67.5t-160.5 67.5t-39.5 174.5z" />
    <glyph glyph-name="obreve" unicode="&#x14f;" horiz-adv-x="1038" 
d="M124 362l40 272q10 65 40.5 132.5t87 122.5t138.5 91t183 36q80 0 148 -26t114 -75t65.5 -121t6.5 -160l-40 -272q-10 -65 -40.5 -132.5t-87 -122.5t-138.5 -91t-183 -36q-80 0 -148 26t-114 75t-65.5 121t-6.5 160zM271 626l-39 -256q-19 -135 47 -214t194 -79
q127 0 217 79t111 214l38 256q20 135 -46.5 214t-194.5 79t-217.5 -79t-109.5 -214zM431 1399h95q-8 -68 23.5 -110t94.5 -42q65 0 108 43.5t56 108.5h95q-16 -107 -91.5 -174.5t-180.5 -67.5t-160.5 67.5t-39.5 174.5z" />
    <glyph glyph-name="Ohungarumlaut" unicode="&#x150;" horiz-adv-x="1187" 
d="M217 950q11 72 46 147t101.5 136t163 101t216.5 40q70 0 145 -19t137 -67.5t98.5 -132t18.5 -205.5l-82 -546q-11 -72 -46 -147t-101 -136t-162.5 -101t-216.5 -40q-95 0 -175.5 28.5t-135 82.5t-79 133t-9.5 180zM324 941l-79 -528q-23 -154 61 -245t244 -91t271 91
t134 245l79 528q23 154 -60.5 245t-244.5 91q-160 0 -271 -91t-134 -245zM611 1477l-67 35l213 328l89 -45zM884 1477l-66 37l220 325l87 -47z" />
    <glyph glyph-name="ohungarumlaut" unicode="&#x151;" horiz-adv-x="1032" 
d="M124 362l40 272q10 65 40.5 132.5t87 122.5t138.5 91t183 36q80 0 148 -26t114 -75t65.5 -121t6.5 -160l-40 -272q-10 -65 -40.5 -132.5t-87 -122.5t-138.5 -91t-183 -36q-80 0 -148 26t-114 75t-65.5 121t-6.5 160zM271 626l-39 -256q-19 -135 47 -214t194 -79
q127 0 217 79t111 214l38 256q20 135 -46.5 214t-194.5 79t-217.5 -79t-109.5 -214zM484 1119l-67 35l214 328l89 -45zM758 1119l-66 37l220 325l87 -47z" />
    <glyph glyph-name="OE" unicode="&#x152;" horiz-adv-x="1654" 
d="M806 0l10 74q-129 -94 -285 -94q-94 0 -174 28.5t-134 82.5t-78 133t-9 180l81 546q11 72 46 147t100.5 136t161 101t214.5 40q162 0 258 -93l11 73h711l-14 -96h-602l-78 -525h582l-14 -96h-583l-80 -541h623l-15 -96h-732zM546 77q83 0 157.5 29t130.5 82l146 977
q-40 53 -105.5 82.5t-149.5 29.5q-159 0 -268.5 -91t-132.5 -245l-79 -528q-23 -154 59.5 -245t241.5 -91z" />
    <glyph glyph-name="oe" unicode="&#x153;" horiz-adv-x="1543" 
d="M613 1016q83 0 152.5 -30.5t112.5 -85.5q57 55 131 85.5t153 30.5q55 0 113 -17.5t112 -68t73 -131.5t6 -169l-24 -162h-616l-14 -94q-20 -136 44.5 -215.5t200.5 -79.5q153 0 300 49v-94q-46 -18 -135 -36t-181 -18t-164 31t-115 88q-60 -57 -139.5 -88t-164.5 -31
q-80 0 -148 26t-114 75t-65.5 121t-6.5 160l40 272q10 65 40.5 132.5t87 122.5t138.5 91t183 36zM703 370l39 260q16 103 66 186q-29 49 -84 76t-126 27q-128 0 -217.5 -79t-109.5 -214l-39 -256q-19 -135 47 -214t194 -79q71 0 134.5 27.5t107.5 77.5q-27 83 -12 188z
M849 626l-11 -73h509l11 73q21 137 -36.5 215t-174.5 78q-116 0 -196.5 -78t-101.5 -215z" />
    <glyph glyph-name="Racute" unicode="&#x154;" horiz-adv-x="1087" 
d="M323 1354h414q124 0 207.5 -50t119.5 -129.5t20 -184.5l-13 -89q-21 -142 -119 -235.5t-237 -118.5l208 -547h-123l-199 535h-291l-80 -535h-109zM717 1261h-298l-95 -633h299q133 0 227 74.5t113 206.5l11 72q12 81 -12.5 142.5t-85 99.5t-159.5 38zM598 1479l-45 63
l335 269l59 -77z" />
    <glyph glyph-name="racute" unicode="&#x155;" horiz-adv-x="677" 
d="M270 996h88l-16 -174q77 73 185.5 130.5t192.5 63.5l-15 -107q-79 -7 -184 -60.5t-185 -127.5l-107 -721h-108zM388 1121l-44 63l334 269l59 -77z" />
    <glyph glyph-name="Rcommaaccent" unicode="&#x156;" horiz-adv-x="1087" 
d="M323 1354h414q124 0 207.5 -50t119.5 -129.5t20 -184.5l-13 -89q-21 -142 -119 -235.5t-237 -118.5l208 -547h-123l-199 535h-291l-80 -535h-109zM717 1261h-298l-95 -633h299q133 0 227 74.5t113 206.5l11 72q12 81 -12.5 142.5t-85 99.5t-159.5 38zM439 -117h108
l-11 -70q-13 -89 -61.5 -171.5t-102.5 -131.5h-90q51 57 92 135.5t53 155.5z" />
    <glyph glyph-name="rcommaaccent" unicode="&#x157;" horiz-adv-x="674" 
d="M270 996h88l-16 -174q77 73 185.5 130.5t192.5 63.5l-15 -107q-79 -7 -184 -60.5t-185 -127.5l-107 -721h-108zM104 -117h108l-11 -70q-13 -89 -61.5 -172t-103.5 -131h-89q51 58 92 136t53 155z" />
    <glyph glyph-name="Rcaron" unicode="&#x158;" horiz-adv-x="1087" 
d="M323 1354h414q112 0 191 -43t119.5 -112t40.5 -160l-9 -80l-8 -58q-21 -142 -119 -235.5t-237 -118.5l208 -547h-123l-199 535h-291l-80 -535h-109zM717 1261h-298l-95 -633h299q133 0 227 74.5t113 206.5l11 72q12 81 -12.5 142.5t-85 99.5t-159.5 38zM664 1489
l-195 269l96 34l143 -203l205 203l85 -34l-275 -269h-59z" />
    <glyph glyph-name="rcaron" unicode="&#x159;" horiz-adv-x="674" 
d="M270 996h88l-16 -174q77 73 185.5 130.5t192.5 63.5l-15 -107q-79 -7 -184 -60.5t-185 -127.5l-107 -721h-108zM451 1131l-194 269l94 34l144 -203l204 203l85 -34l-275 -269h-58z" />
    <glyph glyph-name="Sacute" unicode="&#x15a;" horiz-adv-x="970" 
d="M563 1479l-45 63l335 269l58 -77zM877 404q0 -205 -127.5 -314.5t-356.5 -109.5q-195 0 -350 67l36 97q160 -63 321 -63q109 0 195.5 28.5t129 101.5t42.5 178q0 83 -46 134.5t-153 85.5l-187 59q-83 26 -133.5 95.5t-50.5 190.5q0 93 33.5 171t94.5 133.5t144 85.5
t178 30q11 0 41.5 -1t97 -8t179.5 -50l-32 -97q-139 55 -295 55q-152 0 -242 -77.5t-90 -230.5q0 -80 35.5 -130.5t115.5 -75.5l187 -58q121 -39 177 -112t56 -185z" />
    <glyph glyph-name="sacute" unicode="&#x15b;" horiz-adv-x="794" 
d="M696 306q0 -161 -96.5 -243.5t-273.5 -82.5q-167 0 -288 51l35 91q42 -17 113 -32t145 -15q134 0 197.5 47t63.5 162q0 62 -39 99.5t-178 73.5q-124 32 -178 86t-54 150q0 146 101.5 234.5t259.5 88.5q129 0 256 -39l-31 -92q-118 36 -234 36t-182.5 -52t-66.5 -161
q0 -56 36 -94t162 -71q138 -35 195 -86.5t57 -150.5zM393 1121l-44 63l335 269l58 -77z" />
    <glyph glyph-name="Scircumflex" unicode="&#x15c;" horiz-adv-x="970" 
d="M735 1797l191 -269l-96 -34l-140 203l-200 -203l-85 34l271 269h59zM877 404q0 -205 -127.5 -314.5t-356.5 -109.5q-195 0 -350 67l36 97q160 -63 321 -63q109 0 195.5 28.5t129 101.5t42.5 178q0 83 -46 134.5t-153 85.5l-187 59q-83 26 -133.5 95.5t-50.5 190.5
q0 93 33.5 171t94.5 133.5t144 85.5t178 30q11 0 41.5 -1t97 -8t179.5 -50l-32 -97q-139 55 -295 55q-152 0 -242 -77.5t-90 -230.5q0 -80 35.5 -130.5t115.5 -75.5l187 -58q121 -39 177 -112t56 -185z" />
    <glyph glyph-name="scircumflex" unicode="&#x15d;" horiz-adv-x="794" 
d="M696 306q0 -161 -96.5 -243.5t-273.5 -82.5q-167 0 -288 51l35 91q42 -17 113 -32t145 -15q134 0 197.5 47t63.5 162q0 62 -39 99.5t-178 73.5q-124 32 -178 86t-54 150q0 146 101.5 234.5t259.5 88.5q129 0 256 -39l-31 -92q-118 36 -234 36t-182.5 -52t-66.5 -161
q0 -56 36 -94t162 -71q138 -35 195 -86.5t57 -150.5zM586 1439l191 -269l-95 -34l-140 203l-200 -203l-85 34l271 269h58z" />
    <glyph glyph-name="Scedilla" unicode="&#x15e;" horiz-adv-x="970" 
d="M877 404q0 -195 -116 -303.5t-325 -119.5l-47 -120q79 -2 123 -36.5t44 -97.5q0 -92 -72.5 -143.5t-184.5 -51.5q-72 0 -122 16l29 82q41 -13 99 -13q70 0 110 27.5t40 80.5q0 76 -118 76h-58l74 180q-174 6 -310 66l36 97q160 -63 321 -63q109 0 195.5 28.5t129 101.5
t42.5 178q0 83 -46 134.5t-153 85.5l-187 59q-83 26 -133.5 95.5t-50.5 190.5q0 93 33.5 171t94.5 133.5t144 85.5t178 30q11 0 41.5 -1t97 -8t179.5 -50l-32 -97q-139 55 -295 55q-152 0 -242 -77.5t-90 -230.5q0 -80 35.5 -130.5t115.5 -75.5l187 -58q121 -39 177 -112
t56 -185z" />
    <glyph glyph-name="scedilla" unicode="&#x15f;" horiz-adv-x="794" 
d="M696 306q0 -158 -92.5 -240t-263.5 -86l-46 -119q79 -2 123 -36.5t44 -97.5q0 -92 -72.5 -143.5t-184.5 -51.5q-72 0 -122 16l29 82q41 -13 100 -13q70 0 110 27.5t40 80.5q0 76 -119 76h-58l75 181q-128 10 -221 49l35 91q42 -17 113 -32t145 -15q134 0 197.5 47
t63.5 162q0 62 -39 99.5t-178 73.5q-124 32 -178 86t-54 150q0 146 101.5 234.5t259.5 88.5q129 0 256 -39l-31 -92q-118 36 -234 36t-182.5 -52t-66.5 -161q0 -56 36 -94t162 -71q138 -35 195 -86.5t57 -150.5z" />
    <glyph glyph-name="Scaron" unicode="&#x160;" horiz-adv-x="970" 
d="M616 1489l-194 269l95 34l144 -203l204 203l85 -34l-275 -269h-59zM877 404q0 -205 -127.5 -314.5t-356.5 -109.5q-195 0 -350 67l36 97q160 -63 321 -63q109 0 195.5 28.5t129 101.5t42.5 178q0 83 -46 134.5t-153 85.5l-187 59q-83 26 -133.5 95.5t-50.5 190.5
q0 93 33.5 171t94.5 133.5t144 85.5t178 30q11 0 41.5 -1t97 -8t179.5 -50l-32 -97q-139 55 -295 55q-152 0 -242 -77.5t-90 -230.5q0 -80 35.5 -130.5t115.5 -75.5l187 -58q121 -39 177 -112t56 -185z" />
    <glyph glyph-name="scaron" unicode="&#x161;" horiz-adv-x="794" 
d="M696 306q0 -161 -96.5 -243.5t-273.5 -82.5q-167 0 -288 51l35 91q42 -17 113 -32t145 -15q134 0 197.5 47t63.5 162q0 62 -39 99.5t-178 73.5q-124 32 -178 86t-54 150q0 146 101.5 234.5t259.5 88.5q129 0 256 -39l-31 -92q-118 36 -234 36t-182.5 -52t-66.5 -161
q0 -56 36 -94t162 -71q138 -35 195 -86.5t57 -150.5zM479 1131l-194 269l94 34l144 -203l204 203l85 -34l-275 -269h-58z" />
    <glyph glyph-name="Tcommaaccent" unicode="&#x162;" horiz-adv-x="972" 
d="M377 0l187 1258h-405l15 96h919l-14 -96h-405l-188 -1258h-18l-55 -139q79 -2 123 -36.5t44 -97.5q0 -92 -72.5 -143.5t-183.5 -51.5q-72 0 -122 16l29 82q41 -13 99 -13q70 0 110 27.5t40 80.5q0 76 -118 76h-59l83 199h-9z" />
    <glyph glyph-name="tcommaaccent" unicode="&#x163;" horiz-adv-x="644" 
d="M107 907l14 89h171l53 278h94l-42 -278h271l-14 -89h-269l-98 -658q-26 -172 132 -172q61 0 135 16l-2 -92q-76 -21 -161 -21l-38 2l-47 -121q79 -2 123 -36.5t44 -97.5q0 -92 -72.5 -143.5t-184.5 -51.5q-72 0 -122 16l29 82q41 -13 99 -13q71 0 110.5 27.5t39.5 80.5
q0 76 -118 76h-58l83 199q-128 54 -101 236l100 671h-171z" />
    <glyph glyph-name="Tcaron" unicode="&#x164;" horiz-adv-x="972" 
d="M377 0l187 1258h-405l15 96h919l-14 -96h-405l-188 -1258h-109zM624 1489l-195 269l95 34l144 -203l205 203l85 -34l-276 -269h-58z" />
    <glyph glyph-name="tcaron" unicode="&#x165;" horiz-adv-x="644" 
d="M107 907l14 89h171l53 278h94l-42 -278h271l-14 -89h-269l-98 -658q-26 -172 132 -172q61 0 135 16l-2 -92q-76 -21 -161 -21q-116 0 -174 63.5t-39 192.5l100 671h-171zM636 1655h109l-82 -483h-90z" />
    <glyph glyph-name="Tbar" unicode="&#x166;" horiz-adv-x="972" 
d="M281 741l13 92h207l63 425h-405l15 96h919l-14 -96h-405l-64 -425h206l-14 -92h-205l-111 -741h-109l110 741h-206z" />
    <glyph glyph-name="tbar" unicode="&#x167;" horiz-adv-x="649" 
d="M403 996h270l-13 -89h-270l-42 -285h254l-14 -92h-253l-43 -281q-26 -172 132 -172q63 0 135 16l-1 -92q-76 -21 -162 -21q-116 0 -174 63.5t-39 192.5l44 294h-161l14 92h161l42 285h-170l13 89h172l52 278h94z" />
    <glyph glyph-name="Utilde" unicode="&#x168;" horiz-adv-x="1183" 
d="M1075 1354h110l-144 -961q-14 -92 -58.5 -169.5t-113 -131.5t-155 -83t-180.5 -29t-172 29t-130 83t-73.5 131.5t-7.5 169.5l143 961h110l-144 -958q-21 -144 59 -231.5t229 -87.5q91 0 177.5 38t140 115t66.5 166zM688 1726q6 0 22 -2t33.5 -10.5t67.5 -41.5t80 -33
q27 0 57 18t75 68l55 -44q-99 -138 -204 -138q-6 0 -22 2t-33.5 10.5t-67.5 42t-80 33.5q-59 0 -132 -86l-55 44q99 137 204 137z" />
    <glyph glyph-name="utilde" unicode="&#x169;" horiz-adv-x="1049" 
d="M826 0h-90l10 127q-98 -68 -199 -107.5t-185 -39.5q-121 0 -176.5 70t-36.5 201l111 745h108l-108 -722q-29 -192 142 -192q71 0 164.5 35t184.5 100l116 779h108zM565 1368q6 0 22 -2t34 -10.5t68 -41.5t80 -33q56 0 131 86l55 -44q-40 -57 -92 -97.5t-111 -40.5
q-45 0 -100.5 38.5t-73 44t-29.5 5.5q-27 0 -57.5 -18t-75.5 -68l-54 44q99 137 203 137z" />
    <glyph glyph-name="Umacron" unicode="&#x16a;" horiz-adv-x="1183" 
d="M1075 1354h110l-144 -961q-14 -92 -58.5 -169.5t-113 -131.5t-155 -83t-180.5 -29t-172 29t-130 83t-73.5 131.5t-7.5 169.5l143 961h110l-144 -958q-21 -144 59 -231.5t229 -87.5q91 0 177.5 38t140 115t66.5 166zM523 1590l13 91h503l-13 -91h-503z" />
    <glyph glyph-name="umacron" unicode="&#x16b;" horiz-adv-x="1049" 
d="M826 0h-90l10 127q-98 -68 -199 -107.5t-185 -39.5q-121 0 -176.5 70t-36.5 201l111 745h108l-108 -722q-29 -192 142 -192q71 0 164.5 35t184.5 100l116 779h108zM403 1232l14 91h502l-13 -91h-503z" />
    <glyph glyph-name="Ubreve" unicode="&#x16c;" horiz-adv-x="1183" 
d="M1075 1354h110l-144 -961q-14 -92 -58.5 -169.5t-113 -131.5t-155 -83t-180.5 -29t-172 29t-130 83t-73.5 131.5t-7.5 169.5l143 961h110l-144 -958q-21 -144 59 -231.5t229 -87.5q91 0 177.5 38t140 115t66.5 166zM564 1757h94q-7 -68 24 -110t94 -42q66 0 109 43.5
t56 108.5h95q-17 -107 -92.5 -174.5t-180.5 -67.5t-160 68t-39 174z" />
    <glyph glyph-name="ubreve" unicode="&#x16d;" horiz-adv-x="1049" 
d="M826 0h-90l10 127q-98 -68 -199 -107.5t-185 -39.5q-121 0 -176.5 70t-36.5 201l111 745h108l-108 -722q-29 -192 142 -192q71 0 164.5 35t184.5 100l116 779h108zM445 1399h94q-7 -68 24.5 -110t94.5 -42q65 0 108 43.5t56 108.5h95q-17 -107 -92.5 -174.5t-180.5 -67.5
t-160 67.5t-39 174.5z" />
    <glyph glyph-name="Uring" unicode="&#x16e;" horiz-adv-x="1183" 
d="M1075 1354h110l-144 -961q-14 -92 -58.5 -169.5t-113 -131.5t-155 -83t-180.5 -29t-172 29t-130 83t-73.5 131.5t-7.5 169.5l143 961h110l-144 -958q-21 -144 59 -231.5t229 -87.5q91 0 177.5 38t140 115t66.5 166zM580 1641q0 93 70.5 160t167.5 67q75 0 124 -49.5
t49 -122.5q0 -94 -70.5 -160.5t-167.5 -66.5q-74 0 -123.5 49.5t-49.5 122.5zM668 1653q0 -43 27.5 -73t68.5 -30q59 0 99.5 40t40.5 96q0 43 -28 72.5t-70 29.5q-57 0 -97.5 -40.5t-40.5 -94.5z" />
    <glyph glyph-name="uring" unicode="&#x16f;" horiz-adv-x="1049" 
d="M826 0h-90l10 127q-98 -68 -199 -107.5t-185 -39.5q-121 0 -176.5 70t-36.5 201l111 745h108l-108 -722q-29 -192 142 -192q71 0 164.5 35t184.5 100l116 779h108zM467 1283q0 93 70.5 160t167.5 67q75 0 124 -49.5t49 -122.5q0 -94 -70.5 -160.5t-168.5 -66.5
q-74 0 -123 49.5t-49 122.5zM554 1295q0 -43 28 -73t70 -30q57 0 97.5 40t40.5 96q0 43 -28 72.5t-70 29.5q-56 0 -97 -40.5t-41 -94.5z" />
    <glyph glyph-name="Uhungarumlaut" unicode="&#x170;" horiz-adv-x="1183" 
d="M1075 1354h110l-144 -961q-14 -92 -58.5 -169.5t-113 -131.5t-155 -83t-180.5 -29t-172 29t-130 83t-73.5 131.5t-7.5 169.5l143 961h110l-144 -958q-21 -144 59 -231.5t229 -87.5q91 0 177.5 38t140 115t66.5 166zM599 1477l-66 35l213 328l88 -45zM873 1477l-66 37
l220 325l86 -47z" />
    <glyph glyph-name="uhungarumlaut" unicode="&#x171;" horiz-adv-x="1049" 
d="M826 0h-90l10 127q-98 -68 -199 -107.5t-185 -39.5q-121 0 -176.5 70t-36.5 201l111 745h108l-108 -722q-29 -192 142 -192q71 0 164.5 35t184.5 100l116 779h108zM763 1119l-66 37l220 325l87 -47zM489 1119l-67 35l214 328l88 -45z" />
    <glyph glyph-name="Uogonek" unicode="&#x172;" horiz-adv-x="1183" 
d="M1075 1354h110l-144 -961q-23 -150 -120 -253.5t-239 -140.5q-245 -140 -245 -282q0 -44 28 -68.5t72 -24.5q57 0 110 20l5 -85q-72 -28 -143 -28q-74 0 -124.5 40.5t-50.5 116.5q0 147 212 293q-43 0 -77 7q-166 16 -255 125.5t-63 279.5l143 961h110l-144 -958
q-21 -144 59 -231.5t229 -87.5q91 0 177.5 38t140 115t66.5 166z" />
    <glyph glyph-name="uogonek" unicode="&#x173;" horiz-adv-x="1069" 
d="M826 0l-43 -26q-206 -125 -206 -257q0 -44 27.5 -68.5t71.5 -24.5q57 0 110 20l5 -85q-70 -28 -143 -28q-74 0 -124.5 40.5t-50.5 115.5q0 82 67 166t198 162l8 112q-98 -68 -199 -107.5t-185 -39.5q-121 0 -176.5 70t-36.5 201l111 745h108l-108 -722q-29 -192 142 -192
q71 0 164.5 35t184.5 100l116 779h108z" />
    <glyph glyph-name="Wcircumflex" unicode="&#x174;" horiz-adv-x="1821" 
d="M1792 1354h113l-591 -1354h-139l-144 1174l-494 -1174h-140l-187 1354h114l163 -1227l512 1207h112l150 -1207zM1153 1797l191 -269l-95 -34l-140 203l-200 -203l-85 34l271 269h58z" />
    <glyph glyph-name="wcircumflex" unicode="&#x175;" horiz-adv-x="1484" 
d="M929 1439l191 -269l-95 -34l-140 203l-201 -203l-84 34l271 269h58zM1375 996h113q-157 -490 -465 -996h-124l-123 780q-137 -378 -379 -780h-120l-159 996h115l129 -884q253 445 388 864h107l127 -865q251 444 391 885z" />
    <glyph glyph-name="Ycircumflex" unicode="&#x176;" horiz-adv-x="1070" 
d="M1059 1354h115l-564 -849l-75 -505h-110l76 505l-310 849h114l266 -742zM778 1797l190 -269l-95 -34l-139 203l-201 -203l-84 34l270 269h59z" />
    <glyph glyph-name="ycircumflex" unicode="&#x177;" horiz-adv-x="953" 
d="M645 1439l191 -269l-96 -34l-139 203l-200 -203l-85 34l270 269h59zM223 996l219 -1041q130 200 243.5 472t190.5 569h112q-112 -415 -272 -753t-352.5 -524.5t-395.5 -186.5q-101 0 -176 34l35 93q69 -30 154 -30q94 0 195.5 61t201.5 187l-25 2l-242 1117h112z" />
    <glyph glyph-name="Ydieresis" unicode="&#x178;" horiz-adv-x="1070" 
d="M1059 1354h115l-564 -849l-75 -505h-110l76 505l-310 849h114l266 -742zM483 1624q0 39 24 63.5t63 24.5q30 0 47.5 -17t17.5 -46q0 -40 -24 -64t-63 -24q-31 0 -48 16.5t-17 46.5zM814 1624q0 39 24 63.5t63 24.5q30 0 47.5 -17t17.5 -46q0 -40 -24 -64t-63 -24
q-31 0 -48 16.5t-17 46.5z" />
    <glyph glyph-name="Zacute" unicode="&#x179;" horiz-adv-x="992" 
d="M236 1258l15 96h783l-14 -89l-866 -1169h724l-14 -96h-848l13 89l866 1169h-659zM551 1479l-44 63l334 269l59 -77z" />
    <glyph glyph-name="zacute" unicode="&#x17a;" horiz-adv-x="785" 
d="M437 1121l-44 63l335 269l58 -77zM168 907l13 89h630l-13 -86l-648 -821h28q313 0 525 -49l-32 -90q-93 21 -236.5 35.5t-288.5 14.5h-128l12 84l648 823h-510z" />
    <glyph glyph-name="Zdotaccent" unicode="&#x17b;" horiz-adv-x="992" 
d="M236 1258l15 96h783l-14 -89l-866 -1169h724l-14 -96h-848l13 89l866 1169h-659zM609 1624q0 39 24.5 63.5t62.5 24.5q31 0 48 -17t17 -46q0 -40 -24 -64t-63 -24q-31 0 -48 16.5t-17 46.5z" />
    <glyph glyph-name="zdotaccent" unicode="&#x17c;" horiz-adv-x="785" 
d="M452 1266q0 39 24.5 63.5t62.5 24.5q31 0 48 -17t17 -46q0 -40 -24 -64t-63 -24q-30 0 -47.5 17t-17.5 46zM168 907l13 89h630l-13 -86l-648 -821h28q313 0 525 -49l-32 -90q-93 21 -236.5 35.5t-288.5 14.5h-128l12 84l648 823h-510z" />
    <glyph glyph-name="Zcaron" unicode="&#x17d;" horiz-adv-x="992" 
d="M236 1258l15 96h783l-14 -89l-866 -1169h724l-14 -96h-848l13 89l866 1169h-659zM640 1489l-195 269l95 34l144 -203l204 203l85 -34l-275 -269h-58z" />
    <glyph glyph-name="zcaron" unicode="&#x17e;" horiz-adv-x="785" 
d="M478 1131l-195 269l95 34l143 -203l205 203l85 -34l-275 -269h-58zM168 907l13 89h630l-13 -86l-648 -821h28q313 0 525 -49l-32 -90q-93 21 -236.5 35.5t-288.5 14.5h-128l12 84l648 823h-510z" />
    <glyph glyph-name="uni018F" unicode="&#x18f;" horiz-adv-x="1073" 
d="M457 -20q-160 0 -260.5 99t-100.5 270q0 30 10 93t27.5 155t19.5 102h732l34 231q24 157 -64 250t-256 93q-172 0 -337 -58l-17 90q68 28 166.5 48.5t204.5 20.5q103 0 187 -29.5t138.5 -85t78 -136.5t8.5 -185l-78 -522q-11 -74 -44 -151t-95 -140t-152 -104t-202 -41z
M472 77q141 0 244 94.5t127 252.5l27 183h-628q-36 -200 -36 -245q0 -131 72 -208t194 -77z" />
    <glyph glyph-name="florin" unicode="&#x192;" horiz-adv-x="1017" 
d="M223 634l13 88h241l111 347q46 145 143.5 225t230.5 80q85 0 153 -22l-38 -93q-72 18 -134 18q-182 0 -252 -218l-107 -337h276l-13 -88h-292l-256 -802q-47 -146 -141.5 -223t-227.5 -77q-81 0 -149 22l38 93q75 -18 131 -18q178 0 245 214l253 791h-225z" />
    <glyph glyph-name="uni019D" unicode="&#x19d;" horiz-adv-x="1265" 
d="M442 1354l510 -1171l174 1171h109l-202 -1354h-119l-509 1169l-179 -1200q-23 -154 -103 -253.5t-237 -183.5l-37 77q124 74 186.5 154t80.5 203l207 1388h119z" />
    <glyph glyph-name="Gcaron" unicode="&#x1e6;" horiz-adv-x="1067" 
d="M998 631l-86 -577q-74 -34 -174.5 -54t-200.5 -20q-95 0 -166 26t-125 70t-90.5 130t-17.5 210l76 514q11 76 47.5 154t105.5 142t170.5 106t229.5 42q181 0 327 -72l-43 -89q-60 25 -138 42.5t-154 17.5q-85 0 -160.5 -24t-133 -70t-95 -112t-49.5 -146l-74 -497
q-24 -160 62.5 -251.5t252.5 -91.5q131 0 255 39l76 511h105zM735 1489l-195 269l96 34l143 -203l205 203l84 -34l-275 -269h-58z" />
    <glyph glyph-name="gcaron" unicode="&#x1e7;" horiz-adv-x="1051" 
d="M600 1131l-194 269l94 34l144 -203l205 203l85 -34l-276 -269h-58zM704 -71l28 186q-74 -60 -161 -97.5t-170 -37.5q-144 0 -220 106t-50 283l38 257q27 178 152 284t303 106q102 0 190 -22t146 -57l-149 -997q-30 -203 -155 -305.5t-329 -102.5q-156 0 -275 50l34 95
q112 -46 251 -46q323 0 367 298zM439 79q74 0 160 40.5t146 97.5l99 656q-108 46 -235 46q-139 0 -226 -81.5t-108 -218.5l-36 -242q-21 -139 29 -218.5t171 -79.5z" />
    <glyph glyph-name="uni01EA" unicode="&#x1ea;" horiz-adv-x="1187" 
d="M136 404l81 546q11 72 46 147t101.5 136t163 101t216.5 40q70 0 145 -19t137 -67.5t98.5 -132t18.5 -205.5l-82 -546q-23 -155 -124 -260.5t-247 -143.5q-245 -138 -245 -283q0 -44 27.5 -68.5t71.5 -24.5q56 0 111 20l4 -85q-70 -28 -142 -28q-75 0 -125.5 40.5
t-50.5 115.5q0 148 211 294l-17 -1q-70 0 -145 19t-137 67.5t-98.5 132t-18.5 205.5zM324 941l-79 -528q-23 -154 61 -245t244 -91t271 91t134 245l79 528q23 154 -60.5 245t-244.5 91q-160 0 -271 -91t-134 -245z" />
    <glyph glyph-name="uni01EB" unicode="&#x1eb;" horiz-adv-x="1038" 
d="M124 362l40 272q10 65 40.5 132.5t87 122.5t138.5 91t183 36q80 0 148 -26t114 -75t65.5 -121t6.5 -160l-40 -272q-21 -137 -105 -231.5t-205 -130.5q-247 -139 -247 -283q0 -45 27.5 -69t72.5 -24q55 0 110 20l5 -85q-72 -28 -143 -28q-74 0 -124.5 40.5t-50.5 115.5
q0 148 211 294l-51 5q-108 10 -175.5 63.5t-95 132.5t-12.5 180zM271 626l-39 -256q-19 -135 47 -214t194 -79q127 0 217 79t111 214l38 256q20 135 -46.5 214t-194.5 79t-217.5 -79t-109.5 -214z" />
    <glyph glyph-name="Aringacute" unicode="&#x1fa;" horiz-adv-x="1174" 
d="M1057 0h-115l-67 369h-576l-177 -369h-115l655 1354h145zM718 1247l-375 -784h516zM585 1623q0 84 66 146t159 62q69 0 115 -45.5t46 -111.5q0 -85 -66 -147t-160 -62q-69 0 -114.5 46t-45.5 112zM670 1633q0 -38 25 -64t63 -26q56 0 92.5 36t36.5 86q0 37 -25 63t-64 26
q-55 0 -91.5 -36t-36.5 -85zM752 1886l-49 51l239 216l67 -65z" />
    <glyph glyph-name="aringacute" unicode="&#x1fb;" horiz-adv-x="1051" 
d="M131 369l38 257q27 178 152 284t303 106q102 0 190 -22t146 -57l-140 -937h-90l12 128q-76 -66 -165.5 -107t-175.5 -41q-144 0 -220 106t-50 283zM439 79q74 0 160 42t147 102l98 650q-108 46 -235 46q-139 0 -226 -81.5t-108 -218.5l-36 -242q-21 -139 29 -218.5
t171 -79.5zM472 1252q0 85 66 147t159 62q69 0 115 -45.5t46 -111.5q0 -86 -66 -147.5t-160 -61.5q-69 0 -114.5 45.5t-45.5 111.5zM557 1263q0 -38 24.5 -64t63.5 -26q56 0 92.5 35.5t36.5 86.5q0 37 -25.5 62.5t-64.5 25.5q-54 0 -90.5 -35.5t-36.5 -84.5zM639 1516
l-49 52l239 214l66 -64z" />
    <glyph glyph-name="AEacute" unicode="&#x1fc;" horiz-adv-x="1515" 
d="M881 0l-22 378h-549l-226 -378h-113l815 1354h786l-14 -96h-639l29 -525h517l-14 -96h-498l30 -541h433l-14 -96h-521zM813 1218l-445 -746h486zM1072 1479l-44 63l334 269l59 -77z" />
    <glyph glyph-name="aeacute" unicode="&#x1fd;" horiz-adv-x="1478" 
d="M775 1121l-45 63l335 269l58 -77zM748 374q-19 -136 45.5 -215.5t202.5 -79.5q152 0 296 49v-94q-47 -18 -135.5 -36t-181.5 -18q-110 0 -190 44t-118 124q-87 -75 -181.5 -121.5t-185.5 -46.5q-111 0 -175.5 62t-64.5 169q0 55 18 113t62 105.5t115.5 78.5t168.5 31h241
l22 150q17 113 -27.5 170.5t-158.5 57.5q-131 0 -271 -46v93q150 52 295 52q214 0 255 -155q58 73 142.5 114t175.5 41q54 0 112 -17.5t105.5 -62t74.5 -120.5t11 -186l-26 -173h-615zM786 635l-14 -94h508l13 85q21 137 -36.5 215t-173.5 78t-196.5 -75t-100.5 -209z
M639 370l14 87h-237q-117 0 -183 -60.5t-66 -168.5q0 -72 43 -114.5t116 -42.5q135 0 316 143q-16 73 -3 156z" />
    <glyph glyph-name="Oslashacute" unicode="&#x1fe;" horiz-adv-x="1187" 
d="M676 1479l-45 63l335 269l58 -77zM136 403l81 547q11 72 46 147t101.5 136t163 101t216.5 40q122 0 218 -48l152 266h99l-178 -311q66 -58 94.5 -148t13.5 -183l-82 -546q-11 -72 -46 -147t-101 -136t-162.5 -101t-216.5 -40q-122 0 -219 47l-152 -266h-99l178 312
q-68 59 -94.5 146t-12.5 184zM955 413l79 528q22 149 -58 239l-607 -1061q76 -42 181 -42q160 0 271 91t134 245zM324 941l-79 -528q-22 -149 57 -239l607 1061q-76 42 -180 42q-160 0 -271 -91t-134 -245z" />
    <glyph glyph-name="oslashacute" unicode="&#x1ff;" horiz-adv-x="1032" 
d="M124 362l40 272q10 65 40.5 132.5t87 122.5t138.5 91t183 36q88 0 158 -32l136 237h94l-160 -275q64 -48 92.5 -128t13.5 -184l-40 -272q-10 -65 -40.5 -132.5t-87 -122.5t-138.5 -91t-183 -36q-87 0 -158 31l-136 -237h-94l159 276q-63 49 -91.5 129t-13.5 183zM839 626
q10 70 -4.5 128t-50.5 95l-431 -747q51 -25 120 -25q127 0 217 79t111 214zM271 626l-39 -256q-19 -145 54 -223l431 747q-49 25 -119 25q-128 0 -217.5 -79t-109.5 -214zM544 1121l-45 63l335 269l58 -77z" />
    <glyph glyph-name="Scommaaccent" unicode="&#x218;" horiz-adv-x="970" 
d="M375 -117h108l-11 -70q-14 -89 -62 -172t-103 -131h-90q51 57 92 135.5t53 155.5zM877 404q0 -205 -127.5 -314.5t-356.5 -109.5q-195 0 -350 67l36 97q160 -63 321 -63q109 0 195.5 28.5t129 101.5t42.5 178q0 83 -46 134.5t-153 85.5l-187 59q-83 26 -133.5 95.5
t-50.5 190.5q0 93 33.5 171t94.5 133.5t144 85.5t178 30q11 0 41.5 -1t97 -8t179.5 -50l-32 -97q-139 55 -295 55q-152 0 -242 -77.5t-90 -230.5q0 -80 35.5 -130.5t115.5 -75.5l187 -58q121 -39 177 -112t56 -185z" />
    <glyph glyph-name="scommaaccent" unicode="&#x219;" horiz-adv-x="794" 
d="M696 306q0 -161 -96.5 -243.5t-273.5 -82.5q-167 0 -288 51l35 91q42 -17 113 -32t145 -15q134 0 197.5 47t63.5 162q0 62 -39 99.5t-178 73.5q-124 32 -178 86t-54 150q0 146 101.5 234.5t259.5 88.5q129 0 256 -39l-31 -92q-118 36 -234 36t-182.5 -52t-66.5 -161
q0 -56 36 -94t162 -71q138 -35 195 -86.5t57 -150.5zM281 -117h108l-10 -70q-14 -89 -62.5 -171.5t-102.5 -131.5h-91q52 57 93 135t53 156z" />
    <glyph glyph-name="uni021A" unicode="&#x21a;" horiz-adv-x="972" 
d="M377 0l187 1258h-405l15 96h919l-14 -96h-405l-188 -1258h-109zM360 -117h108l-11 -70q-13 -89 -61.5 -171.5t-102.5 -131.5h-90q51 57 92 135.5t52 155.5z" />
    <glyph glyph-name="uni021B" unicode="&#x21b;" horiz-adv-x="644" 
d="M107 907l14 89h171l53 278h94l-42 -278h271l-14 -89h-269l-98 -658q-26 -172 132 -172q61 0 135 16l-2 -92q-76 -21 -161 -21q-116 0 -174 63.5t-39 192.5l100 671h-171zM285 -117h108l-10 -70q-14 -89 -62.5 -171.5t-102.5 -131.5h-90q51 57 92 135.5t53 155.5z" />
    <glyph glyph-name="uni0237" unicode="&#x237;" horiz-adv-x="443" 
d="M262 996h107l-186 -1249q-33 -215 -242 -215q-61 0 -112 20l27 86q44 -14 97 -14q48 0 81 33t42 98z" />
    <glyph glyph-name="uni0259" unicode="&#x259;" horiz-adv-x="956" 
d="M868 626l-39 -260q-10 -65 -38.5 -133t-82 -124t-130.5 -92.5t-171 -36.5q-55 0 -113.5 17.5t-112.5 68t-73.5 131.5t-6.5 169l24 162h621l14 94q20 136 -45 215.5t-202 79.5q-152 0 -303 -49v94q49 19 139 36.5t181 17.5q63 0 128.5 -18t117 -63.5t80 -122t12.5 -186.5z
M422 77q117 0 198.5 77.5t102.5 215.5l10 73h-513l-11 -73q-21 -137 37 -215t176 -78z" />
    <glyph glyph-name="uni0272" unicode="&#x272;" horiz-adv-x="1072" 
d="M270 996h89l-10 -127q99 68 202 107.5t190 39.5q123 0 179 -70t36 -201l-111 -745h-108l109 722q27 192 -145 192q-73 0 -168.5 -35.5t-187.5 -100.5l-121 -809q-23 -154 -103 -253.5t-236 -183.5l-37 77q124 74 187 154.5t81 202.5z" />
    <glyph glyph-name="circumflex" unicode="&#x2c6;" horiz-adv-x="770" 
d="M574 1439l191 -269l-95 -34l-140 203l-201 -203l-84 34l271 269h58z" />
    <glyph glyph-name="caron" unicode="&#x2c7;" horiz-adv-x="778" 
d="M474 1131l-194 269l94 34l144 -203l204 203l85 -34l-275 -269h-58z" />
    <glyph glyph-name="breve" unicode="&#x2d8;" horiz-adv-x="722" 
d="M279 1399h94q-6 -68 25 -110t94 -42q66 0 108.5 43.5t55.5 108.5h95q-17 -107 -92 -174.5t-180 -67.5t-160.5 67.5t-39.5 174.5z" />
    <glyph glyph-name="dotaccent" unicode="&#x2d9;" horiz-adv-x="399" 
d="M260 1266q0 39 24 63.5t63 24.5q30 0 47.5 -17t17.5 -46q0 -40 -24 -64t-63 -24q-31 0 -48 16.5t-17 46.5z" />
    <glyph glyph-name="ring" unicode="&#x2da;" horiz-adv-x="656" 
d="M263 1283q0 93 70.5 160t167.5 67q74 0 123.5 -49.5t49.5 -122.5q0 -94 -70.5 -160.5t-167.5 -66.5q-75 0 -124 49.5t-49 122.5zM351 1295q0 -43 27.5 -73t69.5 -30q58 0 98.5 40t40.5 96q0 43 -28 72.5t-70 29.5q-57 0 -97.5 -40.5t-40.5 -94.5z" />
    <glyph glyph-name="ogonek" unicode="&#x2db;" horiz-adv-x="595" 
d="M343 44l31 -44q-247 -138 -247 -283q0 -44 27.5 -68.5t71.5 -24.5q57 0 110 20l5 -85q-70 -28 -142 -28q-75 0 -125.5 40.5t-50.5 115.5q0 92 85 185.5t235 171.5z" />
    <glyph glyph-name="tilde" unicode="&#x2dc;" horiz-adv-x="825" 
d="M457 1368q30 0 52.5 -10.5t72 -43.5t79.5 -33q27 0 57 18t75 68l55 -44q-99 -138 -203 -138q-46 0 -101.5 38.5t-73 44t-29.5 5.5q-57 0 -132 -86l-55 44q99 137 203 137z" />
    <glyph glyph-name="hungarumlaut" unicode="&#x2dd;" horiz-adv-x="790" 
d="M309 1119l-67 35l214 328l88 -45zM583 1119l-66 37l220 325l87 -47z" />
    <glyph glyph-name="acutecomb" unicode="&#x301;" horiz-adv-x="532" 
d="M297 1120l-47 51l238 216l66 -66z" />
    <glyph glyph-name="dotbelowcomb" unicode="&#x323;" horiz-adv-x="400" 
d="M27 -296q0 39 24 63.5t63 24.5q30 0 47.5 -17t17.5 -46q0 -39 -24.5 -63.5t-62.5 -24.5q-31 0 -48 17t-17 46z" />
    <glyph glyph-name="uni0E3F" unicode="&#xe3f;" horiz-adv-x="1074" 
d="M625 1514h106l-44 -269l29 -1q120 -4 191 -69.5t71 -170.5q0 -110 -53.5 -187t-156.5 -117q78 -27 126.5 -91t48.5 -148q0 -59 -21.5 -121t-80 -120t-147 -85.5t-177.5 -26.5l-36 -268h-106l43 268h-271l170 1137h271zM830 456q0 90 -59.5 141.5t-160.5 51.5h-277
l-67 -450h283q122 0 201.5 71.5t79.5 185.5zM347 745h282q113 0 173.5 65.5t60.5 176.5q0 79 -45 123t-132 44h-278z" />
    <glyph glyph-name="Wgrave" unicode="&#x1e80;" horiz-adv-x="1821" 
d="M1792 1354h113l-591 -1354h-139l-144 1174l-494 -1174h-140l-187 1354h114l163 -1227l512 1207h112l150 -1207zM1195 1542l-63 -63l-272 255l81 77z" />
    <glyph glyph-name="wgrave" unicode="&#x1e81;" horiz-adv-x="1484" 
d="M955 1184l-63 -63l-273 255l82 77zM1375 996h113q-157 -490 -465 -996h-124l-123 780q-137 -378 -379 -780h-120l-159 996h115l129 -884q253 445 388 864h107l127 -865q251 444 391 885z" />
    <glyph glyph-name="Wacute" unicode="&#x1e82;" horiz-adv-x="1821" 
d="M1792 1354h113l-591 -1354h-139l-144 1174l-494 -1174h-140l-187 1354h114l163 -1227l512 1207h112l150 -1207zM973 1479l-44 63l334 269l59 -77z" />
    <glyph glyph-name="wacute" unicode="&#x1e83;" horiz-adv-x="1484" 
d="M767 1121l-45 63l335 269l58 -77zM1403 996h113q-156 -486 -466 -996h-123l-124 780q-137 -378 -379 -780h-119l-160 996h115l130 -884q250 439 388 864h107l126 -865q250 443 392 885z" />
    <glyph glyph-name="Wdieresis" unicode="&#x1e84;" horiz-adv-x="1821" 
d="M1792 1354h113l-591 -1354h-139l-144 1174l-494 -1174h-140l-187 1354h114l163 -1227l512 1207h112l150 -1207zM1195 1624q0 39 24.5 63.5t62.5 24.5q31 0 48 -17t17 -46q0 -40 -24 -64t-63 -24q-31 0 -48 16.5t-17 46.5zM853 1624q0 39 24 63.5t63 24.5q30 0 47.5 -17
t17.5 -46q0 -40 -24 -64t-63 -24q-31 0 -48 16.5t-17 46.5z" />
    <glyph glyph-name="wdieresis" unicode="&#x1e85;" horiz-adv-x="1484" 
d="M960 1266q0 39 24 63.5t63 24.5q30 0 47.5 -17t17.5 -46q0 -40 -24.5 -64t-63.5 -24q-30 0 -47 16.5t-17 46.5zM640 1266q0 39 24.5 63.5t62.5 24.5q31 0 48 -17t17 -46q0 -40 -24 -64t-63 -24q-31 0 -48 16.5t-17 46.5zM1402 996h113q-157 -490 -465 -996h-124l-124 780
q-135 -375 -378 -780h-120l-159 996h115l129 -884q253 445 388 864h108l126 -865q248 439 391 885z" />
    <glyph glyph-name="uni1E9E" unicode="&#x1e9e;" horiz-adv-x="1210" 
d="M370 975l-145 -975h-108l147 986q27 177 164 282.5t341 105.5q119 0 233 -43t194 -114l-386 -475l57 -23q136 -49 202.5 -127t66.5 -194q0 -143 -57.5 -235t-154 -137.5t-231.5 -45.5q-147 0 -270 44l36 95q125 -40 242 -40q154 0 239 76t85 230q0 89 -55.5 149
t-175.5 104l-145 53l402 496q-137 90 -292 90q-160 0 -264 -81t-125 -221z" />
    <glyph glyph-name="uni1EA0" unicode="&#x1ea0;" horiz-adv-x="1174" 
d="M1057 0h-115l-67 369h-576l-177 -369h-115l655 1354h145zM718 1247l-375 -784h516zM413 -296q0 39 24 63.5t63 24.5q30 0 47.5 -17t17.5 -46q0 -39 -24 -63.5t-63 -24.5q-30 0 -47.5 17t-17.5 46z" />
    <glyph glyph-name="uni1EA1" unicode="&#x1ea1;" horiz-adv-x="1051" 
d="M131 369l38 257q27 178 152 284t303 106q102 0 190 -22t146 -57l-140 -937h-90l12 128q-76 -66 -165.5 -107t-175.5 -41q-144 0 -220 106t-50 283zM439 79q74 0 160 42t147 102l98 650q-108 46 -235 46q-139 0 -226 -81.5t-108 -218.5l-36 -242q-21 -139 29 -218.5
t171 -79.5zM324 -296q0 39 24.5 63.5t62.5 24.5q31 0 48 -16.5t17 -46.5q0 -39 -24 -63.5t-63 -24.5q-30 0 -47.5 17t-17.5 46z" />
    <glyph glyph-name="uni1EB8" unicode="&#x1eb8;" horiz-adv-x="977" 
d="M121 0l202 1354h721l-15 -96h-610l-79 -525h591l-14 -96h-591l-81 -541h631l-14 -96h-741zM383 -296q0 39 24 63.5t63 24.5q30 0 47.5 -17t17.5 -46q0 -39 -24 -63.5t-63 -24.5q-31 0 -48 17t-17 46z" />
    <glyph glyph-name="uni1EB9" unicode="&#x1eb9;" horiz-adv-x="959" 
d="M311 -296q0 39 24.5 63.5t63.5 24.5q30 0 47.5 -17t17.5 -46q0 -39 -24.5 -63.5t-63.5 -24.5q-30 0 -47.5 17t-17.5 46zM125 370l39 260q10 65 39.5 133t85.5 124t136 92.5t178 36.5q136 0 226 -71t90 -191q0 -172 -112.5 -247.5t-354.5 -75.5q-111 0 -208 18l-11 -75
q-20 -136 45 -215.5t203 -79.5q151 0 298 49v-94q-47 -18 -135 -36t-180 -18q-64 0 -129.5 18t-117 63.5t-80 122t-12.5 186.5zM271 626l-14 -93q110 -18 204 -18q188 0 267.5 49t79.5 177q0 83 -60 130.5t-159 47.5q-126 0 -211.5 -77.5t-106.5 -215.5z" />
    <glyph glyph-name="uni1EBC" unicode="&#x1ebc;" horiz-adv-x="977" 
d="M121 0l202 1354h721l-15 -96h-610l-79 -525h591l-14 -96h-591l-81 -541h631l-14 -96h-741zM640 1726q6 0 22 -2t34 -10.5t68 -41.5t80 -33q56 0 131 86l56 -44q-99 -138 -204 -138q-30 0 -52.5 11t-72 44t-78.5 33q-59 0 -132 -86l-56 44q99 137 204 137z" />
    <glyph glyph-name="uni1EBD" unicode="&#x1ebd;" horiz-adv-x="959" 
d="M527 1368q6 0 22 -2t34 -10.5t68 -41.5t80 -33q27 0 57 18t75 68l54 -44q-40 -57 -92 -97.5t-111 -40.5q-45 0 -101 38.5t-73.5 44t-29.5 5.5q-27 0 -57 -18t-74 -68l-55 44q40 57 92 97t111 40zM125 370l39 260q10 65 39.5 133t85.5 124t136 92.5t178 36.5
q136 0 226 -71t90 -191q0 -172 -112.5 -247.5t-354.5 -75.5q-111 0 -208 18l-11 -75q-20 -136 45 -215.5t203 -79.5q151 0 298 49v-94q-47 -18 -135 -36t-180 -18q-64 0 -129.5 18t-117 63.5t-80 122t-12.5 186.5zM271 626l-14 -93q110 -18 204 -18q188 0 267.5 49t79.5 177
q0 83 -60 130.5t-159 47.5q-126 0 -211.5 -77.5t-106.5 -215.5z" />
    <glyph glyph-name="uni1ECA" unicode="&#x1eca;" horiz-adv-x="462" 
d="M432 1354l-202 -1354h-109l202 1354h109zM57 -296q0 39 24 63.5t64 24.5q30 0 47 -16.5t17 -46.5q0 -39 -24 -63.5t-64 -24.5q-29 0 -46.5 17t-17.5 46z" />
    <glyph glyph-name="uni1ECB" unicode="&#x1ecb;" horiz-adv-x="443" 
d="M262 996h107l-149 -996h-107zM281 1266q0 39 24.5 63.5t62.5 24.5q31 0 48 -17t17 -46q0 -40 -24 -64t-63 -24q-30 0 -47.5 17t-17.5 46zM48 -296q0 39 24.5 63.5t62.5 24.5q31 0 48 -16.5t17 -46.5q0 -39 -24.5 -63.5t-62.5 -24.5q-31 0 -48 17t-17 46z" />
    <glyph glyph-name="uni1ECC" unicode="&#x1ecc;" horiz-adv-x="1187" 
d="M217 950q11 72 46 147t101.5 136t163 101t216.5 40q70 0 145 -19t137 -67.5t98.5 -132t18.5 -205.5l-82 -546q-11 -72 -46 -147t-101 -136t-162.5 -101t-216.5 -40q-95 0 -175.5 28.5t-135 82.5t-79 133t-9.5 180zM324 941l-79 -528q-23 -154 61 -245t244 -91t271 91
t134 245l79 528q23 154 -60.5 245t-244.5 91q-160 0 -271 -91t-134 -245zM420 -296q0 39 24 63.5t64 24.5q30 0 47 -16.5t17 -46.5q0 -39 -24 -63.5t-64 -24.5q-29 0 -46.5 17t-17.5 46z" />
    <glyph glyph-name="uni1ECD" unicode="&#x1ecd;" horiz-adv-x="1038" 
d="M124 362l40 272q10 65 40.5 132.5t87 122.5t138.5 91t183 36q80 0 148 -26t114 -75t65.5 -121t6.5 -160l-40 -272q-10 -65 -40.5 -132.5t-87 -122.5t-138.5 -91t-183 -36q-80 0 -148 26t-114 75t-65.5 121t-6.5 160zM271 626l-39 -256q-19 -135 47 -214t194 -79
q127 0 217 79t111 214l38 256q20 135 -46.5 214t-194.5 79t-217.5 -79t-109.5 -214zM343 -296q0 39 24 63.5t63 24.5q30 0 47.5 -17t17.5 -46q0 -39 -24.5 -63.5t-62.5 -24.5q-31 0 -48 17t-17 46z" />
    <glyph glyph-name="uni1EE4" unicode="&#x1ee4;" horiz-adv-x="1183" 
d="M1075 1354h110l-144 -961q-14 -92 -58.5 -169.5t-113 -131.5t-155 -83t-180.5 -29t-172 29t-130 83t-73.5 131.5t-7.5 169.5l143 961h110l-144 -958q-21 -144 59 -231.5t229 -87.5q91 0 177.5 38t140 115t66.5 166zM418 -296q0 39 24.5 63.5t62.5 24.5q31 0 48 -16.5
t17 -46.5q0 -39 -24 -63.5t-63 -24.5q-30 0 -47.5 17t-17.5 46z" />
    <glyph glyph-name="uni1EE5" unicode="&#x1ee5;" horiz-adv-x="1049" 
d="M826 0h-90l10 127q-98 -68 -199 -107.5t-185 -39.5q-121 0 -176.5 70t-36.5 201l111 745h108l-108 -722q-29 -192 142 -192q71 0 164.5 35t184.5 100l116 779h108zM357 -296q0 39 24.5 63.5t63.5 24.5q30 0 47.5 -17t17.5 -46q0 -39 -24.5 -63.5t-63.5 -24.5
q-30 0 -47.5 17t-17.5 46z" />
    <glyph glyph-name="Ygrave" unicode="&#x1ef2;" horiz-adv-x="1070" 
d="M1059 1354h115l-564 -849l-75 -505h-110l76 505l-310 849h114l266 -742zM804 1542l-63 -63l-273 255l81 77z" />
    <glyph glyph-name="ygrave" unicode="&#x1ef3;" horiz-adv-x="953" 
d="M664 1184l-64 -63l-272 255l81 77zM223 996l219 -1041q130 200 243.5 472t190.5 569h112q-112 -415 -272 -753t-352.5 -524.5t-395.5 -186.5q-101 0 -176 34l35 93q69 -30 154 -30q94 0 195.5 61t201.5 187l-25 2l-242 1117h112z" />
    <glyph glyph-name="uni1EF8" unicode="&#x1ef8;" horiz-adv-x="1070" 
d="M1059 1354h115l-564 -849l-75 -505h-110l76 505l-310 849h114l266 -742zM630 1726q6 0 22 -2t34 -10.5t68 -41.5t80 -33q27 0 57 18t75 68l55 -44q-99 -138 -204 -138q-6 0 -22 2t-33.5 10.5t-67.5 42t-80 33.5q-59 0 -132 -86l-55 44q99 137 203 137z" />
    <glyph glyph-name="uni1EF9" unicode="&#x1ef9;" horiz-adv-x="953" 
d="M498 1368q30 0 52.5 -11t72 -43.5t78.5 -32.5q27 0 57.5 18t74.5 68l55 -44q-40 -57 -92 -97.5t-111 -40.5q-45 0 -101 38.5t-73.5 44t-29.5 5.5q-57 0 -132 -86l-54 44q40 57 92 97t111 40zM223 996l219 -1041q130 200 243.5 472t190.5 569h112q-112 -415 -272 -753
t-352.5 -524.5t-395.5 -186.5q-101 0 -176 34l35 93q69 -30 154 -30q94 0 195.5 61t201.5 187l-25 2l-242 1117h112z" />
    <glyph glyph-name="endash" unicode="&#x2013;" horiz-adv-x="1136" 
d="M138 452l13 91h886l-14 -91h-885z" />
    <glyph glyph-name="emdash" unicode="&#x2014;" horiz-adv-x="1573" 
d="M138 452l13 91h1323l-14 -91h-1322z" />
    <glyph glyph-name="quoteleft" unicode="&#x2018;" horiz-adv-x="328" 
d="M292 993h-106l18 118q12 80 47 180.5t100 192.5h86q-42 -73 -77 -170t-49 -192z" />
    <glyph glyph-name="quoteright" unicode="&#x2019;" horiz-adv-x="376" 
d="M319 1448h105l-17 -118q-12 -80 -47.5 -181t-100.5 -192h-86q42 73 77 170t50 192z" />
    <glyph glyph-name="quotesinglbase" unicode="&#x201a;" horiz-adv-x="372" 
d="M131 140h106l-18 -118q-12 -80 -47.5 -181.5t-100.5 -191.5h-86q43 72 78 169.5t49 192.5z" />
    <glyph glyph-name="quotedblleft" unicode="&#x201c;" horiz-adv-x="641" 
d="M605 993h-106l18 118q12 80 47 180.5t100 192.5h87q-43 -72 -78 -169.5t-49 -192.5zM320 993h-105l17 118q12 80 47 180.5t100 192.5h87q-43 -72 -78 -169.5t-49 -192.5z" />
    <glyph glyph-name="quotedblright" unicode="&#x201d;" horiz-adv-x="662" 
d="M603 1448h106l-18 -118q-15 -106 -55.5 -204t-91.5 -169h-87q44 72 79 169t48 193zM319 1448h105l-17 -118q-12 -80 -47.5 -181t-100.5 -192h-86q42 73 77 170t50 192z" />
    <glyph glyph-name="quotedblbase" unicode="&#x201e;" horiz-adv-x="656" 
d="M415 140h106l-18 -118q-15 -107 -55.5 -205t-90.5 -168h-88q43 72 78.5 169.5t48.5 192.5zM131 140h106l-18 -118q-12 -80 -47.5 -181.5t-100.5 -191.5h-86q43 72 78 169.5t49 192.5z" />
    <glyph glyph-name="dagger" unicode="&#x2020;" horiz-adv-x="1006" 
d="M629 1579h108l-74 -486l408 4l-15 -99l-407 3l-186 -1225h-99l180 1225l-405 -3l14 99l405 -4z" />
    <glyph glyph-name="daggerdbl" unicode="&#x2021;" horiz-adv-x="1048" 
d="M652 1581h106l-71 -471l410 3l-14 -99l-410 4l-101 -679l411 4l-15 -100l-410 4l-70 -470h-106l70 470l-409 -4l14 100l409 -4l101 679l-409 -4l14 99l409 -3z" />
    <glyph glyph-name="bullet" unicode="&#x2022;" horiz-adv-x="556" 
d="M169 649q0 82 49 131.5t130 49.5q62 0 97 -34.5t35 -94.5q0 -82 -49 -131.5t-130 -49.5q-55 0 -93.5 30.5t-38.5 98.5z" />
    <glyph glyph-name="ellipsis" unicode="&#x2026;" horiz-adv-x="1192" 
d="M869 43q0 39 24.5 63.5t62.5 24.5q31 0 48 -17t17 -45q0 -40 -24 -64.5t-63 -24.5q-31 0 -48 17t-17 46zM77 43q0 39 24.5 63.5t63.5 24.5q30 0 47.5 -17t17.5 -45q0 -40 -24.5 -64.5t-63.5 -24.5q-30 0 -47.5 17t-17.5 46zM473 43q0 39 24.5 63.5t62.5 24.5q31 0 48 -17
t17 -45q0 -40 -24 -64.5t-63 -24.5q-30 0 -47.5 17t-17.5 46z" />
    <glyph glyph-name="guilsinglleft" unicode="&#x2039;" horiz-adv-x="541" 
d="M254 498l171 -366l-93 -47l-193 413l316 413l80 -47z" />
    <glyph glyph-name="guilsinglright" unicode="&#x203a;" horiz-adv-x="541" 
d="M326 498l-171 366l93 47l193 -413l-316 -413l-80 47z" />
    <glyph glyph-name="fraction" unicode="&#x2044;" horiz-adv-x="956" 
d="M117 634l12 88h804l-13 -88h-803z" />
    <glyph glyph-name="uni2070" unicode="&#x2070;" horiz-adv-x="745" 
d="M167 931l22 143q20 133 113.5 211.5t219.5 78.5q92 0 151 -40.5t83 -103.5t12 -146l-22 -143q-20 -132 -113.5 -211t-219.5 -79q-92 0 -151 40.5t-83 104t-12 145.5zM290 1067l-20 -129q-13 -94 29 -149.5t128 -55.5t145.5 55.5t72.5 149.5l20 129q13 94 -29.5 149.5
t-128.5 55.5q-85 0 -144.5 -55.5t-72.5 -149.5z" />
    <glyph glyph-name="uni2074" unicode="&#x2074;" horiz-adv-x="602" 
d="M507 1354h98l-67 -457h129l-12 -86h-131l-24 -160h-103l25 160h-327l12 81l400 461v1zM221 895h217l46 307z" />
    <glyph glyph-name="franc" unicode="&#x20a3;" horiz-adv-x="1145" 
d="M91 252l14 91h191l152 1011h717l-14 -96h-608l-78 -525h588l-15 -96h-588l-44 -294h338l-14 -91h-338l-36 -252h-111l38 252h-192z" />
    <glyph glyph-name="lira" unicode="&#x20a4;" horiz-adv-x="1163" 
d="M88 -20l14 96q111 0 169 44.5t73 146.5l35 236h-194l14 92h721l-14 -92h-419l-35 -238q-20 -131 -111 -189h627l-14 -96h-866zM223 757l14 92h194l18 121q19 127 78.5 215.5t153 138.5t215.5 50q138 0 257 -43l-31 -94q-132 37 -241 37q-278 0 -325 -311l-17 -114h418
l-14 -92h-720z" />
    <glyph glyph-name="uni20A9" unicode="&#x20a9;" horiz-adv-x="1995" 
d="M160 848l13 80h250l-47 426h113l44 -426h393l159 406h114l37 -406h393l172 426h114l-175 -426h250l-12 -80h-270l-65 -157h234l-12 -79h-255l-250 -612h-140l-105 1153l-449 -1153h-140l-68 612h-255l12 79h234l-17 157h-272zM566 612l50 -480l187 480h-237zM1265 612
l44 -480l193 480h-237zM542 848l16 -157h276l61 157h-353zM1243 848l14 -157h276l64 157h-354z" />
    <glyph glyph-name="Euro" unicode="&#x20ac;" horiz-adv-x="1238" 
d="M167 503l14 92h726l-13 -92h-458l-13 -82q-23 -156 63.5 -248t243.5 -92q164 0 306 55l7 -90q-150 -66 -338 -66q-67 0 -140 20t-134.5 70.5t-98 136t-18.5 205.5l13 91h-160zM205 757l14 92h160l13 85q11 74 46.5 151.5t101.5 141t161.5 105.5t211.5 42q66 0 148 -16
t145 -52l-41 -92q-48 23 -119.5 41t-147.5 18q-112 0 -197 -49t-136.5 -124.5t-66.5 -173.5l-11 -77h458l-14 -92h-726z" />
    <glyph glyph-name="uni20B1" unicode="&#x20b1;" horiz-adv-x="1322" 
d="M203 1002l12 81h153l41 271h398q87 0 167 -31t126.5 -96t54.5 -144h162l-12 -81h-151l-4 -37l-12 -78l-4 -19h151l-12 -81h-162q-51 -127 -169.5 -199.5t-259.5 -72.5h-289l-77 -515h-110l118 787h-153l12 81h153l20 134h-153zM690 608q102 0 184 47t123 132h-564
l-27 -179h284zM787 1261h-284l-26 -178h564q-16 84 -84 131t-170 47zM1043 975l3 27h-581l-20 -134h581l5 28z" />
    <glyph glyph-name="uni20B9" unicode="&#x20b9;" horiz-adv-x="1041" 
d="M226 907l13 87h471q10 131 -60 198.5t-202 69.5h-169l14 92h830l-13 -88h-389q56 -43 85 -111t19 -161h214l-13 -87h-215q-19 -102 -84 -177.5t-168 -123t-233 -54.5l358 -552h-126l-375 580l8 58h94q164 0 273 67.5t139 201.5h-471z" />
    <glyph glyph-name="uni20BA" unicode="&#x20ba;" horiz-adv-x="1007" 
d="M559 1354l-59 -397l349 221l36 -67l-400 -254l-22 -152l350 222l36 -68l-402 -254l-75 -511q111 0 199 54t141.5 142.5t67.5 208.5l100 8q-12 -115 -58 -210t-117.5 -161.5t-161 -101t-186.5 -34.5h-109l79 532l-193 -122l-35 68l244 153l22 153l-195 -123l-35 68
l245 155l70 470h109z" />
    <glyph glyph-name="afii61352" unicode="&#x2116;" horiz-adv-x="1858" 
d="M442 1354l510 -1171l174 1171h109l-202 -1354h-119l-509 1169l-175 -1169h-109l202 1354h119zM1387 1097l6 35q16 109 97.5 175.5t189.5 66.5t169.5 -66.5t45.5 -175.5l-5 -35q-17 -109 -99 -176t-190 -67q-107 0 -168.5 67t-45.5 176zM1491 1125l-3 -22q-10 -71 25 -114
t103 -43t116.5 43t58.5 114l3 22q10 71 -25.5 114t-103.5 43q-67 0 -115.5 -43t-58.5 -114zM1319 646l13 88h504l-13 -88h-504z" />
    <glyph glyph-name="trademark" unicode="&#x2122;" horiz-adv-x="1052" 
d="M809 883l-90 338l-61 -404h-82l80 537h100l101 -369l213 369h100l-81 -537h-82l61 405l-194 -339h-65zM260 817l69 459h-163l11 78h411l-11 -78h-163l-69 -459h-85z" />
    <glyph glyph-name="estimated" unicode="&#x212e;" horiz-adv-x="1802" 
d="M1689 643h-1217q-10 0 -11 -10l-54 -357q-3 -25 10 -45q61 -77 169.5 -127.5t263.5 -50.5q147 0 279 51t236 148h109q-122 -125 -288 -198.5t-349 -73.5q-176 0 -326 75.5t-238.5 219t-88.5 319.5q0 194 113 374t317 293t432 113q190 0 350 -89.5t243 -256.5t54 -362z
M1425 724l53 356q4 26 -13 45q-70 86 -182 131t-246 45q-138 0 -262.5 -44.5t-221.5 -131.5q-21 -20 -26 -49l-53 -352q-1 -12 8 -12h933q9 0 10 12z" />
    <glyph glyph-name="minus" unicode="&#x2212;" horiz-adv-x="1042" 
d="M213 630l14 95h694l-14 -95h-694z" />
    <glyph glyph-name="uni2215" unicode="&#x2215;" horiz-adv-x="956" 
d="M117 634l12 88h804l-13 -88h-803z" />
    <glyph glyph-name="uni2219" unicode="&#x2219;" horiz-adv-x="399" 
d="M170 665q0 39 24.5 63t63.5 24q30 0 47 -16.5t17 -46.5q0 -39 -24 -63t-63 -24q-31 0 -48 16.5t-17 46.5z" />
    <glyph glyph-name="approxequal" unicode="&#x2248;" horiz-adv-x="1078" 
d="M285 737l-48 53q46 54 109 92t135 38q61 0 137.5 -37t104 -42t45.5 -5q76 0 175 87l48 -55q-45 -53 -108.5 -90.5t-135.5 -37.5q-61 0 -138 37t-104 42t-45 5q-73 0 -175 -87zM261 437l-49 55q46 53 109 90.5t135 37.5q58 0 132 -37t100 -42t43 -5q36 0 78.5 18t105.5 69
l48 -53q-48 -54 -113 -92t-140 -38q-58 0 -132 37t-100 42t-43 5q-77 0 -174 -87z" />
    <glyph glyph-name="notequal" unicode="&#x2260;" horiz-adv-x="1027" 
d="M234 775l15 97h388l222 345l72 -37l-197 -308h194l-14 -97h-243l-121 -190h336l-14 -96h-386l-225 -352l-73 37l200 315h-197l15 96h246l122 190h-340z" />
    <glyph glyph-name="lessequal" unicode="&#x2264;" horiz-adv-x="926" 
d="M154 79l14 95h556l-14 -95h-556zM241 821l571 433l63 -69l-482 -364l373 -364l-84 -69z" />
    <glyph glyph-name="greaterequal" unicode="&#x2265;" horiz-adv-x="927" 
d="M701 174l-15 -95h-556l15 95h556zM821 821l-571 -433l-63 69l481 364l-372 364l84 69z" />
    <glyph glyph-name="uniF6C3" unicode="&#xf6c3;" horiz-adv-x="459" 
d="M154 -117h108l-11 -70q-13 -89 -61.5 -171.5t-102.5 -131.5h-90q51 57 92 135.5t53 155.5z" />
    <glyph glyph-name="uniF730" unicode="&#xf730;" horiz-adv-x="1154" 
d="M138 416l54 364q11 74 45.5 151t98.5 140t157 104t208 41q91 0 168 -29.5t129 -86t74 -138.5t7 -182l-55 -364q-11 -74 -45 -151t-98 -140t-157 -104t-208 -41q-91 0 -168 29.5t-129.5 86t-74 138.5t-6.5 182zM300 772l-52 -348q-24 -159 53.5 -252.5t229.5 -93.5
q151 0 256.5 93.5t129.5 252.5l51 348q24 159 -53 252.5t-229 93.5t-257 -93.5t-129 -252.5z" />
    <glyph glyph-name="uniF731" unicode="&#xf731;" horiz-adv-x="643" 
d="M154 976l-8 92l340 128h93l-179 -1196h-109l162 1087z" />
    <glyph glyph-name="uniF732" unicode="&#xf732;" horiz-adv-x="917" 
d="M12 0l13 89q17 15 53 46.5l264 231t324 320.5t96 232q0 99 -61.5 147.5t-167.5 48.5q-155 0 -318 -66l-10 90q171 77 346 77q104 0 176 -36t109.5 -98t37.5 -150q0 -63 -23.5 -130.5t-83 -143.5t-150 -163t-259.5 -235.5t-185 -163.5h619l-14 -96h-766z" />
    <glyph glyph-name="uniF733" unicode="&#xf733;" horiz-adv-x="891" 
d="M221 481l15 94h175q95 0 168.5 46.5t113 116.5t39.5 158q0 108 -67.5 165t-185.5 57q-128 0 -281 -43l-5 87q153 54 306 54q155 0 247.5 -79t92.5 -223q0 -132 -70 -231.5t-185 -149.5q82 -34 129.5 -108.5t47.5 -177.5q0 -76 -25.5 -150t-86.5 -135.5t-154.5 -100.5
t-213.5 -39q-159 0 -296 45l33 94q141 -41 274 -41q70 0 135.5 21t117 62t81.5 103t30 138q0 113 -75 175t-186 62h-174z" />
    <glyph glyph-name="uniF734" unicode="&#xf734;" horiz-adv-x="1043" 
d="M806 1204h106l-136 -911h209l-14 -94h-209l-52 -349h-108l53 349h-601l14 90zM190 293h480l110 732z" />
    <glyph glyph-name="uniF735" unicode="&#xf735;" horiz-adv-x="935" 
d="M839 288q0 -127 -52 -230t-170 -165.5t-282 -62.5q-180 0 -324 44l35 95q160 -40 298 -40q126 0 210.5 43.5t128.5 119.5t44 185q0 129 -83 191t-232 62h-254l129 674h624l-15 -96h-526l-94 -484h165q187 0 292.5 -86.5t105.5 -249.5z" />
    <glyph glyph-name="uniF736" unicode="&#xf736;" horiz-adv-x="1028" 
d="M131 368l82 550q12 79 46 159.5t98.5 146t160 108t220.5 42.5q127 0 270 -37l-35 -94q-130 32 -249 32q-164 0 -272 -96.5t-135 -272.5l-30 -199q171 72 320 72q160 0 256 -89t96 -256q0 -91 -34.5 -174.5t-98.5 -146t-152.5 -98t-191.5 -35.5q-86 0 -157.5 26
t-119.5 76.5t-67.5 123.5t-6.5 162zM584 680q-61 0 -144 -15.5t-167 -52.5l-36 -241q-20 -136 52.5 -215t207.5 -79q111 0 189.5 48t119 123.5t40.5 174.5q0 124 -67.5 190.5t-194.5 66.5z" />
    <glyph glyph-name="uniF737" unicode="&#xf737;" horiz-adv-x="838" 
d="M141 1108l14 96h755l-13 -93l-706 -1261h-117l710 1258h-643z" />
    <glyph glyph-name="uniF738" unicode="&#xf738;" horiz-adv-x="1039" 
d="M930 354q0 -62 -23 -127t-79 -119.5t-147.5 -91t-218.5 -36.5q-171 0 -270.5 76.5t-99.5 207.5q0 144 92.5 246t270.5 180q-103 52 -163.5 122.5t-60.5 175.5q0 83 33 154.5t92.5 123.5t140.5 80t173 28q154 0 245.5 -81t91.5 -213q0 -140 -82 -228t-245 -158
q250 -129 250 -340zM476 74q108 0 184.5 38t116 99t39.5 141q0 179 -257 294q-166 -62 -258.5 -155.5t-92.5 -208.5q0 -97 73.5 -152.5t194.5 -55.5zM898 1069q0 100 -68.5 153.5t-174.5 53.5q-78 0 -154 -30.5t-118.5 -97t-42.5 -149.5q0 -77 55 -140t182 -119
q158 60 239.5 139t81.5 190z" />
    <glyph glyph-name="uniF739" unicode="&#xf739;" horiz-adv-x="1043" 
d="M792 258l35 236q-70 -33 -156 -57t-165 -24q-155 0 -252.5 94t-97.5 255q0 71 24.5 148.5t91.5 153.5t165.5 114t195.5 38q86 0 157.5 -26t119.5 -76.5t67.5 -123.5t6.5 -162l-82 -550q-20 -133 -85.5 -236.5t-183 -161.5t-265.5 -58q-70 0 -149 12t-140 35l35 94
q82 -24 141 -33t124 -9q167 0 278.5 90t134.5 247zM530 512q82 0 165 23t147 56l35 234q13 84 -11.5 148.5t-86.5 105t-162 40.5q-111 0 -189.5 -48t-119 -124.5t-40.5 -177.5q0 -125 67 -191t195 -66z" />
    <glyph glyph-name="uniFB00" unicode="&#xfb00;" horiz-adv-x="1104" 
d="M110 907l13 89h170l24 160q19 129 107.5 208.5t211.5 79.5q85 0 145 -20l-28 -93q-56 16 -121 16q-87 0 -141 -52.5t-68 -149.5l-23 -149h416l25 169q21 135 109.5 217t211.5 82q93 0 157 -20l-27 -93q-68 16 -135 16q-85 0 -140 -54t-70 -158l-24 -159h277l-13 -89h-277
l-136 -907h-107l136 907h-416l-202 -1355h-108l203 1355h-170z" />
    <glyph glyph-name="uniFB02" unicode="&#xfb02;" horiz-adv-x="1025" 
d="M110 907l13 89h170l15 103q25 167 136.5 266t279.5 99q69 0 145 -14t135 -39l-210 -1411h-108l201 1342q-95 25 -180 25q-251 0 -292 -274l-15 -97h254l-14 -89h-253l-202 -1355h-108l203 1355h-170z" />
    <glyph glyph-name="uniFB04" unicode="&#xfb04;" horiz-adv-x="1548" 
d="M937 1093l-14 -97h253l-12 -89h-254l-203 -1355h-107l203 1355h-416l-202 -1355h-108l203 1355h-170l13 89h170l24 160q19 129 107.5 208.5t211.5 79.5q85 0 145 -20l-28 -93q-56 16 -121 16q-87 0 -141 -52.5t-68 -149.5l-23 -149h416l15 103q25 167 136.5 266t279.5 99
q151 0 281 -53l-212 -1411h-107l201 1342q-95 25 -180 25q-251 0 -293 -274z" />
    <glyph glyph-name="uniFB06" unicode="&#xfb06;" horiz-adv-x="1438" 
d="M902 907l13 89h171l58 387h-267q-290 0 -290 -206q0 -63 44.5 -114t128.5 -86l-31 -92q-118 36 -234 36t-182.5 -52t-66.5 -161q0 -56 36 -94t162 -71q138 -35 195 -86.5t57 -150.5q0 -161 -96.5 -243.5t-273.5 -82.5q-167 0 -288 51l35 91q42 -17 113 -32t145 -15
q134 0 197.5 47t63.5 162q0 62 -39 99.5t-178 73.5q-124 32 -178 86t-54 150q0 135 86.5 220t224.5 97q31 4 94 4q-66 63 -66 163q0 88 49.5 155t130.5 103.5t190 36.5h410l-71 -476h271l-14 -89h-269l-98 -658q-26 -172 132 -172q61 0 135 16l-2 -92q-76 -21 -161 -21
q-101 0 -159.5 52t-58.5 156q0 82 48.5 375t56.5 344h-170z" />
    <glyph glyph-name="Euro.tnum" 
d="M138 503l14 92h726l-13 -92h-459l-12 -82q-23 -156 63 -248t243 -92q166 0 306 55l7 -90q-146 -66 -337 -66q-91 0 -169.5 30.5t-133.5 87t-79 137.5t-10 177l14 91h-160zM176 757l14 92h159l13 85q11 74 46.5 151.5t110 149t173.5 105.5t191 34q66 0 148 -16t146 -52
l-41 -92q-125 59 -267 59q-93 0 -174.5 -37.5t-144.5 -114.5t-81 -195l-12 -77h459l-14 -92h-726z" />
    <glyph glyph-name="Euro.aalt" horiz-adv-x="1134" 
d="M185 666l14 91h143l10 69q17 111 78.5 196.5t162 140t226.5 54.5q60 0 134 -14t135 -47l-39 -92q-74 37 -150 37q-93 14 -148 10q-116 -15 -197 -92.5t-99 -200.5l-9 -61h404l-13 -91h-652zM151 438l14 92h652l-14 -92h-405l-10 -66q-20 -136 55 -214.5t215 -78.5
q148 0 279 49l7 -90q-135 -58 -310 -58q-81 0 -151.5 27t-119.5 77.5t-70.5 123t-8.5 157.5l10 73h-143z" />
    <glyph glyph-name="Euro.aalt.tnum" 
d="M178 438l14 92h651l-13 -92h-405l-9 -66q-21 -136 54 -214.5t215 -78.5q146 0 279 49l6 -90q-135 -58 -309 -58q-81 0 -151.5 27t-120 77.5t-71 123t-8.5 157.5l11 73h-143zM212 666l14 91h143l10 69q10 66 41.5 134.5t91 125t145 94t189.5 37.5q60 0 134 -14t135 -47
l-39 -92q-76 37 -150 37q-48 16 -95 16q-135 0 -232 -80.5t-118 -218.5l-8 -61h405l-14 -91h-652z" />
    <glyph glyph-name="glyph55" horiz-adv-x="923" 
d="M785 1354h109l-206 -1386q-20 -135 -92 -238t-248 -198l-37 77q124 74 186 154t80 203zM432 1354l-202 -1354h-109l202 1354h109zM317 1479l-44 63l335 269l58 -77zM779 1479l-45 63l335 269l59 -77z" />
    <glyph glyph-name="glyph138" horiz-adv-x="1070" 
d="M1059 1354h115l-564 -849l-75 -505h-110l76 505l-310 849h114l266 -742zM467 1590l13 91h502l-14 -91h-501z" />
    <glyph glyph-name="a.salt" horiz-adv-x="917" 
d="M59 205q0 149 103 236.5t264 87.5h243l24 160q34 228 -189 228q-133 0 -274 -46v93q152 52 297 52q322 0 272 -336l-102 -680h-89l10 110q-166 -130 -315 -130q-113 0 -178.5 60t-65.5 165zM330 71q127 0 288 120l38 255h-238q-119 0 -185.5 -58.5t-66.5 -164.5
q0 -71 44.5 -111.5t119.5 -40.5z" />
    <glyph glyph-name="a.sc" horiz-adv-x="1013" 
d="M899 0h-115l-59 274h-466l-141 -274h-114l531 1036h142zM590 930l-290 -567h410z" />
    <glyph glyph-name="aacute.salt" horiz-adv-x="912" 
d="M458 1121l-44 63l334 269l58 -77zM59 205q0 149 103 236.5t264 87.5h243l24 160q34 228 -189 228q-133 0 -274 -46v93q152 52 297 52q322 0 272 -336l-102 -680h-89l10 110q-166 -130 -315 -130q-113 0 -178.5 60t-65.5 165zM330 71q127 0 288 120l38 255h-238
q-119 0 -185.5 -58.5t-66.5 -164.5q0 -71 44.5 -111.5t119.5 -40.5z" />
    <glyph glyph-name="aacute.sc" horiz-adv-x="1013" 
d="M899 0h-115l-59 274h-466l-141 -274h-114l531 1036h142zM590 930l-290 -567h410zM539 1141l-45 63l310 249l59 -78z" />
    <glyph glyph-name="abreve.salt" horiz-adv-x="909" 
d="M59 205q0 149 103 236.5t264 87.5h243l24 160q34 228 -189 228q-133 0 -274 -46v93q152 52 297 52q322 0 272 -336l-102 -680h-89l10 110q-166 -130 -315 -130q-113 0 -178.5 60t-65.5 165zM330 71q127 0 288 120l38 255h-238q-119 0 -185.5 -58.5t-66.5 -164.5
q0 -71 44.5 -111.5t119.5 -40.5zM346 1399h94q-6 -68 25 -110t94 -42q65 0 108 43.5t56 108.5h95q-17 -107 -92 -174.5t-180 -67.5t-160.5 67.5t-39.5 174.5z" />
    <glyph glyph-name="abreve.sc" horiz-adv-x="1013" 
d="M899 0h-115l-59 274h-466l-141 -274h-114l531 1036h142zM590 930l-290 -567h410zM424 1399h95q-6 -60 26 -98t95 -38t106.5 38.5t54.5 97.5h95q-15 -99 -90 -162.5t-180 -63.5t-160.5 63.5t-41.5 162.5z" />
    <glyph glyph-name="acircumflex.salt" horiz-adv-x="913" 
d="M59 205q0 149 103 236.5t264 87.5h243l24 160q34 228 -189 228q-133 0 -274 -46v93q152 52 297 52q303 0 276 -297l-12 -94l-94 -625h-89l10 110q-166 -130 -315 -130q-113 0 -178.5 60t-65.5 165zM330 71q127 0 288 120l38 255h-238q-119 0 -185.5 -58.5t-66.5 -164.5
q0 -71 44.5 -111.5t119.5 -40.5zM616 1439l190 -269l-95 -34l-140 203l-200 -203l-85 34l271 269h59z" />
    <glyph glyph-name="acircumflex.sc" horiz-adv-x="1013" 
d="M899 0h-115l-59 274h-466l-141 -274h-114l531 1036h142zM590 930l-290 -567h410zM696 1439l178 -249l-95 -34l-128 183l-182 -183l-85 34l253 249h59z" />
    <glyph glyph-name="glyph157" horiz-adv-x="607" 
d="M309 1141l-45 63l310 249l58 -78z" />
    <glyph glyph-name="glyph159" horiz-adv-x="532" 
d="M294 1126l-48 52l232 209l66 -66z" />
    <glyph glyph-name="adieresis.salt" horiz-adv-x="913" 
d="M59 205q0 149 103 236.5t264 87.5h243l24 160q34 228 -189 228q-133 0 -274 -46v93q152 52 297 52q322 0 272 -336l-102 -680h-89l10 110q-166 -130 -315 -130q-113 0 -178.5 60t-65.5 165zM330 71q127 0 288 120l38 255h-238q-119 0 -185.5 -58.5t-66.5 -164.5
q0 -71 44.5 -111.5t119.5 -40.5zM650 1266q0 39 24 63.5t63 24.5q30 0 47.5 -17t17.5 -46q0 -40 -24.5 -64t-63.5 -24q-30 0 -47 16.5t-17 46.5zM330 1266q0 39 24 63.5t63 24.5q31 0 48 -17t17 -46q0 -40 -24 -64t-63 -24q-31 0 -48 16.5t-17 46.5z" />
    <glyph glyph-name="adieresis.sc" horiz-adv-x="1013" 
d="M899 0h-115l-59 274h-466l-141 -274h-114l531 1036h142zM590 930l-290 -567h410zM731 1266q0 39 24.5 63.5t63.5 24.5q30 0 47.5 -17t17.5 -46q0 -40 -24.5 -64t-63.5 -24q-30 0 -47.5 17t-17.5 46zM400 1266q0 39 24.5 63.5t63.5 24.5q30 0 47.5 -17t17.5 -46
q0 -40 -24.5 -64t-63.5 -24q-30 0 -47.5 17t-17.5 46z" />
    <glyph glyph-name="uni1EA1.salt" horiz-adv-x="917" 
d="M283 -296q0 39 24.5 63.5t63.5 24.5q30 0 47.5 -17t17.5 -46q0 -39 -24.5 -63.5t-63.5 -24.5q-30 0 -47.5 17t-17.5 46zM59 205q0 149 103 236.5t264 87.5h243l24 160q34 228 -189 228q-133 0 -274 -46v93q152 52 297 52q322 0 272 -336l-102 -680h-89l10 110
q-166 -130 -315 -130q-113 0 -178.5 60t-65.5 165zM330 71q127 0 288 120l38 255h-238q-119 0 -185.5 -58.5t-66.5 -164.5q0 -71 44.5 -111.5t119.5 -40.5z" />
    <glyph glyph-name="uni1EA1.sc" horiz-adv-x="1013" 
d="M899 0h-115l-59 274h-466l-141 -274h-114l531 1036h142zM590 930l-290 -567h410zM333 -296q0 39 24 63.5t63 24.5q30 0 47.5 -17t17.5 -46q0 -39 -24.5 -63.5t-62.5 -24.5q-31 0 -48 17t-17 46z" />
    <glyph glyph-name="ae.sc" horiz-adv-x="1221" 
d="M679 0l-15 282h-413l-170 -282h-114l626 1036h649l-15 -93h-493l21 -375h405l-13 -89h-387l21 -386h345l-14 -93h-433zM630 916l-328 -545h357z" />
    <glyph glyph-name="aeacute.sc" horiz-adv-x="1221" 
d="M679 0l-15 282h-413l-170 -282h-114l626 1036h649l-15 -93h-493l21 -375h405l-13 -89h-387l21 -386h345l-14 -93h-433zM630 916l-328 -545h357zM808 1141l-45 63l310 249l59 -78z" />
    <glyph glyph-name="agrave.salt" horiz-adv-x="917" 
d="M59 205q0 149 103 236.5t264 87.5h243l24 160q34 228 -189 228q-133 0 -274 -46v93q152 52 297 52q322 0 272 -336l-102 -680h-89l10 110q-166 -130 -315 -130q-113 0 -178.5 60t-65.5 165zM330 71q127 0 288 120l38 255h-238q-119 0 -185.5 -58.5t-66.5 -164.5
q0 -71 44.5 -111.5t119.5 -40.5zM701 1184l-63 -63l-273 255l82 77z" />
    <glyph glyph-name="agrave.sc" horiz-adv-x="1013" 
d="M899 0h-115l-59 274h-466l-141 -274h-114l531 1036h142zM590 930l-290 -567h410zM763 1204l-63 -63l-254 234l82 78z" />
    <glyph glyph-name="amacron.salt" horiz-adv-x="909" 
d="M59 205q0 149 103 236.5t264 87.5h243l24 160q34 228 -189 228q-133 0 -274 -46v93q152 52 297 52q322 0 272 -336l-102 -680h-89l10 110q-166 -130 -315 -130q-113 0 -178.5 60t-65.5 165zM330 71q127 0 288 120l38 255h-238q-119 0 -185.5 -58.5t-66.5 -164.5
q0 -71 44.5 -111.5t119.5 -40.5zM308 1232l12 91h503l-14 -91h-501z" />
    <glyph glyph-name="amacron.sc" horiz-adv-x="1013" 
d="M899 0h-115l-59 274h-466l-141 -274h-114l531 1036h142zM590 930l-290 -567h410zM384 1232l13 91h503l-13 -91h-503z" />
    <glyph glyph-name="ampersand.sc" horiz-adv-x="978" 
d="M66 259q0 190 227 315l-3 4q-69 106 -69 193q0 84 43 145.5t124.5 98.5t197.5 37q64 0 138.5 -14.5t130.5 -38.5l-35 -89q-128 47 -246 47q-129 0 -189.5 -47t-60.5 -128q0 -31 13 -70t56 -105l294 -443q38 33 60.5 82t22.5 97q0 71 -44.5 151.5t-163.5 191.5l11 70h394
l-14 -90h-247q160 -162 160 -312q0 -73 -34 -143t-94 -121l98 -146l-85 -58l-98 147q-99 -52 -228 -52q-163 0 -261 75.5t-98 202.5zM439 75q93 0 161 35l-262 397q-166 -95 -166 -234q0 -90 71 -144t196 -54z" />
    <glyph glyph-name="aogonek.salt" horiz-adv-x="913" 
d="M347 -313q0 81 66.5 165t196.5 162h-1l9 96q-166 -130 -315 -130q-113 0 -178.5 60t-65.5 165q0 149 103 236.5t264 87.5h243l24 160q34 228 -189 228q-133 0 -274 -46v93q152 52 297 52q303 0 276 -297l-12 -94l-94 -625q-246 -138 -246 -283q0 -44 27.5 -68.5
t71.5 -24.5q56 0 111 20l4 -85q-70 -28 -143 -28q-74 0 -124.5 40.5t-50.5 115.5zM330 71q127 0 288 120l38 255h-238q-119 0 -185.5 -58.5t-66.5 -164.5q0 -71 44.5 -111.5t119.5 -40.5z" />
    <glyph glyph-name="aogonek.sc" horiz-adv-x="1013" 
d="M899 0q-247 -139 -247 -283q0 -44 28 -68.5t72 -24.5q57 0 110 20l5 -85q-72 -28 -143 -28q-74 0 -124.5 40.5t-50.5 115.5q0 79 63.5 160.5t189.5 159.5l-32 58l-45 209h-466l-141 -274h-114l531 1036h142zM590 930l-290 -567h410z" />
    <glyph glyph-name="approxequal.tnum" 
d="M314 737l-49 53q46 54 109.5 92t135.5 38q61 0 137.5 -37t103.5 -42t45 -5q76 0 175 87l49 -55q-46 -53 -109.5 -90.5t-134.5 -37.5q-62 0 -139 37t-104 42t-45 5q-72 0 -174 -87zM289 437l-49 55q47 53 109.5 90.5t134.5 37.5q59 0 133 -37t100 -42t43 -5q35 0 77.5 18
t105.5 69l48 -53q-48 -54 -112.5 -92t-139.5 -38q-59 0 -133 37t-99.5 42t-42.5 5q-78 0 -175 -87z" />
    <glyph glyph-name="approxequal.aalt" horiz-adv-x="1079" 
d="M225 710q46 54 109 92t135 38q8 0 30.5 -2t43.5 -9t93.5 -40t119.5 -33q76 0 175 87l49 -54q-47 -54 -110 -91.5t-134 -37.5q-62 0 -139 37t-104 42t-45 5q-75 0 -174 -87zM199 412q47 54 110 91.5t135 37.5q59 0 132.5 -37.5t99.5 -42.5t43 -5q36 0 78.5 18t105.5 69
l48 -53q-48 -54 -113 -92t-140 -38q-58 0 -132 37t-100 42t-43 5q-77 0 -174 -87z" />
    <glyph glyph-name="approxequal.aalt.tnum" 
d="M302 657l-49 53q47 54 109.5 92t134.5 38q62 0 138.5 -37t103.5 -42t45 -5q76 0 175 87l49 -54q-47 -54 -110 -91.5t-134 -37.5q-62 0 -138.5 37t-103.5 42t-45 5q-76 0 -175 -87zM277 357l-49 55q46 53 109 91t135 38q59 0 133 -37.5t100 -42.5t43 -5q35 0 77.5 18
t105.5 69l48 -53q-48 -54 -112.5 -92t-139.5 -38q-59 0 -133 37t-99.5 42t-42.5 5q-78 0 -175 -87z" />
    <glyph glyph-name="aring.salt" horiz-adv-x="917" 
d="M369 1283q0 93 70.5 160t166.5 67q75 0 124.5 -49.5t49.5 -122.5q0 -94 -70.5 -160.5t-168.5 -66.5q-74 0 -123 49.5t-49 122.5zM457 1295q0 -43 27.5 -73t69.5 -30q58 0 98 40t40 96q0 43 -28 72.5t-70 29.5q-56 0 -96.5 -40.5t-40.5 -94.5zM59 205q0 149 103 236.5
t264 87.5h243l24 160q34 228 -189 228q-133 0 -274 -46v93q152 52 297 52q322 0 272 -336l-102 -680h-89l10 110q-166 -130 -315 -130q-113 0 -178.5 60t-65.5 165zM330 71q127 0 288 120l38 255h-238q-119 0 -185.5 -58.5t-66.5 -164.5q0 -71 44.5 -111.5t119.5 -40.5z" />
    <glyph glyph-name="aring.sc" horiz-adv-x="1013" 
d="M899 0h-115l-59 274h-466l-141 -274h-114l531 1036h142zM590 930l-290 -567h410zM444 1295q0 88 69 151.5t165 63.5q75 0 124 -47t49 -117q0 -89 -69 -152t-166 -63q-74 0 -123 47t-49 117zM533 1307q0 -40 27 -68.5t68 -28.5q57 0 96 37t39 89q0 40 -27 68t-69 28
q-56 0 -95 -37.5t-39 -87.5z" />
    <glyph glyph-name="aringacute.salt" horiz-adv-x="913" 
d="M59 205q0 149 103 236.5t264 87.5h243l24 160q34 228 -189 228q-133 0 -274 -46v93q152 52 297 52q322 0 272 -336l-102 -680h-89l10 110q-166 -130 -315 -130q-113 0 -178.5 60t-65.5 165zM330 71q127 0 288 120l38 255h-238q-119 0 -185.5 -58.5t-66.5 -164.5
q0 -71 44.5 -111.5t119.5 -40.5zM378 1252q0 85 66 147t159 62q69 0 115 -45.5t46 -111.5q0 -86 -66 -147.5t-160 -61.5q-69 0 -114.5 45.5t-45.5 111.5zM463 1263q0 -38 24.5 -64t63.5 -26q56 0 92.5 36t36.5 86q0 37 -25 62.5t-64 25.5q-55 0 -91.5 -35.5t-36.5 -84.5z
M545 1516l-49 52l239 214l67 -64z" />
    <glyph glyph-name="aringacute.sc" horiz-adv-x="1013" 
d="M899 0h-115l-59 274h-466l-141 -274h-114l531 1036h142zM590 930l-290 -567h410zM619 1522l-48 52l232 208l66 -64zM451 1268q0 81 67 140t155 59q69 0 116.5 -44.5t47.5 -109.5q0 -81 -67.5 -140t-155.5 -59q-69 0 -116 44t-47 110zM538 1278q0 -35 25 -60t63 -25
q52 0 88 33t36 78q0 36 -25.5 60.5t-63.5 24.5q-51 0 -87 -33t-36 -78z" />
    <glyph glyph-name="atilde.salt" horiz-adv-x="909" 
d="M471 1368q30 0 52.5 -10.5t72 -43.5t79.5 -33q27 0 57 18t75 68l55 -44q-99 -138 -203 -138q-46 0 -101.5 38.5t-73 44t-29.5 5.5q-59 0 -132 -86l-55 44q99 137 203 137zM59 205q0 149 103 236.5t264 87.5h243l24 160q34 228 -189 228q-133 0 -274 -46v93q152 52 297 52
q322 0 272 -336l-102 -680h-89l10 110q-166 -130 -315 -130q-113 0 -178.5 60t-65.5 165zM330 71q127 0 288 120l38 255h-238q-119 0 -185.5 -58.5t-66.5 -164.5q0 -71 44.5 -111.5t119.5 -40.5z" />
    <glyph glyph-name="atilde.sc" horiz-adv-x="1012" 
d="M899 0h-115l-59 274h-466l-141 -274h-114l531 1036h142zM590 930l-290 -567h410zM551 1368q43 0 106 -37.5t94 -37.5q60 0 128 74l54 -46q-93 -123 -199 -123q-43 0 -106 37.5t-93 37.5q-28 0 -57 -15t-72 -59l-54 45q95 124 199 124z" />
    <glyph glyph-name="b.sc" horiz-adv-x="944" 
d="M465 0h-356l155 1036h349q134 0 203.5 -59t69.5 -165q0 -200 -200 -272q80 -25 125.5 -85.5t45.5 -140.5q0 -88 -45.5 -156.5t-134 -113t-212.5 -44.5zM751 317q0 83 -61 131t-167 48h-232l-62 -407h241q124 0 202.5 61.5t78.5 166.5zM303 579h238q114 0 175 58t61 158
q0 73 -46.5 112.5t-138.5 39.5h-234z" />
    <glyph glyph-name="braceleft.sc" horiz-adv-x="686" 
d="M377 267l-71 -480q-12 -78 23.5 -126t102.5 -48h95l-14 -96h-95q-113 0 -175 73t-45 184l75 501q7 44 -4 92t-48 76.5t-91 28.5h-21l15 95h20q44 0 84 19t74 63.5t44 106.5l82 533q15 101 99.5 166.5t190.5 65.5h95l-15 -96h-95q-66 0 -116.5 -46.5t-60.5 -119.5
l-79 -515q-13 -86 -61.5 -145t-120.5 -80q72 -21 100 -86t12 -166z" />
    <glyph glyph-name="braceright.sc" horiz-adv-x="687" 
d="M354 772l72 479q11 79 -24.5 127t-102.5 48h-95l15 96h94q113 0 175.5 -73t45.5 -184l-76 -501q-6 -45 3.5 -87.5t43 -76t97.5 -33.5h20l-14 -95h-21q-43 0 -82.5 -19t-73.5 -64t-44 -107l-83 -532q-16 -101 -100 -166.5t-190 -65.5h-94l14 96h94q67 0 117 46.5t61 118.5
l79 515q13 87 61.5 146t120.5 80q-71 21 -99 86t-14 166z" />
    <glyph glyph-name="bracketleft.sc" horiz-adv-x="564" 
d="M391 -392l-14 -92h-333l299 2004h334l-14 -92h-226l-272 -1820h226z" />
    <glyph glyph-name="bracketright.sc" horiz-adv-x="564" 
d="M218 1429l14 92h333l-299 -2004h-334l14 92h226l272 1820h-226z" />
    <glyph glyph-name="glyph211" horiz-adv-x="722" 
d="M279 1399h94q-5 -60 27 -98t95 -38t106.5 38.5t54.5 97.5h95q-15 -99 -90 -162.5t-180 -63.5t-160.5 63.5t-41.5 162.5z" />
    <glyph glyph-name="c.sc" horiz-adv-x="852" 
d="M725 118l7 -88q-127 -50 -287 -50q-57 0 -118.5 15.5t-113.5 54.5t-83 105t-17 160l60 401q14 97 70.5 171.5t150 121.5t212.5 47q56 0 125.5 -12t125.5 -41l-39 -88q-101 45 -224 45q-121 0 -209 -68.5t-106 -183.5l-57 -386q-13 -84 21 -139t92 -81t134 -26
q143 0 256 42z" />
    <glyph glyph-name="glyph216" horiz-adv-x="1883" 
d="M275 615l-35 -236q-21 -138 40 -219t190 -81q46 0 110 8t111 22v-94q-37 -12 -104 -23.5t-134 -11.5q-170 0 -259.5 105t-62.5 285l38 256q27 177 148 283.5t286 106.5h10q-62 65 -62 160q0 88 49.5 155.5t130.5 104t190 36.5h350l-89 -591q75 59 162 97t169 38
q144 0 220.5 -106t50.5 -283l-39 -258q-26 -178 -151 -283.5t-304 -105.5q-102 0 -190 22t-146 57l198 1324h-200q-295 0 -295 -206q0 -73 54 -127.5t118 -74.5l-35 -93q-105 35 -203 35q-128 0 -212 -82t-104 -220zM1476 917q-73 0 -160 -40t-147 -99l-98 -656
q113 -45 236 -45q137 0 224 81.5t108 218.5l36 242q21 139 -28.5 218.5t-170.5 79.5z" />
    <glyph glyph-name="glyph217" horiz-adv-x="1796" 
d="M725 118l7 -88q-127 -50 -287 -50q-57 0 -118.5 15.5t-113.5 54.5t-83 105t-17 160l60 401q14 97 70.5 171.5t150 121.5t212.5 47q56 0 125.5 -12t125.5 -41l-39 -88q-101 45 -224 45q-121 0 -209 -68.5t-106 -183.5l-57 -386q-11 -70 13 -124t82.5 -88t151.5 -34
q143 0 256 42zM1317 0h-355l155 1036h349q134 0 203.5 -59t69.5 -165q0 -86 -45 -159t-155 -113q80 -25 126 -85.5t46 -140.5q0 -88 -46 -156.5t-134.5 -113t-213.5 -44.5zM1604 317q0 83 -61 131t-167 48h-233l-60 -407h239q124 0 203 61.5t79 166.5zM1156 579h238
q114 0 175 58t61 158q0 73 -46.5 112.5t-138.5 39.5h-234z" />
    <glyph glyph-name="glyph218" horiz-adv-x="1896" 
d="M275 615l-35 -236q-21 -138 40 -219t190 -81q46 0 110 8t111 22v-94q-37 -12 -104 -23.5t-134 -11.5q-170 0 -259.5 105t-62.5 285l38 256q24 159 124 261.5t243 118.5q32 6 79 8q-64 66 -64 162q0 88 49.5 155.5t130.5 104t190 36.5h350l-90 -598q98 66 199 104t186 38
q122 0 178 -70t36 -201l-111 -745h-107l107 722q29 192 -143 192q-73 0 -168.5 -35.5t-188.5 -100.5l-117 -778h-107l207 1383h-236q-127 0 -193 -55.5t-66 -150.5q0 -73 54 -127.5t118 -74.5l-35 -93q-105 35 -203 35q-128 0 -212 -82t-104 -220z" />
    <glyph glyph-name="glyph219" horiz-adv-x="1941" 
d="M725 118l7 -88q-127 -50 -287 -50q-57 0 -118.5 15.5t-113.5 54.5t-83 105t-17 160l60 401q14 97 70.5 171.5t150 121.5t212.5 47q56 0 125.5 -12t125.5 -41l-39 -88q-101 45 -224 45q-121 0 -209 -68.5t-106 -183.5l-57 -386q-13 -84 21 -139t92 -81t134 -26
q143 0 256 42zM1722 0h-110l72 476h-542l-71 -476h-109l155 1036h108l-69 -466h542l69 466h109z" />
    <glyph glyph-name="glyph220" horiz-adv-x="1776" 
d="M1273 1472l-5 -28l-132 -888h160l364 440h125l-410 -485l155 -374q16 -36 32.5 -51.5t46.5 -15.5q46 0 88 12l-3 -82q-51 -20 -112 -20q-50 0 -85 19.5t-65 92.5l-154 376h-155l-71 -468h-107l207 1383h-236q-127 0 -193 -55.5t-66 -150.5q0 -73 54 -127.5t118 -74.5
l-35 -93q-105 35 -203 35q-128 0 -212 -82t-104 -220l-35 -236q-21 -138 40 -219t190 -81q46 0 110 8t111 22v-94q-37 -12 -104 -23.5t-134 -11.5q-170 0 -259.5 105t-62.5 285l38 256q24 162 126.5 265t248.5 117l71 6q-64 66 -64 162q0 88 49.5 155.5t130.5 104t190 36.5
h352z" />
    <glyph glyph-name="glyph221" horiz-adv-x="1772" 
d="M725 118l7 -88q-127 -50 -287 -50q-57 0 -118.5 15.5t-113.5 54.5t-83 105t-17 160l60 401q14 97 70.5 171.5t150 121.5t212.5 47q56 0 125.5 -12t125.5 -41l-39 -88q-101 45 -224 45q-121 0 -209 -68.5t-106 -183.5l-57 -386q-13 -84 21 -139t92 -81t134 -26
q143 0 256 42zM1693 1036h122l-412 -524l273 -512h-128l-247 471h-160l-70 -471h-109l155 1036h108l-71 -473h170z" />
    <glyph glyph-name="glyph222" horiz-adv-x="1325" 
d="M275 615l-35 -236q-21 -138 40 -219t190 -81q46 0 110 8t111 22v-94q-37 -12 -104 -23.5t-134 -11.5q-170 0 -259.5 105t-62.5 285l38 256q24 159 124 261.5t243 118.5q32 6 79 8q-64 66 -64 162q0 134 106 215t310 81h306l-5 -28l-188 -1260q-8 -55 12.5 -83.5
t63.5 -28.5q49 0 99 15l-6 -85q-60 -22 -132 -22q-85 0 -122.5 49.5t-22.5 146.5l180 1207h-236q-127 0 -193 -55.5t-66 -150.5q0 -73 54 -127.5t118 -74.5l-35 -93q-105 35 -203 35q-128 0 -212 -82t-104 -220z" />
    <glyph glyph-name="glyph223" horiz-adv-x="1659" 
d="M725 118l7 -88q-127 -50 -287 -50q-57 0 -118.5 15.5t-113.5 54.5t-83 105t-17 160l60 401q14 97 70.5 171.5t150 121.5t212.5 47q56 0 125.5 -12t125.5 -41l-39 -88q-101 45 -224 45q-121 0 -209 -68.5t-106 -183.5l-57 -386q-13 -84 21 -139t92 -81t134 -26
q143 0 256 42zM1225 1036l-140 -942h490l-14 -94h-599l155 1036h108z" />
    <glyph glyph-name="glyph224" horiz-adv-x="1468" 
d="M275 615l-35 -236q-21 -138 40 -219t190 -81q46 0 110 8t111 22v-94q-37 -12 -104 -23.5t-134 -11.5q-170 0 -259.5 105t-62.5 285l38 256q24 162 126.5 265t248.5 117l71 6q-65 65 -65 162q0 88 49.5 155.5t131 104t190.5 36.5h372l-71 -476h269l-13 -89h-268l-99 -658
q-26 -172 131 -172q62 0 136 16l-1 -92q-78 -21 -162 -21q-101 0 -159 52t-58 156q0 4 0.5 18t6.5 77.5t47 315t49 308.5h-169l13 89h172l57 387h-259q-127 0 -193.5 -56t-66.5 -152q0 -124 174 -200l-35 -93q-105 35 -203 35q-128 0 -212 -82t-104 -220z" />
    <glyph glyph-name="glyph225" horiz-adv-x="1680" 
d="M725 118l7 -88q-127 -50 -287 -50q-57 0 -118.5 15.5t-113.5 54.5t-83 105t-17 160l60 401q14 97 70.5 171.5t150 121.5t212.5 47q56 0 125.5 -12t125.5 -41l-39 -88q-101 45 -224 45q-121 0 -209 -68.5t-106 -183.5l-57 -386q-13 -84 21 -139t92 -81t134 -26
q143 0 256 42zM1157 0l141 944h-335l13 92h780l-14 -92h-335l-140 -944h-110z" />
    <glyph glyph-name="cacute.sc" horiz-adv-x="852" 
d="M725 118l7 -88q-127 -50 -287 -50q-57 0 -118.5 15.5t-113.5 54.5t-83 105t-17 160l60 401q14 97 70.5 171.5t150 121.5t212.5 47q56 0 125.5 -12t125.5 -41l-39 -88q-101 45 -224 45q-121 0 -209 -68.5t-106 -183.5l-57 -386q-13 -84 21 -139t92 -81t134 -26
q143 0 256 42zM516 1141l-45 63l309 249l59 -78z" />
    <glyph glyph-name="glyph229" horiz-adv-x="778" 
d="M477 1151l-182 249l94 34l132 -183l186 183l85 -34l-257 -249h-58z" />
    <glyph glyph-name="ccaron.sc" horiz-adv-x="852" 
d="M725 118l7 -88q-127 -50 -287 -50q-57 0 -118.5 15.5t-113.5 54.5t-83 105t-17 160l60 401q14 97 70.5 171.5t150 121.5t212.5 47q56 0 125.5 -12t125.5 -41l-39 -88q-101 45 -224 45q-121 0 -209 -68.5t-106 -183.5l-57 -386q-11 -70 13 -124t82.5 -88t151.5 -34
q143 0 256 42zM579 1151l-182 249l94 34l132 -183l186 183l84 -34l-256 -249h-58z" />
    <glyph glyph-name="ccedilla.sc" horiz-adv-x="852" 
d="M725 118l7 -88q-127 -50 -287 -50l-19 1l-46 -120q79 -2 123 -36.5t44 -97.5q0 -92 -73 -143.5t-184 -51.5q-72 0 -122 16l29 82q41 -13 99 -13q117 0 140 78q10 27 6 50q-9 56 -114 56h-58l78 189q-122 26 -188 112t-47 213l60 401q14 97 70.5 171.5t150 121.5t212.5 47
q56 0 125.5 -12t125.5 -41l-39 -88q-101 45 -224 45q-121 0 -209 -68.5t-106 -183.5l-57 -386q-11 -70 13 -124t82.5 -88t151.5 -34q143 0 256 42z" />
    <glyph glyph-name="ccircumflex.sc" horiz-adv-x="852" 
d="M725 118l7 -88q-127 -50 -287 -50q-57 0 -118.5 15.5t-113.5 54.5t-83 105t-17 160l60 401q14 97 70.5 171.5t150 121.5t212.5 47q56 0 125.5 -12t125.5 -41l-39 -88q-101 45 -224 45q-121 0 -209 -68.5t-106 -183.5l-57 -386q-11 -70 13 -124t82.5 -88t151.5 -34
q143 0 256 42zM673 1439l179 -249l-96 -34l-126 183l-183 -183l-84 34l252 249h58z" />
    <glyph glyph-name="cdotaccent.sc" horiz-adv-x="852" 
d="M725 118l7 -88q-127 -50 -287 -50q-57 0 -118.5 15.5t-113.5 54.5t-83 105t-17 160l60 401q14 97 70.5 171.5t150 121.5t212.5 47q56 0 125.5 -12t125.5 -41l-39 -88q-101 45 -224 45q-121 0 -209 -68.5t-106 -183.5l-57 -386q-13 -84 21 -139t92 -81t134 -26
q143 0 256 42zM550 1266q0 39 24.5 63.5t63.5 24.5q30 0 47.5 -17t17.5 -46q0 -40 -24 -64t-64 -24q-30 0 -47.5 17t-17.5 46z" />
    <glyph glyph-name="cent.tnum" 
d="M898 278l8 -88q-107 -42 -235 -49l-36 -261h-106l42 262q-104 10 -172.5 58t-97 118t-15.5 157l60 401q22 145 131.5 235.5t259.5 102.5l36 260h106l-43 -261q113 -10 194 -50l-39 -88q-101 45 -224 45q-121 0 -209 -68.5t-105 -183.5l-58 -386q-17 -113 52.5 -179.5
t195.5 -66.5q142 0 255 42z" />
    <glyph glyph-name="cent.aalt" horiz-adv-x="977" 
d="M792 208l7 -88q-106 -42 -234 -49l-36 -261h-106l42 262q-104 10 -172.5 58t-97 118t-15.5 157l60 401q22 145 131.5 235.5t259.5 102.5l35 260h107l-43 -261q113 -10 194 -50l-39 -88q-101 45 -224 45q-121 0 -209 -68.5t-105 -183.5l-58 -386q-17 -113 52.5 -179.5
t195.5 -66.5q142 0 255 42z" />
    <glyph glyph-name="cent.aalt.tnum" 
d="M876 208l8 -88q-105 -42 -235 -49l-36 -261h-106l43 262q-143 13 -224.5 103t-61.5 230l60 401q14 90 64.5 161.5t133.5 119.5t193 57l36 260h105l-42 -261q112 -9 195 -50l-40 -88q-101 45 -224 45q-121 0 -209 -68.5t-105 -183.5l-58 -386q-17 -113 52.5 -179.5
t195.5 -66.5q144 0 255 42z" />
    <glyph glyph-name="glyph244" horiz-adv-x="770" 
d="M574 1439l178 -249l-94 -34l-128 183l-182 -183l-85 34l253 249h58z" />
    <glyph glyph-name="currency.tnum" 
d="M126 162l-61 63l211 199q-55 98 -36 233l7 42q19 132 104 232l-151 198l80 64l158 -189q112 84 252 84q137 0 227 -84l214 189l61 -64l-211 -199q55 -100 36 -231l-7 -42q-21 -134 -105 -233l152 -199l-80 -63l-159 189q-114 -83 -251 -83q-138 0 -226 83zM353 692
l-4 -28q-19 -130 46 -215t186 -85q122 0 212.5 85t109.5 215l5 28q19 130 -46.5 215t-185.5 85q-121 0 -212 -85t-111 -215z" />
    <glyph glyph-name="currency.aalt" horiz-adv-x="1267" 
d="M152 81l-60 64l213 200q-58 102 -37 237l7 47q21 134 106 234l-152 200l80 64l159 -190q119 86 263 86q143 0 237 -86l216 190l62 -64l-214 -200q58 -101 37 -234l-7 -47q-21 -136 -108 -236l154 -201l-80 -64l-160 191q-121 -85 -262 -85t-235 84zM382 621l-5 -31
q-20 -134 48.5 -220t195.5 -86t221 86t114 220l5 31q19 133 -49.5 219.5t-194.5 86.5q-127 0 -221.5 -86.5t-113.5 -219.5z" />
    <glyph glyph-name="currency.aalt.tnum" 
d="M115 89l-61 64l211 198q-56 99 -35 233l6 43q21 134 104 230l-151 198l80 65l158 -188q114 84 251 84q138 0 228 -85l214 189l61 -65l-211 -199q56 -96 35 -229l-6 -43q-19 -131 -106 -233l154 -198l-81 -64l-158 189q-116 -83 -252 -83q-137 0 -226 83zM342 619l-4 -27
q-19 -130 46.5 -215t186.5 -85t211.5 85t110.5 215l4 27q19 130 -46.5 215t-186.5 85t-212 -85t-110 -215z" />
    <glyph glyph-name="d.sc" horiz-adv-x="1017" 
d="M109 0l155 1036h336q60 0 123.5 -15t123.5 -57.5t83.5 -110t13.5 -138.5l-59 -395q-14 -93 -70 -163t-150.5 -113.5t-219.5 -43.5h-336zM777 325l57 379q16 108 -53 175t-200 67h-222l-128 -857h222q132 0 220 63.5t104 172.5z" />
    <glyph glyph-name="dagger.sc" horiz-adv-x="1006" 
d="M605 1420h108l-74 -486l408 4l-15 -99l-407 3l-185 -1225h-100l180 1225l-405 -3l15 99l404 -4z" />
    <glyph glyph-name="daggerdbl.sc" horiz-adv-x="1048" 
d="M628 1421h106l-71 -471l411 3l-15 -99l-410 4l-101 -679l411 4l-15 -100l-410 4l-70 -470h-106l70 470l-409 -4l15 100l408 -4l101 679l-409 -4l14 99l409 -3z" />
    <glyph glyph-name="dcaron.sc" horiz-adv-x="1017" 
d="M109 0l155 1036h336q60 0 123.5 -15t123.5 -57.5t83.5 -110t13.5 -138.5l-59 -395q-14 -93 -70 -163t-150.5 -113.5t-219.5 -43.5h-336zM777 325l57 379q16 108 -53 175t-200 67h-222l-128 -857h222q132 0 220 63.5t104 172.5zM567 1138l-192 262l95 34l141 -195l199 195
l85 -34l-270 -262h-58z" />
    <glyph glyph-name="dcroat.sc" horiz-adv-x="1042" 
d="M73 461l14 92h130l73 483h335q60 0 123.5 -15t123.5 -57.5t83.5 -110t13.5 -138.5l-59 -395q-14 -93 -70 -163t-150.5 -113.5t-219.5 -43.5h-335l69 461h-131zM858 704q17 108 -52 175t-200 67h-222l-59 -393h279l-14 -92h-278l-56 -372h222q132 0 220 63.5t104 172.5z
" />
    <glyph glyph-name="degree.aalt" horiz-adv-x="751" 
d="M152 869l8 49q10 68 49 137.5t119 114.5t174 45q93 0 154 -41t86.5 -106t12.5 -150l-7 -49q-13 -85 -58 -150t-118 -106t-166 -41q-128 0 -201 80.5t-53 216.5zM261 912l-6 -37q-15 -97 31.5 -153.5t132.5 -56.5q87 0 150.5 56.5t77.5 153.5l6 37q14 97 -32 154t-133 57
t-150 -57t-77 -154z" />
    <glyph glyph-name="glyph266" horiz-adv-x="730" 
d="M591 1266q0 39 24 63.5t63 24.5q30 0 47.5 -17t17.5 -46q0 -40 -24 -64t-63 -24q-31 0 -48 16.5t-17 46.5zM260 1266q0 39 24 63.5t63 24.5q30 0 47.5 -17t17.5 -46q0 -40 -24 -64t-63 -24q-31 0 -48 16.5t-17 46.5z" />
    <glyph glyph-name="divide.tnum" 
d="M596 965q0 40 24 64.5t64 24.5q30 0 47.5 -17t17.5 -47q0 -39 -24.5 -63t-63.5 -24q-30 0 -47.5 16.5t-17.5 45.5zM275 724h719l-14 -95h-719zM506 363q0 39 24.5 63.5t63.5 24.5q30 0 47 -16.5t17 -46.5q0 -39 -24 -63.5t-63 -24.5q-30 0 -47.5 17t-17.5 46z" />
    <glyph glyph-name="divide.aalt" horiz-adv-x="1062" 
d="M536 888q0 39 24.5 63.5t62.5 24.5q31 0 48 -17t17 -46q0 -40 -24 -64t-63 -24q-30 0 -47.5 17t-17.5 46zM216 647h718l-14 -95h-719zM446 286q0 39 24 63t63 24q31 0 48 -16.5t17 -45.5q0 -40 -24.5 -64.5t-62.5 -23.5q-31 0 -48 16.5t-17 46.5z" />
    <glyph glyph-name="divide.aalt.tnum" 
d="M584 888q0 39 24.5 63.5t63.5 24.5q30 0 47.5 -17t17.5 -46q0 -40 -24.5 -64t-63.5 -24q-30 0 -47.5 17t-17.5 46zM264 647h718l-14 -95h-718zM494 286q0 39 24.5 63t63.5 24q30 0 47.5 -16.5t17.5 -45.5q0 -40 -24.5 -64.5t-63.5 -23.5q-30 0 -47.5 17t-17.5 46z" />
    <glyph glyph-name="dollar.tnum" 
d="M709 1534h105l-44 -270q126 -7 250 -50l-35 -94q-128 47 -271 47q-136 0 -214.5 -61t-78.5 -183q0 -135 137 -172l170 -47q100 -28 159.5 -87.5t59.5 -169.5q0 -162 -100.5 -253.5t-281.5 -103.5l-37 -270h-107l44 269q-157 6 -281 59l37 91q146 -53 296 -53
q154 0 237 57t83 186q0 69 -42.5 113t-138.5 71l-171 49q-171 49 -171 247q0 92 40 165.5t119.5 125t197.5 62.5z" />
    <glyph glyph-name="dollar.aalt" horiz-adv-x="1020" 
d="M623 1465h106l-43 -271q124 -5 250 -49l-36 -94q-134 47 -271 47q-136 0 -214.5 -61t-78.5 -184q0 -133 138 -171l170 -48q99 -28 158 -87t59 -169q0 -162 -100.5 -254t-281.5 -103l-37 -270h-105l44 269q-154 6 -282 58l37 92q149 -54 295 -54q155 0 238.5 57t83.5 186
q0 61 -37 107t-144 78l-171 48q-78 22 -125.5 82t-47.5 165q0 149 99.5 244t258.5 109z" />
    <glyph glyph-name="dollar.aalt.tnum" 
d="M698 1465h106l-44 -271q126 -6 250 -49l-35 -94q-136 47 -272 47q-135 0 -213.5 -61t-78.5 -184q0 -134 137 -171l170 -48q100 -28 159 -87t59 -169q0 -162 -100.5 -254t-281.5 -103l-37 -270h-106l44 269q-153 6 -281 58l37 92q146 -54 295 -54q154 0 237.5 57t83.5 186
q0 69 -42.5 113t-138.5 72l-171 48q-172 49 -172 247q0 149 99 244t259 109z" />
    <glyph glyph-name="glyph276" horiz-adv-x="399" 
d="M260 1266q0 39 24 63.5t63 24.5q30 0 47.5 -17t17.5 -46q0 -40 -24 -64t-63 -24q-31 0 -48 16.5t-17 46.5z" />
    <glyph glyph-name="e.sc" horiz-adv-x="854" 
d="M109 0l155 1036h615l-15 -93h-505l-56 -375h488l-12 -89h-490l-57 -386h523l-14 -93h-632z" />
    <glyph glyph-name="eacute.sc" horiz-adv-x="854" 
d="M109 0l155 1036h615l-15 -93h-505l-56 -375h488l-12 -89h-490l-57 -386h523l-14 -93h-632zM509 1141l-45 63l310 249l59 -78z" />
    <glyph glyph-name="ebreve.sc" horiz-adv-x="854" 
d="M109 0l155 1036h615l-15 -93h-505l-56 -375h488l-12 -89h-490l-57 -386h523l-14 -93h-632zM381 1399h95q-6 -60 25.5 -98t94.5 -38t106.5 38t55.5 98h95q-15 -99 -90 -162.5t-180 -63.5t-161 63.5t-41 162.5z" />
    <glyph glyph-name="ecaron.sc" horiz-adv-x="854" 
d="M109 0l155 1036h615l-15 -93h-505l-56 -375h488l-12 -89h-490l-57 -386h523l-14 -93h-632zM572 1151l-182 249l95 34l131 -183l187 183l85 -34l-258 -249h-58z" />
    <glyph glyph-name="ecircumflex.sc" horiz-adv-x="854" 
d="M109 0l155 1036h615l-15 -93h-505l-56 -375h488l-12 -89h-490l-57 -386h523l-14 -93h-632zM665 1439l178 -249l-95 -34l-128 183l-181 -183l-85 34l252 249h59z" />
    <glyph glyph-name="edieresis.sc" horiz-adv-x="854" 
d="M109 0l155 1036h615l-15 -93h-505l-56 -375h488l-12 -89h-490l-57 -386h523l-14 -93h-632zM691 1266q0 39 24 63.5t63 24.5q30 0 47.5 -17t17.5 -46q0 -40 -24.5 -64t-63.5 -24q-30 0 -47 16.5t-17 46.5zM360 1266q0 39 24.5 63.5t62.5 24.5q30 0 47.5 -17t17.5 -46
q0 -40 -24 -64t-64 -24q-30 0 -47 16.5t-17 46.5z" />
    <glyph glyph-name="edotaccent.sc" horiz-adv-x="854" 
d="M109 0l155 1036h615l-15 -93h-505l-56 -375h488l-12 -89h-490l-57 -386h523l-14 -93h-632zM533 1266q0 39 24 63.5t63 24.5q31 0 48 -17t17 -46q0 -40 -24 -64t-63 -24q-31 0 -48 16.5t-17 46.5z" />
    <glyph glyph-name="uni1EB9.sc" horiz-adv-x="854" 
d="M109 0l155 1036h615l-15 -93h-505l-56 -375h488l-12 -89h-490l-57 -386h523l-14 -93h-632zM322 -296q0 39 24.5 63.5t62.5 24.5q31 0 48 -16.5t17 -46.5q0 -39 -24 -63.5t-63 -24.5q-30 0 -47.5 17t-17.5 46z" />
    <glyph glyph-name="egrave.sc" horiz-adv-x="854" 
d="M109 0l155 1036h615l-15 -93h-505l-56 -375h488l-12 -89h-490l-57 -386h523l-14 -93h-632zM720 1204l-63 -63l-254 234l83 78z" />
    <glyph glyph-name="eight.tnum" 
d="M991 354q0 -62 -23 -127t-78.5 -119.5t-147 -91t-218.5 -36.5q-171 0 -270.5 76.5t-99.5 207.5q0 144 92.5 246t270.5 180q-103 52 -163.5 122.5t-60.5 175.5q0 83 33 154.5t92.5 123.5t140.5 80t173 28q154 0 246 -81t92 -213q0 -140 -82.5 -228t-244.5 -158
q248 -129 248 -340zM538 74q108 0 184.5 38t116 99t39.5 141q0 179 -257 294q-166 -62 -258.5 -155.5t-92.5 -208.5q0 -97 73.5 -152.5t194.5 -55.5zM960 1069q0 100 -68.5 153.5t-174.5 53.5q-78 0 -154 -30.5t-118.5 -97t-42.5 -149.5q0 -77 55.5 -139.5t181.5 -119.5
q158 60 239.5 139t81.5 190z" />
    <glyph glyph-name="uniF738.tnum" 
d="M991 354q0 -62 -23 -127t-78.5 -119.5t-147 -91t-218.5 -36.5q-171 0 -270.5 76.5t-99.5 207.5q0 144 92.5 246t270.5 180q-103 52 -163.5 122.5t-60.5 175.5q0 83 33 154.5t92.5 123.5t140.5 80t173 28q154 0 246 -81t92 -213q0 -140 -82.5 -228t-244.5 -158
q248 -129 248 -340zM538 74q108 0 184.5 38t116 99t39.5 141q0 179 -257 294q-166 -62 -258.5 -155.5t-92.5 -208.5q0 -97 73.5 -152.5t194.5 -55.5zM960 1069q0 100 -68.5 153.5t-174.5 53.5q-78 0 -154 -30.5t-118.5 -97t-42.5 -149.5q0 -77 55.5 -139.5t181.5 -119.5
q158 60 239.5 139t81.5 190z" />
    <glyph glyph-name="emacron.sc" horiz-adv-x="854" 
d="M109 0l155 1036h615l-15 -93h-505l-56 -375h488l-12 -89h-490l-57 -386h523l-14 -93h-632zM334 1232l14 91h503l-14 -91h-503z" />
    <glyph glyph-name="eng.sc" horiz-adv-x="1104" 
d="M505 -391q106 64 164.5 132.5t83.5 164.5q19 43 26 90l-432 872l-130 -868h-108l155 1036h114l425 -868l129 868h108l-156 -1041v-1q-25 -169 -102.5 -272t-239.5 -190z" />
    <glyph glyph-name="eogonek.sc" horiz-adv-x="854" 
d="M109 0l155 1036h615l-15 -93h-505l-56 -375h488l-12 -89h-490l-57 -386h523l-14 -93q-247 -139 -247 -283q0 -44 28 -68.5t72 -24.5q57 0 110 20l5 -85q-70 -28 -143 -28q-75 0 -125 40.5t-50 115.5q0 160 240 313h-522z" />
    <glyph glyph-name="equal.tnum" 
d="M303 775l14 97h679l-14 -97h-679zM260 489l14 96h680l-15 -96h-679z" />
    <glyph glyph-name="equal.aalt" horiz-adv-x="1027" 
d="M222 695l15 96h679l-14 -96h-680zM180 408l14 96h679l-14 -96h-679z" />
    <glyph glyph-name="equal.aalt.tnum" 
d="M290 695l15 96h680l-14 -96h-681zM248 408l14 96h680l-15 -96h-679z" />
    <glyph glyph-name="estimated.aalt" horiz-adv-x="1630" 
d="M1506 561h-1078q-10 0 -12 -10l-43 -292q-4 -22 10 -39q54 -69 150.5 -114t233.5 -45q121 0 235 41.5t203 118.5h112q-108 -111 -255 -176t-309 -65q-157 0 -290 67t-211.5 194.5t-78.5 283.5q0 172 100 331.5t281.5 259.5t383.5 100q168 0 309.5 -81t214.5 -230.5
t47 -323.5zM1275 648l43 292q4 25 -11 40q-62 77 -161 117t-218 40q-117 0 -229 -38.5t-201 -118.5q-19 -17 -24 -43l-43 -289q-1 -10 8 -10h827q8 0 9 10z" />
    <glyph glyph-name="eth.sc" horiz-adv-x="1042" 
d="M73 461l14 92h130l73 483h335q60 0 123.5 -15t123.5 -57.5t83.5 -110t13.5 -138.5l-59 -395q-14 -93 -70 -163t-150.5 -113.5t-219.5 -43.5h-335l69 461h-131zM858 704q17 108 -52 175t-200 67h-222l-59 -393h279l-14 -92h-278l-56 -372h222q132 0 220 63.5t104 172.5z
" />
    <glyph glyph-name="uni1EBD.sc" horiz-adv-x="854" 
d="M109 0l155 1036h615l-15 -93h-505l-56 -375h488l-12 -89h-490l-57 -386h523l-14 -93h-632zM512 1368q43 0 106 -37.5t94 -37.5q60 0 128 74l54 -46q-93 -123 -198 -123q-43 0 -106.5 37.5t-93.5 37.5q-28 0 -57.5 -15.5t-70.5 -58.5l-54 45q92 124 198 124z" />
    <glyph glyph-name="exclam.sc" horiz-adv-x="437" 
d="M282 1196h123l-146 -865h-91zM96 43q0 39 24 63.5t63 24.5q31 0 48 -17t17 -45q0 -40 -24 -64.5t-63 -24.5q-31 0 -48 17t-17 46z" />
    <glyph glyph-name="exclamdown.sc" horiz-adv-x="437" 
d="M200 -160h-123l146 865h91zM234 967q0 40 24 64.5t63 24.5q30 0 47.5 -17t17.5 -46q0 -40 -24 -64t-63 -24q-31 0 -48 17t-17 45z" />
    <glyph glyph-name="f.sc" horiz-adv-x="834" 
d="M109 0l155 1036h612l-14 -92h-503l-56 -374h487l-14 -92h-487l-71 -478h-109z" />
    <glyph glyph-name="glyph329" horiz-adv-x="1626" 
d="M110 907l13 89h170l15 103q25 167 136.5 266t279.5 99q69 0 145 -14t135 -39l-79 -530q73 59 161 97t170 38q144 0 220.5 -106t50.5 -283l-39 -258q-26 -178 -151.5 -283.5t-303.5 -105.5q-102 0 -190 22t-146 57l192 1283q-95 25 -182 25q-251 0 -292 -274l-15 -97h254
l-14 -89h-253l-202 -1355h-108l203 1355h-170zM1219 917q-73 0 -159.5 -40t-147.5 -99l-98 -656q113 -45 235 -45q138 0 225 81.5t108 218.5l36 242q21 139 -28.5 218.5t-170.5 79.5z" />
    <glyph glyph-name="glyph330" horiz-adv-x="1778" 
d="M109 0l155 1036h612l-14 -92h-503l-56 -374h487l-14 -92h-487l-71 -478h-109zM1298 0h-355l155 1036h348q135 0 204.5 -59t69.5 -165q0 -86 -45 -159t-155 -113q80 -25 125.5 -85.5t45.5 -140.5q0 -52 -20 -106.5t-68 -100.5t-125 -76.5t-180 -30.5zM1585 317
q0 83 -61 131t-167 48h-233l-60 -407h239q124 0 203 61.5t79 166.5zM1137 579h238q114 0 175 58t61 158q0 73 -46.5 112.5t-138.5 39.5h-234z" />
    <glyph glyph-name="uniFB00.sc" horiz-adv-x="1667" 
d="M109 0l155 1036h612l-14 -92h-503l-56 -374h487l-14 -92h-487l-71 -478h-109zM943 0l155 1036h612l-14 -92h-503l-56 -374h487l-14 -92h-486l-72 -478h-109z" />
    <glyph glyph-name="glyph333" horiz-adv-x="2148" 
d="M937 1093l-14 -97h253l-12 -89h-254l-203 -1355h-107l203 1355h-416l-202 -1355h-108l203 1355h-170l13 89h170l24 160q19 129 107.5 208.5t211.5 79.5q85 0 145 -20l-28 -93q-56 16 -121 16q-87 0 -141 -52.5t-68 -149.5l-23 -149h416l15 103q25 167 136.5 266t279.5 99
q151 0 281 -53l-80 -530q75 59 162 97t169 38q145 0 221 -106t49 -283l-38 -258q-27 -178 -152 -283.5t-303 -105.5q-102 0 -190 22t-146 57l192 1283q-95 25 -182 25q-251 0 -293 -274zM1742 917q-73 0 -160 -40t-147 -99l-99 -656q113 -45 236 -45q138 0 225 81.5
t108 218.5l36 242q21 139 -28.5 218.5t-170.5 79.5z" />
    <glyph glyph-name="glyph334" horiz-adv-x="2611" 
d="M109 0l155 1036h612l-14 -92h-503l-56 -374h487l-14 -92h-487l-71 -478h-109zM943 0l155 1036h612l-14 -92h-503l-56 -374h487l-14 -92h-486l-72 -478h-109zM2132 0h-355l155 1036h348q135 0 204.5 -59t69.5 -165q0 -86 -45 -159t-155 -113q80 -25 126 -85.5t46 -140.5
q0 -88 -46 -156.5t-134.5 -113t-213.5 -44.5zM2419 317q0 83 -61 131t-167 48h-233l-60 -407h239q124 0 203 61.5t79 166.5zM1971 579h238q114 0 175 58t61 158q0 73 -46.5 112.5t-138.5 39.5h-234z" />
    <glyph glyph-name="glyph335" horiz-adv-x="2162" 
d="M110 907l13 89h170l24 160q19 129 107.5 208.5t211.5 79.5q85 0 145 -20l-28 -93q-56 16 -121 16q-87 0 -141 -52.5t-68 -149.5l-23 -149h416l15 103q25 167 136.5 266t279.5 99q151 0 281 -53l-81 -537q97 65 198.5 103.5t185.5 38.5q122 0 178.5 -70t36.5 -201
l-111 -745h-108l108 722q29 192 -144 192q-73 0 -168.5 -35.5t-187.5 -100.5l-117 -778h-107l201 1342q-95 25 -182 25q-251 0 -293 -274l-14 -97h253l-12 -89h-254l-203 -1355h-107l203 1355h-416l-202 -1355h-108l203 1355h-170z" />
    <glyph glyph-name="glyph336" horiz-adv-x="2756" 
d="M109 0l155 1036h612l-14 -92h-503l-56 -374h487l-14 -92h-487l-71 -478h-109zM943 0l155 1036h612l-14 -92h-503l-56 -374h487l-14 -92h-486l-72 -478h-109zM2536 0h-109l72 476h-542l-72 -476h-108l155 1036h108l-69 -466h542l69 466h109z" />
    <glyph glyph-name="glyph337" horiz-adv-x="2003" 
d="M110 907l13 89h170l24 160q19 129 107.5 208.5t211.5 79.5q85 0 145 -20l-28 -93q-56 16 -121 16q-87 0 -141 -52.5t-68 -149.5l-23 -149h416l15 103q25 167 136.5 266t279.5 99q151 0 281 -53l-128 -855h154l370 440h125l-416 -485l277 -511h-125l-245 468h-153
l-71 -468h-107l201 1342q-95 25 -180 25q-251 0 -293 -274l-14 -97h253l-12 -89h-254l-203 -1355h-107l203 1355h-416l-202 -1355h-108l203 1355h-170z" />
    <glyph glyph-name="glyph338" horiz-adv-x="2587" 
d="M109 0l155 1036h612l-14 -92h-503l-56 -374h487l-14 -92h-487l-71 -478h-109zM943 0l155 1036h612l-14 -92h-503l-56 -374h487l-14 -92h-486l-72 -478h-109zM2508 1036h121l-411 -524l273 -512h-128l-247 471h-160l-71 -471h-108l155 1036h108l-71 -473h170z" />
    <glyph glyph-name="uniFB04.sc" horiz-adv-x="2474" 
d="M109 0l155 1036h612l-14 -92h-503l-56 -374h487l-14 -92h-487l-71 -478h-109zM943 0l155 1036h612l-14 -92h-503l-56 -374h487l-14 -92h-486l-72 -478h-109zM2040 1036l-140 -942h490l-14 -94h-599l155 1036h108z" />
    <glyph glyph-name="glyph341" horiz-adv-x="1676" 
d="M946 1149l-23 -153h402l52 278h94l-42 -278h271l-13 -89h-270l-98 -658q-26 -172 131 -172q62 0 136 16l-2 -92q-76 -21 -161 -21q-101 0 -159.5 52t-58.5 156q0 4 0.5 18t6.5 76.5t47 311t51 313.5h-400l-203 -1355h-107l203 1355h-416l-202 -1355h-108l203 1355h-170
l13 89h170l24 160q19 129 107.5 208.5t211.5 79.5q85 0 145 -20l-28 -93q-56 16 -121 16q-87 0 -141 -52.5t-68 -149.5l-23 -149h416l24 163q21 142 109.5 223.5t212.5 81.5q87 0 147 -20l-29 -93q-59 16 -123 16q-179 0 -211 -218z" />
    <glyph glyph-name="glyph342" horiz-adv-x="2497" 
d="M109 0l155 1036h612l-14 -92h-503l-56 -374h487l-14 -92h-487l-71 -478h-109zM943 0l155 1036h612l-14 -92h-503l-56 -374h487l-14 -92h-486l-72 -478h-109zM1972 0l141 944h-335l14 92h779l-13 -92h-335l-141 -944h-110z" />
    <glyph glyph-name="glyph343" horiz-adv-x="1639" 
d="M110 907l13 89h170l15 103q25 167 136.5 266t279.5 99q69 0 145 -14t135 -39l-80 -537q99 66 199 104t185 38q122 0 178.5 -70t36.5 -201l-111 -745h-108l108 722q29 192 -144 192q-73 0 -168.5 -35.5t-187.5 -100.5l-116 -778h-107l200 1342q-95 25 -182 25
q-251 0 -292 -274l-15 -97h254l-14 -89h-253l-202 -1355h-108l203 1355h-170z" />
    <glyph glyph-name="glyph344" horiz-adv-x="1922" 
d="M109 0l155 1036h612l-14 -92h-503l-56 -374h487l-14 -92h-487l-71 -478h-109zM1702 0h-108l71 476h-542l-72 -476h-108l155 1036h108l-69 -466h542l70 466h108z" />
    <glyph glyph-name="glyph345" horiz-adv-x="1480" 
d="M1401 996h125l-416 -485l277 -511h-125l-245 468h-153l-70 -468h-108l201 1342q-95 25 -180 25q-251 0 -292 -274l-15 -97h254l-14 -89h-253l-202 -1355h-108l203 1355h-170l13 89h170l15 103q25 167 136.5 266t279.5 99q69 0 145 -14t135 -39l-128 -855h156z" />
    <glyph glyph-name="glyph346" horiz-adv-x="1753" 
d="M109 0l155 1036h612l-14 -92h-503l-56 -374h487l-14 -92h-487l-71 -478h-109zM1674 1036h122l-411 -524l272 -512h-128l-247 471h-160l-71 -471h-108l155 1036h108l-70 -473h169z" />
    <glyph glyph-name="uniFB02.sc" horiz-adv-x="1640" 
d="M109 0l155 1036h612l-14 -92h-503l-56 -374h487l-14 -92h-487l-71 -478h-109zM1206 1036l-140 -942h490l-14 -94h-599l155 1036h108z" />
    <glyph glyph-name="glyph349" horiz-adv-x="1199" 
d="M110 907l13 89h170l24 163q21 142 109.5 223.5t212.5 81.5q87 0 147 -20l-28 -93q-60 16 -123 16q-180 0 -212 -218l-23 -153h402l52 278h93l-40 -278h269l-12 -89h-269l-98 -658q-27 -172 130 -172q62 0 136 16l-1 -92q-76 -21 -162 -21q-116 0 -174 63.5t-39 192.5
l100 671h-400l-202 -1355h-108l203 1355h-170z" />
    <glyph glyph-name="glyph350" horiz-adv-x="1662" 
d="M109 0l155 1036h612l-14 -92h-503l-56 -374h487l-14 -92h-487l-71 -478h-109zM1139 0l140 944h-334l13 92h780l-14 -92h-335l-141 -944h-109z" />
    <glyph glyph-name="glyph351" horiz-adv-x="1697" 
d="M907 996h439l52 278h94l-41 -278h270l-13 -89h-269l-98 -658q-27 -172 131 -172q60 0 136 16l-2 -92q-76 -21 -162 -21q-101 0 -159 52t-58 156q0 82 48.5 375t56.5 344h-437l-100 -669q-24 -161 121 -161q62 0 136 16l-2 -92q-76 -21 -162 -21q-96 0 -151.5 49.5
t-55.5 148.5q0 59 9 154t48 303t49 272h-400l-202 -1355h-108l203 1355h-170l13 89h170l23 152q21 140 109 222t212 82q87 0 147 -20l-28 -93q-68 16 -123 16q-178 0 -212 -218l-21 -141h402l50 262h93z" />
    <glyph glyph-name="glyph352" horiz-adv-x="2492" 
d="M109 0l155 1036h612l-14 -92h-503l-56 -374h487l-14 -92h-487l-71 -478h-109zM1139 0l140 944h-334l13 92h780l-14 -92h-335l-141 -944h-109zM1967 0l141 944h-335l15 92h778l-13 -92h-335l-141 -944h-110z" />
    <glyph glyph-name="five.tnum" 
d="M975 437q0 -140 -58 -239t-171.5 -158.5t-279.5 -59.5q-181 0 -330 45l36 94q156 -39 303 -39q128 0 213.5 43t130 119t44.5 185q0 128 -84.5 190.5t-235.5 62.5h-260l129 674h635l-15 -96h-537l-93 -483h170q189 0 296 -87t107 -251z" />
    <glyph glyph-name="uniF735.tnum" 
d="M953 287q0 -140 -58 -239t-171.5 -158.5t-279.5 -59.5q-181 0 -330 45l36 94q156 -39 303 -39q128 0 213.5 43t130 119t44.5 185q0 128 -84.5 190.5t-235.5 62.5h-260l129 674h635l-15 -96h-537l-93 -483h170q189 0 296 -87t107 -251z" />
    <glyph glyph-name="florin.tnum" 
d="M321 634l13 88h241l110 347q46 144 143.5 224.5t230.5 80.5q86 0 154 -22l-38 -93q-75 18 -134 18q-182 0 -252 -218l-107 -337h276l-13 -88h-292l-256 -802q-47 -146 -141.5 -223t-227.5 -77q-81 0 -149 22l38 93q72 -18 131 -18q178 0 245 214l253 791h-225z" />
    <glyph glyph-name="florin.aalt" horiz-adv-x="1017" 
d="M234 634l24 88h230l111 347q46 145 143.5 225t231.5 80q85 0 153 -22l-41 -93q-72 18 -131 18q-181 0 -250 -218l-107 -337h276l-23 -88h-283l-162 -507q-46 -145 -143.5 -225t-230.5 -80q-86 0 -154 22l42 93q72 -18 132 -18q179 0 249 218l158 497h-225z" />
    <glyph glyph-name="florin.aalt.tnum" 
d="M348 634l23 88h231l110 347q46 145 143.5 225t231.5 80q85 0 153 -22l-41 -93q-72 18 -132 18q-180 0 -249 -218l-107 -337h276l-24 -88h-282l-162 -507q-45 -145 -142.5 -225t-231.5 -80q-84 0 -154 22l42 93q72 -18 131 -18q180 0 250 218l158 497h-224z" />
    <glyph glyph-name="glyph361" horiz-adv-x="2301" 
d="M200 945v71h295v-71h-112v-302h-80v302h-103zM449 643v253h81v-253h-81zM594 547v349h65l9 -24l8 7q6 7 23 14.5t35 7.5q48 0 75.5 -35.5t27.5 -93.5q0 -59 -33 -96t-88 -37q-23 0 -40 10v-102h-82zM676 826v-117q9 -9 30 -9q23 0 35.5 19t12.5 50t-12 50t-34 19
q-20 0 -32 -12zM1002 901q62 0 95 -36.5t33 -92.5q0 -61 -35 -97t-96 -36q-57 0 -91 35.5t-34 92.5q0 58 33.5 96t94.5 38zM1001 843q-45 0 -45 -71q0 -75 46 -75q45 0 45 72q0 74 -46 74zM1593 547v349h66l8 -24l7 7q7 7 24.5 14.5t35.5 7.5q47 0 75 -35.5t28 -93.5
q0 -59 -33.5 -96t-87.5 -37q-24 0 -42 10v-102h-81zM1674 826v-117q16 -9 33 -9q16 0 31 15t15 54q0 69 -46 69q-19 0 -33 -12zM1078 945v71h283v-71h-101v-302h-81v302h-101zM1386 659l-89 237h89l51 -173h3l41 173h88l-80 -257q-19 -54 -48.5 -78t-77.5 -24q-31 0 -60 13
l9 59q30 -6 46 -6q31 0 37 29zM2093 754h-139q4 -49 55 -49q37 0 69 13l17 -58q-39 -21 -95 -21q-58 0 -93 35.5t-35 92.5q0 58 33.5 96t94.5 38q46 0 73.5 -26.5t27.5 -68.5q0 -33 -8 -52zM1954 797h70q4 20 -4.5 33t-25.5 13q-35 0 -40 -46zM321 426h9l38 -102l37 106h12
l-43 -119h-12l-37 101l-38 -101h-10l-43 119h12l37 -106zM508 426h10l39 -102l35 106h12l-42 -119h-11l-38 101l-36 -101h-11l-43 119h10l38 -106zM697 426h9l38 -102l38 106h11l-43 -119h-12l-37 101l-37 -101h-10l-44 119h12l37 -106zM806 326q6 0 6 -8q0 -10 -8 -10
q-7 0 -7 9t9 9zM831 423v7h91v-7h-39v-112h-11v112h-41zM945 311v119h11v-119h-11zM1006 311h-10v119h36q43 0 43 -35q0 -12 -9.5 -24t-34.5 -12h-25v-48zM1031 423h-25v-56h26q14 0 23 7.5t9 19.5q0 29 -33 29zM1091 370q0 27 17 45t43 18t42 -18t16 -45t-16.5 -44.5
t-43.5 -17.5q-24 0 -41 18t-17 44zM1198 369q0 25 -13.5 39.5t-35.5 14.5q-20 0 -33 -14t-13 -38t13 -38.5t35 -14.5q20 0 33.5 13.5t13.5 37.5zM1218 423v7h91v-7h-40v-112h-10v112h-41zM1360 311v46l-45 73h11l40 -65l40 65h11l-46 -73v-46h-11zM1450 311h-10v119h37
q42 0 42 -35q0 -12 -9.5 -24t-33.5 -12h-26v-48zM1476 423h-26v-56h27q31 0 31 27q0 29 -32 29zM1616 430v-7h-61v-48h59v-9h-59v-47h63v-8h-73v119h71zM1655 326q8 0 8 -8q0 -10 -8 -10t-8 9t8 9zM1751 433l27 -6l-3 -7l-25 3q-22 0 -35.5 -13.5t-13.5 -38.5
q0 -24 14 -38.5t40 -14.5l25 4l3 -8l-30 -6q-28 0 -46 18t-18 44q0 28 17 45.5t45 17.5zM1800 370q0 28 16 45.5t43 17.5q25 0 42 -18t17 -45q0 -26 -17 -44t-43 -18q-25 0 -41.5 18t-16.5 44zM1906 369q0 25 -13.5 39.5t-34.5 14.5t-34.5 -14t-13.5 -38t13.5 -38.5
t35.5 -14.5q20 0 33.5 13.5t13.5 37.5zM1948 311v119h15l50 -90l48 90h16v-119h-11v108l-49 -91h-8l-50 91v-108h-11z" />
    <glyph glyph-name="four.tnum" 
d="M882 1354h107l-137 -912h209l-14 -94h-210l-51 -348h-108l52 348h-599l13 90zM266 442h480l109 734z" />
    <glyph glyph-name="uniF734.tnum" 
d="M854 1204h106l-136 -911h209l-14 -94h-210l-52 -349h-107l52 349h-599l13 90zM238 293h479l110 732z" />
    <glyph glyph-name="uni2074.aalt" horiz-adv-x="602" 
d="M483 1196h98l-67 -457h130l-13 -86h-131l-24 -160h-102l24 160h-327l13 81l399 461v1zM197 737h218l45 307z" />
    <glyph glyph-name="fraction.aalt" horiz-adv-x="997" 
d="M125 554l13 88h804l-14 -88h-803z" />
    <glyph glyph-name="franc.tnum" 
d="M101 252l14 91h192l151 1011h718l-15 -96h-607l-79 -525h588l-14 -96h-588l-44 -294h337l-14 -91h-337l-38 -252h-109l38 252h-193z" />
    <glyph glyph-name="franc.aalt" horiz-adv-x="1065" 
d="M82 222l14 91h168l132 883h670l-14 -95h-566l-67 -448h548l-14 -94h-547l-37 -246h324l-14 -91h-324l-33 -222h-105l33 222h-168z" />
    <glyph glyph-name="franc.aalt.tnum" 
d="M137 222l13 91h169l131 883h671l-15 -95h-566l-66 -448h548l-15 -94h-547l-37 -246h324l-13 -91h-325l-33 -222h-105l34 222h-168z" />
    <glyph glyph-name="g.salt" horiz-adv-x="936" 
d="M159 696q7 48 33 102t76 102t123.5 82t162.5 34q85 0 142 -35.5t87 -99.5t25 -150q21 130 9 285l108 -20q-5 -188 -52 -344t-155 -248t-261 -92q-63 0 -120 19q-101 -68 -101 -133q0 -34 23.5 -53.5t65.5 -19.5h227q119 0 196.5 -68.5t77.5 -185.5q0 -55 -21 -113.5
t-71 -108.5t-128.5 -83.5t-178.5 -33.5h-132q-132 0 -210 62.5t-78 173.5q0 172 199 287q-34 16 -54 47.5t-20 69.5q0 97 137 190q-68 43 -100.5 115t-19.5 158zM261 690l-7 -48q-16 -104 43.5 -171t172.5 -67q136 0 215 82t79 213q0 95 -54.5 160.5t-161.5 65.5
q-112 0 -192 -67t-95 -168zM398 31l-105 1q-88 -44 -136 -106t-48 -136q0 -78 58.5 -121t151.5 -43h110q93 0 157 29.5t97.5 81t33.5 125.5q0 73 -48 121t-149 48h-122z" />
    <glyph glyph-name="g.sc" horiz-adv-x="932" 
d="M847 490l-68 -453q-64 -26 -150 -41.5t-171 -15.5q-124 0 -206 46.5t-117.5 120.5t-20.5 171l58 394q15 99 74 174t159.5 122.5t233.5 47.5q154 0 280 -56l-41 -87q-121 47 -247 47q-143 0 -238.5 -69t-113.5 -186l-57 -381q-18 -116 54 -182.5t206 -66.5q97 0 204 28
l58 387h103z" />
    <glyph glyph-name="gbreve.sc" horiz-adv-x="932" 
d="M847 490l-68 -453q-64 -26 -150 -41.5t-171 -15.5q-124 0 -206 46.5t-117.5 120.5t-20.5 171l58 394q15 99 74 174t159.5 122.5t233.5 47.5q154 0 280 -56l-41 -87q-121 47 -247 47q-143 0 -238.5 -69t-113.5 -186l-57 -381q-18 -116 54 -182.5t206 -66.5q97 0 204 28
l58 387h103zM424 1399h95q-6 -60 25.5 -98t95.5 -38q62 0 105.5 38t56.5 98h94q-15 -99 -90 -162.5t-180 -63.5t-161 63.5t-41 162.5z" />
    <glyph glyph-name="gcaron.sc" horiz-adv-x="932" 
d="M847 490l-68 -453q-64 -26 -150 -41.5t-171 -15.5q-124 0 -206 46.5t-117.5 120.5t-20.5 171l58 394q15 99 74 174t159.5 122.5t233.5 47.5q154 0 280 -56l-41 -87q-121 47 -247 47q-143 0 -238.5 -69t-113.5 -186l-57 -381q-18 -116 54 -182.5t206 -66.5q97 0 204 28
l58 387h103zM598 1151l-183 249l96 34l131 -183l186 183l85 -34l-257 -249h-58z" />
    <glyph glyph-name="gcircumflex.sc" horiz-adv-x="932" 
d="M847 490l-68 -453q-64 -26 -150 -41.5t-171 -15.5q-124 0 -206 46.5t-117.5 120.5t-20.5 171l58 394q15 99 74 174t159.5 122.5t233.5 47.5q154 0 280 -56l-41 -87q-121 47 -247 47q-143 0 -238.5 -69t-113.5 -186l-57 -381q-18 -116 54 -182.5t206 -66.5q97 0 204 28
l58 387h103zM695 1439l179 -249l-95 -34l-127 183l-182 -183l-85 34l253 249h57z" />
    <glyph glyph-name="gcommaaccent.sc" horiz-adv-x="932" 
d="M847 490l-68 -453q-64 -26 -150 -41.5t-171 -15.5q-124 0 -206 46.5t-117.5 120.5t-20.5 171l58 394q15 99 74 174t159.5 122.5t233.5 47.5q154 0 280 -56l-41 -87q-121 47 -247 47q-143 0 -238.5 -69t-113.5 -186l-57 -381q-18 -116 54 -182.5t206 -66.5q97 0 204 28
l58 387h103zM390 -117h108l-11 -70q-13 -89 -61.5 -171.5t-102.5 -131.5h-90q51 57 92 135.5t52 155.5z" />
    <glyph glyph-name="gdotaccent.sc" horiz-adv-x="932" 
d="M847 490l-68 -453q-64 -26 -150 -41.5t-171 -15.5q-124 0 -206 46.5t-117.5 120.5t-20.5 171l58 394q15 99 74 174t159.5 122.5t233.5 47.5q154 0 280 -56l-41 -87q-121 47 -247 47q-143 0 -238.5 -69t-113.5 -186l-57 -381q-18 -116 54 -182.5t206 -66.5q97 0 204 28
l58 387h103zM566 1266q0 39 24.5 63.5t62.5 24.5q31 0 48 -17t17 -46q0 -40 -24 -64t-63 -24q-31 0 -48 16.5t-17 46.5z" />
    <glyph glyph-name="germandbls.sc" horiz-adv-x="1690" 
d="M745 308q0 -159 -106.5 -243.5t-300.5 -84.5q-166 0 -303 52l36 93q132 -49 271 -49q143 0 218 49.5t75 166.5q0 63 -39 102.5t-127 64.5l-156 44q-70 19 -113.5 73.5t-43.5 152.5q0 147 106 237t274 90q136 0 274 -46l-32 -94q-125 44 -249 44q-123 0 -194.5 -54.5
t-71.5 -164.5q0 -118 125 -154l156 -43q91 -25 146 -79.5t55 -156.5zM1590 308q0 -159 -106.5 -243.5t-300.5 -84.5q-166 0 -303 52l36 93q132 -49 271 -49q143 0 218 49.5t75 166.5q0 55 -33.5 96.5t-132.5 70.5l-156 44q-70 19 -113.5 73.5t-43.5 152.5q0 147 106 237
t274 90q136 0 274 -46l-32 -94q-125 44 -249 44q-123 0 -194.5 -54.5t-71.5 -164.5q0 -118 125 -154l156 -43q91 -25 146 -79.5t55 -156.5z" />
    <glyph glyph-name="glyph390" horiz-adv-x="607" 
d="M593 1204l-63 -63l-254 234l82 78z" />
    <glyph glyph-name="greater.tnum" 
d="M943 677l-571 -433l-63 69l481 364l-372 364l83 69z" />
    <glyph glyph-name="greater.aalt" horiz-adv-x="927" 
d="M788 599l-571 -433l-63 69l481 364l-372 364l83 69z" />
    <glyph glyph-name="greater.aalt.tnum" 
d="M931 599l-571 -433l-63 69l482 364l-373 364l83 69z" />
    <glyph glyph-name="greaterequal.tnum" 
d="M843 174l-14 -95h-556l15 95h555zM964 821l-571 -433l-63 69l482 364l-373 364l83 69z" />
    <glyph glyph-name="greaterequal.aalt" horiz-adv-x="927" 
d="M692 117l-14 -96h-556l14 96h556zM812 762l-571 -433l-63 70l482 363l-373 364l84 69z" />
    <glyph glyph-name="greaterequal.aalt.tnum" 
d="M835 117l-14 -96h-556l14 96h556zM955 762l-570 -433l-63 70l481 363l-373 364l84 69z" />
    <glyph glyph-name="h.sc" horiz-adv-x="1088" 
d="M869 0h-109l71 476h-542l-71 -476h-109l155 1036h109l-70 -466h542l70 466h109z" />
    <glyph glyph-name="hbar.sc" horiz-adv-x="1139" 
d="M105 757l13 90h143l29 189h108l-29 -189h542l29 189h109l-29 -189h144l-14 -90h-143l-113 -757h-109l71 476h-542l-71 -476h-108l113 757h-143zM328 570h542l28 187h-542z" />
    <glyph glyph-name="hcircumflex.sc" horiz-adv-x="1088" 
d="M869 0h-109l71 476h-542l-71 -476h-109l155 1036h109l-70 -466h542l70 466h109zM733 1439l178 -249l-95 -34l-127 183l-182 -183l-85 34l253 249h58z" />
    <glyph glyph-name="glyph412" horiz-adv-x="790" 
d="M322 1139l-67 35l201 308l88 -45zM596 1139l-66 37l207 305l87 -47z" />
    <glyph glyph-name="i.aalt" horiz-adv-x="443" 
d="M262 996h107l-149 -996h-107zM281 1266q0 39 24.5 63.5t62.5 24.5q31 0 48 -17t17 -46q0 -40 -24 -64t-63 -24q-30 0 -47.5 17t-17.5 46z" />
    <glyph glyph-name="i.sc" horiz-adv-x="437" 
d="M373 1036l-155 -1036h-109l155 1036h109z" />
    <glyph glyph-name="iacute.sc" horiz-adv-x="437" 
d="M373 1036l-155 -1036h-109l155 1036h109zM258 1141l-44 63l309 249l59 -78z" />
    <glyph glyph-name="ibreve.sc" horiz-adv-x="437" 
d="M373 1036l-155 -1036h-109l155 1036h109zM137 1399h95q-6 -60 26 -98t95 -38t106.5 38.5t54.5 97.5h95q-15 -99 -90 -162.5t-180 -63.5t-161 63.5t-41 162.5z" />
    <glyph glyph-name="icircumflex.sc" horiz-adv-x="437" 
d="M373 1036l-155 -1036h-109l155 1036h109zM408 1439l178 -249l-95 -34l-127 183l-182 -183l-85 34l253 249h58z" />
    <glyph glyph-name="idieresis.sc" horiz-adv-x="437" 
d="M373 1036l-155 -1036h-109l155 1036h109zM441 1266q0 39 24 63.5t63 24.5q30 0 47 -17t17 -46q0 -40 -24 -64t-63 -24q-30 0 -47 16.5t-17 46.5zM117 1266q0 39 24.5 63.5t62.5 24.5q31 0 48 -17t17 -46q0 -40 -24 -64t-63 -24q-30 0 -47.5 17t-17.5 46z" />
    <glyph glyph-name="i.aalt.sc" horiz-adv-x="437" 
d="M373 1036l-155 -1036h-109l155 1036h109zM278 1266q0 39 24.5 63.5t63.5 24.5q30 0 47.5 -17t17.5 -46q0 -40 -24.5 -64t-63.5 -24q-30 0 -47.5 17t-17.5 46z" />
    <glyph glyph-name="uni1ECB.sc" horiz-adv-x="437" 
d="M373 1036l-155 -1036h-109l155 1036h109zM45 -296q0 39 24.5 63.5t62.5 24.5q31 0 48 -16.5t17 -46.5q0 -39 -24.5 -63.5t-62.5 -24.5q-31 0 -48 17t-17 46z" />
    <glyph glyph-name="igrave.sc" horiz-adv-x="437" 
d="M373 1036l-155 -1036h-109l155 1036h109zM473 1204l-64 -63l-254 234l83 78z" />
    <glyph glyph-name="ij.sc" horiz-adv-x="859" 
d="M373 1036l-155 -1036h-109l155 1036h109zM685 1036h109l-153 -1019q-16 -109 -79 -192t-219 -158l-37 72q106 58 159.5 120.5t67.5 157.5z" />
    <glyph glyph-name="glyph432" horiz-adv-x="907" 
d="M270 996h108l-149 -996h-108zM279 1121l-44 63l335 269l57 -77zM727 1121l-44 63l335 269l58 -77zM717 996h108l-187 -1249q-32 -215 -240 -215q-64 0 -113 20l27 86q42 -14 97 -14q49 0 81 32.5t42 98.5z" />
    <glyph glyph-name="glyph433" horiz-adv-x="859" 
d="M373 1036l-155 -1036h-109l155 1036h109zM258 1141l-44 63l309 249l59 -78zM680 1141l-45 63l310 249l59 -78zM685 1036h109l-153 -1019q-16 -109 -79 -192t-219 -158l-37 72q106 58 159.5 120.5t67.5 157.5z" />
    <glyph glyph-name="imacron.sc" horiz-adv-x="437" 
d="M373 1036l-155 -1036h-109l155 1036h109zM97 1232l13 91h502l-13 -91h-502z" />
    <glyph glyph-name="iogonek.sc" horiz-adv-x="437" 
d="M373 1036l-155 -1036q-247 -139 -247 -283q0 -45 27.5 -69t72.5 -24q57 0 110 20l5 -85q-72 -28 -143 -28q-74 0 -124.5 40.5t-50.5 116.5q0 164 257 323l-1 88l140 937h109z" />
    <glyph glyph-name="itilde.sc" horiz-adv-x="437" 
d="M373 1036l-155 -1036h-109l155 1036h109zM264 1368q43 0 106 -37.5t94 -37.5q60 0 128 74l54 -46q-96 -123 -199 -123q-43 0 -106 37.5t-93 37.5q-28 0 -57 -15t-72 -59l-53 45q92 124 198 124z" />
    <glyph glyph-name="j.sc" horiz-adv-x="437" 
d="M264 1036h108l-152 -1019q-16 -109 -79 -192t-219 -158l-37 72q106 58 159.5 120.5t67.5 157.5z" />
    <glyph glyph-name="jcircumflex.sc" horiz-adv-x="437" 
d="M264 1036h108l-152 -1019q-16 -109 -79 -192t-219 -158l-37 72q106 58 159.5 120.5t67.5 157.5zM416 1439l178 -249l-95 -34l-127 183l-183 -183l-84 34l253 249h58z" />
    <glyph glyph-name="k.sc" horiz-adv-x="920" 
d="M841 1036h121l-412 -524l272 -512h-126l-248 471h-160l-70 -471h-109l155 1036h109l-71 -473h169z" />
    <glyph glyph-name="kcommaaccent.sc" horiz-adv-x="920" 
d="M841 1036h121l-412 -524l272 -512h-126l-248 471h-160l-70 -471h-109l155 1036h109l-71 -473h169zM353 -117h108l-10 -70q-14 -89 -62.5 -171.5t-102.5 -131.5h-90q51 57 92 135.5t53 155.5z" />
    <glyph glyph-name="kgreenlandic.sc" horiz-adv-x="920" 
d="M841 1036h121l-412 -524l272 -512h-126l-248 471h-160l-70 -471h-109l155 1036h109l-71 -473h169z" />
    <glyph glyph-name="l.sc" horiz-adv-x="806" 
d="M373 1036l-142 -942h491l-14 -94h-599l155 1036h109z" />
    <glyph glyph-name="lacute.sc" horiz-adv-x="806" 
d="M373 1036l-142 -942h491l-14 -94h-599l155 1036h109zM291 1141l-43 63l308 249l60 -78z" />
    <glyph glyph-name="lcaron.sc" horiz-adv-x="806" 
d="M673 1175h110l-79 -464h-90zM373 1036l-142 -942h491l-14 -94h-599l155 1036h109z" />
    <glyph glyph-name="lcommaaccent.sc" horiz-adv-x="806" 
d="M373 1036l-142 -942h491l-14 -94h-599l155 1036h109zM338 -117h108l-10 -70q-13 -89 -61.5 -172t-103.5 -131h-90q52 57 93 135.5t52 155.5z" />
    <glyph glyph-name="ldot.sc" horiz-adv-x="806" 
d="M373 1036l-142 -942h491l-14 -94h-599l155 1036h109zM532 552q0 40 24 64.5t63 24.5q31 0 48 -17t17 -47q0 -39 -24 -63.5t-63 -24.5q-30 0 -47.5 17t-17.5 46z" />
    <glyph glyph-name="less.tnum" 
d="M314 677l571 433l63 -69l-482 -364l373 -364l-84 -69z" />
    <glyph glyph-name="less.aalt" horiz-adv-x="926" 
d="M208 599l571 433l63 -69l-482 -364l373 -364l-84 -69z" />
    <glyph glyph-name="less.aalt.tnum" 
d="M302 599l571 433l63 -69l-482 -364l373 -364l-84 -69z" />
    <glyph glyph-name="lessequal.tnum" 
d="M248 79l15 95h556l-15 -95h-556zM335 821l571 433l63 -69l-481 -364l372 -364l-84 -69z" />
    <glyph glyph-name="lessequal.aalt" horiz-adv-x="927" 
d="M145 21l14 96h556l-14 -96h-556zM232 762l571 433l63 -69l-482 -364l373 -363l-83 -70z" />
    <glyph glyph-name="lessequal.aalt.tnum" 
d="M239 21l15 96h555l-14 -96h-556zM327 762l570 433l63 -69l-482 -364l374 -363l-84 -70z" />
    <glyph glyph-name="lira.tnum" horiz-adv-x="1158" 
d="M93 -20l14 96q111 0 169 44.5t73 146.5l35 236h-194l14 92h721l-14 -92h-418l-36 -238q-19 -130 -111 -189h627l-14 -96h-866zM228 757l14 92h194l18 121q19 127 78.5 215.5t153 138.5t215.5 50q138 0 257 -43l-31 -94q-132 37 -241 37q-278 0 -325 -311l-17 -114h418
l-13 -92h-721z" />
    <glyph glyph-name="lira.aalt" horiz-adv-x="1118" 
d="M82 -20l13 95q101 0 154.5 41.5t67.5 137.5l28 184h-149l14 92h655l-14 -92h-402l-28 -186q-18 -122 -97 -177h577l-14 -95h-805zM230 666l14 91h149l11 78q18 121 74.5 204t145 130t203.5 47q118 0 236 -41l-31 -94q-118 36 -220 36q-124 0 -203 -70.5t-101 -218.5
l-11 -71h402l-13 -91h-656z" />
    <glyph glyph-name="lira.aalt.tnum" 
d="M126 -20l13 95q102 0 154.5 41.5t67.5 137.5l27 184h-149l14 92h655l-13 -92h-402l-29 -186q-18 -122 -97 -177h577l-14 -95h-804zM274 666l14 91h148l12 78q18 120 74 203.5t145 130.5t204 47q118 0 236 -41l-31 -94q-118 36 -220 36q-125 0 -204 -70.5t-101 -218.5
l-11 -71h402l-14 -91h-654z" />
    <glyph glyph-name="logicalnot.tnum" 
d="M241 630l14 95h760l-55 -365h-96l41 270h-664z" />
    <glyph glyph-name="logicalnot.aalt" horiz-adv-x="1108" 
d="M201 552l15 95h759l-54 -365h-96l40 270h-664z" />
    <glyph glyph-name="logicalnot.aalt.tnum" 
d="M229 552l14 95h760l-55 -365h-95l40 270h-664z" />
    <glyph glyph-name="lslash.sc" horiz-adv-x="815" 
d="M380 1036l-59 -399l221 114l30 -82l-266 -135l-66 -440h491l-15 -94h-599l72 479l-137 -72l-30 82l183 93l67 454h108z" />
    <glyph glyph-name="m.sc" horiz-adv-x="1329" 
d="M589 130l-17 51l-230 678l-128 -859h-105l155 1036h122l262 -775l493 775h123l-155 -1036h-105l129 860l-431 -678l-33 -52h-80z" />
    <glyph glyph-name="glyph481" horiz-adv-x="753" 
d="M254 1232l14 91h502l-14 -91h-502z" />
    <glyph glyph-name="minus.tnum" 
d="M274 630l14 95h694l-14 -95h-694z" />
    <glyph glyph-name="minus.aalt" horiz-adv-x="1042" 
d="M201 551l15 95h693l-14 -95h-694z" />
    <glyph glyph-name="minus.aalt.tnum" 
d="M262 551l14 95h694l-14 -95h-694z" />
    <glyph glyph-name="uni00B5.tnum" 
d="M913 0h-90l10 126q-95 -68 -192.5 -107t-179.5 -39q-100 0 -151 57l-7 -49q-21 -138 -94.5 -226.5t-219.5 -162.5l-38 76q115 66 172.5 135.5t73.5 176.5l150 1009h108l-108 -722q-29 -192 142 -192q71 0 164.5 35t184.5 100l116 779h108z" />
    <glyph glyph-name="uni00B5.aalt" horiz-adv-x="1057" 
d="M826 0h-90l10 126q-95 -68 -192.5 -107t-179.5 -39q-100 0 -151 57l-7 -49q-21 -138 -94.5 -226.5t-219.5 -162.5l-38 76q115 66 172.5 135.5t73.5 176.5l150 1009h108l-108 -722q-29 -192 142 -192q71 0 164.5 35t184.5 100l116 779h108z" />
    <glyph glyph-name="uni00B5.aalt.tnum" 
d="M892 0h-90l10 126q-95 -68 -192.5 -107t-179.5 -39q-100 0 -151 57l-7 -49q-21 -138 -94.5 -226.5t-219.5 -162.5l-38 76q115 66 172.5 135.5t73.5 176.5l150 1009h108l-108 -722q-29 -192 142 -192q71 0 164.5 35t184.5 100l116 779h108z" />
    <glyph glyph-name="multiply.tnum" 
d="M944 1021l60 -71l-308 -275l221 -270l-75 -66l-222 270l-308 -276l-60 71l308 275l-221 271l76 66l221 -270z" />
    <glyph glyph-name="multiply.aalt" horiz-adv-x="1018" 
d="M859 942l60 -71l-308 -275l222 -270l-76 -66l-222 270l-309 -275l-59 71l308 274l-221 271l76 67l221 -271z" />
    <glyph glyph-name="multiply.aalt.tnum" 
d="M932 942l60 -71l-308 -275l222 -270l-76 -66l-222 270l-308 -275l-59 71l307 274l-221 271l76 67l222 -271z" />
    <glyph glyph-name="n.sc" horiz-adv-x="1104" 
d="M771 0l-424 868l-130 -868h-108l155 1036h114l424 -870l130 870h108l-155 -1036h-114z" />
    <glyph glyph-name="nacute.sc" horiz-adv-x="1104" 
d="M771 0l-424 868l-130 -868h-108l155 1036h114l424 -870l130 870h108l-155 -1036h-114zM621 1141l-45 63l310 249l59 -78z" />
    <glyph glyph-name="napostrophe.sc" horiz-adv-x="1104" 
d="M311 1603h106l-12 -79q-15 -103 -54 -198t-87 -160h-86q93 163 120 346zM771 0l-424 868l-130 -868h-108l155 1036h114l424 -870l130 870h108l-155 -1036h-114z" />
    <glyph glyph-name="ncaron.sc" horiz-adv-x="1104" 
d="M771 0l-424 868l-130 -868h-108l155 1036h114l424 -870l130 870h108l-155 -1036h-114zM627 1131l-195 269l95 34l144 -203l204 203l85 -34l-275 -269h-58z" />
    <glyph glyph-name="ncommaaccent.sc" horiz-adv-x="1104" 
d="M771 0l-424 868l-130 -868h-108l155 1036h114l424 -870l130 870h108l-155 -1036h-114zM451 -117h108l-10 -70q-14 -89 -62.5 -172t-103.5 -131h-90q51 56 92 134.5t54 156.5z" />
    <glyph glyph-name="uni0272.sc" horiz-adv-x="1104" 
d="M771 0l-424 868l-135 -899q-23 -154 -103 -253.5t-236 -183.5l-37 77q124 74 187 154.5t81 202.5l160 1070h114l424 -870l130 870h108l-155 -1036h-114z" />
    <glyph glyph-name="nine.tnum" horiz-adv-x="1170" 
d="M876 416l35 236q-70 -33 -156 -57t-165 -24q-155 0 -252.5 94t-97.5 255q0 71 24.5 148.5t91.5 153.5t165.5 114t195.5 38q86 0 157.5 -26t119.5 -76.5t67.5 -123.5t6.5 -162l-82 -550q-20 -133 -85.5 -236.5t-183 -161.5t-265.5 -58q-70 0 -149 12t-140 35l35 94
q82 -24 141 -33t124 -9q167 0 278.5 90t134.5 247zM614 670q82 0 165 23t147 56l35 234q13 84 -11.5 148.5t-86.5 105t-162 40.5q-111 0 -189.5 -48t-119 -124.5t-40.5 -177.5q0 -125 67 -191t195 -66z" />
    <glyph glyph-name="uniF739.tnum" horiz-adv-x="1170" 
d="M859 258l35 236q-70 -33 -156 -57t-165 -24q-155 0 -252.5 94t-97.5 255q0 71 24.5 148.5t91.5 153.5t165.5 114t195.5 38q86 0 157.5 -26t119.5 -76.5t67.5 -123.5t6.5 -162l-82 -550q-20 -133 -85.5 -236.5t-183 -161.5t-265.5 -58q-70 0 -149 12t-140 35l35 94
q82 -24 141 -33t124 -9q167 0 278.5 90t134.5 247zM597 512q82 0 165 23t147 56l35 234q13 84 -11.5 148.5t-86.5 105t-162 40.5q-111 0 -189.5 -48t-119 -124.5t-40.5 -177.5q0 -125 67 -191t195 -66z" />
    <glyph glyph-name="notequal.tnum" 
d="M303 775l14 97h388l221 345l73 -37l-197 -308h194l-14 -97h-244l-121 -190h337l-15 -96h-385l-225 -352l-73 37l201 315h-197l14 96h245l122 190h-338z" />
    <glyph glyph-name="notequal.aalt" horiz-adv-x="1027" 
d="M222 695l15 96h388l221 346l73 -37l-197 -309h194l-14 -96h-243l-121 -191h335l-14 -96h-385l-225 -352l-73 38l201 314h-197l14 96h245l122 191h-339z" />
    <glyph glyph-name="notequal.aalt.tnum" 
d="M290 695l15 96h387l223 346l72 -37l-197 -309h195l-14 -96h-245l-121 -191h337l-15 -96h-385l-225 -352l-73 38l201 314h-197l14 96h246l122 191h-340z" />
    <glyph glyph-name="ntilde.sc" horiz-adv-x="1104" 
d="M771 0l-424 868l-130 -868h-108l155 1036h114l424 -870l130 870h108l-155 -1036h-114zM591 1368q43 0 106 -37.5t93 -37.5q61 0 129 74l54 -46q-96 -123 -199 -123q-43 0 -106 37.5t-93 37.5q-59 0 -129 -74l-54 45q95 124 199 124z" />
    <glyph glyph-name="numbersign.tnum" 
d="M181 864l26 91h253l112 399h103l-113 -399h300l113 399h101l-113 -399h248l-26 -91h-248l-106 -379h247l-26 -91h-247l-111 -394h-103l111 394h-298l-111 -394h-102l110 394h-257l25 91h258l106 379h-252zM536 864l-106 -379h298l107 379h-299z" />
    <glyph glyph-name="numbersign.aalt" horiz-adv-x="1400" 
d="M260 763l28 93h234l101 360h102l-103 -360h325l103 360h100l-101 -360h229l-27 -93h-229l-87 -311h226l-27 -93h-226l-100 -359h-102l101 359h-325l-100 -359h-102l101 359h-239l26 93h239l87 311h-234zM596 763l-88 -311h325l88 311h-325z" />
    <glyph glyph-name="numbersign.aalt.tnum" 
d="M180 763l27 93h227l101 360h101l-102 -360h318l101 360h101l-101 -360h220l-27 -93h-221l-86 -311h218l-27 -93h-218l-101 -359h-102l102 359h-317l-101 -359h-102l102 359h-231l27 93h230l88 311h-227zM507 763l-86 -311h316l88 311h-318z" />
    <glyph glyph-name="o.sc" horiz-adv-x="1033" 
d="M111 308l64 420q8 56 36.5 113.5t84 105t137.5 78.5t185 31q61 0 125.5 -14.5t117.5 -52t84.5 -102.5t17.5 -159l-62 -420q-23 -152 -148 -240t-296 -88q-125 0 -207.5 45t-117.5 117t-21 166zM282 722l-61 -399q-16 -114 51.5 -181t198.5 -67t219.5 67.5t104.5 180.5
l58 390q18 113 -50 180.5t-200 67.5q-130 0 -217.5 -64.5t-103.5 -174.5z" />
    <glyph glyph-name="oacute.sc" horiz-adv-x="1033" 
d="M175 728q8 56 36.5 113.5t84 105t137.5 78.5t185 31q61 0 125.5 -14.5t117.5 -52t84.5 -102.5t17.5 -159l-62 -420q-23 -152 -148 -240t-296 -88q-125 0 -207 45t-117.5 117t-21.5 166zM282 722l-61 -399q-16 -114 51.5 -181t198.5 -67t219.5 67.5t104.5 180.5l58 390
q18 113 -50 180.5t-200 67.5q-130 0 -217.5 -64.5t-103.5 -174.5zM533 1141l-45 63l309 249l59 -78z" />
    <glyph glyph-name="obreve.sc" horiz-adv-x="1033" 
d="M175 728q8 56 36.5 113.5t84 105t137.5 78.5t185 31q61 0 125.5 -14.5t117.5 -52t84.5 -102.5t17.5 -159l-62 -420q-23 -152 -148 -240t-296 -88q-125 0 -207 45t-117.5 117t-21.5 166zM282 722l-61 -399q-16 -114 51.5 -181t198.5 -67t219.5 67.5t104.5 180.5l58 390
q18 113 -50 180.5t-200 67.5q-130 0 -217.5 -64.5t-103.5 -174.5zM433 1399h95q-6 -60 26 -98t95 -38t106 38t56 98h94q-14 -99 -89 -162.5t-180 -63.5t-161.5 63.5t-41.5 162.5z" />
    </font>
</defs>
</svg>
