<svg xmlns="http://www.w3.org/2000/svg" xmlns:xlink="http://www.w3.org/1999/xlink" viewBox="0 0 17.71 20.05"><defs><style>.cls-1{fill:url(#linear-gradient);}</style><linearGradient id="linear-gradient" y1="10.02" x2="17.71" y2="10.02" gradientUnits="userSpaceOnUse"><stop offset="0" stop-color="#0994b8"/><stop offset="0.27" stop-color="#0d97b9"/><stop offset="0.53" stop-color="#189fbe"/><stop offset="0.78" stop-color="#2bacc5"/><stop offset="1" stop-color="#42bccd"/></linearGradient></defs><title>logoicon</title><g id="Layer_2" data-name="Layer 2"><g id="Layer_1-2" data-name="Layer 1"><path class="cls-1" d="M15.55,5.9c.57,0,1.05,0,1.35,0l0,.23-1.28,6.72c-.8,4.16-5.26,7.16-9.49,7.16C3.43,20.05.47,18.14,0,15.72c9.58,0,16-4.85,14.83-6.35a4.34,4.34,0,0,0-1.74-1.09c-.58-.23-1.19-.42-1.67-.58l-.25-.09c-.7-.29-1-.66-.21-1A12.16,12.16,0,0,1,15.55,5.9ZM16.17,0H3.9A1.54,1.54,0,0,0,2.38,1.25l-2,10.58v.05C8.23,12.52,10,10,8.5,9.54c-.44-.14-.84-.29-1.18-.43C5.13,8.2,5.12,7.3,7.81,6.3,10.74,5.21,16,5.22,17,5.23l.66-3.4A1.54,1.54,0,0,0,16.17,0Z"/></g></g></svg>