<svg xmlns="http://www.w3.org/2000/svg" xmlns:xlink="http://www.w3.org/1999/xlink" viewBox="0 0 120 44.45"><defs><style>.cls-1{fill:url(#linear-gradient);}.cls-2{fill:#272727;}</style><linearGradient id="linear-gradient" x1="2.62" y1="21.19" x2="15.79" y2="-1.63" gradientUnits="userSpaceOnUse"><stop offset="0" stop-color="#0994b8"/><stop offset="0.27" stop-color="#0d97b9"/><stop offset="0.53" stop-color="#189fbe"/><stop offset="0.78" stop-color="#2bacc5"/><stop offset="1" stop-color="#42bccd"/></linearGradient></defs><title>saferoadlogo</title><g id="Layer_2" data-name="Layer 2"><g id="Layer_1-2" data-name="Layer 1"><path class="cls-1" d="M17.45,6.62c.64,0,1.17,0,1.51,0l-.05.27-1.44,7.53c-.9,4.67-5.9,8-10.65,8-3,0-6.29-2.14-6.82-4.87,10.75,0,18-5.43,16.64-7.12a4.81,4.81,0,0,0-2-1.22C14,9,13.35,8.82,12.82,8.64l-.29-.11c-.79-.32-1.08-.73-.23-1.11A13.88,13.88,0,0,1,17.45,6.62ZM18.15,0H4.37a1.74,1.74,0,0,0-1.7,1.4L.4,13.28v.05c8.85.71,10.84-2.09,9.15-2.63-.5-.16-.95-.32-1.33-.48-2.46-1-2.47-2,.56-3.16,3.28-1.21,9.12-1.2,10.34-1.19l.73-3.82A1.72,1.72,0,0,0,18.15,0Z"/><path class="cls-2" d="M24.32,32.56a5,5,0,0,1-1.59,4A7,7,0,0,1,18.14,38a17.78,17.78,0,0,1-2.49-.19,8.91,8.91,0,0,1-2.26-.58l.84-2.63a10.05,10.05,0,0,0,1.71.46,10.29,10.29,0,0,0,2.11.22,4.77,4.77,0,0,0,2.27-.41A1.65,1.65,0,0,0,21,33.28a1.45,1.45,0,0,0-.56-1.16A7.43,7.43,0,0,0,18,31.17a5.15,5.15,0,0,1-2.38-1.23,3.31,3.31,0,0,1-.75-2.36,4.88,4.88,0,0,1,1.69-3.88A6.5,6.5,0,0,1,21,22.23a15.31,15.31,0,0,1,4.24.54l-.76,2.67a12.74,12.74,0,0,0-3.49-.5,3.85,3.85,0,0,0-2.12.48A1.74,1.74,0,0,0,18.16,27a1.27,1.27,0,0,0,.5,1,7,7,0,0,0,2.25.85,5.61,5.61,0,0,1,2.62,1.34A3.28,3.28,0,0,1,24.32,32.56Z"/><path class="cls-2" d="M26.68,32l.51-3.47a7.07,7.07,0,0,1,2.49-4.65,7.8,7.8,0,0,1,5.07-1.64,13.71,13.71,0,0,1,5.89,1.09L38.51,37.65H35.59l0-1.54a12.5,12.5,0,0,1-2.37,1.35,6.18,6.18,0,0,1-2.44.49,3.92,3.92,0,0,1-2.55-.82A4.34,4.34,0,0,1,26.83,35,6.65,6.65,0,0,1,26.68,32Zm5.64,3a5.54,5.54,0,0,0,3.33-1.24l1.21-8.14a8.21,8.21,0,0,0-2.58-.43A3.58,3.58,0,0,0,31.9,26a4,4,0,0,0-1.25,2.61l-.47,3Q29.7,35,32.32,35Z"/><path class="cls-2" d="M42.57,25.25,43,22.53h2.1l.29-1.94a6.12,6.12,0,0,1,1.84-3.78A5.34,5.34,0,0,1,51,15.42a10,10,0,0,1,2.7.34l-.76,2.76a11.37,11.37,0,0,0-1.73-.2,2.23,2.23,0,0,0-1.63.59,3.41,3.41,0,0,0-.81,2l-.25,1.66H52l-.41,2.72H48.09l-2.87,19.2H41.78l2.87-19.2Z"/><path class="cls-2" d="M51.65,31.73l.48-3.22a8.94,8.94,0,0,1,.65-2.21,6.42,6.42,0,0,1,1.37-2,7.24,7.24,0,0,1,2.22-1.48,7.36,7.36,0,0,1,3-.58,5.87,5.87,0,0,1,3.79,1.15,3.76,3.76,0,0,1,1.44,3.1A5.39,5.39,0,0,1,64.06,29a4.11,4.11,0,0,1-2,1.78,10.56,10.56,0,0,1-4.33.69,17.27,17.27,0,0,1-2.59-.19l-.08.48a2.77,2.77,0,0,0,.54,2.42A3.35,3.35,0,0,0,58.1,35a18.88,18.88,0,0,0,4.52-.61l-.11,2.78a18.18,18.18,0,0,1-5.2.76,7.74,7.74,0,0,1-2.57-.41,4.71,4.71,0,0,1-1.93-1.21,4.3,4.3,0,0,1-1.07-2A6.35,6.35,0,0,1,51.65,31.73Zm3.9-3.42-.12.79a12.74,12.74,0,0,0,2.21.21,5.38,5.38,0,0,0,2.68-.52,2.05,2.05,0,0,0,.89-1.93,1.69,1.69,0,0,0-.59-1.36,2.59,2.59,0,0,0-1.7-.48Q56,25,55.55,28.31Z"/><path class="cls-2" d="M68.45,22.53h1.34l-.25,2.64a12.61,12.61,0,0,1,2.82-2,7.58,7.58,0,0,1,2.92-1l-.23,1.62a7.87,7.87,0,0,0-2.79.92,12.37,12.37,0,0,0-2.81,1.93l-1.62,11H66.19Z"/><path class="cls-2" d="M75.69,32.15,76.3,28a7.79,7.79,0,0,1,.61-2,6.21,6.21,0,0,1,1.32-1.86,7.42,7.42,0,0,1,2.11-1.38,6.88,6.88,0,0,1,2.77-.54,6.33,6.33,0,0,1,2.25.39,4.51,4.51,0,0,1,1.73,1.14,4.12,4.12,0,0,1,1,1.83,5.91,5.91,0,0,1,.1,2.43l-.6,4.13a8,8,0,0,1-.62,2A6,6,0,0,1,85.64,36a6.84,6.84,0,0,1-2.1,1.38,6.76,6.76,0,0,1-2.78.55,6.33,6.33,0,0,1-2.25-.39,4.84,4.84,0,0,1-1.73-1.14,4.37,4.37,0,0,1-1-1.84A5.91,5.91,0,0,1,75.69,32.15Zm2.23-4L77.33,32A4,4,0,0,0,78,35.28,3.63,3.63,0,0,0,81,36.48a4.82,4.82,0,0,0,3.29-1.2A5.27,5.27,0,0,0,86,32l.57-3.88a3.92,3.92,0,0,0-.7-3.25,3.65,3.65,0,0,0-3-1.2,4.83,4.83,0,0,0-3.31,1.2A5.19,5.19,0,0,0,77.92,28.15Z"/><path class="cls-2" d="M90.93,32.05l.58-3.9a6.75,6.75,0,0,1,2.31-4.32,6.85,6.85,0,0,1,4.59-1.6,12,12,0,0,1,2.89.33,8.23,8.23,0,0,1,2.22.86l-2.13,14.23H100l.19-1.95a10.55,10.55,0,0,1-2.52,1.63A6.4,6.4,0,0,1,95,38a3.86,3.86,0,0,1-3.34-1.61A5.72,5.72,0,0,1,90.93,32.05Zm4.68,4.4A5.55,5.55,0,0,0,98,35.81a8.28,8.28,0,0,0,2.23-1.55l1.48-9.86a8.9,8.9,0,0,0-3.56-.7,4.82,4.82,0,0,0-3.43,1.23,5.56,5.56,0,0,0-1.64,3.32l-.55,3.67A4.8,4.8,0,0,0,93,35.24,2.82,2.82,0,0,0,95.61,36.45Z"/><path class="cls-2" d="M116.72,37.65h-1.36l.16-1.82A11.62,11.62,0,0,1,113,37.36a6.62,6.62,0,0,1-2.64.59A3.86,3.86,0,0,1,107,36.34a5.72,5.72,0,0,1-.76-4.29l.58-3.9a6.75,6.75,0,0,1,2.31-4.32,6.86,6.86,0,0,1,4.6-1.6,11.64,11.64,0,0,1,1.7.15,7.25,7.25,0,0,1,1.86.54l1.1-7.19H120Zm-5.78-1.2a5.67,5.67,0,0,0,2.4-.61,7.71,7.71,0,0,0,2.24-1.5l1.49-9.9a8.72,8.72,0,0,0-3.55-.74,4.82,4.82,0,0,0-3.43,1.23,5.56,5.56,0,0,0-1.64,3.32l-.55,3.67a4.86,4.86,0,0,0,.44,3.32A2.82,2.82,0,0,0,110.94,36.45Z"/></g></g></svg>