<svg xmlns="http://www.w3.org/2000/svg" xmlns:xlink="http://www.w3.org/1999/xlink" viewBox="0 0 46 46"><defs><style>.cls-1{fill:url(#linear-gradient);}.cls-2{fill:#fff;}</style><linearGradient id="linear-gradient" x1="8.77" y1="47.64" x2="37.23" y2="-1.64" gradientUnits="userSpaceOnUse"><stop offset="0" stop-color="#0994b8"/><stop offset="0.27" stop-color="#0d97b9"/><stop offset="0.53" stop-color="#189fbe"/><stop offset="0.78" stop-color="#2bacc5"/><stop offset="1" stop-color="#42bccd"/></linearGradient></defs><title>saferoad icon logo</title><g id="Layer_2" data-name="Layer 2"><g id="Layer_1-2" data-name="Layer 1"><rect class="cls-1" width="46" height="46" rx="8.11"/><path class="cls-2" d="M32.62,17.07c.82,0,1.51,0,1.94.05l-.06.35-1.85,9.65c-1.15,6-7.56,10.29-13.64,10.29-3.81,0-8.07-2.74-8.74-6.23,13.77,0,23-7,21.32-9.12a6.15,6.15,0,0,0-2.51-1.57c-.84-.33-1.71-.6-2.39-.83l-.37-.14c-1-.41-1.38-.93-.29-1.42A17.69,17.69,0,0,1,32.62,17.07Zm.9-8.48H15.87a2.22,2.22,0,0,0-2.18,1.8L10.78,25.6l0,.07C22.1,26.58,24.65,23,22.49,22.3c-.64-.2-1.21-.41-1.7-.61-3.15-1.31-3.17-2.61.71-4.05,4.21-1.56,11.69-1.55,13.25-1.53l.94-4.89A2.21,2.21,0,0,0,33.52,8.59Z"/></g></g></svg>